%TF.GenerationSoftware,KiCad,Pcbnew,9.0.0*%
%TF.CreationDate,2025-06-04T23:48:02+02:00*%
%TF.ProjectId,uv_controler,75765f63-6f6e-4747-926f-6c65722e6b69,rev?*%
%TF.SameCoordinates,Original*%
%TF.FileFunction,Copper,L1,Top*%
%TF.FilePolarity,Positive*%
%FSLAX46Y46*%
G04 Gerber Fmt 4.6, Leading zero omitted, Abs format (unit mm)*
G04 Created by KiCad (PCBNEW 9.0.0) date 2025-06-04 23:48:02*
%MOMM*%
%LPD*%
G01*
G04 APERTURE LIST*
%TA.AperFunction,ComponentPad*%
%ADD10O,1.700000X1.700000*%
%TD*%
%TA.AperFunction,ComponentPad*%
%ADD11R,1.700000X1.700000*%
%TD*%
%TA.AperFunction,ComponentPad*%
%ADD12C,5.600000*%
%TD*%
%TA.AperFunction,ComponentPad*%
%ADD13C,1.750000*%
%TD*%
%TA.AperFunction,ComponentPad*%
%ADD14C,2.100000*%
%TD*%
%TA.AperFunction,ComponentPad*%
%ADD15C,1.700000*%
%TD*%
%TA.AperFunction,Conductor*%
%ADD16C,0.200000*%
%TD*%
%TA.AperFunction,Conductor*%
%ADD17C,0.500000*%
%TD*%
G04 APERTURE END LIST*
D10*
%TO.P,J2,10,Pin_10*%
%TO.N,Net-(J2-Pin_10)*%
X129185534Y-98697500D03*
%TO.P,J2,9,Pin_9*%
%TO.N,/UTIL_M*%
X129185534Y-96157500D03*
%TO.P,J2,8,Pin_8*%
%TO.N,/LIGHTS_TOGGLE_M*%
X129185534Y-93617500D03*
%TO.P,J2,7,Pin_7*%
%TO.N,/SPEED_TOGGLE_M*%
X129185534Y-91077500D03*
%TO.P,J2,6,Pin_6*%
%TO.N,/CAM_DOWN_M*%
X129185534Y-88537500D03*
%TO.P,J2,5,Pin_5*%
%TO.N,/CAM_UP_M*%
X129185534Y-85997500D03*
%TO.P,J2,4,Pin_4*%
%TO.N,/DOWN_M*%
X129185534Y-83457500D03*
%TO.P,J2,3,Pin_3*%
%TO.N,/UP_M*%
X129185534Y-80917500D03*
%TO.P,J2,2,Pin_2*%
%TO.N,GND*%
X129185534Y-78377500D03*
D11*
%TO.P,J2,1,Pin_1*%
%TO.N,+5V*%
X129185534Y-75837500D03*
%TD*%
D10*
%TO.P,J1,6,Pin_6*%
%TO.N,/JOY_LEFT_M*%
X99185534Y-93612500D03*
%TO.P,J1,5,Pin_5*%
%TO.N,/JOY_BACKWARD_M*%
X99185534Y-91072500D03*
%TO.P,J1,4,Pin_4*%
%TO.N,/JOY_RIGHT_M*%
X99185534Y-88532500D03*
%TO.P,J1,3,Pin_3*%
%TO.N,/JOY_FORWARD_M*%
X99185534Y-85992500D03*
%TO.P,J1,2,Pin_2*%
%TO.N,GND*%
X99185534Y-83452500D03*
D11*
%TO.P,J1,1,Pin_1*%
%TO.N,+5V*%
X99185534Y-80912500D03*
%TD*%
D12*
%TO.P,REF\u002A\u002A,1*%
%TO.N,N/C*%
X126485534Y-62000000D03*
%TD*%
D13*
%TO.P,SW1,2,2*%
%TO.N,GND*%
X111960534Y-113990000D03*
%TO.P,SW1,1,1*%
%TO.N,Net-(U1-RST)*%
X116460534Y-113990000D03*
D14*
%TO.P,SW1,*%
%TO.N,*%
X110700534Y-111500000D03*
X117710534Y-111500000D03*
%TD*%
D12*
%TO.P,REF\u002A\u002A,1*%
%TO.N,N/C*%
X126485534Y-112000000D03*
%TD*%
%TO.P,REF\u002A\u002A,1*%
%TO.N,N/C*%
X101860534Y-112000000D03*
%TD*%
%TO.P,REF\u002A\u002A,1*%
%TO.N,N/C*%
X101860534Y-62000000D03*
%TD*%
D10*
%TO.P,U1,24,10/A10*%
%TO.N,Net-(J2-Pin_10)*%
X121135534Y-101215000D03*
%TO.P,U1,23,9/A9*%
%TO.N,unconnected-(U1-9{slash}A9-Pad23)*%
X107685534Y-101190000D03*
%TO.P,U1,22,16/MOSI*%
%TO.N,/UTIL_M*%
X121135534Y-98675000D03*
%TO.P,U1,21,8/A8*%
%TO.N,unconnected-(U1-8{slash}A8-Pad21)*%
X107685534Y-98650000D03*
%TO.P,U1,20,14/MISO*%
%TO.N,/LIGHTS_TOGGLE_M*%
X121135534Y-96135000D03*
%TO.P,U1,19,7*%
%TO.N,unconnected-(U1-7-Pad19)*%
X107685534Y-96110000D03*
%TO.P,U1,18,15/SCLK*%
%TO.N,/SPEED_TOGGLE_M*%
X121135534Y-93595000D03*
%TO.P,U1,17,6/A7*%
%TO.N,unconnected-(U1-6{slash}A7-Pad17)*%
X107685534Y-93570000D03*
%TO.P,U1,16,18/A0*%
%TO.N,/CAM_DOWN_M*%
X121135534Y-91055000D03*
%TO.P,U1,15,5*%
%TO.N,/JOY_LEFT_M*%
X107685534Y-91030000D03*
%TO.P,U1,14,19/A1*%
%TO.N,/CAM_UP_M*%
X121135534Y-88515000D03*
%TO.P,U1,13,4/A6*%
%TO.N,/JOY_BACKWARD_M*%
X107685534Y-88490000D03*
%TO.P,U1,12,20/A2*%
%TO.N,/DOWN_M*%
X121135534Y-85975000D03*
%TO.P,U1,11,3/SCL*%
%TO.N,/JOY_RIGHT_M*%
X107685534Y-85950000D03*
%TO.P,U1,10,21/A3*%
%TO.N,/UP_M*%
X121135534Y-83435000D03*
%TO.P,U1,9,2/SDA*%
%TO.N,/JOY_FORWARD_M*%
X107685534Y-83410000D03*
%TO.P,U1,8,VCC*%
%TO.N,unconnected-(U1-VCC-Pad8)*%
X121135534Y-80895000D03*
%TO.P,U1,7,GND*%
%TO.N,GND*%
X107685534Y-80870000D03*
%TO.P,U1,6,RST*%
%TO.N,Net-(U1-RST)*%
X121135534Y-78355000D03*
%TO.P,U1,5,GND*%
%TO.N,GND*%
X107685534Y-78330000D03*
%TO.P,U1,4,GND*%
X121135534Y-75815000D03*
%TO.P,U1,3,0/RX*%
%TO.N,unconnected-(U1-0{slash}RX-Pad3)*%
X107685534Y-75790000D03*
D15*
%TO.P,U1,2,RAW*%
%TO.N,+5V*%
X121135534Y-73275000D03*
D11*
%TO.P,U1,1,1/TX*%
%TO.N,unconnected-(U1-1{slash}TX-Pad1)*%
X107685534Y-73250000D03*
%TD*%
D16*
%TO.N,/JOY_LEFT_M*%
X107685534Y-91030000D02*
X105103034Y-93612500D01*
%TO.N,Net-(U1-RST)*%
X121135534Y-78355000D02*
X115585535Y-83904999D01*
%TO.N,/JOY_LEFT_M*%
X105103034Y-93612500D02*
X99185534Y-93612500D01*
%TO.N,Net-(U1-RST)*%
X115585535Y-83904999D02*
X115585535Y-113115001D01*
X115585535Y-113115001D02*
X116460534Y-113990000D01*
D17*
%TO.N,+5V*%
X118560534Y-70700000D02*
X121135534Y-73275000D01*
D16*
%TO.N,/JOY_RIGHT_M*%
X105103034Y-88532500D02*
X99185534Y-88532500D01*
%TO.N,/LIGHTS_TOGGLE_M*%
X121135534Y-96135000D02*
X123653034Y-93617500D01*
D17*
%TO.N,+5V*%
X105100000Y-70700000D02*
X118560534Y-70700000D01*
D16*
%TO.N,/JOY_BACKWARD_M*%
X107685534Y-88490000D02*
X105103034Y-91072500D01*
%TO.N,Net-(J2-Pin_10)*%
X123653034Y-98697500D02*
X129185534Y-98697500D01*
%TO.N,/CAM_DOWN_M*%
X123653034Y-88537500D02*
X129185534Y-88537500D01*
%TO.N,Net-(J2-Pin_10)*%
X121135534Y-101215000D02*
X123653034Y-98697500D01*
D17*
%TO.N,+5V*%
X99185534Y-76614466D02*
X105100000Y-70700000D01*
D16*
%TO.N,/JOY_RIGHT_M*%
X107685534Y-85950000D02*
X105103034Y-88532500D01*
D17*
%TO.N,+5V*%
X121135534Y-73275000D02*
X123698034Y-75837500D01*
X99185534Y-80912500D02*
X99185534Y-76614466D01*
X123698034Y-75837500D02*
X129185534Y-75837500D01*
D16*
%TO.N,/CAM_UP_M*%
X123653034Y-85997500D02*
X129185534Y-85997500D01*
%TO.N,/UTIL_M*%
X123653034Y-96157500D02*
X129185534Y-96157500D01*
%TO.N,/LIGHTS_TOGGLE_M*%
X123653034Y-93617500D02*
X129185534Y-93617500D01*
%TO.N,/JOY_BACKWARD_M*%
X105103034Y-91072500D02*
X99185534Y-91072500D01*
%TO.N,/SPEED_TOGGLE_M*%
X123653034Y-91077500D02*
X129185534Y-91077500D01*
%TO.N,/DOWN_M*%
X123653034Y-83457500D02*
X129185534Y-83457500D01*
%TO.N,/UTIL_M*%
X121135534Y-98675000D02*
X123653034Y-96157500D01*
%TO.N,/UP_M*%
X123653034Y-80917500D02*
X129185534Y-80917500D01*
%TO.N,/JOY_FORWARD_M*%
X105103034Y-85992500D02*
X99185534Y-85992500D01*
%TO.N,/DOWN_M*%
X121135534Y-85975000D02*
X123653034Y-83457500D01*
%TO.N,/UP_M*%
X121135534Y-83435000D02*
X123653034Y-80917500D01*
%TO.N,/CAM_UP_M*%
X121135534Y-88515000D02*
X123653034Y-85997500D01*
%TO.N,/SPEED_TOGGLE_M*%
X121135534Y-93595000D02*
X123653034Y-91077500D01*
%TO.N,/CAM_DOWN_M*%
X121135534Y-91055000D02*
X123653034Y-88537500D01*
%TO.N,/JOY_FORWARD_M*%
X107685534Y-83410000D02*
X105103034Y-85992500D01*
%TD*%
%TA.AperFunction,Conductor*%
%TO.N,GND*%
G36*
X122638681Y-75859780D02*
G01*
X122689731Y-75890564D01*
X123115083Y-76315916D01*
X123194719Y-76395552D01*
X123219619Y-76420452D01*
X123342532Y-76502580D01*
X123342545Y-76502587D01*
X123434185Y-76540545D01*
X123479121Y-76559158D01*
X123479125Y-76559158D01*
X123479126Y-76559159D01*
X123624113Y-76588000D01*
X123624116Y-76588000D01*
X127711035Y-76588000D01*
X127778074Y-76607685D01*
X127823829Y-76660489D01*
X127835035Y-76712000D01*
X127835035Y-76735376D01*
X127841442Y-76794983D01*
X127891736Y-76929828D01*
X127891740Y-76929835D01*
X127977986Y-77045044D01*
X127977989Y-77045047D01*
X128093198Y-77131293D01*
X128093205Y-77131297D01*
X128117880Y-77140500D01*
X128225132Y-77180502D01*
X128281065Y-77222373D01*
X128305483Y-77287837D01*
X128290632Y-77356110D01*
X128269481Y-77384365D01*
X128155805Y-77498041D01*
X128030913Y-77669942D01*
X127934438Y-77859282D01*
X127868776Y-78061370D01*
X127868776Y-78061373D01*
X127858303Y-78127500D01*
X128752522Y-78127500D01*
X128719609Y-78184507D01*
X128685534Y-78311674D01*
X128685534Y-78443326D01*
X128719609Y-78570493D01*
X128752522Y-78627500D01*
X127858303Y-78627500D01*
X127868776Y-78693626D01*
X127868776Y-78693629D01*
X127934438Y-78895717D01*
X128030913Y-79085057D01*
X128155806Y-79256959D01*
X128155810Y-79256964D01*
X128306069Y-79407223D01*
X128306074Y-79407227D01*
X128477978Y-79532122D01*
X128487029Y-79536734D01*
X128537826Y-79584708D01*
X128554621Y-79652529D01*
X128532084Y-79718664D01*
X128487033Y-79757702D01*
X128477716Y-79762449D01*
X128305747Y-79887390D01*
X128155424Y-80037713D01*
X128030482Y-80209684D01*
X128030481Y-80209685D01*
X128010299Y-80249295D01*
X127962325Y-80300091D01*
X127899815Y-80317000D01*
X123739704Y-80317000D01*
X123739688Y-80316999D01*
X123732092Y-80316999D01*
X123573977Y-80316999D01*
X123497613Y-80337461D01*
X123421248Y-80357923D01*
X123421243Y-80357926D01*
X123284324Y-80436975D01*
X123284316Y-80436981D01*
X122697715Y-81023582D01*
X122636392Y-81057067D01*
X122566700Y-81052083D01*
X122510767Y-81010211D01*
X122486350Y-80944747D01*
X122486034Y-80935901D01*
X122486034Y-80788713D01*
X122456344Y-80601260D01*
X122452780Y-80578757D01*
X122387091Y-80376588D01*
X122290585Y-80187184D01*
X122290583Y-80187181D01*
X122290582Y-80187179D01*
X122165643Y-80015213D01*
X122015320Y-79864890D01*
X121843354Y-79739951D01*
X121842649Y-79739591D01*
X121834588Y-79735485D01*
X121783793Y-79687512D01*
X121766997Y-79619692D01*
X121789533Y-79553556D01*
X121834588Y-79514515D01*
X121843350Y-79510051D01*
X121878353Y-79484620D01*
X122015320Y-79385109D01*
X122015322Y-79385106D01*
X122015326Y-79385104D01*
X122165638Y-79234792D01*
X122165640Y-79234788D01*
X122165643Y-79234786D01*
X122290582Y-79062820D01*
X122290581Y-79062820D01*
X122290585Y-79062816D01*
X122387091Y-78873412D01*
X122452780Y-78671243D01*
X122486034Y-78461287D01*
X122486034Y-78248713D01*
X122452780Y-78038757D01*
X122387091Y-77836588D01*
X122290585Y-77647184D01*
X122290583Y-77647181D01*
X122290582Y-77647179D01*
X122165643Y-77475213D01*
X122015320Y-77324890D01*
X121843351Y-77199949D01*
X121834038Y-77195204D01*
X121783241Y-77147230D01*
X121766446Y-77079409D01*
X121788983Y-77013274D01*
X121834041Y-76974232D01*
X121843092Y-76969620D01*
X122014993Y-76844727D01*
X122014998Y-76844723D01*
X122165257Y-76694464D01*
X122165261Y-76694459D01*
X122290154Y-76522557D01*
X122386629Y-76333217D01*
X122452291Y-76131130D01*
X122452291Y-76131127D01*
X122479578Y-75958848D01*
X122509507Y-75895714D01*
X122568818Y-75858782D01*
X122638681Y-75859780D01*
G37*
%TD.AperFunction*%
%TA.AperFunction,Conductor*%
G36*
X107935534Y-80436988D02*
G01*
X107878527Y-80404075D01*
X107751360Y-80370000D01*
X107619708Y-80370000D01*
X107492541Y-80404075D01*
X107435534Y-80436988D01*
X107435534Y-78763012D01*
X107492541Y-78795925D01*
X107619708Y-78830000D01*
X107751360Y-78830000D01*
X107878527Y-78795925D01*
X107935534Y-78763012D01*
X107935534Y-80436988D01*
G37*
%TD.AperFunction*%
%TA.AperFunction,Conductor*%
G36*
X126488233Y-57500618D02*
G01*
X126872299Y-57517388D01*
X126883041Y-57518328D01*
X127261504Y-57568156D01*
X127272131Y-57570029D01*
X127644819Y-57652654D01*
X127655246Y-57655448D01*
X128019311Y-57770237D01*
X128029446Y-57773926D01*
X128382118Y-57920008D01*
X128391910Y-57924574D01*
X128730403Y-58100782D01*
X128730484Y-58100824D01*
X128739851Y-58106231D01*
X129061720Y-58311284D01*
X129061788Y-58311327D01*
X129070649Y-58317532D01*
X129373471Y-58549893D01*
X129381758Y-58556846D01*
X129663186Y-58814724D01*
X129670835Y-58822373D01*
X129928716Y-59103798D01*
X129935666Y-59112081D01*
X130168042Y-59414912D01*
X130174239Y-59423763D01*
X130379332Y-59745688D01*
X130384741Y-59755056D01*
X130561003Y-60093641D01*
X130565563Y-60103419D01*
X130700494Y-60429160D01*
X130711647Y-60456084D01*
X130715346Y-60466248D01*
X130830133Y-60830283D01*
X130832933Y-60840733D01*
X130915555Y-61213389D01*
X130917434Y-61224042D01*
X130967263Y-61602483D01*
X130968206Y-61613259D01*
X130984915Y-61995815D01*
X130985033Y-62001170D01*
X130985034Y-62002696D01*
X130985035Y-62065902D01*
X130985062Y-62066006D01*
X130985066Y-62074058D01*
X130985063Y-62074067D01*
X130985066Y-62074114D01*
X130985034Y-111934107D01*
X130985034Y-111997293D01*
X130984916Y-112002702D01*
X130968148Y-112386748D01*
X130967205Y-112397525D01*
X130917383Y-112775951D01*
X130915505Y-112786604D01*
X130832888Y-113159265D01*
X130830088Y-113169714D01*
X130715307Y-113533747D01*
X130711607Y-113543912D01*
X130565535Y-113896558D01*
X130560963Y-113906362D01*
X130384715Y-114244929D01*
X130379306Y-114254298D01*
X130174213Y-114576225D01*
X130168008Y-114585086D01*
X129935648Y-114887900D01*
X129928695Y-114896187D01*
X129670817Y-115177608D01*
X129663168Y-115185257D01*
X129381743Y-115443133D01*
X129373455Y-115450087D01*
X129070633Y-115682446D01*
X129061772Y-115688650D01*
X128739853Y-115893732D01*
X128730485Y-115899141D01*
X128391900Y-116075392D01*
X128382096Y-116079963D01*
X128029456Y-116226029D01*
X128019290Y-116229729D01*
X127655257Y-116344502D01*
X127644808Y-116347302D01*
X127272149Y-116429915D01*
X127261496Y-116431793D01*
X126883067Y-116481609D01*
X126872290Y-116482552D01*
X126486733Y-116499381D01*
X126481328Y-116499499D01*
X126449713Y-116499499D01*
X126419649Y-116499499D01*
X126419645Y-116499499D01*
X126412041Y-116499500D01*
X126412040Y-116499499D01*
X126412039Y-116499500D01*
X101934033Y-116499500D01*
X101934017Y-116499499D01*
X101863235Y-116499499D01*
X101857827Y-116499381D01*
X101473781Y-116482617D01*
X101463005Y-116481674D01*
X101273789Y-116456764D01*
X101084575Y-116431854D01*
X101073922Y-116429976D01*
X100701263Y-116347360D01*
X100690814Y-116344560D01*
X100326782Y-116229782D01*
X100316616Y-116226082D01*
X99963967Y-116080010D01*
X99954163Y-116075438D01*
X99615596Y-115899191D01*
X99606227Y-115893782D01*
X99604638Y-115892770D01*
X99488898Y-115819034D01*
X99284307Y-115688694D01*
X99275446Y-115682490D01*
X98972617Y-115450120D01*
X98964330Y-115443166D01*
X98682915Y-115185293D01*
X98675266Y-115177644D01*
X98417391Y-114896220D01*
X98410437Y-114887932D01*
X98410412Y-114887900D01*
X98274415Y-114710660D01*
X98178076Y-114585106D01*
X98171872Y-114576245D01*
X97966788Y-114254322D01*
X97961379Y-114244953D01*
X97947951Y-114219158D01*
X97817455Y-113968467D01*
X97785137Y-113906383D01*
X97780565Y-113896579D01*
X97634494Y-113543921D01*
X97630795Y-113533756D01*
X97592675Y-113412849D01*
X97516019Y-113169714D01*
X97513223Y-113159278D01*
X97513220Y-113159265D01*
X97434226Y-112802913D01*
X97430614Y-112786619D01*
X97428736Y-112775966D01*
X97378921Y-112397537D01*
X97377978Y-112386760D01*
X97361151Y-112001192D01*
X97361034Y-111995805D01*
X97361036Y-111934118D01*
X97361034Y-111934110D01*
X97361034Y-111837857D01*
X98560034Y-111837857D01*
X98560034Y-112162143D01*
X98569588Y-112259152D01*
X98591818Y-112484857D01*
X98591821Y-112484874D01*
X98655079Y-112802902D01*
X98655082Y-112802913D01*
X98749220Y-113113247D01*
X98873320Y-113412849D01*
X98873322Y-113412854D01*
X99026180Y-113698830D01*
X99026191Y-113698848D01*
X99206345Y-113968467D01*
X99206355Y-113968481D01*
X99412080Y-114219158D01*
X99641375Y-114448453D01*
X99641380Y-114448457D01*
X99641381Y-114448458D01*
X99892058Y-114654183D01*
X100161692Y-114834347D01*
X100161701Y-114834352D01*
X100161703Y-114834353D01*
X100447679Y-114987211D01*
X100447681Y-114987211D01*
X100447687Y-114987215D01*
X100747288Y-115111314D01*
X101057611Y-115205449D01*
X101057617Y-115205450D01*
X101057620Y-115205451D01*
X101057631Y-115205454D01*
X101257062Y-115245122D01*
X101375666Y-115268714D01*
X101698391Y-115300500D01*
X101698394Y-115300500D01*
X102022674Y-115300500D01*
X102022677Y-115300500D01*
X102345402Y-115268714D01*
X102502829Y-115237399D01*
X102663436Y-115205454D01*
X102663447Y-115205451D01*
X102663447Y-115205450D01*
X102663457Y-115205449D01*
X102973780Y-115111314D01*
X103273381Y-114987215D01*
X103559376Y-114834347D01*
X103829010Y-114654183D01*
X104079687Y-114448458D01*
X104308992Y-114219153D01*
X104514717Y-113968476D01*
X104694881Y-113698842D01*
X104847749Y-113412847D01*
X104971848Y-113113246D01*
X105065983Y-112802923D01*
X105065985Y-112802913D01*
X105065988Y-112802902D01*
X105103363Y-112615000D01*
X105129248Y-112484868D01*
X105161034Y-112162143D01*
X105161034Y-111837857D01*
X105129248Y-111515132D01*
X105119174Y-111464488D01*
X105105809Y-111397292D01*
X105101966Y-111377973D01*
X109150034Y-111377973D01*
X109150034Y-111622026D01*
X109184218Y-111837857D01*
X109188213Y-111863076D01*
X109233580Y-112002702D01*
X109263631Y-112095187D01*
X109374430Y-112312642D01*
X109517873Y-112510076D01*
X109517877Y-112510081D01*
X109690452Y-112682656D01*
X109690457Y-112682660D01*
X109855957Y-112802902D01*
X109887895Y-112826106D01*
X110105349Y-112936904D01*
X110337458Y-113012321D01*
X110578507Y-113050500D01*
X110578508Y-113050500D01*
X110700163Y-113050500D01*
X110767202Y-113070185D01*
X110812957Y-113122989D01*
X110822901Y-113192147D01*
X110800481Y-113247386D01*
X110784528Y-113269342D01*
X110686270Y-113462182D01*
X110686269Y-113462185D01*
X110619391Y-113668018D01*
X110585534Y-113881779D01*
X110585534Y-114098220D01*
X110619391Y-114311981D01*
X110686269Y-114517814D01*
X110686270Y-114517817D01*
X110784530Y-114710660D01*
X110827363Y-114769615D01*
X110827364Y-114769616D01*
X111481653Y-114115326D01*
X111499268Y-114181063D01*
X111564436Y-114293937D01*
X111656597Y-114386098D01*
X111769471Y-114451266D01*
X111835206Y-114468880D01*
X111180916Y-115123168D01*
X111239876Y-115166005D01*
X111432716Y-115264263D01*
X111432719Y-115264264D01*
X111638552Y-115331142D01*
X111852314Y-115365000D01*
X112068754Y-115365000D01*
X112282515Y-115331142D01*
X112488348Y-115264264D01*
X112488351Y-115264263D01*
X112681190Y-115166006D01*
X112740149Y-115123168D01*
X112740150Y-115123168D01*
X112085861Y-114468880D01*
X112151597Y-114451266D01*
X112264471Y-114386098D01*
X112356632Y-114293937D01*
X112421800Y-114181063D01*
X112439413Y-114115327D01*
X113093702Y-114769616D01*
X113093702Y-114769615D01*
X113136540Y-114710656D01*
X113234797Y-114517817D01*
X113234798Y-114517814D01*
X113301676Y-114311981D01*
X113335534Y-114098220D01*
X113335534Y-113881779D01*
X113301676Y-113668018D01*
X113234798Y-113462185D01*
X113234797Y-113462182D01*
X113136539Y-113269342D01*
X113093702Y-113210383D01*
X113093702Y-113210382D01*
X112439413Y-113864671D01*
X112421800Y-113798937D01*
X112356632Y-113686063D01*
X112264471Y-113593902D01*
X112151597Y-113528734D01*
X112085860Y-113511119D01*
X112740150Y-112856830D01*
X112740149Y-112856829D01*
X112681194Y-112813996D01*
X112488351Y-112715736D01*
X112488348Y-112715735D01*
X112282515Y-112648857D01*
X112068754Y-112615000D01*
X112050326Y-112615000D01*
X111983287Y-112595315D01*
X111937532Y-112542511D01*
X111927588Y-112473353D01*
X111950008Y-112418115D01*
X111980843Y-112375673D01*
X112026640Y-112312639D01*
X112137438Y-112095185D01*
X112212855Y-111863076D01*
X112251034Y-111622027D01*
X112251034Y-111377973D01*
X112212855Y-111136924D01*
X112137438Y-110904815D01*
X112026640Y-110687361D01*
X111953829Y-110587145D01*
X111883194Y-110489923D01*
X111883190Y-110489918D01*
X111710615Y-110317343D01*
X111710610Y-110317339D01*
X111513176Y-110173896D01*
X111513175Y-110173895D01*
X111513173Y-110173894D01*
X111295719Y-110063096D01*
X111063610Y-109987679D01*
X111063608Y-109987678D01*
X111063606Y-109987678D01*
X110895303Y-109961021D01*
X110822561Y-109949500D01*
X110578507Y-109949500D01*
X110522627Y-109958350D01*
X110337461Y-109987678D01*
X110105346Y-110063097D01*
X109887891Y-110173896D01*
X109690457Y-110317339D01*
X109690452Y-110317343D01*
X109517877Y-110489918D01*
X109517873Y-110489923D01*
X109374430Y-110687357D01*
X109263631Y-110904812D01*
X109188212Y-111136927D01*
X109150034Y-111377973D01*
X105101966Y-111377973D01*
X105065988Y-111197097D01*
X105065985Y-111197086D01*
X105065984Y-111197083D01*
X105065983Y-111197077D01*
X104971848Y-110886754D01*
X104847749Y-110587153D01*
X104795778Y-110489923D01*
X104694887Y-110301169D01*
X104694886Y-110301167D01*
X104694881Y-110301158D01*
X104514717Y-110031524D01*
X104308992Y-109780847D01*
X104308991Y-109780846D01*
X104308987Y-109780841D01*
X104079692Y-109551546D01*
X103829015Y-109345821D01*
X103829014Y-109345820D01*
X103829010Y-109345817D01*
X103559376Y-109165653D01*
X103559371Y-109165650D01*
X103559364Y-109165646D01*
X103273388Y-109012788D01*
X103273383Y-109012786D01*
X102973781Y-108888686D01*
X102663447Y-108794548D01*
X102663436Y-108794545D01*
X102345408Y-108731287D01*
X102345391Y-108731284D01*
X102101346Y-108707248D01*
X102022677Y-108699500D01*
X101698391Y-108699500D01*
X101625633Y-108706666D01*
X101375676Y-108731284D01*
X101375659Y-108731287D01*
X101057631Y-108794545D01*
X101057620Y-108794548D01*
X100747286Y-108888686D01*
X100447684Y-109012786D01*
X100447679Y-109012788D01*
X100161703Y-109165646D01*
X100161685Y-109165657D01*
X99892066Y-109345811D01*
X99892052Y-109345821D01*
X99641375Y-109551546D01*
X99412080Y-109780841D01*
X99206355Y-110031518D01*
X99206345Y-110031532D01*
X99026191Y-110301151D01*
X99026180Y-110301169D01*
X98873322Y-110587145D01*
X98873320Y-110587150D01*
X98749220Y-110886752D01*
X98655082Y-111197086D01*
X98655079Y-111197097D01*
X98591821Y-111515125D01*
X98591818Y-111515142D01*
X98567200Y-111765099D01*
X98560034Y-111837857D01*
X97361034Y-111837857D01*
X97361034Y-80014635D01*
X97835034Y-80014635D01*
X97835034Y-81810370D01*
X97835035Y-81810376D01*
X97841442Y-81869983D01*
X97891736Y-82004828D01*
X97891740Y-82004835D01*
X97977986Y-82120044D01*
X97977989Y-82120047D01*
X98093198Y-82206293D01*
X98093205Y-82206297D01*
X98155436Y-82229507D01*
X98225132Y-82255502D01*
X98281065Y-82297373D01*
X98305483Y-82362837D01*
X98290632Y-82431110D01*
X98269481Y-82459365D01*
X98155805Y-82573041D01*
X98030913Y-82744942D01*
X97934438Y-82934282D01*
X97868776Y-83136370D01*
X97868776Y-83136373D01*
X97858303Y-83202500D01*
X98752522Y-83202500D01*
X98719609Y-83259507D01*
X98685534Y-83386674D01*
X98685534Y-83518326D01*
X98719609Y-83645493D01*
X98752522Y-83702500D01*
X97858303Y-83702500D01*
X97868776Y-83768626D01*
X97868776Y-83768629D01*
X97934438Y-83970717D01*
X98030913Y-84160057D01*
X98155806Y-84331959D01*
X98155810Y-84331964D01*
X98306069Y-84482223D01*
X98306074Y-84482227D01*
X98477978Y-84607122D01*
X98487029Y-84611734D01*
X98537826Y-84659708D01*
X98554621Y-84727529D01*
X98532084Y-84793664D01*
X98487033Y-84832702D01*
X98477716Y-84837449D01*
X98305747Y-84962390D01*
X98155424Y-85112713D01*
X98030485Y-85284679D01*
X97933978Y-85474085D01*
X97868287Y-85676260D01*
X97849811Y-85792914D01*
X97835034Y-85886213D01*
X97835034Y-86098787D01*
X97835826Y-86103786D01*
X97865515Y-86291239D01*
X97868288Y-86308743D01*
X97921664Y-86473018D01*
X97933978Y-86510914D01*
X98030485Y-86700320D01*
X98155424Y-86872286D01*
X98305747Y-87022609D01*
X98477716Y-87147550D01*
X98486480Y-87152016D01*
X98537276Y-87199991D01*
X98554070Y-87267812D01*
X98531532Y-87333947D01*
X98486480Y-87372984D01*
X98477716Y-87377449D01*
X98305747Y-87502390D01*
X98155424Y-87652713D01*
X98030485Y-87824679D01*
X97933978Y-88014085D01*
X97868287Y-88216260D01*
X97847709Y-88346184D01*
X97835034Y-88426213D01*
X97835034Y-88638787D01*
X97835826Y-88643786D01*
X97865515Y-88831239D01*
X97868288Y-88848743D01*
X97921664Y-89013018D01*
X97933978Y-89050914D01*
X98030485Y-89240320D01*
X98155424Y-89412286D01*
X98305747Y-89562609D01*
X98477716Y-89687550D01*
X98486480Y-89692016D01*
X98537276Y-89739991D01*
X98554070Y-89807812D01*
X98531532Y-89873947D01*
X98486480Y-89912984D01*
X98477716Y-89917449D01*
X98305747Y-90042390D01*
X98155424Y-90192713D01*
X98030485Y-90364679D01*
X97933978Y-90554085D01*
X97868287Y-90756260D01*
X97849811Y-90872914D01*
X97835034Y-90966213D01*
X97835034Y-91178787D01*
X97835826Y-91183786D01*
X97865515Y-91371239D01*
X97868288Y-91388743D01*
X97921664Y-91553018D01*
X97933978Y-91590914D01*
X98030485Y-91780320D01*
X98155424Y-91952286D01*
X98305747Y-92102609D01*
X98477716Y-92227550D01*
X98486480Y-92232016D01*
X98537276Y-92279991D01*
X98554070Y-92347812D01*
X98531532Y-92413947D01*
X98486480Y-92452984D01*
X98477716Y-92457449D01*
X98305747Y-92582390D01*
X98155424Y-92732713D01*
X98030485Y-92904679D01*
X97933978Y-93094085D01*
X97868287Y-93296260D01*
X97849811Y-93412914D01*
X97835034Y-93506213D01*
X97835034Y-93718787D01*
X97835826Y-93723786D01*
X97865515Y-93911239D01*
X97868288Y-93928743D01*
X97921664Y-94093018D01*
X97933978Y-94130914D01*
X98030485Y-94320320D01*
X98155424Y-94492286D01*
X98305747Y-94642609D01*
X98477713Y-94767548D01*
X98477715Y-94767549D01*
X98477718Y-94767551D01*
X98667122Y-94864057D01*
X98869291Y-94929746D01*
X99079247Y-94963000D01*
X99079248Y-94963000D01*
X99291820Y-94963000D01*
X99291821Y-94963000D01*
X99501777Y-94929746D01*
X99703946Y-94864057D01*
X99893350Y-94767551D01*
X99951851Y-94725048D01*
X100065320Y-94642609D01*
X100065322Y-94642606D01*
X100065326Y-94642604D01*
X100215638Y-94492292D01*
X100215640Y-94492288D01*
X100215643Y-94492286D01*
X100336952Y-94325316D01*
X100340585Y-94320316D01*
X100349502Y-94302816D01*
X100360769Y-94280705D01*
X100408743Y-94229909D01*
X100471253Y-94213000D01*
X105016365Y-94213000D01*
X105016381Y-94213001D01*
X105023977Y-94213001D01*
X105182088Y-94213001D01*
X105182091Y-94213001D01*
X105334819Y-94172077D01*
X105397458Y-94135912D01*
X105471750Y-94093020D01*
X105583554Y-93981216D01*
X105583554Y-93981214D01*
X105593758Y-93971011D01*
X105593761Y-93971006D01*
X106123354Y-93441414D01*
X106184676Y-93407930D01*
X106254368Y-93412914D01*
X106310301Y-93454786D01*
X106334718Y-93520250D01*
X106335034Y-93529096D01*
X106335034Y-93676287D01*
X106368288Y-93886243D01*
X106383720Y-93933739D01*
X106433978Y-94088414D01*
X106530485Y-94277820D01*
X106655424Y-94449786D01*
X106805747Y-94600109D01*
X106977716Y-94725050D01*
X106986480Y-94729516D01*
X107037276Y-94777491D01*
X107054070Y-94845312D01*
X107031532Y-94911447D01*
X106986480Y-94950484D01*
X106977716Y-94954949D01*
X106805747Y-95079890D01*
X106655424Y-95230213D01*
X106530485Y-95402179D01*
X106433978Y-95591585D01*
X106368287Y-95793760D01*
X106360764Y-95841260D01*
X106335034Y-96003713D01*
X106335034Y-96216287D01*
X106368288Y-96426243D01*
X106383720Y-96473739D01*
X106433978Y-96628414D01*
X106530485Y-96817820D01*
X106655424Y-96989786D01*
X106805747Y-97140109D01*
X106977716Y-97265050D01*
X106986480Y-97269516D01*
X107037276Y-97317491D01*
X107054070Y-97385312D01*
X107031532Y-97451447D01*
X106986480Y-97490484D01*
X106977716Y-97494949D01*
X106805747Y-97619890D01*
X106655424Y-97770213D01*
X106530485Y-97942179D01*
X106433978Y-98131585D01*
X106368287Y-98333760D01*
X106360764Y-98381260D01*
X106335034Y-98543713D01*
X106335034Y-98756287D01*
X106368288Y-98966243D01*
X106383720Y-99013739D01*
X106433978Y-99168414D01*
X106530485Y-99357820D01*
X106655424Y-99529786D01*
X106805747Y-99680109D01*
X106977716Y-99805050D01*
X106986480Y-99809516D01*
X107037276Y-99857491D01*
X107054070Y-99925312D01*
X107031532Y-99991447D01*
X106986480Y-100030484D01*
X106977716Y-100034949D01*
X106805747Y-100159890D01*
X106655424Y-100310213D01*
X106530485Y-100482179D01*
X106433978Y-100671585D01*
X106368287Y-100873760D01*
X106335034Y-101083713D01*
X106335034Y-101296287D01*
X106338994Y-101321287D01*
X106368287Y-101506239D01*
X106433978Y-101708414D01*
X106530485Y-101897820D01*
X106655424Y-102069786D01*
X106805747Y-102220109D01*
X106977713Y-102345048D01*
X106977715Y-102345049D01*
X106977718Y-102345051D01*
X107167122Y-102441557D01*
X107369291Y-102507246D01*
X107579247Y-102540500D01*
X107579248Y-102540500D01*
X107791820Y-102540500D01*
X107791821Y-102540500D01*
X108001777Y-102507246D01*
X108203946Y-102441557D01*
X108393350Y-102345051D01*
X108415323Y-102329086D01*
X108565320Y-102220109D01*
X108565322Y-102220106D01*
X108565326Y-102220104D01*
X108715638Y-102069792D01*
X108715640Y-102069788D01*
X108715643Y-102069786D01*
X108840582Y-101897820D01*
X108840581Y-101897820D01*
X108840585Y-101897816D01*
X108937091Y-101708412D01*
X109002780Y-101506243D01*
X109036034Y-101296287D01*
X109036034Y-101083713D01*
X109002780Y-100873757D01*
X108937091Y-100671588D01*
X108840585Y-100482184D01*
X108840583Y-100482181D01*
X108840582Y-100482179D01*
X108715643Y-100310213D01*
X108565320Y-100159890D01*
X108393354Y-100034951D01*
X108392649Y-100034591D01*
X108384588Y-100030485D01*
X108333793Y-99982512D01*
X108316997Y-99914692D01*
X108339533Y-99848556D01*
X108384588Y-99809515D01*
X108393350Y-99805051D01*
X108499941Y-99727609D01*
X108565320Y-99680109D01*
X108565322Y-99680106D01*
X108565326Y-99680104D01*
X108715638Y-99529792D01*
X108715640Y-99529788D01*
X108715643Y-99529786D01*
X108840582Y-99357820D01*
X108840581Y-99357820D01*
X108840585Y-99357816D01*
X108937091Y-99168412D01*
X109002780Y-98966243D01*
X109036034Y-98756287D01*
X109036034Y-98543713D01*
X109002780Y-98333757D01*
X108937091Y-98131588D01*
X108840585Y-97942184D01*
X108840583Y-97942181D01*
X108840582Y-97942179D01*
X108715643Y-97770213D01*
X108565320Y-97619890D01*
X108393354Y-97494951D01*
X108392649Y-97494591D01*
X108384588Y-97490485D01*
X108333793Y-97442512D01*
X108316997Y-97374692D01*
X108339533Y-97308556D01*
X108384588Y-97269515D01*
X108393350Y-97265051D01*
X108499941Y-97187609D01*
X108565320Y-97140109D01*
X108565322Y-97140106D01*
X108565326Y-97140104D01*
X108715638Y-96989792D01*
X108715640Y-96989788D01*
X108715643Y-96989786D01*
X108840582Y-96817820D01*
X108840581Y-96817820D01*
X108840585Y-96817816D01*
X108937091Y-96628412D01*
X109002780Y-96426243D01*
X109036034Y-96216287D01*
X109036034Y-96003713D01*
X109002780Y-95793757D01*
X108937091Y-95591588D01*
X108840585Y-95402184D01*
X108840583Y-95402181D01*
X108840582Y-95402179D01*
X108715643Y-95230213D01*
X108565320Y-95079890D01*
X108393354Y-94954951D01*
X108392649Y-94954591D01*
X108384588Y-94950485D01*
X108333793Y-94902512D01*
X108316997Y-94834692D01*
X108339533Y-94768556D01*
X108384588Y-94729515D01*
X108393350Y-94725051D01*
X108499941Y-94647609D01*
X108565320Y-94600109D01*
X108565322Y-94600106D01*
X108565326Y-94600104D01*
X108715638Y-94449792D01*
X108715640Y-94449788D01*
X108715643Y-94449786D01*
X108840582Y-94277820D01*
X108840581Y-94277820D01*
X108840585Y-94277816D01*
X108937091Y-94088412D01*
X109002780Y-93886243D01*
X109036034Y-93676287D01*
X109036034Y-93463713D01*
X109002780Y-93253757D01*
X108937091Y-93051588D01*
X108840585Y-92862184D01*
X108840583Y-92862181D01*
X108840582Y-92862179D01*
X108715643Y-92690213D01*
X108565320Y-92539890D01*
X108393354Y-92414951D01*
X108391383Y-92413947D01*
X108384588Y-92410485D01*
X108333793Y-92362512D01*
X108316997Y-92294692D01*
X108339533Y-92228556D01*
X108384588Y-92189515D01*
X108393350Y-92185051D01*
X108499941Y-92107609D01*
X108565320Y-92060109D01*
X108565322Y-92060106D01*
X108565326Y-92060104D01*
X108715638Y-91909792D01*
X108715640Y-91909788D01*
X108715643Y-91909786D01*
X108840582Y-91737820D01*
X108840581Y-91737820D01*
X108840585Y-91737816D01*
X108937091Y-91548412D01*
X109002780Y-91346243D01*
X109036034Y-91136287D01*
X109036034Y-90923713D01*
X109002780Y-90713757D01*
X108937091Y-90511588D01*
X108840585Y-90322184D01*
X108840583Y-90322181D01*
X108840582Y-90322179D01*
X108715643Y-90150213D01*
X108565320Y-89999890D01*
X108393354Y-89874951D01*
X108391383Y-89873947D01*
X108384588Y-89870485D01*
X108333793Y-89822512D01*
X108316997Y-89754692D01*
X108339533Y-89688556D01*
X108384588Y-89649515D01*
X108393350Y-89645051D01*
X108499941Y-89567609D01*
X108565320Y-89520109D01*
X108565322Y-89520106D01*
X108565326Y-89520104D01*
X108715638Y-89369792D01*
X108715640Y-89369788D01*
X108715643Y-89369786D01*
X108840582Y-89197820D01*
X108840581Y-89197820D01*
X108840585Y-89197816D01*
X108937091Y-89008412D01*
X109002780Y-88806243D01*
X109036034Y-88596287D01*
X109036034Y-88383713D01*
X109002780Y-88173757D01*
X108937091Y-87971588D01*
X108840585Y-87782184D01*
X108840583Y-87782181D01*
X108840582Y-87782179D01*
X108715643Y-87610213D01*
X108565320Y-87459890D01*
X108393354Y-87334951D01*
X108391383Y-87333947D01*
X108384588Y-87330485D01*
X108333793Y-87282512D01*
X108316997Y-87214692D01*
X108339533Y-87148556D01*
X108384588Y-87109515D01*
X108393350Y-87105051D01*
X108499941Y-87027609D01*
X108565320Y-86980109D01*
X108565322Y-86980106D01*
X108565326Y-86980104D01*
X108715638Y-86829792D01*
X108715640Y-86829788D01*
X108715643Y-86829786D01*
X108840582Y-86657820D01*
X108840581Y-86657820D01*
X108840585Y-86657816D01*
X108937091Y-86468412D01*
X109002780Y-86266243D01*
X109036034Y-86056287D01*
X109036034Y-85843713D01*
X109002780Y-85633757D01*
X108937091Y-85431588D01*
X108840585Y-85242184D01*
X108840583Y-85242181D01*
X108840582Y-85242179D01*
X108715643Y-85070213D01*
X108565320Y-84919890D01*
X108393354Y-84794951D01*
X108390828Y-84793664D01*
X108384588Y-84790485D01*
X108333793Y-84742512D01*
X108316997Y-84674692D01*
X108339533Y-84608556D01*
X108384588Y-84569515D01*
X108393350Y-84565051D01*
X108499941Y-84487609D01*
X108565320Y-84440109D01*
X108565322Y-84440106D01*
X108565326Y-84440104D01*
X108715638Y-84289792D01*
X108715640Y-84289788D01*
X108715643Y-84289786D01*
X108840582Y-84117820D01*
X108840581Y-84117820D01*
X108840585Y-84117816D01*
X108937091Y-83928412D01*
X109002780Y-83726243D01*
X109036034Y-83516287D01*
X109036034Y-83303713D01*
X109002780Y-83093757D01*
X108937091Y-82891588D01*
X108840585Y-82702184D01*
X108840583Y-82702181D01*
X108840582Y-82702179D01*
X108715643Y-82530213D01*
X108565320Y-82379890D01*
X108393351Y-82254949D01*
X108384038Y-82250204D01*
X108333241Y-82202230D01*
X108316446Y-82134409D01*
X108338983Y-82068274D01*
X108384041Y-82029232D01*
X108393092Y-82024620D01*
X108564993Y-81899727D01*
X108564998Y-81899723D01*
X108715257Y-81749464D01*
X108715261Y-81749459D01*
X108840154Y-81577557D01*
X108936629Y-81388217D01*
X109002291Y-81186129D01*
X109002291Y-81186126D01*
X109012765Y-81120000D01*
X108118546Y-81120000D01*
X108151459Y-81062993D01*
X108185534Y-80935826D01*
X108185534Y-80804174D01*
X108151459Y-80677007D01*
X108118546Y-80620000D01*
X109012765Y-80620000D01*
X109002291Y-80553873D01*
X109002291Y-80553870D01*
X108936629Y-80351782D01*
X108840154Y-80162442D01*
X108715261Y-79990540D01*
X108715257Y-79990535D01*
X108564998Y-79840276D01*
X108564993Y-79840272D01*
X108393092Y-79715379D01*
X108383488Y-79710486D01*
X108332691Y-79662512D01*
X108315895Y-79594692D01*
X108338431Y-79528556D01*
X108383488Y-79489514D01*
X108393092Y-79484620D01*
X108564993Y-79359727D01*
X108564998Y-79359723D01*
X108715257Y-79209464D01*
X108715261Y-79209459D01*
X108840154Y-79037557D01*
X108936629Y-78848217D01*
X109002291Y-78646129D01*
X109002291Y-78646126D01*
X109012765Y-78580000D01*
X108118546Y-78580000D01*
X108151459Y-78522993D01*
X108185534Y-78395826D01*
X108185534Y-78264174D01*
X108151459Y-78137007D01*
X108118546Y-78080000D01*
X109012765Y-78080000D01*
X109002291Y-78013873D01*
X109002291Y-78013870D01*
X108936629Y-77811782D01*
X108840154Y-77622442D01*
X108715261Y-77450540D01*
X108715257Y-77450535D01*
X108564998Y-77300276D01*
X108564993Y-77300272D01*
X108393089Y-77175377D01*
X108384034Y-77170763D01*
X108333240Y-77122788D01*
X108316446Y-77054966D01*
X108338985Y-76988832D01*
X108384042Y-76949793D01*
X108393350Y-76945051D01*
X108472541Y-76887515D01*
X108565320Y-76820109D01*
X108565322Y-76820106D01*
X108565326Y-76820104D01*
X108715638Y-76669792D01*
X108715640Y-76669788D01*
X108715643Y-76669786D01*
X108840582Y-76497820D01*
X108840581Y-76497820D01*
X108840585Y-76497816D01*
X108937091Y-76308412D01*
X109002780Y-76106243D01*
X109036034Y-75896287D01*
X109036034Y-75683713D01*
X109002780Y-75473757D01*
X108937091Y-75271588D01*
X108840585Y-75082184D01*
X108840583Y-75082181D01*
X108840582Y-75082179D01*
X108715643Y-74910213D01*
X108602103Y-74796673D01*
X108568618Y-74735350D01*
X108573602Y-74665658D01*
X108615474Y-74609725D01*
X108646449Y-74592810D01*
X108777865Y-74543796D01*
X108893080Y-74457546D01*
X108979330Y-74342331D01*
X109029625Y-74207483D01*
X109036034Y-74147873D01*
X109036033Y-72352128D01*
X109029625Y-72292517D01*
X109011861Y-72244890D01*
X108979331Y-72157671D01*
X108979327Y-72157664D01*
X108893081Y-72042455D01*
X108893078Y-72042452D01*
X108777869Y-71956206D01*
X108777862Y-71956202D01*
X108643016Y-71905908D01*
X108643017Y-71905908D01*
X108583417Y-71899501D01*
X108583415Y-71899500D01*
X108583407Y-71899500D01*
X108583398Y-71899500D01*
X106787663Y-71899500D01*
X106787657Y-71899501D01*
X106728050Y-71905908D01*
X106593205Y-71956202D01*
X106593198Y-71956206D01*
X106477989Y-72042452D01*
X106477986Y-72042455D01*
X106391740Y-72157664D01*
X106391736Y-72157671D01*
X106341442Y-72292517D01*
X106335035Y-72352116D01*
X106335035Y-72352123D01*
X106335034Y-72352135D01*
X106335034Y-74147870D01*
X106335035Y-74147876D01*
X106341442Y-74207483D01*
X106391736Y-74342328D01*
X106391740Y-74342335D01*
X106477986Y-74457544D01*
X106477989Y-74457547D01*
X106593198Y-74543793D01*
X106593205Y-74543797D01*
X106724616Y-74592810D01*
X106780550Y-74634681D01*
X106804967Y-74700145D01*
X106790116Y-74768418D01*
X106768965Y-74796673D01*
X106655423Y-74910215D01*
X106530485Y-75082179D01*
X106433978Y-75271585D01*
X106368287Y-75473760D01*
X106335034Y-75683713D01*
X106335034Y-75896286D01*
X106361755Y-76065000D01*
X106368288Y-76106243D01*
X106401914Y-76209734D01*
X106433978Y-76308414D01*
X106530485Y-76497820D01*
X106655424Y-76669786D01*
X106805747Y-76820109D01*
X106977713Y-76945048D01*
X106977715Y-76945049D01*
X106977718Y-76945051D01*
X106987027Y-76949794D01*
X107037824Y-76997766D01*
X107054621Y-77065587D01*
X107032086Y-77131722D01*
X106987036Y-77170762D01*
X106977977Y-77175378D01*
X106806074Y-77300272D01*
X106806069Y-77300276D01*
X106655810Y-77450535D01*
X106655806Y-77450540D01*
X106530913Y-77622442D01*
X106434438Y-77811782D01*
X106368776Y-78013870D01*
X106368776Y-78013873D01*
X106358303Y-78080000D01*
X107252522Y-78080000D01*
X107219609Y-78137007D01*
X107185534Y-78264174D01*
X107185534Y-78395826D01*
X107219609Y-78522993D01*
X107252522Y-78580000D01*
X106358303Y-78580000D01*
X106368776Y-78646126D01*
X106368776Y-78646129D01*
X106434438Y-78848217D01*
X106530913Y-79037557D01*
X106655806Y-79209459D01*
X106655810Y-79209464D01*
X106806069Y-79359723D01*
X106806074Y-79359727D01*
X106977978Y-79484622D01*
X106987582Y-79489516D01*
X107038378Y-79537491D01*
X107055172Y-79605312D01*
X107032634Y-79671447D01*
X106987582Y-79710484D01*
X106977978Y-79715377D01*
X106806074Y-79840272D01*
X106806069Y-79840276D01*
X106655810Y-79990535D01*
X106655806Y-79990540D01*
X106530913Y-80162442D01*
X106434438Y-80351782D01*
X106368776Y-80553870D01*
X106368776Y-80553873D01*
X106358303Y-80620000D01*
X107252522Y-80620000D01*
X107219609Y-80677007D01*
X107185534Y-80804174D01*
X107185534Y-80935826D01*
X107219609Y-81062993D01*
X107252522Y-81120000D01*
X106358303Y-81120000D01*
X106368776Y-81186126D01*
X106368776Y-81186129D01*
X106434438Y-81388217D01*
X106530913Y-81577557D01*
X106655806Y-81749459D01*
X106655810Y-81749464D01*
X106806069Y-81899723D01*
X106806074Y-81899727D01*
X106977978Y-82024622D01*
X106987029Y-82029234D01*
X107037826Y-82077208D01*
X107054621Y-82145029D01*
X107032084Y-82211164D01*
X106987033Y-82250202D01*
X106977716Y-82254949D01*
X106805747Y-82379890D01*
X106655424Y-82530213D01*
X106530485Y-82702179D01*
X106433978Y-82891585D01*
X106368287Y-83093760D01*
X106335034Y-83303713D01*
X106335034Y-83516287D01*
X106338994Y-83541287D01*
X106368288Y-83726244D01*
X106368288Y-83726247D01*
X106382025Y-83768523D01*
X106384020Y-83838364D01*
X106351775Y-83894522D01*
X104890618Y-85355681D01*
X104829295Y-85389166D01*
X104802937Y-85392000D01*
X100471253Y-85392000D01*
X100404214Y-85372315D01*
X100360769Y-85324295D01*
X100340586Y-85284685D01*
X100340585Y-85284684D01*
X100215643Y-85112713D01*
X100065320Y-84962390D01*
X99893351Y-84837449D01*
X99884038Y-84832704D01*
X99833241Y-84784730D01*
X99816446Y-84716909D01*
X99838983Y-84650774D01*
X99884041Y-84611732D01*
X99893092Y-84607120D01*
X100064993Y-84482227D01*
X100064998Y-84482223D01*
X100215257Y-84331964D01*
X100215261Y-84331959D01*
X100340154Y-84160057D01*
X100436629Y-83970717D01*
X100502291Y-83768629D01*
X100502291Y-83768626D01*
X100512765Y-83702500D01*
X99618546Y-83702500D01*
X99651459Y-83645493D01*
X99685534Y-83518326D01*
X99685534Y-83386674D01*
X99651459Y-83259507D01*
X99618546Y-83202500D01*
X100512765Y-83202500D01*
X100502291Y-83136373D01*
X100502291Y-83136370D01*
X100436629Y-82934282D01*
X100340154Y-82744942D01*
X100215261Y-82573040D01*
X100215257Y-82573035D01*
X100101587Y-82459365D01*
X100068102Y-82398042D01*
X100073086Y-82328350D01*
X100114958Y-82272417D01*
X100145934Y-82255502D01*
X100277865Y-82206296D01*
X100393080Y-82120046D01*
X100479330Y-82004831D01*
X100529625Y-81869983D01*
X100536034Y-81810373D01*
X100536033Y-80014628D01*
X100529625Y-79955017D01*
X100486829Y-79840276D01*
X100479331Y-79820171D01*
X100479327Y-79820164D01*
X100393081Y-79704955D01*
X100393078Y-79704952D01*
X100277869Y-79618706D01*
X100277862Y-79618702D01*
X100143016Y-79568408D01*
X100143017Y-79568408D01*
X100083417Y-79562001D01*
X100083415Y-79562000D01*
X100083407Y-79562000D01*
X100083399Y-79562000D01*
X100060034Y-79562000D01*
X99992995Y-79542315D01*
X99947240Y-79489511D01*
X99936034Y-79438000D01*
X99936034Y-76976696D01*
X99955719Y-76909657D01*
X99972353Y-76889015D01*
X105374549Y-71486819D01*
X105435872Y-71453334D01*
X105462230Y-71450500D01*
X118198304Y-71450500D01*
X118265343Y-71470185D01*
X118285985Y-71486819D01*
X119765358Y-72966192D01*
X119798843Y-73027515D01*
X119800150Y-73073271D01*
X119785034Y-73168707D01*
X119785034Y-73381286D01*
X119818287Y-73591239D01*
X119883978Y-73793414D01*
X119980485Y-73982820D01*
X120105424Y-74154786D01*
X120255747Y-74305109D01*
X120427713Y-74430048D01*
X120427715Y-74430049D01*
X120427718Y-74430051D01*
X120437027Y-74434794D01*
X120487824Y-74482766D01*
X120504621Y-74550587D01*
X120482086Y-74616722D01*
X120437036Y-74655762D01*
X120427977Y-74660378D01*
X120256074Y-74785272D01*
X120256069Y-74785276D01*
X120105810Y-74935535D01*
X120105806Y-74935540D01*
X119980913Y-75107442D01*
X119884438Y-75296782D01*
X119818776Y-75498870D01*
X119818776Y-75498873D01*
X119808303Y-75565000D01*
X120702522Y-75565000D01*
X120669609Y-75622007D01*
X120635534Y-75749174D01*
X120635534Y-75880826D01*
X120669609Y-76007993D01*
X120702522Y-76065000D01*
X119808303Y-76065000D01*
X119818776Y-76131126D01*
X119818776Y-76131129D01*
X119884438Y-76333217D01*
X119980913Y-76522557D01*
X120105806Y-76694459D01*
X120105810Y-76694464D01*
X120256069Y-76844723D01*
X120256074Y-76844727D01*
X120427978Y-76969622D01*
X120437029Y-76974234D01*
X120487826Y-77022208D01*
X120504621Y-77090029D01*
X120482084Y-77156164D01*
X120437033Y-77195202D01*
X120427716Y-77199949D01*
X120255747Y-77324890D01*
X120105424Y-77475213D01*
X119980485Y-77647179D01*
X119883978Y-77836585D01*
X119818287Y-78038760D01*
X119785034Y-78248713D01*
X119785034Y-78461286D01*
X119818288Y-78671244D01*
X119818288Y-78671247D01*
X119832025Y-78713523D01*
X119834020Y-78783364D01*
X119801775Y-78839522D01*
X115219295Y-83422002D01*
X115219286Y-83422011D01*
X115216821Y-83424477D01*
X115216819Y-83424479D01*
X115105015Y-83536283D01*
X115089136Y-83563787D01*
X115025958Y-83673214D01*
X114985034Y-83825942D01*
X114985034Y-83825944D01*
X114985034Y-83994045D01*
X114985035Y-83994058D01*
X114985035Y-113028331D01*
X114985034Y-113028349D01*
X114985034Y-113194055D01*
X114985033Y-113194055D01*
X114985034Y-113194058D01*
X115025958Y-113346786D01*
X115025959Y-113346788D01*
X115025958Y-113346788D01*
X115030094Y-113353950D01*
X115030935Y-113355406D01*
X115105015Y-113483717D01*
X115117279Y-113495981D01*
X115124932Y-113508448D01*
X115130404Y-113528618D01*
X115140420Y-113546960D01*
X115139635Y-113562640D01*
X115143228Y-113575880D01*
X115138174Y-113591859D01*
X115137186Y-113611634D01*
X115118903Y-113667903D01*
X115085034Y-113881746D01*
X115085034Y-114098253D01*
X115118904Y-114312098D01*
X115185806Y-114518006D01*
X115185807Y-114518009D01*
X115255190Y-114654178D01*
X115284101Y-114710919D01*
X115411362Y-114886078D01*
X115564456Y-115039172D01*
X115739615Y-115166433D01*
X115776630Y-115185293D01*
X115932524Y-115264726D01*
X115932527Y-115264727D01*
X116035481Y-115298178D01*
X116138437Y-115331630D01*
X116352280Y-115365500D01*
X116352281Y-115365500D01*
X116568787Y-115365500D01*
X116568788Y-115365500D01*
X116782631Y-115331630D01*
X116988543Y-115264726D01*
X117181453Y-115166433D01*
X117356612Y-115039172D01*
X117509706Y-114886078D01*
X117636967Y-114710919D01*
X117735260Y-114518009D01*
X117802164Y-114312097D01*
X117836034Y-114098254D01*
X117836034Y-113881746D01*
X117802164Y-113667903D01*
X117735260Y-113461991D01*
X117735260Y-113461990D01*
X117636966Y-113269079D01*
X117621205Y-113247387D01*
X117597724Y-113181581D01*
X117613549Y-113113527D01*
X117663653Y-113064831D01*
X117721522Y-113050500D01*
X117832560Y-113050500D01*
X117832561Y-113050500D01*
X118073610Y-113012321D01*
X118305719Y-112936904D01*
X118523173Y-112826106D01*
X118720617Y-112682655D01*
X118893189Y-112510083D01*
X119036640Y-112312639D01*
X119147438Y-112095185D01*
X119222855Y-111863076D01*
X119226849Y-111837857D01*
X123185034Y-111837857D01*
X123185034Y-112162143D01*
X123194588Y-112259152D01*
X123216818Y-112484857D01*
X123216821Y-112484874D01*
X123280079Y-112802902D01*
X123280082Y-112802913D01*
X123374220Y-113113247D01*
X123498320Y-113412849D01*
X123498322Y-113412854D01*
X123651180Y-113698830D01*
X123651191Y-113698848D01*
X123831345Y-113968467D01*
X123831355Y-113968481D01*
X124037080Y-114219158D01*
X124266375Y-114448453D01*
X124266380Y-114448457D01*
X124266381Y-114448458D01*
X124517058Y-114654183D01*
X124786692Y-114834347D01*
X124786701Y-114834352D01*
X124786703Y-114834353D01*
X125072679Y-114987211D01*
X125072681Y-114987211D01*
X125072687Y-114987215D01*
X125372288Y-115111314D01*
X125682611Y-115205449D01*
X125682617Y-115205450D01*
X125682620Y-115205451D01*
X125682631Y-115205454D01*
X125882062Y-115245122D01*
X126000666Y-115268714D01*
X126323391Y-115300500D01*
X126323394Y-115300500D01*
X126647674Y-115300500D01*
X126647677Y-115300500D01*
X126970402Y-115268714D01*
X127127829Y-115237399D01*
X127288436Y-115205454D01*
X127288447Y-115205451D01*
X127288447Y-115205450D01*
X127288457Y-115205449D01*
X127598780Y-115111314D01*
X127898381Y-114987215D01*
X128184376Y-114834347D01*
X128454010Y-114654183D01*
X128704687Y-114448458D01*
X128933992Y-114219153D01*
X129139717Y-113968476D01*
X129319881Y-113698842D01*
X129472749Y-113412847D01*
X129596848Y-113113246D01*
X129690983Y-112802923D01*
X129690985Y-112802913D01*
X129690988Y-112802902D01*
X129728363Y-112615000D01*
X129754248Y-112484868D01*
X129786034Y-112162143D01*
X129786034Y-111837857D01*
X129754248Y-111515132D01*
X129730656Y-111396528D01*
X129690988Y-111197097D01*
X129690985Y-111197086D01*
X129690984Y-111197083D01*
X129690983Y-111197077D01*
X129596848Y-110886754D01*
X129472749Y-110587153D01*
X129420778Y-110489923D01*
X129319887Y-110301169D01*
X129319886Y-110301167D01*
X129319881Y-110301158D01*
X129139717Y-110031524D01*
X128933992Y-109780847D01*
X128933991Y-109780846D01*
X128933987Y-109780841D01*
X128704692Y-109551546D01*
X128454015Y-109345821D01*
X128454014Y-109345820D01*
X128454010Y-109345817D01*
X128184376Y-109165653D01*
X128184371Y-109165650D01*
X128184364Y-109165646D01*
X127898388Y-109012788D01*
X127898383Y-109012786D01*
X127598781Y-108888686D01*
X127288447Y-108794548D01*
X127288436Y-108794545D01*
X126970408Y-108731287D01*
X126970391Y-108731284D01*
X126726346Y-108707248D01*
X126647677Y-108699500D01*
X126323391Y-108699500D01*
X126250633Y-108706666D01*
X126000676Y-108731284D01*
X126000659Y-108731287D01*
X125682631Y-108794545D01*
X125682620Y-108794548D01*
X125372286Y-108888686D01*
X125072684Y-109012786D01*
X125072679Y-109012788D01*
X124786703Y-109165646D01*
X124786685Y-109165657D01*
X124517066Y-109345811D01*
X124517052Y-109345821D01*
X124266375Y-109551546D01*
X124037080Y-109780841D01*
X123831355Y-110031518D01*
X123831345Y-110031532D01*
X123651191Y-110301151D01*
X123651180Y-110301169D01*
X123498322Y-110587145D01*
X123498320Y-110587150D01*
X123374220Y-110886752D01*
X123280082Y-111197086D01*
X123280079Y-111197097D01*
X123216821Y-111515125D01*
X123216818Y-111515142D01*
X123192200Y-111765099D01*
X123185034Y-111837857D01*
X119226849Y-111837857D01*
X119261034Y-111622027D01*
X119261034Y-111377973D01*
X119222855Y-111136924D01*
X119147438Y-110904815D01*
X119036640Y-110687361D01*
X118963829Y-110587145D01*
X118893194Y-110489923D01*
X118893190Y-110489918D01*
X118720615Y-110317343D01*
X118720610Y-110317339D01*
X118523176Y-110173896D01*
X118523175Y-110173895D01*
X118523173Y-110173894D01*
X118305719Y-110063096D01*
X118073610Y-109987679D01*
X118073608Y-109987678D01*
X118073606Y-109987678D01*
X117905303Y-109961021D01*
X117832561Y-109949500D01*
X117588507Y-109949500D01*
X117532627Y-109958350D01*
X117347461Y-109987678D01*
X117115346Y-110063097D01*
X116897891Y-110173896D01*
X116700457Y-110317339D01*
X116700452Y-110317343D01*
X116527877Y-110489918D01*
X116527873Y-110489923D01*
X116410353Y-110651677D01*
X116355023Y-110694343D01*
X116285410Y-110700322D01*
X116223615Y-110667717D01*
X116189258Y-110606878D01*
X116186035Y-110578792D01*
X116186035Y-84205095D01*
X116205720Y-84138056D01*
X116222349Y-84117419D01*
X119573353Y-80766414D01*
X119634676Y-80732930D01*
X119704368Y-80737914D01*
X119760301Y-80779786D01*
X119784718Y-80845250D01*
X119785034Y-80854096D01*
X119785034Y-81001287D01*
X119788565Y-81023582D01*
X119812865Y-81177007D01*
X119818288Y-81211243D01*
X119825597Y-81233739D01*
X119883978Y-81413414D01*
X119980485Y-81602820D01*
X120105424Y-81774786D01*
X120255747Y-81925109D01*
X120427716Y-82050050D01*
X120436480Y-82054516D01*
X120487276Y-82102491D01*
X120504070Y-82170312D01*
X120481532Y-82236447D01*
X120436480Y-82275484D01*
X120427716Y-82279949D01*
X120255747Y-82404890D01*
X120105424Y-82555213D01*
X119980485Y-82727179D01*
X119883978Y-82916585D01*
X119818287Y-83118760D01*
X119814053Y-83145493D01*
X119785034Y-83328713D01*
X119785034Y-83541287D01*
X119793079Y-83592083D01*
X119814328Y-83726244D01*
X119818288Y-83751243D01*
X119864842Y-83894522D01*
X119883978Y-83953414D01*
X119980485Y-84142820D01*
X120105424Y-84314786D01*
X120255747Y-84465109D01*
X120427716Y-84590050D01*
X120436480Y-84594516D01*
X120487276Y-84642491D01*
X120504070Y-84710312D01*
X120481532Y-84776447D01*
X120436480Y-84815484D01*
X120427716Y-84819949D01*
X120255747Y-84944890D01*
X120105424Y-85095213D01*
X119980485Y-85267179D01*
X119883978Y-85456585D01*
X119818287Y-85658760D01*
X119788994Y-85843713D01*
X119785034Y-85868713D01*
X119785034Y-86081287D01*
X119787806Y-86098786D01*
X119814328Y-86266244D01*
X119818288Y-86291243D01*
X119877351Y-86473020D01*
X119883978Y-86493414D01*
X119980485Y-86682820D01*
X120105424Y-86854786D01*
X120255747Y-87005109D01*
X120427716Y-87130050D01*
X120436480Y-87134516D01*
X120487276Y-87182491D01*
X120504070Y-87250312D01*
X120481532Y-87316447D01*
X120436480Y-87355484D01*
X120427716Y-87359949D01*
X120255747Y-87484890D01*
X120105424Y-87635213D01*
X119980485Y-87807179D01*
X119883978Y-87996585D01*
X119818287Y-88198760D01*
X119788994Y-88383713D01*
X119785034Y-88408713D01*
X119785034Y-88621287D01*
X119787806Y-88638786D01*
X119814328Y-88806244D01*
X119818288Y-88831243D01*
X119877351Y-89013020D01*
X119883978Y-89033414D01*
X119980485Y-89222820D01*
X120105424Y-89394786D01*
X120255747Y-89545109D01*
X120427716Y-89670050D01*
X120436480Y-89674516D01*
X120487276Y-89722491D01*
X120504070Y-89790312D01*
X120481532Y-89856447D01*
X120436480Y-89895484D01*
X120427716Y-89899949D01*
X120255747Y-90024890D01*
X120105424Y-90175213D01*
X119980485Y-90347179D01*
X119883978Y-90536585D01*
X119818287Y-90738760D01*
X119788994Y-90923713D01*
X119785034Y-90948713D01*
X119785034Y-91161287D01*
X119787806Y-91178786D01*
X119814328Y-91346244D01*
X119818288Y-91371243D01*
X119877351Y-91553020D01*
X119883978Y-91573414D01*
X119980485Y-91762820D01*
X120105424Y-91934786D01*
X120255747Y-92085109D01*
X120427716Y-92210050D01*
X120436480Y-92214516D01*
X120487276Y-92262491D01*
X120504070Y-92330312D01*
X120481532Y-92396447D01*
X120436480Y-92435484D01*
X120427716Y-92439949D01*
X120255747Y-92564890D01*
X120105424Y-92715213D01*
X119980485Y-92887179D01*
X119883978Y-93076585D01*
X119818287Y-93278760D01*
X119788994Y-93463713D01*
X119785034Y-93488713D01*
X119785034Y-93701287D01*
X119787806Y-93718786D01*
X119814327Y-93886239D01*
X119818288Y-93911243D01*
X119877351Y-94093020D01*
X119883978Y-94113414D01*
X119980485Y-94302820D01*
X120105424Y-94474786D01*
X120255747Y-94625109D01*
X120427716Y-94750050D01*
X120436480Y-94754516D01*
X120487276Y-94802491D01*
X120504070Y-94870312D01*
X120481532Y-94936447D01*
X120436480Y-94975484D01*
X120427716Y-94979949D01*
X120255747Y-95104890D01*
X120105424Y-95255213D01*
X119980485Y-95427179D01*
X119883978Y-95616585D01*
X119818287Y-95818760D01*
X119788994Y-96003713D01*
X119785034Y-96028713D01*
X119785034Y-96241287D01*
X119788565Y-96263582D01*
X119814327Y-96426239D01*
X119818288Y-96451243D01*
X119825597Y-96473739D01*
X119883978Y-96653414D01*
X119980485Y-96842820D01*
X120105424Y-97014786D01*
X120255747Y-97165109D01*
X120427716Y-97290050D01*
X120436480Y-97294516D01*
X120487276Y-97342491D01*
X120504070Y-97410312D01*
X120481532Y-97476447D01*
X120436480Y-97515484D01*
X120427716Y-97519949D01*
X120255747Y-97644890D01*
X120105424Y-97795213D01*
X119980485Y-97967179D01*
X119883978Y-98156585D01*
X119818287Y-98358760D01*
X119788994Y-98543713D01*
X119785034Y-98568713D01*
X119785034Y-98781287D01*
X119788565Y-98803582D01*
X119814327Y-98966239D01*
X119818288Y-98991243D01*
X119825597Y-99013739D01*
X119883978Y-99193414D01*
X119980485Y-99382820D01*
X120105424Y-99554786D01*
X120255747Y-99705109D01*
X120427716Y-99830050D01*
X120436480Y-99834516D01*
X120487276Y-99882491D01*
X120504070Y-99950312D01*
X120481532Y-100016447D01*
X120436480Y-100055484D01*
X120427716Y-100059949D01*
X120255747Y-100184890D01*
X120105424Y-100335213D01*
X119980485Y-100507179D01*
X119883978Y-100696585D01*
X119818287Y-100898760D01*
X119785034Y-101108713D01*
X119785034Y-101321286D01*
X119818287Y-101531239D01*
X119883978Y-101733414D01*
X119980485Y-101922820D01*
X120105424Y-102094786D01*
X120255747Y-102245109D01*
X120427713Y-102370048D01*
X120427715Y-102370049D01*
X120427718Y-102370051D01*
X120617122Y-102466557D01*
X120819291Y-102532246D01*
X121029247Y-102565500D01*
X121029248Y-102565500D01*
X121241820Y-102565500D01*
X121241821Y-102565500D01*
X121451777Y-102532246D01*
X121653946Y-102466557D01*
X121843350Y-102370051D01*
X121877764Y-102345048D01*
X122015320Y-102245109D01*
X122015322Y-102245106D01*
X122015326Y-102245104D01*
X122165638Y-102094792D01*
X122165640Y-102094788D01*
X122165643Y-102094786D01*
X122290582Y-101922820D01*
X122290581Y-101922820D01*
X122290585Y-101922816D01*
X122387091Y-101733412D01*
X122452780Y-101531243D01*
X122486034Y-101321287D01*
X122486034Y-101108713D01*
X122452780Y-100898757D01*
X122439040Y-100856473D01*
X122437046Y-100786635D01*
X122469289Y-100730478D01*
X123865451Y-99334319D01*
X123926774Y-99300834D01*
X123953132Y-99298000D01*
X127899815Y-99298000D01*
X127966854Y-99317685D01*
X128010299Y-99365705D01*
X128030481Y-99405314D01*
X128030482Y-99405315D01*
X128155424Y-99577286D01*
X128305747Y-99727609D01*
X128477713Y-99852548D01*
X128477715Y-99852549D01*
X128477718Y-99852551D01*
X128667122Y-99949057D01*
X128869291Y-100014746D01*
X129079247Y-100048000D01*
X129079248Y-100048000D01*
X129291820Y-100048000D01*
X129291821Y-100048000D01*
X129501777Y-100014746D01*
X129703946Y-99949057D01*
X129893350Y-99852551D01*
X129958733Y-99805048D01*
X130065320Y-99727609D01*
X130065322Y-99727606D01*
X130065326Y-99727604D01*
X130215638Y-99577292D01*
X130215640Y-99577288D01*
X130215643Y-99577286D01*
X130340582Y-99405320D01*
X130340581Y-99405320D01*
X130340585Y-99405316D01*
X130437091Y-99215912D01*
X130502780Y-99013743D01*
X130536034Y-98803787D01*
X130536034Y-98591213D01*
X130502780Y-98381257D01*
X130437091Y-98179088D01*
X130340585Y-97989684D01*
X130340583Y-97989681D01*
X130340582Y-97989679D01*
X130215643Y-97817713D01*
X130065320Y-97667390D01*
X129893354Y-97542451D01*
X129892649Y-97542091D01*
X129884588Y-97537985D01*
X129833793Y-97490012D01*
X129816997Y-97422192D01*
X129839533Y-97356056D01*
X129884588Y-97317015D01*
X129893350Y-97312551D01*
X129958733Y-97265048D01*
X130065320Y-97187609D01*
X130065322Y-97187606D01*
X130065326Y-97187604D01*
X130215638Y-97037292D01*
X130215640Y-97037288D01*
X130215643Y-97037286D01*
X130340582Y-96865320D01*
X130340581Y-96865320D01*
X130340585Y-96865316D01*
X130437091Y-96675912D01*
X130502780Y-96473743D01*
X130536034Y-96263787D01*
X130536034Y-96051213D01*
X130502780Y-95841257D01*
X130437091Y-95639088D01*
X130340585Y-95449684D01*
X130340583Y-95449681D01*
X130340582Y-95449679D01*
X130215643Y-95277713D01*
X130065320Y-95127390D01*
X129893354Y-95002451D01*
X129892649Y-95002091D01*
X129884588Y-94997985D01*
X129833793Y-94950012D01*
X129816997Y-94882192D01*
X129839533Y-94816056D01*
X129884588Y-94777015D01*
X129893350Y-94772551D01*
X129958733Y-94725048D01*
X130065320Y-94647609D01*
X130065322Y-94647606D01*
X130065326Y-94647604D01*
X130215638Y-94497292D01*
X130215640Y-94497288D01*
X130215643Y-94497286D01*
X130340582Y-94325320D01*
X130340581Y-94325320D01*
X130340585Y-94325316D01*
X130437091Y-94135912D01*
X130502780Y-93933743D01*
X130536034Y-93723787D01*
X130536034Y-93511213D01*
X130502780Y-93301257D01*
X130437091Y-93099088D01*
X130340585Y-92909684D01*
X130340583Y-92909681D01*
X130340582Y-92909679D01*
X130215643Y-92737713D01*
X130065320Y-92587390D01*
X129893354Y-92462451D01*
X129892649Y-92462091D01*
X129884588Y-92457985D01*
X129833793Y-92410012D01*
X129816997Y-92342192D01*
X129839533Y-92276056D01*
X129884588Y-92237015D01*
X129893350Y-92232551D01*
X129958733Y-92185048D01*
X130065320Y-92107609D01*
X130065322Y-92107606D01*
X130065326Y-92107604D01*
X130215638Y-91957292D01*
X130215640Y-91957288D01*
X130215643Y-91957286D01*
X130340582Y-91785320D01*
X130340581Y-91785320D01*
X130340585Y-91785316D01*
X130437091Y-91595912D01*
X130502780Y-91393743D01*
X130536034Y-91183787D01*
X130536034Y-90971213D01*
X130502780Y-90761257D01*
X130437091Y-90559088D01*
X130340585Y-90369684D01*
X130340583Y-90369681D01*
X130340582Y-90369679D01*
X130215643Y-90197713D01*
X130065320Y-90047390D01*
X129893354Y-89922451D01*
X129892649Y-89922091D01*
X129884588Y-89917985D01*
X129833793Y-89870012D01*
X129816997Y-89802192D01*
X129839533Y-89736056D01*
X129884588Y-89697015D01*
X129893350Y-89692551D01*
X129958733Y-89645048D01*
X130065320Y-89567609D01*
X130065322Y-89567606D01*
X130065326Y-89567604D01*
X130215638Y-89417292D01*
X130215640Y-89417288D01*
X130215643Y-89417286D01*
X130340582Y-89245320D01*
X130340581Y-89245320D01*
X130340585Y-89245316D01*
X130437091Y-89055912D01*
X130502780Y-88853743D01*
X130536034Y-88643787D01*
X130536034Y-88431213D01*
X130502780Y-88221257D01*
X130437091Y-88019088D01*
X130340585Y-87829684D01*
X130340583Y-87829681D01*
X130340582Y-87829679D01*
X130215643Y-87657713D01*
X130065320Y-87507390D01*
X129893354Y-87382451D01*
X129892649Y-87382091D01*
X129884588Y-87377985D01*
X129833793Y-87330012D01*
X129816997Y-87262192D01*
X129839533Y-87196056D01*
X129884588Y-87157015D01*
X129893350Y-87152551D01*
X129958733Y-87105048D01*
X130065320Y-87027609D01*
X130065322Y-87027606D01*
X130065326Y-87027604D01*
X130215638Y-86877292D01*
X130215640Y-86877288D01*
X130215643Y-86877286D01*
X130340582Y-86705320D01*
X130340581Y-86705320D01*
X130340585Y-86705316D01*
X130437091Y-86515912D01*
X130502780Y-86313743D01*
X130536034Y-86103787D01*
X130536034Y-85891213D01*
X130502780Y-85681257D01*
X130437091Y-85479088D01*
X130340585Y-85289684D01*
X130340583Y-85289681D01*
X130340582Y-85289679D01*
X130215643Y-85117713D01*
X130065320Y-84967390D01*
X129893354Y-84842451D01*
X129892649Y-84842091D01*
X129884588Y-84837985D01*
X129833793Y-84790012D01*
X129816997Y-84722192D01*
X129839533Y-84656056D01*
X129884588Y-84617015D01*
X129893350Y-84612551D01*
X129958733Y-84565048D01*
X130065320Y-84487609D01*
X130065322Y-84487606D01*
X130065326Y-84487604D01*
X130215638Y-84337292D01*
X130215640Y-84337288D01*
X130215643Y-84337286D01*
X130340582Y-84165320D01*
X130340581Y-84165320D01*
X130340585Y-84165316D01*
X130437091Y-83975912D01*
X130502780Y-83773743D01*
X130536034Y-83563787D01*
X130536034Y-83351213D01*
X130502780Y-83141257D01*
X130437091Y-82939088D01*
X130340585Y-82749684D01*
X130340583Y-82749681D01*
X130340582Y-82749679D01*
X130215643Y-82577713D01*
X130065320Y-82427390D01*
X129893354Y-82302451D01*
X129892649Y-82302091D01*
X129884588Y-82297985D01*
X129833793Y-82250012D01*
X129816997Y-82182192D01*
X129839533Y-82116056D01*
X129884588Y-82077015D01*
X129893350Y-82072551D01*
X129986554Y-82004835D01*
X130065320Y-81947609D01*
X130065322Y-81947606D01*
X130065326Y-81947604D01*
X130215638Y-81797292D01*
X130215640Y-81797288D01*
X130215643Y-81797286D01*
X130340582Y-81625320D01*
X130340581Y-81625320D01*
X130340585Y-81625316D01*
X130437091Y-81435912D01*
X130502780Y-81233743D01*
X130536034Y-81023787D01*
X130536034Y-80811213D01*
X130502780Y-80601257D01*
X130437091Y-80399088D01*
X130340585Y-80209684D01*
X130340583Y-80209681D01*
X130340582Y-80209679D01*
X130215643Y-80037713D01*
X130065320Y-79887390D01*
X129893351Y-79762449D01*
X129884038Y-79757704D01*
X129833241Y-79709730D01*
X129816446Y-79641909D01*
X129838983Y-79575774D01*
X129884041Y-79536732D01*
X129893092Y-79532120D01*
X130064993Y-79407227D01*
X130064998Y-79407223D01*
X130215257Y-79256964D01*
X130215261Y-79256959D01*
X130340154Y-79085057D01*
X130436629Y-78895717D01*
X130502291Y-78693629D01*
X130502291Y-78693626D01*
X130512765Y-78627500D01*
X129618546Y-78627500D01*
X129651459Y-78570493D01*
X129685534Y-78443326D01*
X129685534Y-78311674D01*
X129651459Y-78184507D01*
X129618546Y-78127500D01*
X130512765Y-78127500D01*
X130502291Y-78061373D01*
X130502291Y-78061370D01*
X130436629Y-77859282D01*
X130340154Y-77669942D01*
X130215261Y-77498040D01*
X130215257Y-77498035D01*
X130101587Y-77384365D01*
X130068102Y-77323042D01*
X130073086Y-77253350D01*
X130114958Y-77197417D01*
X130145934Y-77180502D01*
X130277865Y-77131296D01*
X130393080Y-77045046D01*
X130479330Y-76929831D01*
X130529625Y-76794983D01*
X130536034Y-76735373D01*
X130536033Y-74939628D01*
X130529625Y-74880017D01*
X130494287Y-74785272D01*
X130479331Y-74745171D01*
X130479327Y-74745164D01*
X130393081Y-74629955D01*
X130393078Y-74629952D01*
X130277869Y-74543706D01*
X130277862Y-74543702D01*
X130143016Y-74493408D01*
X130143017Y-74493408D01*
X130083417Y-74487001D01*
X130083415Y-74487000D01*
X130083407Y-74487000D01*
X130083398Y-74487000D01*
X128287663Y-74487000D01*
X128287657Y-74487001D01*
X128228050Y-74493408D01*
X128093205Y-74543702D01*
X128093198Y-74543706D01*
X127977989Y-74629952D01*
X127977986Y-74629955D01*
X127891740Y-74745164D01*
X127891736Y-74745171D01*
X127841442Y-74880017D01*
X127838196Y-74910213D01*
X127835035Y-74939623D01*
X127835034Y-74939635D01*
X127835034Y-74963000D01*
X127815349Y-75030039D01*
X127762545Y-75075794D01*
X127711034Y-75087000D01*
X124060263Y-75087000D01*
X123993224Y-75067315D01*
X123972582Y-75050681D01*
X122505709Y-73583807D01*
X122472224Y-73522484D01*
X122470917Y-73476728D01*
X122486034Y-73381285D01*
X122486034Y-73168713D01*
X122463670Y-73027515D01*
X122452780Y-72958757D01*
X122387091Y-72756588D01*
X122290585Y-72567184D01*
X122290583Y-72567181D01*
X122290582Y-72567179D01*
X122165643Y-72395213D01*
X122015320Y-72244890D01*
X121843354Y-72119951D01*
X121653948Y-72023444D01*
X121653947Y-72023443D01*
X121653946Y-72023443D01*
X121451777Y-71957754D01*
X121451775Y-71957753D01*
X121451774Y-71957753D01*
X121280726Y-71930662D01*
X121241821Y-71924500D01*
X121029247Y-71924500D01*
X121029242Y-71924500D01*
X120933805Y-71939616D01*
X120864512Y-71930662D01*
X120826726Y-71904824D01*
X119038955Y-70117052D01*
X119038948Y-70117046D01*
X118965263Y-70067812D01*
X118965263Y-70067813D01*
X118916025Y-70034913D01*
X118779451Y-69978343D01*
X118779441Y-69978340D01*
X118634454Y-69949500D01*
X118634452Y-69949500D01*
X105026082Y-69949500D01*
X105026080Y-69949500D01*
X104881092Y-69978340D01*
X104881086Y-69978342D01*
X104744508Y-70034914D01*
X104744496Y-70034921D01*
X104695269Y-70067813D01*
X104621588Y-70117044D01*
X104621580Y-70117050D01*
X98602584Y-76136046D01*
X98602578Y-76136054D01*
X98553346Y-76209734D01*
X98553347Y-76209735D01*
X98520455Y-76258962D01*
X98520448Y-76258974D01*
X98463876Y-76395552D01*
X98463874Y-76395558D01*
X98435034Y-76540545D01*
X98435034Y-79438000D01*
X98415349Y-79505039D01*
X98362545Y-79550794D01*
X98311039Y-79562000D01*
X98287666Y-79562000D01*
X98287657Y-79562001D01*
X98228050Y-79568408D01*
X98093205Y-79618702D01*
X98093198Y-79618706D01*
X97977989Y-79704952D01*
X97977986Y-79704955D01*
X97891740Y-79820164D01*
X97891736Y-79820171D01*
X97841442Y-79955017D01*
X97835035Y-80014616D01*
X97835035Y-80014623D01*
X97835034Y-80014635D01*
X97361034Y-80014635D01*
X97361034Y-62002696D01*
X97361152Y-61997287D01*
X97361216Y-61995815D01*
X97368112Y-61837860D01*
X98560034Y-61837860D01*
X98560034Y-62162139D01*
X98591818Y-62484857D01*
X98591821Y-62484874D01*
X98655079Y-62802902D01*
X98655082Y-62802913D01*
X98749220Y-63113247D01*
X98873320Y-63412849D01*
X98873322Y-63412854D01*
X99026180Y-63698830D01*
X99026191Y-63698848D01*
X99206345Y-63968467D01*
X99206355Y-63968481D01*
X99412080Y-64219158D01*
X99641375Y-64448453D01*
X99641380Y-64448457D01*
X99641381Y-64448458D01*
X99892058Y-64654183D01*
X100161692Y-64834347D01*
X100161701Y-64834352D01*
X100161703Y-64834353D01*
X100447679Y-64987211D01*
X100447681Y-64987211D01*
X100447687Y-64987215D01*
X100747288Y-65111314D01*
X101057611Y-65205449D01*
X101057617Y-65205450D01*
X101057620Y-65205451D01*
X101057631Y-65205454D01*
X101257062Y-65245122D01*
X101375666Y-65268714D01*
X101698391Y-65300500D01*
X101698394Y-65300500D01*
X102022674Y-65300500D01*
X102022677Y-65300500D01*
X102345402Y-65268714D01*
X102502829Y-65237399D01*
X102663436Y-65205454D01*
X102663447Y-65205451D01*
X102663447Y-65205450D01*
X102663457Y-65205449D01*
X102973780Y-65111314D01*
X103273381Y-64987215D01*
X103559376Y-64834347D01*
X103829010Y-64654183D01*
X104079687Y-64448458D01*
X104308992Y-64219153D01*
X104514717Y-63968476D01*
X104694881Y-63698842D01*
X104847749Y-63412847D01*
X104971848Y-63113246D01*
X105065983Y-62802923D01*
X105065985Y-62802913D01*
X105065988Y-62802902D01*
X105097933Y-62642295D01*
X105129248Y-62484868D01*
X105161034Y-62162143D01*
X105161034Y-61837860D01*
X123185034Y-61837860D01*
X123185034Y-62162139D01*
X123216818Y-62484857D01*
X123216821Y-62484874D01*
X123280079Y-62802902D01*
X123280082Y-62802913D01*
X123374220Y-63113247D01*
X123498320Y-63412849D01*
X123498322Y-63412854D01*
X123651180Y-63698830D01*
X123651191Y-63698848D01*
X123831345Y-63968467D01*
X123831355Y-63968481D01*
X124037080Y-64219158D01*
X124266375Y-64448453D01*
X124266380Y-64448457D01*
X124266381Y-64448458D01*
X124517058Y-64654183D01*
X124786692Y-64834347D01*
X124786701Y-64834352D01*
X124786703Y-64834353D01*
X125072679Y-64987211D01*
X125072681Y-64987211D01*
X125072687Y-64987215D01*
X125372288Y-65111314D01*
X125682611Y-65205449D01*
X125682617Y-65205450D01*
X125682620Y-65205451D01*
X125682631Y-65205454D01*
X125882062Y-65245122D01*
X126000666Y-65268714D01*
X126323391Y-65300500D01*
X126323394Y-65300500D01*
X126647674Y-65300500D01*
X126647677Y-65300500D01*
X126970402Y-65268714D01*
X127127829Y-65237399D01*
X127288436Y-65205454D01*
X127288447Y-65205451D01*
X127288447Y-65205450D01*
X127288457Y-65205449D01*
X127598780Y-65111314D01*
X127898381Y-64987215D01*
X128184376Y-64834347D01*
X128454010Y-64654183D01*
X128704687Y-64448458D01*
X128933992Y-64219153D01*
X129139717Y-63968476D01*
X129319881Y-63698842D01*
X129472749Y-63412847D01*
X129596848Y-63113246D01*
X129690983Y-62802923D01*
X129690985Y-62802913D01*
X129690988Y-62802902D01*
X129722933Y-62642295D01*
X129754248Y-62484868D01*
X129786034Y-62162143D01*
X129786034Y-61837857D01*
X129754248Y-61515132D01*
X129715244Y-61319044D01*
X129690988Y-61197097D01*
X129690985Y-61197086D01*
X129690984Y-61197083D01*
X129690983Y-61197077D01*
X129596848Y-60886754D01*
X129472749Y-60587153D01*
X129319881Y-60301158D01*
X129139717Y-60031524D01*
X128933992Y-59780847D01*
X128933991Y-59780846D01*
X128933987Y-59780841D01*
X128704692Y-59551546D01*
X128454015Y-59345821D01*
X128454014Y-59345820D01*
X128454010Y-59345817D01*
X128184376Y-59165653D01*
X128184371Y-59165650D01*
X128184364Y-59165646D01*
X127898388Y-59012788D01*
X127898383Y-59012786D01*
X127598781Y-58888686D01*
X127288447Y-58794548D01*
X127288436Y-58794545D01*
X126970408Y-58731287D01*
X126970391Y-58731284D01*
X126726346Y-58707248D01*
X126647677Y-58699500D01*
X126323391Y-58699500D01*
X126250633Y-58706666D01*
X126000676Y-58731284D01*
X126000659Y-58731287D01*
X125682631Y-58794545D01*
X125682620Y-58794548D01*
X125372286Y-58888686D01*
X125072684Y-59012786D01*
X125072679Y-59012788D01*
X124786703Y-59165646D01*
X124786685Y-59165657D01*
X124517066Y-59345811D01*
X124517052Y-59345821D01*
X124266375Y-59551546D01*
X124037080Y-59780841D01*
X123831355Y-60031518D01*
X123831345Y-60031532D01*
X123651191Y-60301151D01*
X123651180Y-60301169D01*
X123498322Y-60587145D01*
X123498320Y-60587150D01*
X123374220Y-60886752D01*
X123280082Y-61197086D01*
X123280079Y-61197097D01*
X123216821Y-61515125D01*
X123216818Y-61515142D01*
X123207155Y-61613259D01*
X123191472Y-61772497D01*
X123185034Y-61837860D01*
X105161034Y-61837860D01*
X105161034Y-61837857D01*
X105129248Y-61515132D01*
X105090244Y-61319044D01*
X105065988Y-61197097D01*
X105065985Y-61197086D01*
X105065984Y-61197083D01*
X105065983Y-61197077D01*
X104971848Y-60886754D01*
X104847749Y-60587153D01*
X104694881Y-60301158D01*
X104514717Y-60031524D01*
X104308992Y-59780847D01*
X104308991Y-59780846D01*
X104308987Y-59780841D01*
X104079692Y-59551546D01*
X103829015Y-59345821D01*
X103829014Y-59345820D01*
X103829010Y-59345817D01*
X103559376Y-59165653D01*
X103559371Y-59165650D01*
X103559364Y-59165646D01*
X103273388Y-59012788D01*
X103273383Y-59012786D01*
X102973781Y-58888686D01*
X102663447Y-58794548D01*
X102663436Y-58794545D01*
X102345408Y-58731287D01*
X102345391Y-58731284D01*
X102101346Y-58707248D01*
X102022677Y-58699500D01*
X101698391Y-58699500D01*
X101625633Y-58706666D01*
X101375676Y-58731284D01*
X101375659Y-58731287D01*
X101057631Y-58794545D01*
X101057620Y-58794548D01*
X100747286Y-58888686D01*
X100447684Y-59012786D01*
X100447679Y-59012788D01*
X100161703Y-59165646D01*
X100161685Y-59165657D01*
X99892066Y-59345811D01*
X99892052Y-59345821D01*
X99641375Y-59551546D01*
X99412080Y-59780841D01*
X99206355Y-60031518D01*
X99206345Y-60031532D01*
X99026191Y-60301151D01*
X99026180Y-60301169D01*
X98873322Y-60587145D01*
X98873320Y-60587150D01*
X98749220Y-60886752D01*
X98655082Y-61197086D01*
X98655079Y-61197097D01*
X98591821Y-61515125D01*
X98591818Y-61515142D01*
X98582155Y-61613259D01*
X98566472Y-61772497D01*
X98560034Y-61837860D01*
X97368112Y-61837860D01*
X97377920Y-61613224D01*
X97378861Y-61602483D01*
X97428686Y-61224015D01*
X97430557Y-61213404D01*
X97513182Y-60840701D01*
X97515975Y-60830283D01*
X97630766Y-60466208D01*
X97634452Y-60456084D01*
X97780534Y-60103405D01*
X97785088Y-60093637D01*
X97961364Y-59755011D01*
X97966748Y-59745688D01*
X98171866Y-59423713D01*
X98178040Y-59414896D01*
X98410429Y-59112037D01*
X98417366Y-59103770D01*
X98675247Y-58822338D01*
X98682885Y-58814699D01*
X98964327Y-58556802D01*
X98972602Y-58549859D01*
X99275442Y-58317478D01*
X99284272Y-58311295D01*
X99606227Y-58106183D01*
X99615569Y-58100789D01*
X99954182Y-57924514D01*
X99963936Y-57919965D01*
X100316625Y-57773873D01*
X100326775Y-57770180D01*
X100690825Y-57655391D01*
X100701250Y-57652597D01*
X101073939Y-57569969D01*
X101084546Y-57568098D01*
X101463030Y-57518265D01*
X101473772Y-57517325D01*
X101856328Y-57500617D01*
X101861738Y-57500500D01*
X126419638Y-57500500D01*
X126482824Y-57500500D01*
X126488233Y-57500618D01*
G37*
%TD.AperFunction*%
%TD*%
M02*
