%TF.GenerationSoftware,KiCad,Pcbnew,9.0.0*%
%TF.CreationDate,2025-06-04T23:48:02+02:00*%
%TF.ProjectId,uv_controler,75765f63-6f6e-4747-926f-6c65722e6b69,rev?*%
%TF.SameCoordinates,Original*%
%TF.FileFunction,Legend,Top*%
%TF.FilePolarity,Positive*%
%FSLAX46Y46*%
G04 Gerber Fmt 4.6, Leading zero omitted, Abs format (unit mm)*
G04 Created by KiCad (PCBNEW 9.0.0) date 2025-06-04 23:48:02*
%MOMM*%
%LPD*%
G01*
G04 APERTURE LIST*
%ADD10C,0.150000*%
%ADD11C,0.100000*%
%ADD12C,0.120000*%
G04 APERTURE END LIST*
D10*
X128852200Y-72522319D02*
X128852200Y-73236604D01*
X128852200Y-73236604D02*
X128804581Y-73379461D01*
X128804581Y-73379461D02*
X128709343Y-73474700D01*
X128709343Y-73474700D02*
X128566486Y-73522319D01*
X128566486Y-73522319D02*
X128471248Y-73522319D01*
X129280772Y-72617557D02*
X129328391Y-72569938D01*
X129328391Y-72569938D02*
X129423629Y-72522319D01*
X129423629Y-72522319D02*
X129661724Y-72522319D01*
X129661724Y-72522319D02*
X129756962Y-72569938D01*
X129756962Y-72569938D02*
X129804581Y-72617557D01*
X129804581Y-72617557D02*
X129852200Y-72712795D01*
X129852200Y-72712795D02*
X129852200Y-72808033D01*
X129852200Y-72808033D02*
X129804581Y-72950890D01*
X129804581Y-72950890D02*
X129233153Y-73522319D01*
X129233153Y-73522319D02*
X129852200Y-73522319D01*
X98852200Y-77597319D02*
X98852200Y-78311604D01*
X98852200Y-78311604D02*
X98804581Y-78454461D01*
X98804581Y-78454461D02*
X98709343Y-78549700D01*
X98709343Y-78549700D02*
X98566486Y-78597319D01*
X98566486Y-78597319D02*
X98471248Y-78597319D01*
X99852200Y-78597319D02*
X99280772Y-78597319D01*
X99566486Y-78597319D02*
X99566486Y-77597319D01*
X99566486Y-77597319D02*
X99471248Y-77740176D01*
X99471248Y-77740176D02*
X99376010Y-77835414D01*
X99376010Y-77835414D02*
X99280772Y-77883033D01*
X112877201Y-112717200D02*
X113020058Y-112764819D01*
X113020058Y-112764819D02*
X113258153Y-112764819D01*
X113258153Y-112764819D02*
X113353391Y-112717200D01*
X113353391Y-112717200D02*
X113401010Y-112669580D01*
X113401010Y-112669580D02*
X113448629Y-112574342D01*
X113448629Y-112574342D02*
X113448629Y-112479104D01*
X113448629Y-112479104D02*
X113401010Y-112383866D01*
X113401010Y-112383866D02*
X113353391Y-112336247D01*
X113353391Y-112336247D02*
X113258153Y-112288628D01*
X113258153Y-112288628D02*
X113067677Y-112241009D01*
X113067677Y-112241009D02*
X112972439Y-112193390D01*
X112972439Y-112193390D02*
X112924820Y-112145771D01*
X112924820Y-112145771D02*
X112877201Y-112050533D01*
X112877201Y-112050533D02*
X112877201Y-111955295D01*
X112877201Y-111955295D02*
X112924820Y-111860057D01*
X112924820Y-111860057D02*
X112972439Y-111812438D01*
X112972439Y-111812438D02*
X113067677Y-111764819D01*
X113067677Y-111764819D02*
X113305772Y-111764819D01*
X113305772Y-111764819D02*
X113448629Y-111812438D01*
X113781963Y-111764819D02*
X114020058Y-112764819D01*
X114020058Y-112764819D02*
X114210534Y-112050533D01*
X114210534Y-112050533D02*
X114401010Y-112764819D01*
X114401010Y-112764819D02*
X114639106Y-111764819D01*
X115543867Y-112764819D02*
X114972439Y-112764819D01*
X115258153Y-112764819D02*
X115258153Y-111764819D01*
X115258153Y-111764819D02*
X115162915Y-111907676D01*
X115162915Y-111907676D02*
X115067677Y-112002914D01*
X115067677Y-112002914D02*
X114972439Y-112050533D01*
D11*
X114423629Y-71377419D02*
X114423629Y-72186942D01*
X114423629Y-72186942D02*
X114471248Y-72282180D01*
X114471248Y-72282180D02*
X114518867Y-72329800D01*
X114518867Y-72329800D02*
X114614105Y-72377419D01*
X114614105Y-72377419D02*
X114804581Y-72377419D01*
X114804581Y-72377419D02*
X114899819Y-72329800D01*
X114899819Y-72329800D02*
X114947438Y-72282180D01*
X114947438Y-72282180D02*
X114995057Y-72186942D01*
X114995057Y-72186942D02*
X114995057Y-71377419D01*
X115995057Y-72377419D02*
X115423629Y-72377419D01*
X115709343Y-72377419D02*
X115709343Y-71377419D01*
X115709343Y-71377419D02*
X115614105Y-71520276D01*
X115614105Y-71520276D02*
X115518867Y-71615514D01*
X115518867Y-71615514D02*
X115423629Y-71663133D01*
D12*
%TO.C,J2*%
X130515534Y-77107500D02*
X130515534Y-100027500D01*
X130515534Y-74507500D02*
X130515534Y-75837500D01*
X129185534Y-74507500D02*
X130515534Y-74507500D01*
X127855534Y-100027500D02*
X130515534Y-100027500D01*
X127855534Y-77107500D02*
X130515534Y-77107500D01*
X127855534Y-77107500D02*
X127855534Y-100027500D01*
%TO.C,J1*%
X100515534Y-82182500D02*
X100515534Y-94942500D01*
X100515534Y-79582500D02*
X100515534Y-80912500D01*
X99185534Y-79582500D02*
X100515534Y-79582500D01*
X97855534Y-94942500D02*
X100515534Y-94942500D01*
X97855534Y-82182500D02*
X100515534Y-82182500D01*
X97855534Y-82182500D02*
X97855534Y-94942500D01*
%TO.C,SW1*%
X110350534Y-110190000D02*
X110350534Y-109680000D01*
X110350534Y-114890000D02*
X110350534Y-112790000D01*
X110870534Y-109680000D02*
X110350534Y-109680000D01*
X110870534Y-110190000D02*
X110870534Y-109680000D01*
X110870534Y-113020000D02*
X110870534Y-112790000D01*
X111410534Y-113020000D02*
X110870534Y-113020000D01*
X115910534Y-113020000D02*
X112510534Y-113020000D01*
X117550534Y-110190000D02*
X117550534Y-109680000D01*
X117550534Y-113020000D02*
X117010534Y-113020000D01*
X117550534Y-113020000D02*
X117550534Y-112790000D01*
X118070534Y-109680000D02*
X117550534Y-109680000D01*
X118070534Y-110190000D02*
X118070534Y-109680000D01*
X118070534Y-114890000D02*
X118070534Y-112790000D01*
%TO.C,U1*%
X122465534Y-72000000D02*
X122465534Y-102545000D01*
X119805534Y-102545000D02*
X122465534Y-102545000D01*
X119805534Y-72000000D02*
X122465534Y-72000000D01*
X119805534Y-72000000D02*
X119805534Y-102545000D01*
X109015534Y-74520000D02*
X109015534Y-102520000D01*
X106355534Y-102520000D02*
X109015534Y-102520000D01*
X106355534Y-74520000D02*
X109015534Y-74520000D01*
X106355534Y-74520000D02*
X106355534Y-102520000D01*
X106355534Y-73250000D02*
X106355534Y-71920000D01*
X106355534Y-71920000D02*
X107685534Y-71920000D01*
%TD*%
M02*
