%TF.GenerationSoftware,KiCad,Pcbnew,9.0.0*%
%TF.CreationDate,2025-06-04T23:26:31+02:00*%
%TF.ProjectId,uv_controler,75765f63-6f6e-4747-926f-6c65722e6b69,rev?*%
%TF.SameCoordinates,Original*%
%TF.FileFunction,Plated,1,2,PTH,Drill*%
%TF.FilePolarity,Positive*%
%FSLAX46Y46*%
G04 Gerber Fmt 4.6, Leading zero omitted, Abs format (unit mm)*
G04 Created by KiCad (PCBNEW 9.0.0) date 2025-06-04 23:26:31*
%MOMM*%
%LPD*%
G01*
G04 APERTURE LIST*
%TA.AperFunction,ComponentDrill*%
%ADD10C,0.750000*%
%TD*%
%TA.AperFunction,ComponentDrill*%
%ADD11C,0.990000*%
%TD*%
%TA.AperFunction,ComponentDrill*%
%ADD12C,1.000000*%
%TD*%
%TA.AperFunction,ComponentDrill*%
%ADD13C,1.300000*%
%TD*%
%TA.AperFunction,ComponentDrill*%
%ADD14C,3.200000*%
%TD*%
G04 APERTURE END LIST*
D10*
%TO.C,U12*%
X30185534Y-85710000D03*
X30185534Y-86980000D03*
X30185534Y-88250000D03*
%TO.C,U11*%
X54433034Y-112525000D03*
%TO.C,U10*%
X54470534Y-61475000D03*
%TO.C,U11*%
X55703034Y-112525000D03*
%TO.C,U10*%
X55740534Y-61475000D03*
%TO.C,U11*%
X56973034Y-112525000D03*
%TO.C,U10*%
X57010534Y-61475000D03*
%TO.C,U9*%
X81285534Y-85787500D03*
X81285534Y-87057500D03*
X81285534Y-88327500D03*
%TO.C,U6*%
X178597500Y101990000D03*
X179867500Y101990000D03*
X181137500Y101990000D03*
%TO.C,U8*%
X198587500Y140690000D03*
%TO.C,U7*%
X198597500Y101990000D03*
%TO.C,U8*%
X199857500Y140690000D03*
%TO.C,U7*%
X199867500Y101990000D03*
%TO.C,U8*%
X201127500Y140690000D03*
%TO.C,U7*%
X201137500Y101990000D03*
%TO.C,U3*%
X218587500Y140690000D03*
%TO.C,U4*%
X218597500Y101990000D03*
%TO.C,U3*%
X219857500Y140690000D03*
%TO.C,U4*%
X219867500Y101990000D03*
%TO.C,U3*%
X221127500Y140690000D03*
%TO.C,U4*%
X221137500Y101990000D03*
%TO.C,U5*%
X238587500Y140690000D03*
%TO.C,U2*%
X238597500Y101990000D03*
%TO.C,U5*%
X239857500Y140690000D03*
%TO.C,U2*%
X239867500Y101990000D03*
%TO.C,U5*%
X241127500Y140690000D03*
%TO.C,U2*%
X241137500Y101990000D03*
D11*
%TO.C,SW1*%
X142912500Y95097500D03*
X147412500Y95097500D03*
D12*
%TO.C,J4*%
X92300000Y-80900000D03*
X92300000Y-83440000D03*
X92300000Y-85980000D03*
X92300000Y-88520000D03*
X92300000Y-91060000D03*
X92300000Y-93600000D03*
%TO.C,J1*%
X130137500Y128175000D03*
X130137500Y125635000D03*
X130137500Y123095000D03*
X130137500Y120555000D03*
X130137500Y118015000D03*
X130137500Y115475000D03*
%TO.C,U1*%
X138637500Y135837500D03*
X138637500Y133297500D03*
X138637500Y130757500D03*
X138637500Y128217500D03*
X138637500Y125677500D03*
X138637500Y123137500D03*
X138637500Y120597500D03*
X138637500Y118057500D03*
X138637500Y115517500D03*
X138637500Y112977500D03*
X138637500Y110437500D03*
X138637500Y107897500D03*
X152087500Y135812500D03*
X152087500Y133272500D03*
X152087500Y130732500D03*
X152087500Y128192500D03*
X152087500Y125652500D03*
X152087500Y123112500D03*
X152087500Y120572500D03*
X152087500Y118032500D03*
X152087500Y115492500D03*
X152087500Y112952500D03*
X152087500Y110412500D03*
X152087500Y107872500D03*
%TO.C,J2*%
X160137500Y133250000D03*
X160137500Y130710000D03*
X160137500Y128170000D03*
X160137500Y125630000D03*
X160137500Y123090000D03*
X160137500Y120550000D03*
X160137500Y118010000D03*
X160137500Y115470000D03*
X160137500Y112930000D03*
X160137500Y110390000D03*
%TO.C,J3*%
X166751966Y133307500D03*
X166751966Y130767500D03*
X166751966Y128227500D03*
X166751966Y125687500D03*
X166751966Y123147500D03*
X166751966Y120607500D03*
X166751966Y118067500D03*
X166751966Y115527500D03*
X166751966Y112987500D03*
X166751966Y110447500D03*
D13*
%TO.C,SW1*%
X141652500Y97587500D03*
X148662500Y97587500D03*
D14*
%TO.C,REF\u002A\u002A*%
X30735534Y-62000000D03*
X30735534Y-112000000D03*
X90485534Y-62000000D03*
X90485534Y-112000000D03*
X132812500Y147087500D03*
X132812500Y97087500D03*
X157437500Y147087500D03*
X157437500Y97087500D03*
X168437500Y147087500D03*
X168437500Y97087500D03*
X246287500Y147087500D03*
X246287500Y97087500D03*
M02*
