%TF.GenerationSoftware,KiCad,Pcbnew,9.0.0*%
%TF.CreationDate,2025-06-04T23:47:33+02:00*%
%TF.ProjectId,uv_controler,75765f63-6f6e-4747-926f-6c65722e6b69,rev?*%
%TF.SameCoordinates,Original*%
%TF.FileFunction,Copper,L1,Top*%
%TF.FilePolarity,Positive*%
%FSLAX46Y46*%
G04 Gerber Fmt 4.6, Leading zero omitted, Abs format (unit mm)*
G04 Created by KiCad (PCBNEW 9.0.0) date 2025-06-04 23:47:33*
%MOMM*%
%LPD*%
G01*
G04 APERTURE LIST*
G04 Aperture macros list*
%AMRoundRect*
0 Rectangle with rounded corners*
0 $1 Rounding radius*
0 $2 $3 $4 $5 $6 $7 $8 $9 X,Y pos of 4 corners*
0 Add a 4 corners polygon primitive as box body*
4,1,4,$2,$3,$4,$5,$6,$7,$8,$9,$2,$3,0*
0 Add four circle primitives for the rounded corners*
1,1,$1+$1,$2,$3*
1,1,$1+$1,$4,$5*
1,1,$1+$1,$6,$7*
1,1,$1+$1,$8,$9*
0 Add four rect primitives between the rounded corners*
20,1,$1+$1,$2,$3,$4,$5,0*
20,1,$1+$1,$4,$5,$6,$7,0*
20,1,$1+$1,$6,$7,$8,$9,0*
20,1,$1+$1,$8,$9,$2,$3,0*%
G04 Aperture macros list end*
%TA.AperFunction,ComponentPad*%
%ADD10R,1.050000X1.300000*%
%TD*%
%TA.AperFunction,ComponentPad*%
%ADD11O,1.050000X1.300000*%
%TD*%
%TA.AperFunction,ComponentPad*%
%ADD12R,1.300000X1.050000*%
%TD*%
%TA.AperFunction,ComponentPad*%
%ADD13O,1.300000X1.050000*%
%TD*%
%TA.AperFunction,SMDPad,CuDef*%
%ADD14RoundRect,0.237500X-0.237500X0.250000X-0.237500X-0.250000X0.237500X-0.250000X0.237500X0.250000X0*%
%TD*%
%TA.AperFunction,ComponentPad*%
%ADD15R,1.700000X1.700000*%
%TD*%
%TA.AperFunction,ComponentPad*%
%ADD16O,1.700000X1.700000*%
%TD*%
%TA.AperFunction,ComponentPad*%
%ADD17C,5.600000*%
%TD*%
%TA.AperFunction,SMDPad,CuDef*%
%ADD18RoundRect,0.237500X0.237500X-0.250000X0.237500X0.250000X-0.237500X0.250000X-0.237500X-0.250000X0*%
%TD*%
%TA.AperFunction,SMDPad,CuDef*%
%ADD19RoundRect,0.237500X0.250000X0.237500X-0.250000X0.237500X-0.250000X-0.237500X0.250000X-0.237500X0*%
%TD*%
%TA.AperFunction,SMDPad,CuDef*%
%ADD20RoundRect,0.237500X-0.250000X-0.237500X0.250000X-0.237500X0.250000X0.237500X-0.250000X0.237500X0*%
%TD*%
%TA.AperFunction,Conductor*%
%ADD21C,0.200000*%
%TD*%
%TA.AperFunction,Conductor*%
%ADD22C,0.500000*%
%TD*%
G04 APERTURE END LIST*
D10*
%TO.P,U10,1,SUPPLY*%
%TO.N,+5VD*%
X54470534Y-61475000D03*
D11*
%TO.P,U10,2,GND*%
%TO.N,GND2*%
X55740534Y-61475000D03*
%TO.P,U10,3,OUTPUT*%
%TO.N,/JOY_FORWARD_D*%
X57010534Y-61475000D03*
%TD*%
D12*
%TO.P,U9,1,SUPPLY*%
%TO.N,+5VD*%
X81285534Y-85787500D03*
D13*
%TO.P,U9,2,GND*%
%TO.N,GND2*%
X81285534Y-87057500D03*
%TO.P,U9,3,OUTPUT*%
%TO.N,/JOY_RIGHT_D*%
X81285534Y-88327500D03*
%TD*%
D14*
%TO.P,R8,1*%
%TO.N,+5VD*%
X76585534Y-86125000D03*
%TO.P,R8,2*%
%TO.N,/JOY_RIGHT_D*%
X76585534Y-87950000D03*
%TD*%
D15*
%TO.P,J4,1,Pin_1*%
%TO.N,+5VD*%
X92300000Y-80900000D03*
D16*
%TO.P,J4,2,Pin_2*%
%TO.N,GND2*%
X92300000Y-83440000D03*
%TO.P,J4,3,Pin_3*%
%TO.N,/JOY_FORWARD_D*%
X92300000Y-85980000D03*
%TO.P,J4,4,Pin_4*%
%TO.N,/JOY_RIGHT_D*%
X92300000Y-88520000D03*
%TO.P,J4,5,Pin_5*%
%TO.N,/JOY_BACKWARD_D*%
X92300000Y-91060000D03*
%TO.P,J4,6,Pin_6*%
%TO.N,/JOY_LEFT_D*%
X92300000Y-93600000D03*
%TD*%
D17*
%TO.P,REF\u002A\u002A,1*%
%TO.N,N/C*%
X30735534Y-112000000D03*
%TD*%
D10*
%TO.P,U11,1,SUPPLY*%
%TO.N,+5VD*%
X56973034Y-112525000D03*
D11*
%TO.P,U11,2,GND*%
%TO.N,GND2*%
X55703034Y-112525000D03*
%TO.P,U11,3,OUTPUT*%
%TO.N,/JOY_BACKWARD_D*%
X54433034Y-112525000D03*
%TD*%
D18*
%TO.P,R11,1*%
%TO.N,+5VD*%
X34885534Y-87912500D03*
%TO.P,R11,2*%
%TO.N,/JOY_LEFT_D*%
X34885534Y-86087500D03*
%TD*%
D17*
%TO.P,REF\u002A\u002A,1*%
%TO.N,N/C*%
X90485534Y-112000000D03*
%TD*%
%TO.P,REF\u002A\u002A,1*%
%TO.N,N/C*%
X30735534Y-62000000D03*
%TD*%
D19*
%TO.P,R10,1*%
%TO.N,+5VD*%
X56635534Y-107825000D03*
%TO.P,R10,2*%
%TO.N,/JOY_BACKWARD_D*%
X54810534Y-107825000D03*
%TD*%
D12*
%TO.P,U12,1,SUPPLY*%
%TO.N,+5VD*%
X30185534Y-88250000D03*
D13*
%TO.P,U12,2,GND*%
%TO.N,GND2*%
X30185534Y-86980000D03*
%TO.P,U12,3,OUTPUT*%
%TO.N,/JOY_LEFT_D*%
X30185534Y-85710000D03*
%TD*%
D20*
%TO.P,R9,1*%
%TO.N,+5VD*%
X54808034Y-66175000D03*
%TO.P,R9,2*%
%TO.N,/JOY_FORWARD_D*%
X56633034Y-66175000D03*
%TD*%
D17*
%TO.P,REF\u002A\u002A,1*%
%TO.N,N/C*%
X90485534Y-62000000D03*
%TD*%
D21*
%TO.N,/JOY_BACKWARD_D*%
X54433034Y-112525000D02*
X54433034Y-108202500D01*
%TO.N,/JOY_RIGHT_D*%
X92300000Y-88520000D02*
X81478034Y-88520000D01*
%TO.N,/JOY_BACKWARD_D*%
X92300000Y-96900000D02*
X94100000Y-95100000D01*
%TO.N,/JOY_LEFT_D*%
X90700000Y-92000000D02*
X92300000Y-93600000D01*
%TO.N,/JOY_BACKWARD_D*%
X94100000Y-92860000D02*
X92300000Y-91060000D01*
%TO.N,/JOY_LEFT_D*%
X40798034Y-92000000D02*
X90700000Y-92000000D01*
X34885534Y-86087500D02*
X40798034Y-92000000D01*
X30185534Y-85710000D02*
X34508034Y-85710000D01*
X34508034Y-85710000D02*
X34885534Y-86087500D01*
%TO.N,/JOY_BACKWARD_D*%
X57200000Y-96900000D02*
X92300000Y-96900000D01*
%TO.N,/JOY_RIGHT_D*%
X81478034Y-88520000D02*
X81285534Y-88327500D01*
D22*
%TO.N,+5VD*%
X54470534Y-61475000D02*
X54470534Y-65837500D01*
D21*
%TO.N,/JOY_BACKWARD_D*%
X54433034Y-108202500D02*
X54810534Y-107825000D01*
%TO.N,/JOY_RIGHT_D*%
X76963034Y-88327500D02*
X76585534Y-87950000D01*
D22*
%TO.N,+5VD*%
X81285534Y-85787500D02*
X76923034Y-85787500D01*
X56635534Y-107825000D02*
X56973034Y-108162500D01*
X56973034Y-108162500D02*
X56973034Y-112525000D01*
X30185534Y-88250000D02*
X34548034Y-88250000D01*
X76923034Y-85787500D02*
X76585534Y-86125000D01*
D21*
%TO.N,/JOY_FORWARD_D*%
X57010534Y-61475000D02*
X57010534Y-65797500D01*
X94200000Y-79562466D02*
X94200000Y-84080000D01*
X94200000Y-84080000D02*
X92300000Y-85980000D01*
%TO.N,/JOY_RIGHT_D*%
X81285534Y-88327500D02*
X76963034Y-88327500D01*
%TO.N,/JOY_BACKWARD_D*%
X54810534Y-99289466D02*
X57200000Y-96900000D01*
D22*
%TO.N,+5VD*%
X54470534Y-65837500D02*
X54808034Y-66175000D01*
D21*
%TO.N,/JOY_FORWARD_D*%
X80812534Y-66175000D02*
X94200000Y-79562466D01*
X56633034Y-66175000D02*
X80812534Y-66175000D01*
D22*
%TO.N,+5VD*%
X34548034Y-88250000D02*
X34885534Y-87912500D01*
D21*
%TO.N,/JOY_BACKWARD_D*%
X94100000Y-95100000D02*
X94100000Y-92860000D01*
X54810534Y-107825000D02*
X54810534Y-99289466D01*
%TO.N,/JOY_FORWARD_D*%
X57010534Y-65797500D02*
X56633034Y-66175000D01*
%TD*%
%TA.AperFunction,Conductor*%
%TO.N,GND2*%
G36*
X90488233Y-57500618D02*
G01*
X90872295Y-57517388D01*
X90883037Y-57518328D01*
X91261497Y-57568156D01*
X91272124Y-57570029D01*
X91644802Y-57652652D01*
X91655240Y-57655449D01*
X92019288Y-57770235D01*
X92029438Y-57773930D01*
X92305332Y-57888211D01*
X92382091Y-57920006D01*
X92391895Y-57924578D01*
X92730474Y-58100833D01*
X92739815Y-58106226D01*
X93024808Y-58287788D01*
X93061751Y-58311324D01*
X93070608Y-58317525D01*
X93373431Y-58549891D01*
X93373442Y-58549899D01*
X93381729Y-58556853D01*
X93663146Y-58814726D01*
X93670795Y-58822375D01*
X93928671Y-59103800D01*
X93935624Y-59112087D01*
X94167982Y-59414904D01*
X94174187Y-59423765D01*
X94379280Y-59745698D01*
X94384688Y-59755066D01*
X94560933Y-60093631D01*
X94565502Y-60103428D01*
X94680560Y-60381204D01*
X94711576Y-60456082D01*
X94715275Y-60466245D01*
X94813296Y-60777128D01*
X94830057Y-60830285D01*
X94832857Y-60840735D01*
X94915472Y-61213391D01*
X94917350Y-61224044D01*
X94967171Y-61602474D01*
X94968114Y-61613249D01*
X94980595Y-61899119D01*
X94984916Y-61998067D01*
X94985034Y-62003476D01*
X94985034Y-79258410D01*
X94984173Y-79261339D01*
X94984894Y-79264308D01*
X94974390Y-79294657D01*
X94965349Y-79325449D01*
X94963042Y-79327447D01*
X94962043Y-79330335D01*
X94936797Y-79350188D01*
X94912545Y-79371204D01*
X94909523Y-79371638D01*
X94907122Y-79373527D01*
X94875155Y-79376580D01*
X94843387Y-79381148D01*
X94840609Y-79379879D01*
X94837569Y-79380170D01*
X94809029Y-79365457D01*
X94779831Y-79352123D01*
X94777361Y-79349132D01*
X94775466Y-79348155D01*
X94753648Y-79320412D01*
X94730639Y-79280561D01*
X94730637Y-79280558D01*
X94680520Y-79193750D01*
X94568716Y-79081946D01*
X94568715Y-79081945D01*
X94564385Y-79077615D01*
X94564374Y-79077605D01*
X81300124Y-65813355D01*
X81300122Y-65813352D01*
X81181251Y-65694481D01*
X81181250Y-65694480D01*
X81094438Y-65644360D01*
X81094438Y-65644359D01*
X81094434Y-65644358D01*
X81044319Y-65615423D01*
X80891591Y-65574499D01*
X80733477Y-65574499D01*
X80725881Y-65574499D01*
X80725865Y-65574500D01*
X57735034Y-65574500D01*
X57667995Y-65554815D01*
X57622240Y-65502011D01*
X57611034Y-65450500D01*
X57611034Y-62498397D01*
X57630719Y-62431358D01*
X57660249Y-62401295D01*
X57659537Y-62400428D01*
X57664246Y-62396562D01*
X57664245Y-62396562D01*
X57664252Y-62396558D01*
X57807092Y-62253718D01*
X57919320Y-62085756D01*
X57996625Y-61899127D01*
X58008813Y-61837857D01*
X87185034Y-61837857D01*
X87185034Y-62162143D01*
X87191962Y-62232483D01*
X87216818Y-62484857D01*
X87216821Y-62484874D01*
X87280079Y-62802902D01*
X87280082Y-62802913D01*
X87374220Y-63113247D01*
X87498320Y-63412849D01*
X87498322Y-63412854D01*
X87651180Y-63698830D01*
X87651191Y-63698848D01*
X87831345Y-63968467D01*
X87831355Y-63968481D01*
X88037080Y-64219158D01*
X88266375Y-64448453D01*
X88266380Y-64448457D01*
X88266381Y-64448458D01*
X88517058Y-64654183D01*
X88786692Y-64834347D01*
X88786701Y-64834352D01*
X88786703Y-64834353D01*
X89072679Y-64987211D01*
X89072681Y-64987211D01*
X89072687Y-64987215D01*
X89372288Y-65111314D01*
X89682611Y-65205449D01*
X89682617Y-65205450D01*
X89682620Y-65205451D01*
X89682631Y-65205454D01*
X89867436Y-65242213D01*
X90000666Y-65268714D01*
X90323391Y-65300500D01*
X90323394Y-65300500D01*
X90647674Y-65300500D01*
X90647677Y-65300500D01*
X90970402Y-65268714D01*
X91127829Y-65237399D01*
X91288436Y-65205454D01*
X91288447Y-65205451D01*
X91288447Y-65205450D01*
X91288457Y-65205449D01*
X91598780Y-65111314D01*
X91898381Y-64987215D01*
X92184376Y-64834347D01*
X92454010Y-64654183D01*
X92704687Y-64448458D01*
X92933992Y-64219153D01*
X93139717Y-63968476D01*
X93319881Y-63698842D01*
X93472749Y-63412847D01*
X93596848Y-63113246D01*
X93690983Y-62802923D01*
X93690985Y-62802913D01*
X93690988Y-62802902D01*
X93736305Y-62575073D01*
X93754248Y-62484868D01*
X93786034Y-62162143D01*
X93786034Y-61837857D01*
X93754248Y-61515132D01*
X93715245Y-61319050D01*
X93690988Y-61197097D01*
X93690985Y-61197086D01*
X93690984Y-61197083D01*
X93690983Y-61197077D01*
X93596848Y-60886754D01*
X93472749Y-60587153D01*
X93470353Y-60582671D01*
X93319887Y-60301169D01*
X93319886Y-60301167D01*
X93319881Y-60301158D01*
X93139717Y-60031524D01*
X92933992Y-59780847D01*
X92933991Y-59780846D01*
X92933987Y-59780841D01*
X92704692Y-59551546D01*
X92454015Y-59345821D01*
X92454014Y-59345820D01*
X92454010Y-59345817D01*
X92184376Y-59165653D01*
X92184371Y-59165650D01*
X92184364Y-59165646D01*
X91898388Y-59012788D01*
X91898383Y-59012786D01*
X91598781Y-58888686D01*
X91288447Y-58794548D01*
X91288436Y-58794545D01*
X90970408Y-58731287D01*
X90970391Y-58731284D01*
X90726346Y-58707248D01*
X90647677Y-58699500D01*
X90323391Y-58699500D01*
X90250633Y-58706666D01*
X90000676Y-58731284D01*
X90000659Y-58731287D01*
X89682631Y-58794545D01*
X89682620Y-58794548D01*
X89372286Y-58888686D01*
X89072684Y-59012786D01*
X89072679Y-59012788D01*
X88786703Y-59165646D01*
X88786685Y-59165657D01*
X88517066Y-59345811D01*
X88517052Y-59345821D01*
X88266375Y-59551546D01*
X88037080Y-59780841D01*
X87831355Y-60031518D01*
X87831345Y-60031532D01*
X87651191Y-60301151D01*
X87651180Y-60301169D01*
X87498322Y-60587145D01*
X87498320Y-60587150D01*
X87374220Y-60886752D01*
X87280082Y-61197086D01*
X87280079Y-61197097D01*
X87216821Y-61515125D01*
X87216818Y-61515142D01*
X87198094Y-61705255D01*
X87185034Y-61837857D01*
X58008813Y-61837857D01*
X58010494Y-61829404D01*
X58014230Y-61810622D01*
X58036033Y-61701007D01*
X58036034Y-61701004D01*
X58036034Y-61248996D01*
X58036033Y-61248992D01*
X58028105Y-61209134D01*
X57996625Y-61050873D01*
X57919320Y-60864244D01*
X57919318Y-60864241D01*
X57919316Y-60864237D01*
X57807092Y-60696281D01*
X57664252Y-60553441D01*
X57496296Y-60441217D01*
X57496286Y-60441212D01*
X57309661Y-60363909D01*
X57309653Y-60363907D01*
X57111541Y-60324500D01*
X57111537Y-60324500D01*
X56909531Y-60324500D01*
X56909526Y-60324500D01*
X56711414Y-60363907D01*
X56711406Y-60363909D01*
X56524777Y-60441214D01*
X56443973Y-60495204D01*
X56377295Y-60516081D01*
X56309916Y-60497595D01*
X56306193Y-60495203D01*
X56226060Y-60441659D01*
X56226047Y-60441652D01*
X56039518Y-60364390D01*
X56039511Y-60364388D01*
X55990534Y-60354645D01*
X55990534Y-61194670D01*
X55970789Y-61174925D01*
X55885279Y-61125556D01*
X55789904Y-61100000D01*
X55691164Y-61100000D01*
X55595789Y-61125556D01*
X55510279Y-61174925D01*
X55496033Y-61189170D01*
X55496033Y-60777128D01*
X55491244Y-60732577D01*
X55490534Y-60719324D01*
X55490534Y-60354646D01*
X55490533Y-60354645D01*
X55441556Y-60364388D01*
X55441549Y-60364390D01*
X55361197Y-60397673D01*
X55291727Y-60405142D01*
X55245811Y-60385154D01*
X55245648Y-60385454D01*
X55242300Y-60383626D01*
X55239433Y-60382377D01*
X55237865Y-60381204D01*
X55237864Y-60381203D01*
X55237862Y-60381202D01*
X55103016Y-60330908D01*
X55103017Y-60330908D01*
X55043417Y-60324501D01*
X55043415Y-60324500D01*
X55043407Y-60324500D01*
X55043398Y-60324500D01*
X53897663Y-60324500D01*
X53897657Y-60324501D01*
X53838050Y-60330908D01*
X53703205Y-60381202D01*
X53703198Y-60381206D01*
X53587989Y-60467452D01*
X53587986Y-60467455D01*
X53501740Y-60582664D01*
X53501736Y-60582671D01*
X53451442Y-60717517D01*
X53445035Y-60777116D01*
X53445035Y-60777123D01*
X53445034Y-60777135D01*
X53445034Y-62172870D01*
X53445035Y-62172876D01*
X53451442Y-62232483D01*
X53501736Y-62367328D01*
X53501740Y-62367335D01*
X53587986Y-62482544D01*
X53587987Y-62482545D01*
X53587988Y-62482546D01*
X53670345Y-62544198D01*
X53712216Y-62600131D01*
X53720034Y-62643464D01*
X53720034Y-65911418D01*
X53720034Y-65911420D01*
X53720033Y-65911420D01*
X53748874Y-66056407D01*
X53748876Y-66056413D01*
X53807781Y-66198622D01*
X53806919Y-66198978D01*
X53820034Y-66251339D01*
X53820034Y-66461668D01*
X53820035Y-66461687D01*
X53830359Y-66562752D01*
X53884626Y-66726515D01*
X53884627Y-66726518D01*
X53914840Y-66775500D01*
X53975194Y-66873350D01*
X54097184Y-66995340D01*
X54244018Y-67085908D01*
X54407781Y-67140174D01*
X54508857Y-67150500D01*
X55107210Y-67150499D01*
X55107218Y-67150498D01*
X55107221Y-67150498D01*
X55162564Y-67144844D01*
X55208287Y-67140174D01*
X55372050Y-67085908D01*
X55518884Y-66995340D01*
X55632853Y-66881371D01*
X55694176Y-66847886D01*
X55763868Y-66852870D01*
X55808215Y-66881371D01*
X55922184Y-66995340D01*
X56069018Y-67085908D01*
X56232781Y-67140174D01*
X56333857Y-67150500D01*
X56932210Y-67150499D01*
X56932218Y-67150498D01*
X56932221Y-67150498D01*
X56987564Y-67144844D01*
X57033287Y-67140174D01*
X57197050Y-67085908D01*
X57343884Y-66995340D01*
X57465874Y-66873350D01*
X57489896Y-66834404D01*
X57541844Y-66787679D01*
X57595435Y-66775500D01*
X80512437Y-66775500D01*
X80579476Y-66795185D01*
X80600118Y-66811819D01*
X93126118Y-79337819D01*
X93159603Y-79399142D01*
X93154619Y-79468834D01*
X93112747Y-79524767D01*
X93047283Y-79549184D01*
X93038437Y-79549500D01*
X91402129Y-79549500D01*
X91402123Y-79549501D01*
X91342516Y-79555908D01*
X91207671Y-79606202D01*
X91207664Y-79606206D01*
X91092455Y-79692452D01*
X91092452Y-79692455D01*
X91006206Y-79807664D01*
X91006202Y-79807671D01*
X90955908Y-79942517D01*
X90949501Y-80002116D01*
X90949500Y-80002135D01*
X90949500Y-81797870D01*
X90949501Y-81797876D01*
X90955908Y-81857483D01*
X91006202Y-81992328D01*
X91006206Y-81992335D01*
X91092452Y-82107544D01*
X91092455Y-82107547D01*
X91207664Y-82193793D01*
X91207671Y-82193797D01*
X91257889Y-82212527D01*
X91339598Y-82243002D01*
X91395531Y-82284873D01*
X91419949Y-82350337D01*
X91405098Y-82418610D01*
X91383947Y-82446865D01*
X91270271Y-82560541D01*
X91145379Y-82732442D01*
X91048904Y-82921782D01*
X90983242Y-83123870D01*
X90983242Y-83123873D01*
X90972769Y-83190000D01*
X91866988Y-83190000D01*
X91834075Y-83247007D01*
X91800000Y-83374174D01*
X91800000Y-83505826D01*
X91834075Y-83632993D01*
X91866988Y-83690000D01*
X90972769Y-83690000D01*
X90983242Y-83756126D01*
X90983242Y-83756129D01*
X91048904Y-83958217D01*
X91145379Y-84147557D01*
X91270272Y-84319459D01*
X91270276Y-84319464D01*
X91420535Y-84469723D01*
X91420540Y-84469727D01*
X91592444Y-84594622D01*
X91601495Y-84599234D01*
X91652292Y-84647208D01*
X91669087Y-84715029D01*
X91646550Y-84781164D01*
X91601499Y-84820202D01*
X91592182Y-84824949D01*
X91420213Y-84949890D01*
X91269890Y-85100213D01*
X91144951Y-85272179D01*
X91048444Y-85461585D01*
X90982753Y-85663760D01*
X90949500Y-85873713D01*
X90949500Y-86086286D01*
X90969690Y-86213764D01*
X90982754Y-86296243D01*
X91045336Y-86488851D01*
X91048444Y-86498414D01*
X91144951Y-86687820D01*
X91269890Y-86859786D01*
X91420213Y-87010109D01*
X91592182Y-87135050D01*
X91600946Y-87139516D01*
X91651742Y-87187491D01*
X91668536Y-87255312D01*
X91645998Y-87321447D01*
X91600946Y-87360484D01*
X91592182Y-87364949D01*
X91420213Y-87489890D01*
X91269890Y-87640213D01*
X91144948Y-87812184D01*
X91144947Y-87812185D01*
X91124765Y-87851795D01*
X91076791Y-87902591D01*
X91014281Y-87919500D01*
X82434382Y-87919500D01*
X82367343Y-87899815D01*
X82329823Y-87862158D01*
X82323978Y-87852990D01*
X82319320Y-87841744D01*
X82264590Y-87759835D01*
X82263872Y-87758708D01*
X82254512Y-87726395D01*
X82244451Y-87694264D01*
X82244817Y-87692927D01*
X82244432Y-87691597D01*
X82254031Y-87659339D01*
X82262935Y-87626884D01*
X82264341Y-87624696D01*
X82264361Y-87624630D01*
X82264412Y-87624586D01*
X82265330Y-87623158D01*
X82318878Y-87543018D01*
X82318880Y-87543015D01*
X82396143Y-87356483D01*
X82396146Y-87356474D01*
X82405887Y-87307500D01*
X81565864Y-87307500D01*
X81585609Y-87287755D01*
X81634978Y-87202245D01*
X81660534Y-87106870D01*
X81660534Y-87008130D01*
X81634978Y-86912755D01*
X81585609Y-86827245D01*
X81571363Y-86812999D01*
X81983406Y-86812999D01*
X82027957Y-86808209D01*
X82041209Y-86807500D01*
X82405887Y-86807500D01*
X82396145Y-86758525D01*
X82396143Y-86758517D01*
X82362860Y-86678164D01*
X82355391Y-86608695D01*
X82375378Y-86562782D01*
X82375078Y-86562618D01*
X82376915Y-86559252D01*
X82378161Y-86556392D01*
X82379330Y-86554831D01*
X82429625Y-86419983D01*
X82436034Y-86360373D01*
X82436033Y-85214628D01*
X82429625Y-85155017D01*
X82426756Y-85147326D01*
X82379331Y-85020171D01*
X82379327Y-85020164D01*
X82293081Y-84904955D01*
X82293078Y-84904952D01*
X82177869Y-84818706D01*
X82177862Y-84818702D01*
X82043016Y-84768408D01*
X82043017Y-84768408D01*
X81983417Y-84762001D01*
X81983415Y-84762000D01*
X81983407Y-84762000D01*
X81983398Y-84762000D01*
X80587663Y-84762000D01*
X80587657Y-84762001D01*
X80528050Y-84768408D01*
X80393205Y-84818702D01*
X80393198Y-84818706D01*
X80277990Y-84904952D01*
X80277989Y-84904953D01*
X80277988Y-84904954D01*
X80216336Y-84987311D01*
X80160402Y-85029182D01*
X80117069Y-85037000D01*
X76849114Y-85037000D01*
X76704126Y-85065840D01*
X76704120Y-85065842D01*
X76646245Y-85089815D01*
X76597937Y-85109825D01*
X76561912Y-85124747D01*
X76561555Y-85123887D01*
X76509194Y-85137000D01*
X76298865Y-85137000D01*
X76298846Y-85137001D01*
X76197781Y-85147325D01*
X76034018Y-85201592D01*
X76034015Y-85201593D01*
X75887182Y-85292161D01*
X75765195Y-85414148D01*
X75674627Y-85560981D01*
X75674625Y-85560986D01*
X75658716Y-85608997D01*
X75620360Y-85724747D01*
X75620360Y-85724748D01*
X75620359Y-85724748D01*
X75610034Y-85825815D01*
X75610034Y-86424169D01*
X75610035Y-86424187D01*
X75620359Y-86525252D01*
X75651354Y-86618786D01*
X75674626Y-86689016D01*
X75759886Y-86827245D01*
X75765195Y-86835851D01*
X75879163Y-86949819D01*
X75912648Y-87011142D01*
X75907664Y-87080834D01*
X75879163Y-87125181D01*
X75765195Y-87239148D01*
X75674627Y-87385981D01*
X75674625Y-87385986D01*
X75665175Y-87414505D01*
X75620360Y-87549747D01*
X75620360Y-87549748D01*
X75620359Y-87549748D01*
X75610034Y-87650815D01*
X75610034Y-88249169D01*
X75610035Y-88249187D01*
X75620359Y-88350252D01*
X75656643Y-88459749D01*
X75674626Y-88514016D01*
X75765194Y-88660850D01*
X75887184Y-88782840D01*
X76034018Y-88873408D01*
X76197781Y-88927674D01*
X76298857Y-88938000D01*
X76872210Y-88937999D01*
X76872218Y-88937998D01*
X76872221Y-88937998D01*
X76963801Y-88928643D01*
X76976400Y-88928001D01*
X77042092Y-88928001D01*
X77042095Y-88928000D01*
X77049702Y-88928000D01*
X80262137Y-88928000D01*
X80329176Y-88947685D01*
X80359245Y-88977220D01*
X80360112Y-88976510D01*
X80363978Y-88981221D01*
X80506815Y-89124058D01*
X80674771Y-89236282D01*
X80674775Y-89236284D01*
X80674778Y-89236286D01*
X80861407Y-89313591D01*
X81059526Y-89352999D01*
X81059530Y-89353000D01*
X81059531Y-89353000D01*
X81511538Y-89353000D01*
X81511539Y-89352999D01*
X81709661Y-89313591D01*
X81896290Y-89236286D01*
X82038301Y-89141398D01*
X82104979Y-89120520D01*
X82107192Y-89120500D01*
X91014281Y-89120500D01*
X91081320Y-89140185D01*
X91124765Y-89188205D01*
X91144947Y-89227814D01*
X91144948Y-89227815D01*
X91269890Y-89399786D01*
X91420213Y-89550109D01*
X91592182Y-89675050D01*
X91600946Y-89679516D01*
X91651742Y-89727491D01*
X91668536Y-89795312D01*
X91645998Y-89861447D01*
X91600946Y-89900484D01*
X91592182Y-89904949D01*
X91420213Y-90029890D01*
X91269890Y-90180213D01*
X91144951Y-90352179D01*
X91048444Y-90541585D01*
X90982753Y-90743760D01*
X90949500Y-90953713D01*
X90949500Y-91166286D01*
X90965758Y-91268937D01*
X90956803Y-91338231D01*
X90911807Y-91391683D01*
X90845055Y-91412322D01*
X90836375Y-91412142D01*
X90823574Y-91411427D01*
X90779057Y-91399499D01*
X90620943Y-91399499D01*
X90620939Y-91399500D01*
X41098132Y-91399500D01*
X41031093Y-91379815D01*
X41010451Y-91363181D01*
X35897352Y-86250082D01*
X35863867Y-86188759D01*
X35861033Y-86162401D01*
X35861033Y-85788330D01*
X35861032Y-85788313D01*
X35850708Y-85687247D01*
X35842924Y-85663757D01*
X35796442Y-85523484D01*
X35705874Y-85376650D01*
X35583884Y-85254660D01*
X35437050Y-85164092D01*
X35273287Y-85109826D01*
X35273285Y-85109825D01*
X35172212Y-85099500D01*
X34598864Y-85099500D01*
X34598846Y-85099501D01*
X34507267Y-85108857D01*
X34494668Y-85109499D01*
X34428977Y-85109499D01*
X34428973Y-85109499D01*
X34421367Y-85109500D01*
X34421366Y-85109499D01*
X34421365Y-85109500D01*
X31208931Y-85109500D01*
X31141892Y-85089815D01*
X31111822Y-85060279D01*
X31110956Y-85060990D01*
X31107089Y-85056278D01*
X30964252Y-84913441D01*
X30796296Y-84801217D01*
X30796286Y-84801212D01*
X30609661Y-84723909D01*
X30609653Y-84723907D01*
X30411541Y-84684500D01*
X30411537Y-84684500D01*
X29959531Y-84684500D01*
X29959526Y-84684500D01*
X29761414Y-84723907D01*
X29761406Y-84723909D01*
X29574781Y-84801212D01*
X29574771Y-84801217D01*
X29406815Y-84913441D01*
X29263975Y-85056281D01*
X29151751Y-85224237D01*
X29151746Y-85224247D01*
X29074443Y-85410872D01*
X29074441Y-85410880D01*
X29035034Y-85608992D01*
X29035034Y-85811007D01*
X29074441Y-86009119D01*
X29074443Y-86009127D01*
X29151746Y-86195754D01*
X29205738Y-86276558D01*
X29226615Y-86343235D01*
X29208130Y-86410615D01*
X29205738Y-86414337D01*
X29152189Y-86494479D01*
X29152188Y-86494481D01*
X29074924Y-86681016D01*
X29074921Y-86681025D01*
X29065181Y-86730000D01*
X29905204Y-86730000D01*
X29885459Y-86749745D01*
X29836090Y-86835255D01*
X29810534Y-86930630D01*
X29810534Y-87029370D01*
X29836090Y-87124745D01*
X29885459Y-87210255D01*
X29899704Y-87224500D01*
X29487663Y-87224500D01*
X29487659Y-87224501D01*
X29455111Y-87228000D01*
X29443110Y-87229290D01*
X29429859Y-87230000D01*
X29065181Y-87230000D01*
X29074921Y-87278974D01*
X29074924Y-87278983D01*
X29108207Y-87359335D01*
X29115676Y-87428804D01*
X29095690Y-87474723D01*
X29095988Y-87474886D01*
X29094170Y-87478213D01*
X29092919Y-87481090D01*
X29091740Y-87482664D01*
X29091736Y-87482671D01*
X29041442Y-87617517D01*
X29035035Y-87677116D01*
X29035034Y-87677135D01*
X29035034Y-88822870D01*
X29035035Y-88822876D01*
X29041442Y-88882483D01*
X29091736Y-89017328D01*
X29091740Y-89017335D01*
X29177986Y-89132544D01*
X29177989Y-89132547D01*
X29293198Y-89218793D01*
X29293205Y-89218797D01*
X29428051Y-89269091D01*
X29428050Y-89269091D01*
X29434978Y-89269835D01*
X29487661Y-89275500D01*
X30883406Y-89275499D01*
X30943017Y-89269091D01*
X31077865Y-89218796D01*
X31193080Y-89132546D01*
X31254733Y-89050188D01*
X31310666Y-89008318D01*
X31353999Y-89000500D01*
X34621954Y-89000500D01*
X34719496Y-88981096D01*
X34766947Y-88971658D01*
X34848205Y-88938000D01*
X34909158Y-88912753D01*
X34909515Y-88913615D01*
X34961876Y-88900499D01*
X35172204Y-88900499D01*
X35172210Y-88900499D01*
X35273287Y-88890174D01*
X35437050Y-88835908D01*
X35583884Y-88745340D01*
X35705874Y-88623350D01*
X35796442Y-88476516D01*
X35850708Y-88312753D01*
X35861034Y-88211677D01*
X35861033Y-88211631D01*
X35861036Y-88211623D01*
X35861194Y-88208529D01*
X35861354Y-88208537D01*
X35861355Y-88208536D01*
X35861378Y-88208538D01*
X35861932Y-88208566D01*
X35880697Y-88144590D01*
X35933487Y-88098819D01*
X36002642Y-88088854D01*
X36066207Y-88117859D01*
X36072714Y-88123916D01*
X38300977Y-90352179D01*
X40429318Y-92480520D01*
X40429320Y-92480521D01*
X40429324Y-92480524D01*
X40447965Y-92491286D01*
X40566250Y-92559577D01*
X40718977Y-92600501D01*
X40718979Y-92600501D01*
X40884688Y-92600501D01*
X40884704Y-92600500D01*
X90399903Y-92600500D01*
X90466942Y-92620185D01*
X90487584Y-92636819D01*
X90966241Y-93115476D01*
X90999726Y-93176799D01*
X90996492Y-93241473D01*
X90982753Y-93283757D01*
X90949500Y-93493713D01*
X90949500Y-93706286D01*
X90982753Y-93916239D01*
X91048444Y-94118414D01*
X91144951Y-94307820D01*
X91269890Y-94479786D01*
X91420213Y-94630109D01*
X91592179Y-94755048D01*
X91592181Y-94755049D01*
X91592184Y-94755051D01*
X91781588Y-94851557D01*
X91983757Y-94917246D01*
X92193713Y-94950500D01*
X92193714Y-94950500D01*
X92406286Y-94950500D01*
X92406287Y-94950500D01*
X92616243Y-94917246D01*
X92818412Y-94851557D01*
X93007816Y-94755051D01*
X93029789Y-94739086D01*
X93179786Y-94630109D01*
X93179788Y-94630106D01*
X93179792Y-94630104D01*
X93287819Y-94522077D01*
X93307255Y-94511464D01*
X93323989Y-94496964D01*
X93337320Y-94495047D01*
X93349142Y-94488592D01*
X93371228Y-94490171D01*
X93393147Y-94487020D01*
X93405398Y-94492615D01*
X93418834Y-94493576D01*
X93436560Y-94506846D01*
X93456703Y-94516045D01*
X93463985Y-94527376D01*
X93474767Y-94535448D01*
X93482504Y-94556193D01*
X93494477Y-94574823D01*
X93497628Y-94596741D01*
X93499184Y-94600912D01*
X93499500Y-94609758D01*
X93499500Y-94799903D01*
X93479815Y-94866942D01*
X93463181Y-94887584D01*
X92087584Y-96263181D01*
X92026261Y-96296666D01*
X91999903Y-96299500D01*
X57279057Y-96299500D01*
X57120942Y-96299500D01*
X56968215Y-96340423D01*
X56968214Y-96340423D01*
X56968212Y-96340424D01*
X56968209Y-96340425D01*
X56918096Y-96369359D01*
X56918095Y-96369360D01*
X56874689Y-96394420D01*
X56831285Y-96419479D01*
X56831282Y-96419481D01*
X54330015Y-98920748D01*
X54330013Y-98920751D01*
X54279895Y-99007560D01*
X54279893Y-99007562D01*
X54250959Y-99057675D01*
X54250958Y-99057676D01*
X54250957Y-99057681D01*
X54210033Y-99210409D01*
X54210033Y-99210411D01*
X54210033Y-99378512D01*
X54210034Y-99378525D01*
X54210034Y-106867388D01*
X54190349Y-106934427D01*
X54151132Y-106972926D01*
X54099684Y-107004659D01*
X53977695Y-107126648D01*
X53887127Y-107273481D01*
X53887126Y-107273484D01*
X53832860Y-107437247D01*
X53832860Y-107437248D01*
X53832859Y-107437248D01*
X53822534Y-107538315D01*
X53822534Y-108111669D01*
X53822535Y-108111687D01*
X53831891Y-108203266D01*
X53832533Y-108215865D01*
X53832533Y-108281557D01*
X53832533Y-108281559D01*
X53832534Y-108291553D01*
X53832534Y-111501603D01*
X53812849Y-111568642D01*
X53783313Y-111598711D01*
X53784024Y-111599578D01*
X53779312Y-111603444D01*
X53636475Y-111746281D01*
X53524251Y-111914237D01*
X53524246Y-111914247D01*
X53446943Y-112100872D01*
X53446941Y-112100880D01*
X53407534Y-112298992D01*
X53407534Y-112751007D01*
X53446941Y-112949119D01*
X53446943Y-112949127D01*
X53524246Y-113135752D01*
X53524251Y-113135762D01*
X53636475Y-113303718D01*
X53779315Y-113446558D01*
X53947271Y-113558782D01*
X53947275Y-113558784D01*
X53947278Y-113558786D01*
X54133907Y-113636091D01*
X54299811Y-113669091D01*
X54332026Y-113675499D01*
X54332030Y-113675500D01*
X54332031Y-113675500D01*
X54534038Y-113675500D01*
X54534039Y-113675499D01*
X54732161Y-113636091D01*
X54918790Y-113558786D01*
X54999596Y-113504792D01*
X55066268Y-113483917D01*
X55133648Y-113502401D01*
X55137374Y-113504795D01*
X55217513Y-113558343D01*
X55217520Y-113558347D01*
X55404050Y-113635609D01*
X55404059Y-113635612D01*
X55453034Y-113645353D01*
X55453034Y-112805330D01*
X55472779Y-112825075D01*
X55558289Y-112874444D01*
X55653664Y-112900000D01*
X55752404Y-112900000D01*
X55847779Y-112874444D01*
X55933289Y-112825075D01*
X55947535Y-112810829D01*
X55947535Y-113222874D01*
X55952324Y-113267421D01*
X55953034Y-113280675D01*
X55953034Y-113645352D01*
X56002008Y-113635611D01*
X56002012Y-113635610D01*
X56082367Y-113602326D01*
X56151836Y-113594857D01*
X56197759Y-113614845D01*
X56197922Y-113614547D01*
X56201254Y-113616366D01*
X56204129Y-113617618D01*
X56205702Y-113618795D01*
X56205704Y-113618797D01*
X56340551Y-113669091D01*
X56340550Y-113669091D01*
X56347478Y-113669835D01*
X56400161Y-113675500D01*
X57545906Y-113675499D01*
X57605517Y-113669091D01*
X57740365Y-113618796D01*
X57855580Y-113532546D01*
X57941830Y-113417331D01*
X57992125Y-113282483D01*
X57998534Y-113222873D01*
X57998533Y-111837857D01*
X87185034Y-111837857D01*
X87185034Y-112162143D01*
X87194587Y-112259134D01*
X87216818Y-112484857D01*
X87216821Y-112484874D01*
X87280079Y-112802902D01*
X87280082Y-112802913D01*
X87374220Y-113113247D01*
X87498320Y-113412849D01*
X87498322Y-113412854D01*
X87651180Y-113698830D01*
X87651191Y-113698848D01*
X87831345Y-113968467D01*
X87831355Y-113968481D01*
X88037080Y-114219158D01*
X88266375Y-114448453D01*
X88266380Y-114448457D01*
X88266381Y-114448458D01*
X88517058Y-114654183D01*
X88786692Y-114834347D01*
X88786701Y-114834352D01*
X88786703Y-114834353D01*
X89072679Y-114987211D01*
X89072681Y-114987211D01*
X89072687Y-114987215D01*
X89372288Y-115111314D01*
X89682611Y-115205449D01*
X89682617Y-115205450D01*
X89682620Y-115205451D01*
X89682631Y-115205454D01*
X89882062Y-115245122D01*
X90000666Y-115268714D01*
X90323391Y-115300500D01*
X90323394Y-115300500D01*
X90647674Y-115300500D01*
X90647677Y-115300500D01*
X90970402Y-115268714D01*
X91127829Y-115237399D01*
X91288436Y-115205454D01*
X91288447Y-115205451D01*
X91288447Y-115205450D01*
X91288457Y-115205449D01*
X91598780Y-115111314D01*
X91898381Y-114987215D01*
X92184376Y-114834347D01*
X92454010Y-114654183D01*
X92704687Y-114448458D01*
X92933992Y-114219153D01*
X93139717Y-113968476D01*
X93319881Y-113698842D01*
X93472749Y-113412847D01*
X93596848Y-113113246D01*
X93690983Y-112802923D01*
X93690985Y-112802913D01*
X93690988Y-112802902D01*
X93746265Y-112525000D01*
X93754248Y-112484868D01*
X93786034Y-112162143D01*
X93786034Y-111837857D01*
X93754248Y-111515132D01*
X93722701Y-111356534D01*
X93690988Y-111197097D01*
X93690985Y-111197086D01*
X93690984Y-111197083D01*
X93690983Y-111197077D01*
X93596848Y-110886754D01*
X93472749Y-110587153D01*
X93319881Y-110301158D01*
X93139717Y-110031524D01*
X92933992Y-109780847D01*
X92933991Y-109780846D01*
X92933987Y-109780841D01*
X92704692Y-109551546D01*
X92454015Y-109345821D01*
X92454014Y-109345820D01*
X92454010Y-109345817D01*
X92184376Y-109165653D01*
X92184371Y-109165650D01*
X92184364Y-109165646D01*
X91898388Y-109012788D01*
X91898383Y-109012786D01*
X91598781Y-108888686D01*
X91288447Y-108794548D01*
X91288436Y-108794545D01*
X90970408Y-108731287D01*
X90970391Y-108731284D01*
X90726346Y-108707248D01*
X90647677Y-108699500D01*
X90323391Y-108699500D01*
X90250633Y-108706666D01*
X90000676Y-108731284D01*
X90000659Y-108731287D01*
X89682631Y-108794545D01*
X89682620Y-108794548D01*
X89372286Y-108888686D01*
X89072684Y-109012786D01*
X89072679Y-109012788D01*
X88786703Y-109165646D01*
X88786685Y-109165657D01*
X88517066Y-109345811D01*
X88517052Y-109345821D01*
X88266375Y-109551546D01*
X88037080Y-109780841D01*
X87831355Y-110031518D01*
X87831345Y-110031532D01*
X87651191Y-110301151D01*
X87651180Y-110301169D01*
X87498322Y-110587145D01*
X87498320Y-110587150D01*
X87374220Y-110886752D01*
X87280082Y-111197086D01*
X87280079Y-111197097D01*
X87216821Y-111515125D01*
X87216818Y-111515142D01*
X87194053Y-111746282D01*
X87185034Y-111837857D01*
X57998533Y-111837857D01*
X57998533Y-111827128D01*
X57992125Y-111767517D01*
X57984204Y-111746281D01*
X57941831Y-111632671D01*
X57941827Y-111632664D01*
X57855581Y-111517455D01*
X57852491Y-111515142D01*
X57822461Y-111492661D01*
X57773222Y-111455800D01*
X57731352Y-111399866D01*
X57723534Y-111356534D01*
X57723534Y-108088579D01*
X57694693Y-107943592D01*
X57694692Y-107943591D01*
X57694692Y-107943587D01*
X57694690Y-107943582D01*
X57635787Y-107801376D01*
X57636647Y-107801019D01*
X57623533Y-107748657D01*
X57623533Y-107538330D01*
X57623532Y-107538313D01*
X57613208Y-107437247D01*
X57558942Y-107273484D01*
X57468374Y-107126650D01*
X57346384Y-107004660D01*
X57199550Y-106914092D01*
X57035787Y-106859826D01*
X57035785Y-106859825D01*
X56934712Y-106849500D01*
X56336364Y-106849500D01*
X56336346Y-106849501D01*
X56235281Y-106859825D01*
X56071518Y-106914092D01*
X56071515Y-106914093D01*
X55924682Y-107004661D01*
X55810715Y-107118629D01*
X55806596Y-107120877D01*
X55804050Y-107124823D01*
X55776213Y-107137468D01*
X55749392Y-107152114D01*
X55744710Y-107151779D01*
X55740436Y-107153721D01*
X55710191Y-107149310D01*
X55679700Y-107147130D01*
X55674652Y-107144128D01*
X55671298Y-107143639D01*
X55656404Y-107133276D01*
X55641645Y-107124499D01*
X55638398Y-107121674D01*
X55521384Y-107004660D01*
X55461302Y-106967601D01*
X55453645Y-106960939D01*
X55440063Y-106939713D01*
X55423212Y-106920978D01*
X55420533Y-106909191D01*
X55415987Y-106902086D01*
X55416012Y-106889296D01*
X55411034Y-106867388D01*
X55411034Y-99589563D01*
X55430719Y-99522524D01*
X55447353Y-99501882D01*
X57412416Y-97536819D01*
X57473739Y-97503334D01*
X57500097Y-97500500D01*
X92213331Y-97500500D01*
X92213347Y-97500501D01*
X92220943Y-97500501D01*
X92379054Y-97500501D01*
X92379057Y-97500501D01*
X92531785Y-97459577D01*
X92581904Y-97430639D01*
X92668716Y-97380520D01*
X92780520Y-97268716D01*
X92780520Y-97268714D01*
X92790728Y-97258507D01*
X92790730Y-97258504D01*
X94458506Y-95590728D01*
X94458511Y-95590724D01*
X94468714Y-95580520D01*
X94468716Y-95580520D01*
X94580520Y-95468716D01*
X94659577Y-95331784D01*
X94700500Y-95179057D01*
X94700500Y-92780943D01*
X94659577Y-92628216D01*
X94619948Y-92559576D01*
X94580524Y-92491290D01*
X94580521Y-92491286D01*
X94580520Y-92491284D01*
X94468716Y-92379480D01*
X94468715Y-92379479D01*
X94464385Y-92375149D01*
X94464374Y-92375139D01*
X93633757Y-91544522D01*
X93600272Y-91483199D01*
X93603507Y-91418523D01*
X93617246Y-91376243D01*
X93650500Y-91166287D01*
X93650500Y-90953713D01*
X93617246Y-90743757D01*
X93551557Y-90541588D01*
X93455051Y-90352184D01*
X93455049Y-90352181D01*
X93455048Y-90352179D01*
X93330109Y-90180213D01*
X93179786Y-90029890D01*
X93007820Y-89904951D01*
X93007115Y-89904591D01*
X92999054Y-89900485D01*
X92948259Y-89852512D01*
X92931463Y-89784692D01*
X92953999Y-89718556D01*
X92999054Y-89679515D01*
X93007816Y-89675051D01*
X93029789Y-89659086D01*
X93179786Y-89550109D01*
X93179788Y-89550106D01*
X93179792Y-89550104D01*
X93330104Y-89399792D01*
X93330106Y-89399788D01*
X93330109Y-89399786D01*
X93439086Y-89249789D01*
X93455051Y-89227816D01*
X93551557Y-89038412D01*
X93617246Y-88836243D01*
X93650500Y-88626287D01*
X93650500Y-88413713D01*
X93617246Y-88203757D01*
X93551557Y-88001588D01*
X93455051Y-87812184D01*
X93455049Y-87812181D01*
X93455048Y-87812179D01*
X93330109Y-87640213D01*
X93179786Y-87489890D01*
X93007820Y-87364951D01*
X93007115Y-87364591D01*
X92999054Y-87360485D01*
X92948259Y-87312512D01*
X92931463Y-87244692D01*
X92953999Y-87178556D01*
X92999054Y-87139515D01*
X93007816Y-87135051D01*
X93084056Y-87079660D01*
X93179786Y-87010109D01*
X93179788Y-87010106D01*
X93179792Y-87010104D01*
X93330104Y-86859792D01*
X93330106Y-86859788D01*
X93330109Y-86859786D01*
X93455048Y-86687820D01*
X93455047Y-86687820D01*
X93455051Y-86687816D01*
X93551557Y-86498412D01*
X93617246Y-86296243D01*
X93650500Y-86086287D01*
X93650500Y-85873713D01*
X93617246Y-85663757D01*
X93603506Y-85621473D01*
X93601512Y-85551635D01*
X93633755Y-85495478D01*
X94680520Y-84448716D01*
X94753647Y-84322054D01*
X94804213Y-84273840D01*
X94872820Y-84260616D01*
X94937685Y-84286584D01*
X94978214Y-84343498D01*
X94985034Y-84384055D01*
X94985034Y-111997293D01*
X94984916Y-112002702D01*
X94968148Y-112386753D01*
X94967205Y-112397529D01*
X94917384Y-112775958D01*
X94915506Y-112786612D01*
X94832887Y-113159279D01*
X94830087Y-113169727D01*
X94715309Y-113533760D01*
X94711609Y-113543926D01*
X94565536Y-113896579D01*
X94560964Y-113906383D01*
X94384718Y-114244950D01*
X94379310Y-114254318D01*
X94174215Y-114576254D01*
X94168010Y-114585115D01*
X93935650Y-114887934D01*
X93928697Y-114896221D01*
X93670819Y-115177648D01*
X93663170Y-115185297D01*
X93381745Y-115443178D01*
X93373464Y-115450126D01*
X93232859Y-115558018D01*
X93070640Y-115682494D01*
X93061779Y-115688698D01*
X92739849Y-115893793D01*
X92730480Y-115899202D01*
X92391913Y-116075449D01*
X92382110Y-116080021D01*
X92029454Y-116226099D01*
X92019288Y-116229799D01*
X91655254Y-116344580D01*
X91644805Y-116347380D01*
X91272143Y-116430000D01*
X91261490Y-116431878D01*
X90883058Y-116481702D01*
X90872282Y-116482645D01*
X90489012Y-116499382D01*
X90483602Y-116499500D01*
X30738240Y-116499500D01*
X30732831Y-116499382D01*
X30348781Y-116482614D01*
X30338007Y-116481671D01*
X30148789Y-116456760D01*
X29959574Y-116431850D01*
X29948924Y-116429972D01*
X29576258Y-116347354D01*
X29565811Y-116344555D01*
X29201777Y-116229776D01*
X29191611Y-116226076D01*
X28838959Y-116080003D01*
X28829155Y-116075431D01*
X28716911Y-116017001D01*
X28490574Y-115899177D01*
X28481218Y-115893776D01*
X28159312Y-115688698D01*
X28159295Y-115688687D01*
X28150434Y-115682483D01*
X27847608Y-115450117D01*
X27839321Y-115443164D01*
X27648942Y-115268714D01*
X27557883Y-115185274D01*
X27550246Y-115177636D01*
X27292374Y-114896218D01*
X27285420Y-114887931D01*
X27053048Y-114585098D01*
X27046844Y-114576237D01*
X27033539Y-114555353D01*
X26841751Y-114254306D01*
X26836358Y-114244966D01*
X26660097Y-113906371D01*
X26655528Y-113896573D01*
X26573627Y-113698848D01*
X26509453Y-113543918D01*
X26505754Y-113533755D01*
X26390970Y-113169705D01*
X26388177Y-113159279D01*
X26305555Y-112786598D01*
X26303682Y-112775971D01*
X26253856Y-112397506D01*
X26252916Y-112386771D01*
X26236152Y-112002793D01*
X26236034Y-111997384D01*
X26236034Y-111837857D01*
X27435034Y-111837857D01*
X27435034Y-112162143D01*
X27444587Y-112259134D01*
X27466818Y-112484857D01*
X27466821Y-112484874D01*
X27530079Y-112802902D01*
X27530082Y-112802913D01*
X27624220Y-113113247D01*
X27748320Y-113412849D01*
X27748322Y-113412854D01*
X27901180Y-113698830D01*
X27901191Y-113698848D01*
X28081345Y-113968467D01*
X28081355Y-113968481D01*
X28287080Y-114219158D01*
X28516375Y-114448453D01*
X28516380Y-114448457D01*
X28516381Y-114448458D01*
X28767058Y-114654183D01*
X29036692Y-114834347D01*
X29036701Y-114834352D01*
X29036703Y-114834353D01*
X29322679Y-114987211D01*
X29322681Y-114987211D01*
X29322687Y-114987215D01*
X29622288Y-115111314D01*
X29932611Y-115205449D01*
X29932617Y-115205450D01*
X29932620Y-115205451D01*
X29932631Y-115205454D01*
X30132062Y-115245122D01*
X30250666Y-115268714D01*
X30573391Y-115300500D01*
X30573394Y-115300500D01*
X30897674Y-115300500D01*
X30897677Y-115300500D01*
X31220402Y-115268714D01*
X31377829Y-115237399D01*
X31538436Y-115205454D01*
X31538447Y-115205451D01*
X31538447Y-115205450D01*
X31538457Y-115205449D01*
X31848780Y-115111314D01*
X32148381Y-114987215D01*
X32434376Y-114834347D01*
X32704010Y-114654183D01*
X32954687Y-114448458D01*
X33183992Y-114219153D01*
X33389717Y-113968476D01*
X33569881Y-113698842D01*
X33722749Y-113412847D01*
X33846848Y-113113246D01*
X33940983Y-112802923D01*
X33940985Y-112802913D01*
X33940988Y-112802902D01*
X33996265Y-112525000D01*
X34004248Y-112484868D01*
X34036034Y-112162143D01*
X34036034Y-111837857D01*
X34004248Y-111515132D01*
X33972701Y-111356534D01*
X33940988Y-111197097D01*
X33940985Y-111197086D01*
X33940984Y-111197083D01*
X33940983Y-111197077D01*
X33846848Y-110886754D01*
X33722749Y-110587153D01*
X33569881Y-110301158D01*
X33389717Y-110031524D01*
X33183992Y-109780847D01*
X33183991Y-109780846D01*
X33183987Y-109780841D01*
X32954692Y-109551546D01*
X32704015Y-109345821D01*
X32704014Y-109345820D01*
X32704010Y-109345817D01*
X32434376Y-109165653D01*
X32434371Y-109165650D01*
X32434364Y-109165646D01*
X32148388Y-109012788D01*
X32148383Y-109012786D01*
X31848781Y-108888686D01*
X31538447Y-108794548D01*
X31538436Y-108794545D01*
X31220408Y-108731287D01*
X31220391Y-108731284D01*
X30976346Y-108707248D01*
X30897677Y-108699500D01*
X30573391Y-108699500D01*
X30500633Y-108706666D01*
X30250676Y-108731284D01*
X30250659Y-108731287D01*
X29932631Y-108794545D01*
X29932620Y-108794548D01*
X29622286Y-108888686D01*
X29322684Y-109012786D01*
X29322679Y-109012788D01*
X29036703Y-109165646D01*
X29036685Y-109165657D01*
X28767066Y-109345811D01*
X28767052Y-109345821D01*
X28516375Y-109551546D01*
X28287080Y-109780841D01*
X28081355Y-110031518D01*
X28081345Y-110031532D01*
X27901191Y-110301151D01*
X27901180Y-110301169D01*
X27748322Y-110587145D01*
X27748320Y-110587150D01*
X27624220Y-110886752D01*
X27530082Y-111197086D01*
X27530079Y-111197097D01*
X27466821Y-111515125D01*
X27466818Y-111515142D01*
X27444053Y-111746282D01*
X27435034Y-111837857D01*
X26236034Y-111837857D01*
X26236034Y-62002706D01*
X26236152Y-61997297D01*
X26240438Y-61899127D01*
X26243113Y-61837857D01*
X27435034Y-61837857D01*
X27435034Y-62162143D01*
X27441962Y-62232483D01*
X27466818Y-62484857D01*
X27466821Y-62484874D01*
X27530079Y-62802902D01*
X27530082Y-62802913D01*
X27624220Y-63113247D01*
X27748320Y-63412849D01*
X27748322Y-63412854D01*
X27901180Y-63698830D01*
X27901191Y-63698848D01*
X28081345Y-63968467D01*
X28081355Y-63968481D01*
X28287080Y-64219158D01*
X28516375Y-64448453D01*
X28516380Y-64448457D01*
X28516381Y-64448458D01*
X28767058Y-64654183D01*
X29036692Y-64834347D01*
X29036701Y-64834352D01*
X29036703Y-64834353D01*
X29322679Y-64987211D01*
X29322681Y-64987211D01*
X29322687Y-64987215D01*
X29622288Y-65111314D01*
X29932611Y-65205449D01*
X29932617Y-65205450D01*
X29932620Y-65205451D01*
X29932631Y-65205454D01*
X30117436Y-65242213D01*
X30250666Y-65268714D01*
X30573391Y-65300500D01*
X30573394Y-65300500D01*
X30897674Y-65300500D01*
X30897677Y-65300500D01*
X31220402Y-65268714D01*
X31377829Y-65237399D01*
X31538436Y-65205454D01*
X31538447Y-65205451D01*
X31538447Y-65205450D01*
X31538457Y-65205449D01*
X31848780Y-65111314D01*
X32148381Y-64987215D01*
X32434376Y-64834347D01*
X32704010Y-64654183D01*
X32954687Y-64448458D01*
X33183992Y-64219153D01*
X33389717Y-63968476D01*
X33569881Y-63698842D01*
X33722749Y-63412847D01*
X33846848Y-63113246D01*
X33940983Y-62802923D01*
X33940985Y-62802913D01*
X33940988Y-62802902D01*
X33986305Y-62575073D01*
X34004248Y-62484868D01*
X34036034Y-62162143D01*
X34036034Y-61837857D01*
X34004248Y-61515132D01*
X33965245Y-61319050D01*
X33940988Y-61197097D01*
X33940985Y-61197086D01*
X33940984Y-61197083D01*
X33940983Y-61197077D01*
X33846848Y-60886754D01*
X33722749Y-60587153D01*
X33720353Y-60582671D01*
X33569887Y-60301169D01*
X33569886Y-60301167D01*
X33569881Y-60301158D01*
X33389717Y-60031524D01*
X33183992Y-59780847D01*
X33183991Y-59780846D01*
X33183987Y-59780841D01*
X32954692Y-59551546D01*
X32704015Y-59345821D01*
X32704014Y-59345820D01*
X32704010Y-59345817D01*
X32434376Y-59165653D01*
X32434371Y-59165650D01*
X32434364Y-59165646D01*
X32148388Y-59012788D01*
X32148383Y-59012786D01*
X31848781Y-58888686D01*
X31538447Y-58794548D01*
X31538436Y-58794545D01*
X31220408Y-58731287D01*
X31220391Y-58731284D01*
X30976346Y-58707248D01*
X30897677Y-58699500D01*
X30573391Y-58699500D01*
X30500633Y-58706666D01*
X30250676Y-58731284D01*
X30250659Y-58731287D01*
X29932631Y-58794545D01*
X29932620Y-58794548D01*
X29622286Y-58888686D01*
X29322684Y-59012786D01*
X29322679Y-59012788D01*
X29036703Y-59165646D01*
X29036685Y-59165657D01*
X28767066Y-59345811D01*
X28767052Y-59345821D01*
X28516375Y-59551546D01*
X28287080Y-59780841D01*
X28081355Y-60031518D01*
X28081345Y-60031532D01*
X27901191Y-60301151D01*
X27901180Y-60301169D01*
X27748322Y-60587145D01*
X27748320Y-60587150D01*
X27624220Y-60886752D01*
X27530082Y-61197086D01*
X27530079Y-61197097D01*
X27466821Y-61515125D01*
X27466818Y-61515142D01*
X27448094Y-61705255D01*
X27435034Y-61837857D01*
X26243113Y-61837857D01*
X26252920Y-61613226D01*
X26253860Y-61602495D01*
X26303686Y-61224025D01*
X26305562Y-61213391D01*
X26388183Y-60840709D01*
X26390974Y-60830295D01*
X26505763Y-60466228D01*
X26509451Y-60456096D01*
X26655537Y-60103413D01*
X26660100Y-60093631D01*
X26836356Y-59755046D01*
X26841751Y-59745701D01*
X27046859Y-59423745D01*
X27053051Y-59414904D01*
X27285441Y-59112047D01*
X27292346Y-59103816D01*
X27550270Y-58822343D01*
X27557889Y-58814726D01*
X27839325Y-58556836D01*
X27847594Y-58549898D01*
X28150439Y-58317517D01*
X28159278Y-58311327D01*
X28481234Y-58106219D01*
X28490579Y-58100824D01*
X28829172Y-57924564D01*
X28838946Y-57920006D01*
X29191629Y-57773920D01*
X29201761Y-57770233D01*
X29565829Y-57655443D01*
X29576238Y-57652653D01*
X29948947Y-57570026D01*
X29959554Y-57568156D01*
X30338027Y-57518330D01*
X30348759Y-57517390D01*
X30732931Y-57500617D01*
X30738323Y-57500500D01*
X30801426Y-57500500D01*
X90419638Y-57500500D01*
X90482824Y-57500500D01*
X90488233Y-57500618D01*
G37*
%TD.AperFunction*%
%TA.AperFunction,Conductor*%
G36*
X55766368Y-108502870D02*
G01*
X55810715Y-108531371D01*
X55924684Y-108645340D01*
X56071518Y-108735908D01*
X56137538Y-108757785D01*
X56194982Y-108797556D01*
X56221806Y-108862072D01*
X56222534Y-108875490D01*
X56222534Y-111320152D01*
X56202849Y-111387191D01*
X56150045Y-111432946D01*
X56080887Y-111442890D01*
X56051082Y-111434713D01*
X56002018Y-111414390D01*
X56002011Y-111414388D01*
X55953034Y-111404645D01*
X55953034Y-111769329D01*
X55952323Y-111782584D01*
X55947534Y-111827127D01*
X55947534Y-112239170D01*
X55933289Y-112224925D01*
X55847779Y-112175556D01*
X55752404Y-112150000D01*
X55653664Y-112150000D01*
X55558289Y-112175556D01*
X55472779Y-112224925D01*
X55453034Y-112244670D01*
X55453034Y-111404646D01*
X55453033Y-111404645D01*
X55404056Y-111414388D01*
X55404049Y-111414390D01*
X55217512Y-111491656D01*
X55215980Y-111492475D01*
X55215086Y-111492661D01*
X55211885Y-111493987D01*
X55211633Y-111493379D01*
X55147576Y-111506713D01*
X55082334Y-111481708D01*
X55040967Y-111425400D01*
X55033534Y-111383113D01*
X55033534Y-108920259D01*
X55053219Y-108853220D01*
X55106023Y-108807465D01*
X55144933Y-108796901D01*
X55167938Y-108794551D01*
X55210787Y-108790174D01*
X55374550Y-108735908D01*
X55521384Y-108645340D01*
X55635353Y-108531371D01*
X55696676Y-108497886D01*
X55766368Y-108502870D01*
G37*
%TD.AperFunction*%
%TA.AperFunction,Conductor*%
G36*
X80147726Y-86557685D02*
G01*
X80193481Y-86610489D01*
X80203425Y-86679647D01*
X80195248Y-86709453D01*
X80174923Y-86758520D01*
X80174921Y-86758525D01*
X80165181Y-86807500D01*
X80529863Y-86807500D01*
X80543118Y-86808210D01*
X80587661Y-86813000D01*
X80999704Y-86812999D01*
X80985459Y-86827245D01*
X80936090Y-86912755D01*
X80910534Y-87008130D01*
X80910534Y-87106870D01*
X80936090Y-87202245D01*
X80985459Y-87287755D01*
X81005204Y-87307500D01*
X80165181Y-87307500D01*
X80174921Y-87356474D01*
X80174924Y-87356483D01*
X80252190Y-87543021D01*
X80253009Y-87544554D01*
X80253195Y-87545447D01*
X80254521Y-87548649D01*
X80253913Y-87548900D01*
X80267247Y-87612958D01*
X80242242Y-87678200D01*
X80185934Y-87719567D01*
X80143647Y-87727000D01*
X77680793Y-87727000D01*
X77613754Y-87707315D01*
X77567999Y-87654511D01*
X77557435Y-87615601D01*
X77550708Y-87549747D01*
X77548477Y-87543015D01*
X77496442Y-87385984D01*
X77405874Y-87239150D01*
X77291905Y-87125181D01*
X77258420Y-87063858D01*
X77263404Y-86994166D01*
X77291905Y-86949819D01*
X77329405Y-86912319D01*
X77405874Y-86835850D01*
X77496442Y-86689016D01*
X77518319Y-86622994D01*
X77558092Y-86565551D01*
X77622608Y-86538728D01*
X77636025Y-86538000D01*
X80080687Y-86538000D01*
X80147726Y-86557685D01*
G37*
%TD.AperFunction*%
%TA.AperFunction,Conductor*%
G36*
X33857314Y-86330185D02*
G01*
X33903069Y-86382989D01*
X33913633Y-86421899D01*
X33920359Y-86487752D01*
X33945168Y-86562618D01*
X33960436Y-86608695D01*
X33974626Y-86651515D01*
X33974627Y-86651518D01*
X34065195Y-86798351D01*
X34179163Y-86912319D01*
X34212648Y-86973642D01*
X34207664Y-87043334D01*
X34179163Y-87087681D01*
X34065195Y-87201648D01*
X33974627Y-87348481D01*
X33974626Y-87348484D01*
X33952749Y-87414505D01*
X33912976Y-87471949D01*
X33848460Y-87498772D01*
X33835043Y-87499500D01*
X31390381Y-87499500D01*
X31323342Y-87479815D01*
X31277587Y-87427011D01*
X31267643Y-87357853D01*
X31275820Y-87328047D01*
X31296143Y-87278982D01*
X31296145Y-87278974D01*
X31305887Y-87230000D01*
X30941205Y-87230000D01*
X30927949Y-87229289D01*
X30883415Y-87224500D01*
X30471364Y-87224500D01*
X30485609Y-87210255D01*
X30534978Y-87124745D01*
X30560534Y-87029370D01*
X30560534Y-86930630D01*
X30534978Y-86835255D01*
X30485609Y-86749745D01*
X30465864Y-86730000D01*
X31305887Y-86730000D01*
X31296146Y-86681025D01*
X31296143Y-86681016D01*
X31218877Y-86494478D01*
X31218059Y-86492946D01*
X31217872Y-86492052D01*
X31216547Y-86488851D01*
X31217154Y-86488599D01*
X31203821Y-86424542D01*
X31228826Y-86359300D01*
X31285134Y-86317933D01*
X31327421Y-86310500D01*
X33790275Y-86310500D01*
X33857314Y-86330185D01*
G37*
%TD.AperFunction*%
%TA.AperFunction,Conductor*%
G36*
X55990534Y-62595352D02*
G01*
X56039508Y-62585612D01*
X56039517Y-62585609D01*
X56226040Y-62508350D01*
X56227563Y-62507536D01*
X56228454Y-62507350D01*
X56231683Y-62506013D01*
X56231936Y-62506624D01*
X56295964Y-62493283D01*
X56361212Y-62518273D01*
X56402591Y-62574572D01*
X56410034Y-62616885D01*
X56410034Y-65079740D01*
X56390349Y-65146779D01*
X56337545Y-65192534D01*
X56298637Y-65203098D01*
X56232780Y-65209826D01*
X56069018Y-65264092D01*
X56069015Y-65264093D01*
X55922182Y-65354661D01*
X55808215Y-65468629D01*
X55746892Y-65502114D01*
X55677200Y-65497130D01*
X55632853Y-65468629D01*
X55518885Y-65354661D01*
X55518884Y-65354660D01*
X55372050Y-65264092D01*
X55372048Y-65264091D01*
X55372046Y-65264090D01*
X55372047Y-65264090D01*
X55306028Y-65242213D01*
X55248584Y-65202440D01*
X55221762Y-65137924D01*
X55221034Y-65124508D01*
X55221034Y-62679847D01*
X55240719Y-62612808D01*
X55293523Y-62567053D01*
X55362681Y-62557109D01*
X55392487Y-62565286D01*
X55441551Y-62585609D01*
X55441559Y-62585611D01*
X55490534Y-62595353D01*
X55490534Y-62230671D01*
X55491245Y-62217415D01*
X55496033Y-62172881D01*
X55496034Y-62172873D01*
X55496033Y-61760829D01*
X55510279Y-61775075D01*
X55595789Y-61824444D01*
X55691164Y-61850000D01*
X55789904Y-61850000D01*
X55885279Y-61824444D01*
X55970789Y-61775075D01*
X55990534Y-61755330D01*
X55990534Y-62595352D01*
G37*
%TD.AperFunction*%
%TD*%
M02*
