%TF.GenerationSoftware,KiCad,Pcbnew,9.0.0*%
%TF.CreationDate,2025-06-04T23:47:33+02:00*%
%TF.ProjectId,uv_controler,75765f63-6f6e-4747-926f-6c65722e6b69,rev?*%
%TF.SameCoordinates,Original*%
%TF.FileFunction,Legend,Top*%
%TF.FilePolarity,Positive*%
%FSLAX46Y46*%
G04 Gerber Fmt 4.6, Leading zero omitted, Abs format (unit mm)*
G04 Created by KiCad (PCBNEW 9.0.0) date 2025-06-04 23:47:33*
%MOMM*%
%LPD*%
G01*
G04 APERTURE LIST*
%ADD10C,0.100000*%
%ADD11C,0.150000*%
%ADD12C,0.120000*%
G04 APERTURE END LIST*
D10*
X50007439Y-60882419D02*
X50007439Y-61691942D01*
X50007439Y-61691942D02*
X50055058Y-61787180D01*
X50055058Y-61787180D02*
X50102677Y-61834800D01*
X50102677Y-61834800D02*
X50197915Y-61882419D01*
X50197915Y-61882419D02*
X50388391Y-61882419D01*
X50388391Y-61882419D02*
X50483629Y-61834800D01*
X50483629Y-61834800D02*
X50531248Y-61787180D01*
X50531248Y-61787180D02*
X50578867Y-61691942D01*
X50578867Y-61691942D02*
X50578867Y-60882419D01*
X51578867Y-61882419D02*
X51007439Y-61882419D01*
X51293153Y-61882419D02*
X51293153Y-60882419D01*
X51293153Y-60882419D02*
X51197915Y-61025276D01*
X51197915Y-61025276D02*
X51102677Y-61120514D01*
X51102677Y-61120514D02*
X51007439Y-61168133D01*
X52197915Y-60882419D02*
X52293153Y-60882419D01*
X52293153Y-60882419D02*
X52388391Y-60930038D01*
X52388391Y-60930038D02*
X52436010Y-60977657D01*
X52436010Y-60977657D02*
X52483629Y-61072895D01*
X52483629Y-61072895D02*
X52531248Y-61263371D01*
X52531248Y-61263371D02*
X52531248Y-61501466D01*
X52531248Y-61501466D02*
X52483629Y-61691942D01*
X52483629Y-61691942D02*
X52436010Y-61787180D01*
X52436010Y-61787180D02*
X52388391Y-61834800D01*
X52388391Y-61834800D02*
X52293153Y-61882419D01*
X52293153Y-61882419D02*
X52197915Y-61882419D01*
X52197915Y-61882419D02*
X52102677Y-61834800D01*
X52102677Y-61834800D02*
X52055058Y-61787180D01*
X52055058Y-61787180D02*
X52007439Y-61691942D01*
X52007439Y-61691942D02*
X51959820Y-61501466D01*
X51959820Y-61501466D02*
X51959820Y-61263371D01*
X51959820Y-61263371D02*
X52007439Y-61072895D01*
X52007439Y-61072895D02*
X52055058Y-60977657D01*
X52055058Y-60977657D02*
X52102677Y-60930038D01*
X52102677Y-60930038D02*
X52197915Y-60882419D01*
D11*
X52864581Y-58606009D02*
X52531248Y-58606009D01*
X52531248Y-59129819D02*
X52531248Y-58129819D01*
X52531248Y-58129819D02*
X53007438Y-58129819D01*
X53578867Y-58129819D02*
X53769343Y-58129819D01*
X53769343Y-58129819D02*
X53864581Y-58177438D01*
X53864581Y-58177438D02*
X53959819Y-58272676D01*
X53959819Y-58272676D02*
X54007438Y-58463152D01*
X54007438Y-58463152D02*
X54007438Y-58796485D01*
X54007438Y-58796485D02*
X53959819Y-58986961D01*
X53959819Y-58986961D02*
X53864581Y-59082200D01*
X53864581Y-59082200D02*
X53769343Y-59129819D01*
X53769343Y-59129819D02*
X53578867Y-59129819D01*
X53578867Y-59129819D02*
X53483629Y-59082200D01*
X53483629Y-59082200D02*
X53388391Y-58986961D01*
X53388391Y-58986961D02*
X53340772Y-58796485D01*
X53340772Y-58796485D02*
X53340772Y-58463152D01*
X53340772Y-58463152D02*
X53388391Y-58272676D01*
X53388391Y-58272676D02*
X53483629Y-58177438D01*
X53483629Y-58177438D02*
X53578867Y-58129819D01*
X55007438Y-59129819D02*
X54674105Y-58653628D01*
X54436010Y-59129819D02*
X54436010Y-58129819D01*
X54436010Y-58129819D02*
X54816962Y-58129819D01*
X54816962Y-58129819D02*
X54912200Y-58177438D01*
X54912200Y-58177438D02*
X54959819Y-58225057D01*
X54959819Y-58225057D02*
X55007438Y-58320295D01*
X55007438Y-58320295D02*
X55007438Y-58463152D01*
X55007438Y-58463152D02*
X54959819Y-58558390D01*
X54959819Y-58558390D02*
X54912200Y-58606009D01*
X54912200Y-58606009D02*
X54816962Y-58653628D01*
X54816962Y-58653628D02*
X54436010Y-58653628D01*
X55340772Y-58129819D02*
X55578867Y-59129819D01*
X55578867Y-59129819D02*
X55769343Y-58415533D01*
X55769343Y-58415533D02*
X55959819Y-59129819D01*
X55959819Y-59129819D02*
X56197915Y-58129819D01*
X56531248Y-58844104D02*
X57007438Y-58844104D01*
X56436010Y-59129819D02*
X56769343Y-58129819D01*
X56769343Y-58129819D02*
X57102676Y-59129819D01*
X58007438Y-59129819D02*
X57674105Y-58653628D01*
X57436010Y-59129819D02*
X57436010Y-58129819D01*
X57436010Y-58129819D02*
X57816962Y-58129819D01*
X57816962Y-58129819D02*
X57912200Y-58177438D01*
X57912200Y-58177438D02*
X57959819Y-58225057D01*
X57959819Y-58225057D02*
X58007438Y-58320295D01*
X58007438Y-58320295D02*
X58007438Y-58463152D01*
X58007438Y-58463152D02*
X57959819Y-58558390D01*
X57959819Y-58558390D02*
X57912200Y-58606009D01*
X57912200Y-58606009D02*
X57816962Y-58653628D01*
X57816962Y-58653628D02*
X57436010Y-58653628D01*
X58436010Y-59129819D02*
X58436010Y-58129819D01*
X58436010Y-58129819D02*
X58674105Y-58129819D01*
X58674105Y-58129819D02*
X58816962Y-58177438D01*
X58816962Y-58177438D02*
X58912200Y-58272676D01*
X58912200Y-58272676D02*
X58959819Y-58367914D01*
X58959819Y-58367914D02*
X59007438Y-58558390D01*
X59007438Y-58558390D02*
X59007438Y-58701247D01*
X59007438Y-58701247D02*
X58959819Y-58891723D01*
X58959819Y-58891723D02*
X58912200Y-58986961D01*
X58912200Y-58986961D02*
X58816962Y-59082200D01*
X58816962Y-59082200D02*
X58674105Y-59129819D01*
X58674105Y-59129819D02*
X58436010Y-59129819D01*
D10*
X81878114Y-81800595D02*
X81068591Y-81800595D01*
X81068591Y-81800595D02*
X80973353Y-81848214D01*
X80973353Y-81848214D02*
X80925734Y-81895833D01*
X80925734Y-81895833D02*
X80878114Y-81991071D01*
X80878114Y-81991071D02*
X80878114Y-82181547D01*
X80878114Y-82181547D02*
X80925734Y-82276785D01*
X80925734Y-82276785D02*
X80973353Y-82324404D01*
X80973353Y-82324404D02*
X81068591Y-82372023D01*
X81068591Y-82372023D02*
X81878114Y-82372023D01*
X80878114Y-82895833D02*
X80878114Y-83086309D01*
X80878114Y-83086309D02*
X80925734Y-83181547D01*
X80925734Y-83181547D02*
X80973353Y-83229166D01*
X80973353Y-83229166D02*
X81116210Y-83324404D01*
X81116210Y-83324404D02*
X81306686Y-83372023D01*
X81306686Y-83372023D02*
X81687638Y-83372023D01*
X81687638Y-83372023D02*
X81782876Y-83324404D01*
X81782876Y-83324404D02*
X81830495Y-83276785D01*
X81830495Y-83276785D02*
X81878114Y-83181547D01*
X81878114Y-83181547D02*
X81878114Y-82991071D01*
X81878114Y-82991071D02*
X81830495Y-82895833D01*
X81830495Y-82895833D02*
X81782876Y-82848214D01*
X81782876Y-82848214D02*
X81687638Y-82800595D01*
X81687638Y-82800595D02*
X81449543Y-82800595D01*
X81449543Y-82800595D02*
X81354305Y-82848214D01*
X81354305Y-82848214D02*
X81306686Y-82895833D01*
X81306686Y-82895833D02*
X81259067Y-82991071D01*
X81259067Y-82991071D02*
X81259067Y-83181547D01*
X81259067Y-83181547D02*
X81306686Y-83276785D01*
X81306686Y-83276785D02*
X81354305Y-83324404D01*
X81354305Y-83324404D02*
X81449543Y-83372023D01*
D11*
X83630714Y-85729166D02*
X84106905Y-85395833D01*
X83630714Y-85157738D02*
X84630714Y-85157738D01*
X84630714Y-85157738D02*
X84630714Y-85538690D01*
X84630714Y-85538690D02*
X84583095Y-85633928D01*
X84583095Y-85633928D02*
X84535476Y-85681547D01*
X84535476Y-85681547D02*
X84440238Y-85729166D01*
X84440238Y-85729166D02*
X84297381Y-85729166D01*
X84297381Y-85729166D02*
X84202143Y-85681547D01*
X84202143Y-85681547D02*
X84154524Y-85633928D01*
X84154524Y-85633928D02*
X84106905Y-85538690D01*
X84106905Y-85538690D02*
X84106905Y-85157738D01*
X83630714Y-86157738D02*
X84630714Y-86157738D01*
X84583095Y-87157737D02*
X84630714Y-87062499D01*
X84630714Y-87062499D02*
X84630714Y-86919642D01*
X84630714Y-86919642D02*
X84583095Y-86776785D01*
X84583095Y-86776785D02*
X84487857Y-86681547D01*
X84487857Y-86681547D02*
X84392619Y-86633928D01*
X84392619Y-86633928D02*
X84202143Y-86586309D01*
X84202143Y-86586309D02*
X84059286Y-86586309D01*
X84059286Y-86586309D02*
X83868810Y-86633928D01*
X83868810Y-86633928D02*
X83773572Y-86681547D01*
X83773572Y-86681547D02*
X83678334Y-86776785D01*
X83678334Y-86776785D02*
X83630714Y-86919642D01*
X83630714Y-86919642D02*
X83630714Y-87014880D01*
X83630714Y-87014880D02*
X83678334Y-87157737D01*
X83678334Y-87157737D02*
X83725953Y-87205356D01*
X83725953Y-87205356D02*
X84059286Y-87205356D01*
X84059286Y-87205356D02*
X84059286Y-87014880D01*
X83630714Y-87633928D02*
X84630714Y-87633928D01*
X84154524Y-87633928D02*
X84154524Y-88205356D01*
X83630714Y-88205356D02*
X84630714Y-88205356D01*
X84630714Y-88538690D02*
X84630714Y-89110118D01*
X83630714Y-88824404D02*
X84630714Y-88824404D01*
X78470353Y-87204166D02*
X77994162Y-87537499D01*
X78470353Y-87775594D02*
X77470353Y-87775594D01*
X77470353Y-87775594D02*
X77470353Y-87394642D01*
X77470353Y-87394642D02*
X77517972Y-87299404D01*
X77517972Y-87299404D02*
X77565591Y-87251785D01*
X77565591Y-87251785D02*
X77660829Y-87204166D01*
X77660829Y-87204166D02*
X77803686Y-87204166D01*
X77803686Y-87204166D02*
X77898924Y-87251785D01*
X77898924Y-87251785D02*
X77946543Y-87299404D01*
X77946543Y-87299404D02*
X77994162Y-87394642D01*
X77994162Y-87394642D02*
X77994162Y-87775594D01*
X77898924Y-86632737D02*
X77851305Y-86727975D01*
X77851305Y-86727975D02*
X77803686Y-86775594D01*
X77803686Y-86775594D02*
X77708448Y-86823213D01*
X77708448Y-86823213D02*
X77660829Y-86823213D01*
X77660829Y-86823213D02*
X77565591Y-86775594D01*
X77565591Y-86775594D02*
X77517972Y-86727975D01*
X77517972Y-86727975D02*
X77470353Y-86632737D01*
X77470353Y-86632737D02*
X77470353Y-86442261D01*
X77470353Y-86442261D02*
X77517972Y-86347023D01*
X77517972Y-86347023D02*
X77565591Y-86299404D01*
X77565591Y-86299404D02*
X77660829Y-86251785D01*
X77660829Y-86251785D02*
X77708448Y-86251785D01*
X77708448Y-86251785D02*
X77803686Y-86299404D01*
X77803686Y-86299404D02*
X77851305Y-86347023D01*
X77851305Y-86347023D02*
X77898924Y-86442261D01*
X77898924Y-86442261D02*
X77898924Y-86632737D01*
X77898924Y-86632737D02*
X77946543Y-86727975D01*
X77946543Y-86727975D02*
X77994162Y-86775594D01*
X77994162Y-86775594D02*
X78089400Y-86823213D01*
X78089400Y-86823213D02*
X78279876Y-86823213D01*
X78279876Y-86823213D02*
X78375114Y-86775594D01*
X78375114Y-86775594D02*
X78422734Y-86727975D01*
X78422734Y-86727975D02*
X78470353Y-86632737D01*
X78470353Y-86632737D02*
X78470353Y-86442261D01*
X78470353Y-86442261D02*
X78422734Y-86347023D01*
X78422734Y-86347023D02*
X78375114Y-86299404D01*
X78375114Y-86299404D02*
X78279876Y-86251785D01*
X78279876Y-86251785D02*
X78089400Y-86251785D01*
X78089400Y-86251785D02*
X77994162Y-86299404D01*
X77994162Y-86299404D02*
X77946543Y-86347023D01*
X77946543Y-86347023D02*
X77898924Y-86442261D01*
X91966666Y-78024819D02*
X91966666Y-78739104D01*
X91966666Y-78739104D02*
X91919047Y-78881961D01*
X91919047Y-78881961D02*
X91823809Y-78977200D01*
X91823809Y-78977200D02*
X91680952Y-79024819D01*
X91680952Y-79024819D02*
X91585714Y-79024819D01*
X92871428Y-78358152D02*
X92871428Y-79024819D01*
X92633333Y-77977200D02*
X92395238Y-78691485D01*
X92395238Y-78691485D02*
X93014285Y-78691485D01*
D10*
X61436128Y-113117580D02*
X61436128Y-112308057D01*
X61436128Y-112308057D02*
X61388509Y-112212819D01*
X61388509Y-112212819D02*
X61340890Y-112165200D01*
X61340890Y-112165200D02*
X61245652Y-112117580D01*
X61245652Y-112117580D02*
X61055176Y-112117580D01*
X61055176Y-112117580D02*
X60959938Y-112165200D01*
X60959938Y-112165200D02*
X60912319Y-112212819D01*
X60912319Y-112212819D02*
X60864700Y-112308057D01*
X60864700Y-112308057D02*
X60864700Y-113117580D01*
X59864700Y-112117580D02*
X60436128Y-112117580D01*
X60150414Y-112117580D02*
X60150414Y-113117580D01*
X60150414Y-113117580D02*
X60245652Y-112974723D01*
X60245652Y-112974723D02*
X60340890Y-112879485D01*
X60340890Y-112879485D02*
X60436128Y-112831866D01*
X58912319Y-112117580D02*
X59483747Y-112117580D01*
X59198033Y-112117580D02*
X59198033Y-113117580D01*
X59198033Y-113117580D02*
X59293271Y-112974723D01*
X59293271Y-112974723D02*
X59388509Y-112879485D01*
X59388509Y-112879485D02*
X59483747Y-112831866D01*
D11*
X59055176Y-115393990D02*
X58912319Y-115346371D01*
X58912319Y-115346371D02*
X58864700Y-115298752D01*
X58864700Y-115298752D02*
X58817081Y-115203514D01*
X58817081Y-115203514D02*
X58817081Y-115060657D01*
X58817081Y-115060657D02*
X58864700Y-114965419D01*
X58864700Y-114965419D02*
X58912319Y-114917800D01*
X58912319Y-114917800D02*
X59007557Y-114870180D01*
X59007557Y-114870180D02*
X59388509Y-114870180D01*
X59388509Y-114870180D02*
X59388509Y-115870180D01*
X59388509Y-115870180D02*
X59055176Y-115870180D01*
X59055176Y-115870180D02*
X58959938Y-115822561D01*
X58959938Y-115822561D02*
X58912319Y-115774942D01*
X58912319Y-115774942D02*
X58864700Y-115679704D01*
X58864700Y-115679704D02*
X58864700Y-115584466D01*
X58864700Y-115584466D02*
X58912319Y-115489228D01*
X58912319Y-115489228D02*
X58959938Y-115441609D01*
X58959938Y-115441609D02*
X59055176Y-115393990D01*
X59055176Y-115393990D02*
X59388509Y-115393990D01*
X58436128Y-115155895D02*
X57959938Y-115155895D01*
X58531366Y-114870180D02*
X58198033Y-115870180D01*
X58198033Y-115870180D02*
X57864700Y-114870180D01*
X56959938Y-114965419D02*
X57007557Y-114917800D01*
X57007557Y-114917800D02*
X57150414Y-114870180D01*
X57150414Y-114870180D02*
X57245652Y-114870180D01*
X57245652Y-114870180D02*
X57388509Y-114917800D01*
X57388509Y-114917800D02*
X57483747Y-115013038D01*
X57483747Y-115013038D02*
X57531366Y-115108276D01*
X57531366Y-115108276D02*
X57578985Y-115298752D01*
X57578985Y-115298752D02*
X57578985Y-115441609D01*
X57578985Y-115441609D02*
X57531366Y-115632085D01*
X57531366Y-115632085D02*
X57483747Y-115727323D01*
X57483747Y-115727323D02*
X57388509Y-115822561D01*
X57388509Y-115822561D02*
X57245652Y-115870180D01*
X57245652Y-115870180D02*
X57150414Y-115870180D01*
X57150414Y-115870180D02*
X57007557Y-115822561D01*
X57007557Y-115822561D02*
X56959938Y-115774942D01*
X56531366Y-114870180D02*
X56531366Y-115870180D01*
X55959938Y-114870180D02*
X56388509Y-115441609D01*
X55959938Y-115870180D02*
X56531366Y-115298752D01*
X55626604Y-115870180D02*
X55388509Y-114870180D01*
X55388509Y-114870180D02*
X55198033Y-115584466D01*
X55198033Y-115584466D02*
X55007557Y-114870180D01*
X55007557Y-114870180D02*
X54769462Y-115870180D01*
X54436128Y-115155895D02*
X53959938Y-115155895D01*
X54531366Y-114870180D02*
X54198033Y-115870180D01*
X54198033Y-115870180D02*
X53864700Y-114870180D01*
X52959938Y-114870180D02*
X53293271Y-115346371D01*
X53531366Y-114870180D02*
X53531366Y-115870180D01*
X53531366Y-115870180D02*
X53150414Y-115870180D01*
X53150414Y-115870180D02*
X53055176Y-115822561D01*
X53055176Y-115822561D02*
X53007557Y-115774942D01*
X53007557Y-115774942D02*
X52959938Y-115679704D01*
X52959938Y-115679704D02*
X52959938Y-115536847D01*
X52959938Y-115536847D02*
X53007557Y-115441609D01*
X53007557Y-115441609D02*
X53055176Y-115393990D01*
X53055176Y-115393990D02*
X53150414Y-115346371D01*
X53150414Y-115346371D02*
X53531366Y-115346371D01*
X52531366Y-114870180D02*
X52531366Y-115870180D01*
X52531366Y-115870180D02*
X52293271Y-115870180D01*
X52293271Y-115870180D02*
X52150414Y-115822561D01*
X52150414Y-115822561D02*
X52055176Y-115727323D01*
X52055176Y-115727323D02*
X52007557Y-115632085D01*
X52007557Y-115632085D02*
X51959938Y-115441609D01*
X51959938Y-115441609D02*
X51959938Y-115298752D01*
X51959938Y-115298752D02*
X52007557Y-115108276D01*
X52007557Y-115108276D02*
X52055176Y-115013038D01*
X52055176Y-115013038D02*
X52150414Y-114917800D01*
X52150414Y-114917800D02*
X52293271Y-114870180D01*
X52293271Y-114870180D02*
X52531366Y-114870180D01*
X33910353Y-87642857D02*
X33434162Y-87976190D01*
X33910353Y-88214285D02*
X32910353Y-88214285D01*
X32910353Y-88214285D02*
X32910353Y-87833333D01*
X32910353Y-87833333D02*
X32957972Y-87738095D01*
X32957972Y-87738095D02*
X33005591Y-87690476D01*
X33005591Y-87690476D02*
X33100829Y-87642857D01*
X33100829Y-87642857D02*
X33243686Y-87642857D01*
X33243686Y-87642857D02*
X33338924Y-87690476D01*
X33338924Y-87690476D02*
X33386543Y-87738095D01*
X33386543Y-87738095D02*
X33434162Y-87833333D01*
X33434162Y-87833333D02*
X33434162Y-88214285D01*
X33910353Y-86690476D02*
X33910353Y-87261904D01*
X33910353Y-86976190D02*
X32910353Y-86976190D01*
X32910353Y-86976190D02*
X33053210Y-87071428D01*
X33053210Y-87071428D02*
X33148448Y-87166666D01*
X33148448Y-87166666D02*
X33196067Y-87261904D01*
X33910353Y-85738095D02*
X33910353Y-86309523D01*
X33910353Y-86023809D02*
X32910353Y-86023809D01*
X32910353Y-86023809D02*
X33053210Y-86119047D01*
X33053210Y-86119047D02*
X33148448Y-86214285D01*
X33148448Y-86214285D02*
X33196067Y-86309523D01*
X55080176Y-109709819D02*
X54746843Y-109233628D01*
X54508748Y-109709819D02*
X54508748Y-108709819D01*
X54508748Y-108709819D02*
X54889700Y-108709819D01*
X54889700Y-108709819D02*
X54984938Y-108757438D01*
X54984938Y-108757438D02*
X55032557Y-108805057D01*
X55032557Y-108805057D02*
X55080176Y-108900295D01*
X55080176Y-108900295D02*
X55080176Y-109043152D01*
X55080176Y-109043152D02*
X55032557Y-109138390D01*
X55032557Y-109138390D02*
X54984938Y-109186009D01*
X54984938Y-109186009D02*
X54889700Y-109233628D01*
X54889700Y-109233628D02*
X54508748Y-109233628D01*
X56032557Y-109709819D02*
X55461129Y-109709819D01*
X55746843Y-109709819D02*
X55746843Y-108709819D01*
X55746843Y-108709819D02*
X55651605Y-108852676D01*
X55651605Y-108852676D02*
X55556367Y-108947914D01*
X55556367Y-108947914D02*
X55461129Y-108995533D01*
X56651605Y-108709819D02*
X56746843Y-108709819D01*
X56746843Y-108709819D02*
X56842081Y-108757438D01*
X56842081Y-108757438D02*
X56889700Y-108805057D01*
X56889700Y-108805057D02*
X56937319Y-108900295D01*
X56937319Y-108900295D02*
X56984938Y-109090771D01*
X56984938Y-109090771D02*
X56984938Y-109328866D01*
X56984938Y-109328866D02*
X56937319Y-109519342D01*
X56937319Y-109519342D02*
X56889700Y-109614580D01*
X56889700Y-109614580D02*
X56842081Y-109662200D01*
X56842081Y-109662200D02*
X56746843Y-109709819D01*
X56746843Y-109709819D02*
X56651605Y-109709819D01*
X56651605Y-109709819D02*
X56556367Y-109662200D01*
X56556367Y-109662200D02*
X56508748Y-109614580D01*
X56508748Y-109614580D02*
X56461129Y-109519342D01*
X56461129Y-109519342D02*
X56413510Y-109328866D01*
X56413510Y-109328866D02*
X56413510Y-109090771D01*
X56413510Y-109090771D02*
X56461129Y-108900295D01*
X56461129Y-108900295D02*
X56508748Y-108805057D01*
X56508748Y-108805057D02*
X56556367Y-108757438D01*
X56556367Y-108757438D02*
X56651605Y-108709819D01*
D10*
X29592953Y-92713094D02*
X30402476Y-92713094D01*
X30402476Y-92713094D02*
X30497714Y-92665475D01*
X30497714Y-92665475D02*
X30545334Y-92617856D01*
X30545334Y-92617856D02*
X30592953Y-92522618D01*
X30592953Y-92522618D02*
X30592953Y-92332142D01*
X30592953Y-92332142D02*
X30545334Y-92236904D01*
X30545334Y-92236904D02*
X30497714Y-92189285D01*
X30497714Y-92189285D02*
X30402476Y-92141666D01*
X30402476Y-92141666D02*
X29592953Y-92141666D01*
X30592953Y-91141666D02*
X30592953Y-91713094D01*
X30592953Y-91427380D02*
X29592953Y-91427380D01*
X29592953Y-91427380D02*
X29735810Y-91522618D01*
X29735810Y-91522618D02*
X29831048Y-91617856D01*
X29831048Y-91617856D02*
X29878667Y-91713094D01*
X29688191Y-90760713D02*
X29640572Y-90713094D01*
X29640572Y-90713094D02*
X29592953Y-90617856D01*
X29592953Y-90617856D02*
X29592953Y-90379761D01*
X29592953Y-90379761D02*
X29640572Y-90284523D01*
X29640572Y-90284523D02*
X29688191Y-90236904D01*
X29688191Y-90236904D02*
X29783429Y-90189285D01*
X29783429Y-90189285D02*
X29878667Y-90189285D01*
X29878667Y-90189285D02*
X30021524Y-90236904D01*
X30021524Y-90236904D02*
X30592953Y-90808332D01*
X30592953Y-90808332D02*
X30592953Y-90189285D01*
D11*
X27840353Y-87927381D02*
X27840353Y-88403571D01*
X27840353Y-88403571D02*
X26840353Y-88403571D01*
X27316543Y-87594047D02*
X27316543Y-87260714D01*
X27840353Y-87117857D02*
X27840353Y-87594047D01*
X27840353Y-87594047D02*
X26840353Y-87594047D01*
X26840353Y-87594047D02*
X26840353Y-87117857D01*
X27316543Y-86355952D02*
X27316543Y-86689285D01*
X27840353Y-86689285D02*
X26840353Y-86689285D01*
X26840353Y-86689285D02*
X26840353Y-86213095D01*
X26840353Y-85974999D02*
X26840353Y-85403571D01*
X27840353Y-85689285D02*
X26840353Y-85689285D01*
X55553867Y-65199819D02*
X55220534Y-64723628D01*
X54982439Y-65199819D02*
X54982439Y-64199819D01*
X54982439Y-64199819D02*
X55363391Y-64199819D01*
X55363391Y-64199819D02*
X55458629Y-64247438D01*
X55458629Y-64247438D02*
X55506248Y-64295057D01*
X55506248Y-64295057D02*
X55553867Y-64390295D01*
X55553867Y-64390295D02*
X55553867Y-64533152D01*
X55553867Y-64533152D02*
X55506248Y-64628390D01*
X55506248Y-64628390D02*
X55458629Y-64676009D01*
X55458629Y-64676009D02*
X55363391Y-64723628D01*
X55363391Y-64723628D02*
X54982439Y-64723628D01*
X56030058Y-65199819D02*
X56220534Y-65199819D01*
X56220534Y-65199819D02*
X56315772Y-65152200D01*
X56315772Y-65152200D02*
X56363391Y-65104580D01*
X56363391Y-65104580D02*
X56458629Y-64961723D01*
X56458629Y-64961723D02*
X56506248Y-64771247D01*
X56506248Y-64771247D02*
X56506248Y-64390295D01*
X56506248Y-64390295D02*
X56458629Y-64295057D01*
X56458629Y-64295057D02*
X56411010Y-64247438D01*
X56411010Y-64247438D02*
X56315772Y-64199819D01*
X56315772Y-64199819D02*
X56125296Y-64199819D01*
X56125296Y-64199819D02*
X56030058Y-64247438D01*
X56030058Y-64247438D02*
X55982439Y-64295057D01*
X55982439Y-64295057D02*
X55934820Y-64390295D01*
X55934820Y-64390295D02*
X55934820Y-64628390D01*
X55934820Y-64628390D02*
X55982439Y-64723628D01*
X55982439Y-64723628D02*
X56030058Y-64771247D01*
X56030058Y-64771247D02*
X56125296Y-64818866D01*
X56125296Y-64818866D02*
X56315772Y-64818866D01*
X56315772Y-64818866D02*
X56411010Y-64771247D01*
X56411010Y-64771247D02*
X56458629Y-64723628D01*
X56458629Y-64723628D02*
X56506248Y-64628390D01*
D12*
%TO.C,U10*%
X53670534Y-61475000D02*
X53820534Y-62325000D01*
X53770534Y-61175000D02*
X53670534Y-61475000D01*
X53820534Y-62325000D02*
X57670534Y-62325000D01*
X54270534Y-59875000D02*
X54020534Y-60525000D01*
X57220534Y-59875000D02*
X54270534Y-59875000D01*
X57670534Y-62325000D02*
X57820534Y-61475000D01*
X57820534Y-61475000D02*
X57220534Y-59875000D01*
%TO.C,U9*%
X81285534Y-84987500D02*
X80435534Y-85137500D01*
X81585534Y-85087500D02*
X81285534Y-84987500D01*
X80435534Y-85137500D02*
X80435534Y-88987500D01*
X82885534Y-85587500D02*
X82235534Y-85337500D01*
X82885534Y-88537500D02*
X82885534Y-85587500D01*
X80435534Y-88987500D02*
X81285534Y-89137500D01*
X81285534Y-89137500D02*
X82885534Y-88537500D01*
%TO.C,R8*%
X77108034Y-86782776D02*
X77108034Y-87292224D01*
X76063034Y-86782776D02*
X76063034Y-87292224D01*
%TO.C,J4*%
X90970000Y-79570000D02*
X92300000Y-79570000D01*
X90970000Y-80900000D02*
X90970000Y-79570000D01*
X90970000Y-82170000D02*
X90970000Y-94930000D01*
X90970000Y-82170000D02*
X93630000Y-82170000D01*
X90970000Y-94930000D02*
X93630000Y-94930000D01*
X93630000Y-82170000D02*
X93630000Y-94930000D01*
%TO.C,U11*%
X57773034Y-112525000D02*
X57623034Y-111675000D01*
X57673034Y-112825000D02*
X57773034Y-112525000D01*
X57623034Y-111675000D02*
X53773034Y-111675000D01*
X57173034Y-114125000D02*
X57423034Y-113475000D01*
X54223034Y-114125000D02*
X57173034Y-114125000D01*
X53773034Y-111675000D02*
X53623034Y-112525000D01*
X53623034Y-112525000D02*
X54223034Y-114125000D01*
%TO.C,R11*%
X34363034Y-87254724D02*
X34363034Y-86745276D01*
X35408034Y-87254724D02*
X35408034Y-86745276D01*
%TO.C,R10*%
X55977758Y-108347500D02*
X55468310Y-108347500D01*
X55977758Y-107302500D02*
X55468310Y-107302500D01*
%TO.C,U12*%
X30185534Y-89050000D02*
X31035534Y-88900000D01*
X29885534Y-88950000D02*
X30185534Y-89050000D01*
X31035534Y-88900000D02*
X31035534Y-85050000D01*
X28585534Y-88450000D02*
X29235534Y-88700000D01*
X28585534Y-85500000D02*
X28585534Y-88450000D01*
X31035534Y-85050000D02*
X30185534Y-84900000D01*
X30185534Y-84900000D02*
X28585534Y-85500000D01*
%TO.C,R9*%
X55465810Y-65652500D02*
X55975258Y-65652500D01*
X55465810Y-66697500D02*
X55975258Y-66697500D01*
%TD*%
M02*
