%TF.GenerationSoftware,KiCad,Pcbnew,9.0.0*%
%TF.CreationDate,2025-06-04T23:47:33+02:00*%
%TF.ProjectId,uv_controler,75765f63-6f6e-4747-926f-6c65722e6b69,rev?*%
%TF.SameCoordinates,Original*%
%TF.FileFunction,Copper,L2,Bot*%
%TF.FilePolarity,Positive*%
%FSLAX46Y46*%
G04 Gerber Fmt 4.6, Leading zero omitted, Abs format (unit mm)*
G04 Created by KiCad (PCBNEW 9.0.0) date 2025-06-04 23:47:33*
%MOMM*%
%LPD*%
G01*
G04 APERTURE LIST*
%TA.AperFunction,ComponentPad*%
%ADD10R,1.050000X1.300000*%
%TD*%
%TA.AperFunction,ComponentPad*%
%ADD11O,1.050000X1.300000*%
%TD*%
%TA.AperFunction,ComponentPad*%
%ADD12R,1.300000X1.050000*%
%TD*%
%TA.AperFunction,ComponentPad*%
%ADD13O,1.300000X1.050000*%
%TD*%
%TA.AperFunction,ComponentPad*%
%ADD14R,1.700000X1.700000*%
%TD*%
%TA.AperFunction,ComponentPad*%
%ADD15O,1.700000X1.700000*%
%TD*%
%TA.AperFunction,ComponentPad*%
%ADD16C,5.600000*%
%TD*%
%TA.AperFunction,Conductor*%
%ADD17C,0.500000*%
%TD*%
G04 APERTURE END LIST*
D10*
%TO.P,U10,1,SUPPLY*%
%TO.N,+5VD*%
X54470534Y-61475000D03*
D11*
%TO.P,U10,2,GND*%
%TO.N,GND2*%
X55740534Y-61475000D03*
%TO.P,U10,3,OUTPUT*%
%TO.N,/JOY_FORWARD_D*%
X57010534Y-61475000D03*
%TD*%
D12*
%TO.P,U9,1,SUPPLY*%
%TO.N,+5VD*%
X81285534Y-85787500D03*
D13*
%TO.P,U9,2,GND*%
%TO.N,GND2*%
X81285534Y-87057500D03*
%TO.P,U9,3,OUTPUT*%
%TO.N,/JOY_RIGHT_D*%
X81285534Y-88327500D03*
%TD*%
D14*
%TO.P,J4,1,Pin_1*%
%TO.N,+5VD*%
X92300000Y-80900000D03*
D15*
%TO.P,J4,2,Pin_2*%
%TO.N,GND2*%
X92300000Y-83440000D03*
%TO.P,J4,3,Pin_3*%
%TO.N,/JOY_FORWARD_D*%
X92300000Y-85980000D03*
%TO.P,J4,4,Pin_4*%
%TO.N,/JOY_RIGHT_D*%
X92300000Y-88520000D03*
%TO.P,J4,5,Pin_5*%
%TO.N,/JOY_BACKWARD_D*%
X92300000Y-91060000D03*
%TO.P,J4,6,Pin_6*%
%TO.N,/JOY_LEFT_D*%
X92300000Y-93600000D03*
%TD*%
D16*
%TO.P,REF\u002A\u002A,1*%
%TO.N,N/C*%
X30735534Y-112000000D03*
%TD*%
D10*
%TO.P,U11,1,SUPPLY*%
%TO.N,+5VD*%
X56973034Y-112525000D03*
D11*
%TO.P,U11,2,GND*%
%TO.N,GND2*%
X55703034Y-112525000D03*
%TO.P,U11,3,OUTPUT*%
%TO.N,/JOY_BACKWARD_D*%
X54433034Y-112525000D03*
%TD*%
D16*
%TO.P,REF\u002A\u002A,1*%
%TO.N,N/C*%
X90485534Y-112000000D03*
%TD*%
%TO.P,REF\u002A\u002A,1*%
%TO.N,N/C*%
X30735534Y-62000000D03*
%TD*%
D12*
%TO.P,U12,1,SUPPLY*%
%TO.N,+5VD*%
X30185534Y-88250000D03*
D13*
%TO.P,U12,2,GND*%
%TO.N,GND2*%
X30185534Y-86980000D03*
%TO.P,U12,3,OUTPUT*%
%TO.N,/JOY_LEFT_D*%
X30185534Y-85710000D03*
%TD*%
D16*
%TO.P,REF\u002A\u002A,1*%
%TO.N,N/C*%
X90485534Y-62000000D03*
%TD*%
D17*
%TO.N,+5VD*%
X92300000Y-81000000D02*
X87500000Y-85800000D01*
X81285534Y-85787500D02*
X80991534Y-86081500D01*
X56973034Y-112525000D02*
X56679034Y-112231000D01*
X63075000Y-86975000D02*
X55700000Y-79600000D01*
X31670806Y-87000000D02*
X33200000Y-87000000D01*
X56679034Y-112231000D02*
X56679034Y-111995728D01*
X30714806Y-87956000D02*
X31670806Y-87000000D01*
X55700000Y-79600000D02*
X55700000Y-63200000D01*
X56679034Y-111995728D02*
X55700000Y-111016694D01*
X92300000Y-80900000D02*
X92300000Y-81000000D01*
X54764534Y-61769000D02*
X54470534Y-61475000D01*
X63075000Y-87125000D02*
X63075000Y-87000000D01*
X55700000Y-111016694D02*
X55700000Y-110800000D01*
X78900000Y-87000000D02*
X63075000Y-87000000D01*
X31670806Y-87000000D02*
X63075000Y-87000000D01*
X55700000Y-62939738D02*
X54764534Y-62004272D01*
X80991534Y-86081500D02*
X79818500Y-86081500D01*
X55700000Y-94500000D02*
X63075000Y-87125000D01*
X87487500Y-85787500D02*
X81285534Y-85787500D01*
X87500000Y-85800000D02*
X87487500Y-85787500D01*
X30185534Y-88250000D02*
X30479534Y-87956000D01*
X30479534Y-87956000D02*
X30714806Y-87956000D01*
X55700000Y-63200000D02*
X55700000Y-62939738D01*
X54764534Y-62004272D02*
X54764534Y-61769000D01*
X55700000Y-110800000D02*
X55700000Y-94500000D01*
X63075000Y-87000000D02*
X63075000Y-86975000D01*
X79818500Y-86081500D02*
X78900000Y-87000000D01*
%TD*%
%TA.AperFunction,Conductor*%
%TO.N,GND2*%
G36*
X90488233Y-57500618D02*
G01*
X90872295Y-57517388D01*
X90883037Y-57518328D01*
X91261497Y-57568156D01*
X91272124Y-57570029D01*
X91644802Y-57652652D01*
X91655240Y-57655449D01*
X92019288Y-57770235D01*
X92029438Y-57773930D01*
X92305332Y-57888211D01*
X92382091Y-57920006D01*
X92391895Y-57924578D01*
X92730474Y-58100833D01*
X92739815Y-58106226D01*
X93024808Y-58287788D01*
X93061751Y-58311324D01*
X93070608Y-58317525D01*
X93373431Y-58549891D01*
X93373442Y-58549899D01*
X93381729Y-58556853D01*
X93663146Y-58814726D01*
X93670795Y-58822375D01*
X93928671Y-59103800D01*
X93935624Y-59112087D01*
X94167982Y-59414904D01*
X94174187Y-59423765D01*
X94379280Y-59745698D01*
X94384688Y-59755066D01*
X94560933Y-60093631D01*
X94565502Y-60103428D01*
X94680560Y-60381204D01*
X94711576Y-60456082D01*
X94715275Y-60466245D01*
X94813296Y-60777128D01*
X94830057Y-60830285D01*
X94832857Y-60840735D01*
X94915472Y-61213391D01*
X94917350Y-61224044D01*
X94967171Y-61602474D01*
X94968114Y-61613249D01*
X94980595Y-61899119D01*
X94984916Y-61998067D01*
X94985034Y-62003476D01*
X94985034Y-111997293D01*
X94984916Y-112002702D01*
X94968148Y-112386753D01*
X94967205Y-112397529D01*
X94917384Y-112775958D01*
X94915506Y-112786612D01*
X94832887Y-113159279D01*
X94830087Y-113169727D01*
X94715309Y-113533760D01*
X94711609Y-113543926D01*
X94565536Y-113896579D01*
X94560964Y-113906383D01*
X94384718Y-114244950D01*
X94379310Y-114254318D01*
X94174215Y-114576254D01*
X94168010Y-114585115D01*
X93935650Y-114887934D01*
X93928697Y-114896221D01*
X93670819Y-115177648D01*
X93663170Y-115185297D01*
X93381745Y-115443178D01*
X93373464Y-115450126D01*
X93232859Y-115558018D01*
X93070640Y-115682494D01*
X93061779Y-115688698D01*
X92739849Y-115893793D01*
X92730480Y-115899202D01*
X92391913Y-116075449D01*
X92382110Y-116080021D01*
X92029454Y-116226099D01*
X92019288Y-116229799D01*
X91655254Y-116344580D01*
X91644805Y-116347380D01*
X91272143Y-116430000D01*
X91261490Y-116431878D01*
X90883058Y-116481702D01*
X90872282Y-116482645D01*
X90489012Y-116499382D01*
X90483602Y-116499500D01*
X30738240Y-116499500D01*
X30732831Y-116499382D01*
X30348781Y-116482614D01*
X30338007Y-116481671D01*
X30148789Y-116456760D01*
X29959574Y-116431850D01*
X29948924Y-116429972D01*
X29576258Y-116347354D01*
X29565811Y-116344555D01*
X29201777Y-116229776D01*
X29191611Y-116226076D01*
X28838959Y-116080003D01*
X28829155Y-116075431D01*
X28716911Y-116017001D01*
X28490574Y-115899177D01*
X28481218Y-115893776D01*
X28159312Y-115688698D01*
X28159295Y-115688687D01*
X28150434Y-115682483D01*
X27847608Y-115450117D01*
X27839321Y-115443164D01*
X27648942Y-115268714D01*
X27557883Y-115185274D01*
X27550246Y-115177636D01*
X27292374Y-114896218D01*
X27285420Y-114887931D01*
X27053048Y-114585098D01*
X27046844Y-114576237D01*
X27033539Y-114555353D01*
X26841751Y-114254306D01*
X26836358Y-114244966D01*
X26660097Y-113906371D01*
X26655528Y-113896573D01*
X26573627Y-113698848D01*
X26509453Y-113543918D01*
X26505754Y-113533755D01*
X26390970Y-113169705D01*
X26388177Y-113159279D01*
X26305555Y-112786598D01*
X26303682Y-112775971D01*
X26253856Y-112397506D01*
X26252916Y-112386771D01*
X26236152Y-112002793D01*
X26236034Y-111997384D01*
X26236034Y-111837857D01*
X27435034Y-111837857D01*
X27435034Y-112162143D01*
X27444588Y-112259152D01*
X27466818Y-112484857D01*
X27466821Y-112484874D01*
X27530079Y-112802902D01*
X27530082Y-112802913D01*
X27624220Y-113113247D01*
X27748320Y-113412849D01*
X27748322Y-113412854D01*
X27901180Y-113698830D01*
X27901191Y-113698848D01*
X28081345Y-113968467D01*
X28081355Y-113968481D01*
X28287080Y-114219158D01*
X28516375Y-114448453D01*
X28516380Y-114448457D01*
X28516381Y-114448458D01*
X28767058Y-114654183D01*
X29036692Y-114834347D01*
X29036701Y-114834352D01*
X29036703Y-114834353D01*
X29322679Y-114987211D01*
X29322681Y-114987211D01*
X29322687Y-114987215D01*
X29622288Y-115111314D01*
X29932611Y-115205449D01*
X29932617Y-115205450D01*
X29932620Y-115205451D01*
X29932631Y-115205454D01*
X30132062Y-115245122D01*
X30250666Y-115268714D01*
X30573391Y-115300500D01*
X30573394Y-115300500D01*
X30897674Y-115300500D01*
X30897677Y-115300500D01*
X31220402Y-115268714D01*
X31377829Y-115237399D01*
X31538436Y-115205454D01*
X31538447Y-115205451D01*
X31538447Y-115205450D01*
X31538457Y-115205449D01*
X31848780Y-115111314D01*
X32148381Y-114987215D01*
X32434376Y-114834347D01*
X32704010Y-114654183D01*
X32954687Y-114448458D01*
X33183992Y-114219153D01*
X33389717Y-113968476D01*
X33569881Y-113698842D01*
X33722749Y-113412847D01*
X33846848Y-113113246D01*
X33940983Y-112802923D01*
X33940985Y-112802913D01*
X33940988Y-112802902D01*
X33989787Y-112557568D01*
X34004248Y-112484868D01*
X34036034Y-112162143D01*
X34036034Y-111837857D01*
X34004248Y-111515132D01*
X33972359Y-111354815D01*
X33940988Y-111197097D01*
X33940985Y-111197086D01*
X33940984Y-111197083D01*
X33940983Y-111197077D01*
X33846848Y-110886754D01*
X33722749Y-110587153D01*
X33569881Y-110301158D01*
X33389717Y-110031524D01*
X33183992Y-109780847D01*
X33183991Y-109780846D01*
X33183987Y-109780841D01*
X32954692Y-109551546D01*
X32704015Y-109345821D01*
X32704014Y-109345820D01*
X32704010Y-109345817D01*
X32434376Y-109165653D01*
X32434371Y-109165650D01*
X32434364Y-109165646D01*
X32148388Y-109012788D01*
X32148383Y-109012786D01*
X31848781Y-108888686D01*
X31538447Y-108794548D01*
X31538436Y-108794545D01*
X31220408Y-108731287D01*
X31220391Y-108731284D01*
X30976346Y-108707248D01*
X30897677Y-108699500D01*
X30573391Y-108699500D01*
X30500633Y-108706666D01*
X30250676Y-108731284D01*
X30250659Y-108731287D01*
X29932631Y-108794545D01*
X29932620Y-108794548D01*
X29622286Y-108888686D01*
X29322684Y-109012786D01*
X29322679Y-109012788D01*
X29036703Y-109165646D01*
X29036685Y-109165657D01*
X28767066Y-109345811D01*
X28767052Y-109345821D01*
X28516375Y-109551546D01*
X28287080Y-109780841D01*
X28081355Y-110031518D01*
X28081345Y-110031532D01*
X27901191Y-110301151D01*
X27901180Y-110301169D01*
X27748322Y-110587145D01*
X27748320Y-110587150D01*
X27624220Y-110886752D01*
X27530082Y-111197086D01*
X27530079Y-111197097D01*
X27466821Y-111515125D01*
X27466818Y-111515142D01*
X27444053Y-111746282D01*
X27435034Y-111837857D01*
X26236034Y-111837857D01*
X26236034Y-85608992D01*
X29035034Y-85608992D01*
X29035034Y-85811007D01*
X29074441Y-86009119D01*
X29074443Y-86009127D01*
X29151746Y-86195754D01*
X29205738Y-86276558D01*
X29226615Y-86343235D01*
X29208130Y-86410615D01*
X29205738Y-86414337D01*
X29152189Y-86494479D01*
X29152188Y-86494481D01*
X29074924Y-86681016D01*
X29074921Y-86681025D01*
X29065181Y-86730000D01*
X29905204Y-86730000D01*
X29885459Y-86749745D01*
X29836090Y-86835255D01*
X29810534Y-86930630D01*
X29810534Y-87029370D01*
X29836090Y-87124745D01*
X29885459Y-87210255D01*
X29899704Y-87224500D01*
X29487663Y-87224500D01*
X29487659Y-87224501D01*
X29455111Y-87228000D01*
X29443110Y-87229290D01*
X29429859Y-87230000D01*
X29065181Y-87230000D01*
X29074921Y-87278974D01*
X29074924Y-87278983D01*
X29108207Y-87359335D01*
X29115676Y-87428804D01*
X29095690Y-87474723D01*
X29095988Y-87474886D01*
X29094170Y-87478213D01*
X29092919Y-87481090D01*
X29091740Y-87482664D01*
X29091736Y-87482671D01*
X29041442Y-87617517D01*
X29035035Y-87677116D01*
X29035034Y-87677135D01*
X29035034Y-88822870D01*
X29035035Y-88822876D01*
X29041442Y-88882483D01*
X29091736Y-89017328D01*
X29091740Y-89017335D01*
X29177986Y-89132544D01*
X29177989Y-89132547D01*
X29293198Y-89218793D01*
X29293205Y-89218797D01*
X29428051Y-89269091D01*
X29428050Y-89269091D01*
X29434978Y-89269835D01*
X29487661Y-89275500D01*
X30883406Y-89275499D01*
X30943017Y-89269091D01*
X31077865Y-89218796D01*
X31193080Y-89132546D01*
X31279330Y-89017331D01*
X31329625Y-88882483D01*
X31336034Y-88822873D01*
X31336033Y-88447500D01*
X31355717Y-88380462D01*
X31372347Y-88359825D01*
X31945354Y-87786819D01*
X32006677Y-87753334D01*
X32033035Y-87750500D01*
X61088770Y-87750500D01*
X61155809Y-87770185D01*
X61201564Y-87822989D01*
X61211508Y-87892147D01*
X61182483Y-87955703D01*
X61176451Y-87962181D01*
X55117052Y-94021578D01*
X55117049Y-94021581D01*
X55082082Y-94073913D01*
X55082083Y-94073914D01*
X55034913Y-94144508D01*
X54978343Y-94281082D01*
X54978340Y-94281092D01*
X54949500Y-94426079D01*
X54949500Y-94426082D01*
X54949500Y-110726082D01*
X54949500Y-111090612D01*
X54949500Y-111090614D01*
X54949499Y-111090614D01*
X54978340Y-111235601D01*
X54978342Y-111235607D01*
X55003918Y-111297352D01*
X55011387Y-111366821D01*
X54980112Y-111429301D01*
X54920023Y-111464953D01*
X54850198Y-111462460D01*
X54841904Y-111459366D01*
X54732161Y-111413909D01*
X54732153Y-111413907D01*
X54534041Y-111374500D01*
X54534037Y-111374500D01*
X54332031Y-111374500D01*
X54332026Y-111374500D01*
X54133914Y-111413907D01*
X54133906Y-111413909D01*
X53947281Y-111491212D01*
X53947271Y-111491217D01*
X53779315Y-111603441D01*
X53636475Y-111746281D01*
X53524251Y-111914237D01*
X53524246Y-111914247D01*
X53446943Y-112100872D01*
X53446941Y-112100880D01*
X53407534Y-112298992D01*
X53407534Y-112751007D01*
X53446941Y-112949119D01*
X53446943Y-112949127D01*
X53524246Y-113135752D01*
X53524251Y-113135762D01*
X53636475Y-113303718D01*
X53779315Y-113446558D01*
X53947271Y-113558782D01*
X53947275Y-113558784D01*
X53947278Y-113558786D01*
X54133907Y-113636091D01*
X54299811Y-113669091D01*
X54332026Y-113675499D01*
X54332030Y-113675500D01*
X54332031Y-113675500D01*
X54534038Y-113675500D01*
X54534039Y-113675499D01*
X54732161Y-113636091D01*
X54918790Y-113558786D01*
X54999596Y-113504792D01*
X55066268Y-113483917D01*
X55133648Y-113502401D01*
X55137374Y-113504795D01*
X55217513Y-113558343D01*
X55217520Y-113558347D01*
X55404050Y-113635609D01*
X55404059Y-113635612D01*
X55453034Y-113645353D01*
X55453034Y-112805330D01*
X55472779Y-112825075D01*
X55558289Y-112874444D01*
X55653664Y-112900000D01*
X55752404Y-112900000D01*
X55847779Y-112874444D01*
X55933289Y-112825075D01*
X55947534Y-112810830D01*
X55947534Y-113222870D01*
X55947535Y-113222874D01*
X55952324Y-113267421D01*
X55953034Y-113280675D01*
X55953034Y-113645352D01*
X56002008Y-113635611D01*
X56002012Y-113635610D01*
X56082367Y-113602326D01*
X56151836Y-113594857D01*
X56197759Y-113614845D01*
X56197922Y-113614547D01*
X56201254Y-113616366D01*
X56204129Y-113617618D01*
X56205702Y-113618795D01*
X56205704Y-113618797D01*
X56340551Y-113669091D01*
X56340550Y-113669091D01*
X56347478Y-113669835D01*
X56400161Y-113675500D01*
X57545906Y-113675499D01*
X57605517Y-113669091D01*
X57740365Y-113618796D01*
X57855580Y-113532546D01*
X57941830Y-113417331D01*
X57992125Y-113282483D01*
X57998534Y-113222873D01*
X57998533Y-111837857D01*
X87185034Y-111837857D01*
X87185034Y-112162143D01*
X87194588Y-112259152D01*
X87216818Y-112484857D01*
X87216821Y-112484874D01*
X87280079Y-112802902D01*
X87280082Y-112802913D01*
X87374220Y-113113247D01*
X87498320Y-113412849D01*
X87498322Y-113412854D01*
X87651180Y-113698830D01*
X87651191Y-113698848D01*
X87831345Y-113968467D01*
X87831355Y-113968481D01*
X88037080Y-114219158D01*
X88266375Y-114448453D01*
X88266380Y-114448457D01*
X88266381Y-114448458D01*
X88517058Y-114654183D01*
X88786692Y-114834347D01*
X88786701Y-114834352D01*
X88786703Y-114834353D01*
X89072679Y-114987211D01*
X89072681Y-114987211D01*
X89072687Y-114987215D01*
X89372288Y-115111314D01*
X89682611Y-115205449D01*
X89682617Y-115205450D01*
X89682620Y-115205451D01*
X89682631Y-115205454D01*
X89882062Y-115245122D01*
X90000666Y-115268714D01*
X90323391Y-115300500D01*
X90323394Y-115300500D01*
X90647674Y-115300500D01*
X90647677Y-115300500D01*
X90970402Y-115268714D01*
X91127829Y-115237399D01*
X91288436Y-115205454D01*
X91288447Y-115205451D01*
X91288447Y-115205450D01*
X91288457Y-115205449D01*
X91598780Y-115111314D01*
X91898381Y-114987215D01*
X92184376Y-114834347D01*
X92454010Y-114654183D01*
X92704687Y-114448458D01*
X92933992Y-114219153D01*
X93139717Y-113968476D01*
X93319881Y-113698842D01*
X93472749Y-113412847D01*
X93596848Y-113113246D01*
X93690983Y-112802923D01*
X93690985Y-112802913D01*
X93690988Y-112802902D01*
X93739787Y-112557568D01*
X93754248Y-112484868D01*
X93786034Y-112162143D01*
X93786034Y-111837857D01*
X93754248Y-111515132D01*
X93722359Y-111354815D01*
X93690988Y-111197097D01*
X93690985Y-111197086D01*
X93690984Y-111197083D01*
X93690983Y-111197077D01*
X93596848Y-110886754D01*
X93472749Y-110587153D01*
X93319881Y-110301158D01*
X93139717Y-110031524D01*
X92933992Y-109780847D01*
X92933991Y-109780846D01*
X92933987Y-109780841D01*
X92704692Y-109551546D01*
X92454015Y-109345821D01*
X92454014Y-109345820D01*
X92454010Y-109345817D01*
X92184376Y-109165653D01*
X92184371Y-109165650D01*
X92184364Y-109165646D01*
X91898388Y-109012788D01*
X91898383Y-109012786D01*
X91598781Y-108888686D01*
X91288447Y-108794548D01*
X91288436Y-108794545D01*
X90970408Y-108731287D01*
X90970391Y-108731284D01*
X90726346Y-108707248D01*
X90647677Y-108699500D01*
X90323391Y-108699500D01*
X90250633Y-108706666D01*
X90000676Y-108731284D01*
X90000659Y-108731287D01*
X89682631Y-108794545D01*
X89682620Y-108794548D01*
X89372286Y-108888686D01*
X89072684Y-109012786D01*
X89072679Y-109012788D01*
X88786703Y-109165646D01*
X88786685Y-109165657D01*
X88517066Y-109345811D01*
X88517052Y-109345821D01*
X88266375Y-109551546D01*
X88037080Y-109780841D01*
X87831355Y-110031518D01*
X87831345Y-110031532D01*
X87651191Y-110301151D01*
X87651180Y-110301169D01*
X87498322Y-110587145D01*
X87498320Y-110587150D01*
X87374220Y-110886752D01*
X87280082Y-111197086D01*
X87280079Y-111197097D01*
X87216821Y-111515125D01*
X87216818Y-111515142D01*
X87194053Y-111746282D01*
X87185034Y-111837857D01*
X57998533Y-111837857D01*
X57998533Y-111827128D01*
X57992125Y-111767517D01*
X57984204Y-111746281D01*
X57941831Y-111632671D01*
X57941827Y-111632664D01*
X57855581Y-111517455D01*
X57855578Y-111517452D01*
X57740369Y-111431206D01*
X57740362Y-111431202D01*
X57605516Y-111380908D01*
X57605517Y-111380908D01*
X57545917Y-111374501D01*
X57545915Y-111374500D01*
X57545907Y-111374500D01*
X57545899Y-111374500D01*
X57170535Y-111374500D01*
X57103496Y-111354815D01*
X57082854Y-111338181D01*
X56486819Y-110742145D01*
X56453334Y-110680822D01*
X56450500Y-110654464D01*
X56450500Y-94862230D01*
X56470185Y-94795191D01*
X56486819Y-94774549D01*
X63474549Y-87786819D01*
X63535872Y-87753334D01*
X63562230Y-87750500D01*
X78973920Y-87750500D01*
X79071462Y-87731096D01*
X79118913Y-87721658D01*
X79255495Y-87665084D01*
X79304729Y-87632186D01*
X79312665Y-87626884D01*
X79329071Y-87615921D01*
X79378416Y-87582952D01*
X80093048Y-86868318D01*
X80154371Y-86834834D01*
X80180729Y-86832000D01*
X80982714Y-86832000D01*
X80936090Y-86912755D01*
X80910534Y-87008130D01*
X80910534Y-87106870D01*
X80936090Y-87202245D01*
X80985459Y-87287755D01*
X81005204Y-87307500D01*
X80165181Y-87307500D01*
X80174921Y-87356474D01*
X80174924Y-87356483D01*
X80252186Y-87543013D01*
X80252193Y-87543026D01*
X80305737Y-87623159D01*
X80326615Y-87689836D01*
X80308131Y-87757216D01*
X80305738Y-87760939D01*
X80251748Y-87841743D01*
X80174443Y-88028372D01*
X80174441Y-88028380D01*
X80135034Y-88226492D01*
X80135034Y-88428507D01*
X80174441Y-88626619D01*
X80174443Y-88626627D01*
X80251746Y-88813252D01*
X80251751Y-88813262D01*
X80363975Y-88981218D01*
X80506815Y-89124058D01*
X80674771Y-89236282D01*
X80674775Y-89236284D01*
X80674778Y-89236286D01*
X80861407Y-89313591D01*
X81059526Y-89352999D01*
X81059530Y-89353000D01*
X81059531Y-89353000D01*
X81511538Y-89353000D01*
X81511539Y-89352999D01*
X81709661Y-89313591D01*
X81896290Y-89236286D01*
X82064252Y-89124058D01*
X82207092Y-88981218D01*
X82319320Y-88813256D01*
X82396625Y-88626627D01*
X82436034Y-88428503D01*
X82436034Y-88226497D01*
X82396625Y-88028373D01*
X82319320Y-87841744D01*
X82265328Y-87760939D01*
X82244451Y-87694264D01*
X82262935Y-87626884D01*
X82265330Y-87623158D01*
X82318878Y-87543018D01*
X82318880Y-87543015D01*
X82396143Y-87356483D01*
X82396146Y-87356474D01*
X82405887Y-87307500D01*
X81565864Y-87307500D01*
X81585609Y-87287755D01*
X81634978Y-87202245D01*
X81660534Y-87106870D01*
X81660534Y-87008130D01*
X81634978Y-86912755D01*
X81585609Y-86827245D01*
X81571363Y-86812999D01*
X81983405Y-86812999D01*
X81983406Y-86812999D01*
X82027957Y-86808209D01*
X82041209Y-86807500D01*
X82405887Y-86807500D01*
X82396145Y-86758525D01*
X82396143Y-86758517D01*
X82375820Y-86709453D01*
X82368351Y-86639984D01*
X82399626Y-86577505D01*
X82459714Y-86541852D01*
X82490381Y-86538000D01*
X87351030Y-86538000D01*
X87375220Y-86540382D01*
X87426081Y-86550499D01*
X87426082Y-86550500D01*
X87426083Y-86550500D01*
X87573919Y-86550500D01*
X87573920Y-86550499D01*
X87718913Y-86521659D01*
X87855495Y-86465084D01*
X87978416Y-86382952D01*
X88082952Y-86278416D01*
X88082952Y-86278415D01*
X90759476Y-83601889D01*
X90820797Y-83568406D01*
X90890489Y-83573390D01*
X90946422Y-83615262D01*
X90969628Y-83670174D01*
X90983242Y-83756127D01*
X90983242Y-83756130D01*
X91048904Y-83958217D01*
X91145379Y-84147557D01*
X91270272Y-84319459D01*
X91270276Y-84319464D01*
X91420535Y-84469723D01*
X91420540Y-84469727D01*
X91592444Y-84594622D01*
X91601495Y-84599234D01*
X91652292Y-84647208D01*
X91669087Y-84715029D01*
X91646550Y-84781164D01*
X91601499Y-84820202D01*
X91592182Y-84824949D01*
X91420213Y-84949890D01*
X91269890Y-85100213D01*
X91144951Y-85272179D01*
X91048444Y-85461585D01*
X90982753Y-85663760D01*
X90949500Y-85873713D01*
X90949500Y-86086286D01*
X90979918Y-86278342D01*
X90982754Y-86296243D01*
X91037614Y-86465085D01*
X91048444Y-86498414D01*
X91144951Y-86687820D01*
X91269890Y-86859786D01*
X91420213Y-87010109D01*
X91592182Y-87135050D01*
X91600946Y-87139516D01*
X91651742Y-87187491D01*
X91668536Y-87255312D01*
X91645998Y-87321447D01*
X91600946Y-87360484D01*
X91592182Y-87364949D01*
X91420213Y-87489890D01*
X91269890Y-87640213D01*
X91144951Y-87812179D01*
X91048444Y-88001585D01*
X90982753Y-88203760D01*
X90949500Y-88413713D01*
X90949500Y-88626286D01*
X90979112Y-88813252D01*
X90982754Y-88836243D01*
X91041593Y-89017331D01*
X91048444Y-89038414D01*
X91144951Y-89227820D01*
X91269890Y-89399786D01*
X91420213Y-89550109D01*
X91592182Y-89675050D01*
X91600946Y-89679516D01*
X91651742Y-89727491D01*
X91668536Y-89795312D01*
X91645998Y-89861447D01*
X91600946Y-89900484D01*
X91592182Y-89904949D01*
X91420213Y-90029890D01*
X91269890Y-90180213D01*
X91144951Y-90352179D01*
X91048444Y-90541585D01*
X90982753Y-90743760D01*
X90949500Y-90953713D01*
X90949500Y-91166286D01*
X90982753Y-91376239D01*
X91048444Y-91578414D01*
X91144951Y-91767820D01*
X91269890Y-91939786D01*
X91420213Y-92090109D01*
X91592182Y-92215050D01*
X91600946Y-92219516D01*
X91651742Y-92267491D01*
X91668536Y-92335312D01*
X91645998Y-92401447D01*
X91600946Y-92440484D01*
X91592182Y-92444949D01*
X91420213Y-92569890D01*
X91269890Y-92720213D01*
X91144951Y-92892179D01*
X91048444Y-93081585D01*
X90982753Y-93283760D01*
X90949500Y-93493713D01*
X90949500Y-93706287D01*
X90982754Y-93916243D01*
X91033984Y-94073913D01*
X91048444Y-94118414D01*
X91144951Y-94307820D01*
X91269890Y-94479786D01*
X91420213Y-94630109D01*
X91592179Y-94755048D01*
X91592181Y-94755049D01*
X91592184Y-94755051D01*
X91781588Y-94851557D01*
X91983757Y-94917246D01*
X92193713Y-94950500D01*
X92193714Y-94950500D01*
X92406286Y-94950500D01*
X92406287Y-94950500D01*
X92616243Y-94917246D01*
X92818412Y-94851557D01*
X93007816Y-94755051D01*
X93029789Y-94739086D01*
X93179786Y-94630109D01*
X93179788Y-94630106D01*
X93179792Y-94630104D01*
X93330104Y-94479792D01*
X93330106Y-94479788D01*
X93330109Y-94479786D01*
X93455048Y-94307820D01*
X93455047Y-94307820D01*
X93455051Y-94307816D01*
X93551557Y-94118412D01*
X93617246Y-93916243D01*
X93650500Y-93706287D01*
X93650500Y-93493713D01*
X93617246Y-93283757D01*
X93551557Y-93081588D01*
X93455051Y-92892184D01*
X93455049Y-92892181D01*
X93455048Y-92892179D01*
X93330109Y-92720213D01*
X93179786Y-92569890D01*
X93007820Y-92444951D01*
X93007115Y-92444591D01*
X92999054Y-92440485D01*
X92948259Y-92392512D01*
X92931463Y-92324692D01*
X92953999Y-92258556D01*
X92999054Y-92219515D01*
X93007816Y-92215051D01*
X93029789Y-92199086D01*
X93179786Y-92090109D01*
X93179788Y-92090106D01*
X93179792Y-92090104D01*
X93330104Y-91939792D01*
X93330106Y-91939788D01*
X93330109Y-91939786D01*
X93455048Y-91767820D01*
X93455047Y-91767820D01*
X93455051Y-91767816D01*
X93551557Y-91578412D01*
X93617246Y-91376243D01*
X93650500Y-91166287D01*
X93650500Y-90953713D01*
X93617246Y-90743757D01*
X93551557Y-90541588D01*
X93455051Y-90352184D01*
X93455049Y-90352181D01*
X93455048Y-90352179D01*
X93330109Y-90180213D01*
X93179786Y-90029890D01*
X93007820Y-89904951D01*
X93007115Y-89904591D01*
X92999054Y-89900485D01*
X92948259Y-89852512D01*
X92931463Y-89784692D01*
X92953999Y-89718556D01*
X92999054Y-89679515D01*
X93007816Y-89675051D01*
X93029789Y-89659086D01*
X93179786Y-89550109D01*
X93179788Y-89550106D01*
X93179792Y-89550104D01*
X93330104Y-89399792D01*
X93330106Y-89399788D01*
X93330109Y-89399786D01*
X93439086Y-89249789D01*
X93455051Y-89227816D01*
X93551557Y-89038412D01*
X93617246Y-88836243D01*
X93650500Y-88626287D01*
X93650500Y-88413713D01*
X93617246Y-88203757D01*
X93551557Y-88001588D01*
X93455051Y-87812184D01*
X93455049Y-87812181D01*
X93455048Y-87812179D01*
X93330109Y-87640213D01*
X93179786Y-87489890D01*
X93007820Y-87364951D01*
X93007115Y-87364591D01*
X92999054Y-87360485D01*
X92948259Y-87312512D01*
X92931463Y-87244692D01*
X92953999Y-87178556D01*
X92999054Y-87139515D01*
X93007816Y-87135051D01*
X93055372Y-87100500D01*
X93179786Y-87010109D01*
X93179788Y-87010106D01*
X93179792Y-87010104D01*
X93330104Y-86859792D01*
X93330106Y-86859788D01*
X93330109Y-86859786D01*
X93455048Y-86687820D01*
X93455047Y-86687820D01*
X93455051Y-86687816D01*
X93551557Y-86498412D01*
X93617246Y-86296243D01*
X93650500Y-86086287D01*
X93650500Y-85873713D01*
X93617246Y-85663757D01*
X93551557Y-85461588D01*
X93455051Y-85272184D01*
X93455049Y-85272181D01*
X93455048Y-85272179D01*
X93330109Y-85100213D01*
X93179786Y-84949890D01*
X93007817Y-84824949D01*
X92998504Y-84820204D01*
X92947707Y-84772230D01*
X92930912Y-84704409D01*
X92953449Y-84638274D01*
X92998507Y-84599232D01*
X93007558Y-84594620D01*
X93179459Y-84469727D01*
X93179464Y-84469723D01*
X93329723Y-84319464D01*
X93329727Y-84319459D01*
X93454620Y-84147557D01*
X93551095Y-83958217D01*
X93616757Y-83756129D01*
X93616757Y-83756126D01*
X93627231Y-83690000D01*
X92733012Y-83690000D01*
X92765925Y-83632993D01*
X92800000Y-83505826D01*
X92800000Y-83374174D01*
X92765925Y-83247007D01*
X92733012Y-83190000D01*
X93627231Y-83190000D01*
X93616757Y-83123873D01*
X93616757Y-83123870D01*
X93551095Y-82921782D01*
X93454620Y-82732442D01*
X93329727Y-82560540D01*
X93329723Y-82560535D01*
X93216053Y-82446865D01*
X93182568Y-82385542D01*
X93187552Y-82315850D01*
X93229424Y-82259917D01*
X93260400Y-82243002D01*
X93392331Y-82193796D01*
X93507546Y-82107546D01*
X93593796Y-81992331D01*
X93644091Y-81857483D01*
X93650500Y-81797873D01*
X93650499Y-80002128D01*
X93644091Y-79942517D01*
X93597987Y-79818907D01*
X93593797Y-79807671D01*
X93593793Y-79807664D01*
X93507547Y-79692455D01*
X93507544Y-79692452D01*
X93392335Y-79606206D01*
X93392328Y-79606202D01*
X93257482Y-79555908D01*
X93257483Y-79555908D01*
X93197883Y-79549501D01*
X93197881Y-79549500D01*
X93197873Y-79549500D01*
X93197864Y-79549500D01*
X91402129Y-79549500D01*
X91402123Y-79549501D01*
X91342516Y-79555908D01*
X91207671Y-79606202D01*
X91207664Y-79606206D01*
X91092455Y-79692452D01*
X91092452Y-79692455D01*
X91006206Y-79807664D01*
X91006202Y-79807671D01*
X90955908Y-79942517D01*
X90949501Y-80002116D01*
X90949500Y-80002127D01*
X90949500Y-81237770D01*
X90929815Y-81304809D01*
X90913181Y-81325451D01*
X87237951Y-85000681D01*
X87176628Y-85034166D01*
X87150270Y-85037000D01*
X82453999Y-85037000D01*
X82386960Y-85017315D01*
X82354732Y-84987311D01*
X82293080Y-84904954D01*
X82270243Y-84887858D01*
X82177869Y-84818706D01*
X82177862Y-84818702D01*
X82043016Y-84768408D01*
X82043017Y-84768408D01*
X81983417Y-84762001D01*
X81983415Y-84762000D01*
X81983407Y-84762000D01*
X81983398Y-84762000D01*
X80587663Y-84762000D01*
X80587657Y-84762001D01*
X80528050Y-84768408D01*
X80393205Y-84818702D01*
X80393198Y-84818706D01*
X80277989Y-84904952D01*
X80277986Y-84904955D01*
X80191740Y-85020164D01*
X80191736Y-85020171D01*
X80141442Y-85155017D01*
X80134679Y-85217928D01*
X80133616Y-85217813D01*
X80111834Y-85279538D01*
X80056652Y-85322395D01*
X80011265Y-85331000D01*
X79744580Y-85331000D01*
X79599592Y-85359840D01*
X79599582Y-85359843D01*
X79463011Y-85416412D01*
X79462998Y-85416419D01*
X79340084Y-85498548D01*
X79340080Y-85498551D01*
X78625451Y-86213181D01*
X78564128Y-86246666D01*
X78537770Y-86249500D01*
X63462230Y-86249500D01*
X63395191Y-86229815D01*
X63374549Y-86213181D01*
X56486819Y-79325451D01*
X56453334Y-79264128D01*
X56450500Y-79237770D01*
X56450500Y-62865817D01*
X56443490Y-62830580D01*
X56428411Y-62754772D01*
X56421659Y-62720826D01*
X56406482Y-62684186D01*
X56404700Y-62678286D01*
X56404476Y-62649270D01*
X56401374Y-62620417D01*
X56404209Y-62614751D01*
X56404161Y-62608418D01*
X56419658Y-62583888D01*
X56432649Y-62557937D01*
X56438096Y-62554704D01*
X56441480Y-62549350D01*
X56467781Y-62537092D01*
X56492738Y-62522285D01*
X56499067Y-62522511D01*
X56504810Y-62519835D01*
X56533568Y-62523743D01*
X56562563Y-62524779D01*
X56570839Y-62527865D01*
X56711407Y-62586091D01*
X56877311Y-62619091D01*
X56909526Y-62625499D01*
X56909530Y-62625500D01*
X56909531Y-62625500D01*
X57111538Y-62625500D01*
X57111539Y-62625499D01*
X57309661Y-62586091D01*
X57496290Y-62508786D01*
X57664252Y-62396558D01*
X57807092Y-62253718D01*
X57919320Y-62085756D01*
X57996625Y-61899127D01*
X58008812Y-61837860D01*
X87185034Y-61837860D01*
X87185034Y-62162139D01*
X87216818Y-62484857D01*
X87216821Y-62484874D01*
X87280079Y-62802902D01*
X87280082Y-62802913D01*
X87374220Y-63113247D01*
X87498320Y-63412849D01*
X87498322Y-63412854D01*
X87651180Y-63698830D01*
X87651191Y-63698848D01*
X87831345Y-63968467D01*
X87831355Y-63968481D01*
X88037080Y-64219158D01*
X88266375Y-64448453D01*
X88266380Y-64448457D01*
X88266381Y-64448458D01*
X88517058Y-64654183D01*
X88786692Y-64834347D01*
X88786701Y-64834352D01*
X88786703Y-64834353D01*
X89072679Y-64987211D01*
X89072681Y-64987211D01*
X89072687Y-64987215D01*
X89372288Y-65111314D01*
X89682611Y-65205449D01*
X89682617Y-65205450D01*
X89682620Y-65205451D01*
X89682631Y-65205454D01*
X89882062Y-65245122D01*
X90000666Y-65268714D01*
X90323391Y-65300500D01*
X90323394Y-65300500D01*
X90647674Y-65300500D01*
X90647677Y-65300500D01*
X90970402Y-65268714D01*
X91127829Y-65237399D01*
X91288436Y-65205454D01*
X91288447Y-65205451D01*
X91288447Y-65205450D01*
X91288457Y-65205449D01*
X91598780Y-65111314D01*
X91898381Y-64987215D01*
X92184376Y-64834347D01*
X92454010Y-64654183D01*
X92704687Y-64448458D01*
X92933992Y-64219153D01*
X93139717Y-63968476D01*
X93319881Y-63698842D01*
X93472749Y-63412847D01*
X93596848Y-63113246D01*
X93690983Y-62802923D01*
X93690985Y-62802913D01*
X93690988Y-62802902D01*
X93734113Y-62586092D01*
X93754248Y-62484868D01*
X93786034Y-62162143D01*
X93786034Y-61837857D01*
X93754248Y-61515132D01*
X93715245Y-61319050D01*
X93690988Y-61197097D01*
X93690985Y-61197086D01*
X93690984Y-61197083D01*
X93690983Y-61197077D01*
X93596848Y-60886754D01*
X93472749Y-60587153D01*
X93470353Y-60582671D01*
X93319887Y-60301169D01*
X93319886Y-60301167D01*
X93319881Y-60301158D01*
X93139717Y-60031524D01*
X92933992Y-59780847D01*
X92933991Y-59780846D01*
X92933987Y-59780841D01*
X92704692Y-59551546D01*
X92454015Y-59345821D01*
X92454014Y-59345820D01*
X92454010Y-59345817D01*
X92184376Y-59165653D01*
X92184371Y-59165650D01*
X92184364Y-59165646D01*
X91898388Y-59012788D01*
X91898383Y-59012786D01*
X91598781Y-58888686D01*
X91288447Y-58794548D01*
X91288436Y-58794545D01*
X90970408Y-58731287D01*
X90970391Y-58731284D01*
X90726346Y-58707248D01*
X90647677Y-58699500D01*
X90323391Y-58699500D01*
X90250633Y-58706666D01*
X90000676Y-58731284D01*
X90000659Y-58731287D01*
X89682631Y-58794545D01*
X89682620Y-58794548D01*
X89372286Y-58888686D01*
X89072684Y-59012786D01*
X89072679Y-59012788D01*
X88786703Y-59165646D01*
X88786685Y-59165657D01*
X88517066Y-59345811D01*
X88517052Y-59345821D01*
X88266375Y-59551546D01*
X88037080Y-59780841D01*
X87831355Y-60031518D01*
X87831345Y-60031532D01*
X87651191Y-60301151D01*
X87651180Y-60301169D01*
X87498322Y-60587145D01*
X87498320Y-60587150D01*
X87374220Y-60886752D01*
X87280082Y-61197086D01*
X87280079Y-61197097D01*
X87216821Y-61515125D01*
X87216818Y-61515142D01*
X87198094Y-61705255D01*
X87187717Y-61810622D01*
X87185034Y-61837860D01*
X58008812Y-61837860D01*
X58010494Y-61829404D01*
X58014230Y-61810622D01*
X58036033Y-61701007D01*
X58036034Y-61701004D01*
X58036034Y-61248996D01*
X58036033Y-61248992D01*
X58028105Y-61209134D01*
X57996625Y-61050873D01*
X57919320Y-60864244D01*
X57919318Y-60864241D01*
X57919316Y-60864237D01*
X57807092Y-60696281D01*
X57664252Y-60553441D01*
X57496296Y-60441217D01*
X57496286Y-60441212D01*
X57309661Y-60363909D01*
X57309653Y-60363907D01*
X57111541Y-60324500D01*
X57111537Y-60324500D01*
X56909531Y-60324500D01*
X56909526Y-60324500D01*
X56711414Y-60363907D01*
X56711406Y-60363909D01*
X56524777Y-60441214D01*
X56443973Y-60495204D01*
X56377295Y-60516081D01*
X56309916Y-60497595D01*
X56306193Y-60495203D01*
X56226060Y-60441659D01*
X56226047Y-60441652D01*
X56039518Y-60364390D01*
X56039511Y-60364388D01*
X55990534Y-60354645D01*
X55990534Y-61194670D01*
X55970789Y-61174925D01*
X55885279Y-61125556D01*
X55789904Y-61100000D01*
X55691164Y-61100000D01*
X55595789Y-61125556D01*
X55510279Y-61174925D01*
X55496033Y-61189171D01*
X55496033Y-60777129D01*
X55496032Y-60777123D01*
X55496031Y-60777116D01*
X55491244Y-60732577D01*
X55490534Y-60719324D01*
X55490534Y-60354646D01*
X55490533Y-60354645D01*
X55441556Y-60364388D01*
X55441549Y-60364390D01*
X55361197Y-60397673D01*
X55291727Y-60405142D01*
X55245811Y-60385154D01*
X55245648Y-60385454D01*
X55242300Y-60383626D01*
X55239433Y-60382377D01*
X55237865Y-60381204D01*
X55237864Y-60381203D01*
X55237862Y-60381202D01*
X55103016Y-60330908D01*
X55103017Y-60330908D01*
X55043417Y-60324501D01*
X55043415Y-60324500D01*
X55043407Y-60324500D01*
X55043398Y-60324500D01*
X53897663Y-60324500D01*
X53897657Y-60324501D01*
X53838050Y-60330908D01*
X53703205Y-60381202D01*
X53703198Y-60381206D01*
X53587989Y-60467452D01*
X53587986Y-60467455D01*
X53501740Y-60582664D01*
X53501736Y-60582671D01*
X53451442Y-60717517D01*
X53445035Y-60777116D01*
X53445035Y-60777123D01*
X53445034Y-60777135D01*
X53445034Y-62172870D01*
X53445035Y-62172876D01*
X53451442Y-62232483D01*
X53501736Y-62367328D01*
X53501740Y-62367335D01*
X53587986Y-62482544D01*
X53587989Y-62482547D01*
X53703198Y-62568793D01*
X53703205Y-62568797D01*
X53743667Y-62583888D01*
X53838051Y-62619091D01*
X53897661Y-62625500D01*
X54273031Y-62625499D01*
X54340070Y-62645183D01*
X54360712Y-62661818D01*
X54913181Y-63214287D01*
X54946666Y-63275610D01*
X54949500Y-63301968D01*
X54949500Y-79673918D01*
X54949500Y-79673920D01*
X54949499Y-79673920D01*
X54978340Y-79818907D01*
X54978342Y-79818913D01*
X55034914Y-79955491D01*
X55034918Y-79955498D01*
X55066073Y-80002126D01*
X55117049Y-80078418D01*
X55117052Y-80078421D01*
X61076451Y-86037819D01*
X61109936Y-86099142D01*
X61104952Y-86168834D01*
X61063080Y-86224767D01*
X60997616Y-86249184D01*
X60988770Y-86249500D01*
X31596886Y-86249500D01*
X31451898Y-86278340D01*
X31451888Y-86278343D01*
X31406434Y-86297171D01*
X31336964Y-86304640D01*
X31274485Y-86273364D01*
X31238834Y-86213275D01*
X31241328Y-86143450D01*
X31244421Y-86135157D01*
X31259339Y-86099142D01*
X31296625Y-86009127D01*
X31336034Y-85811003D01*
X31336034Y-85608997D01*
X31296625Y-85410873D01*
X31219320Y-85224244D01*
X31219318Y-85224241D01*
X31219316Y-85224237D01*
X31107092Y-85056281D01*
X30964252Y-84913441D01*
X30796296Y-84801217D01*
X30796286Y-84801212D01*
X30609661Y-84723909D01*
X30609653Y-84723907D01*
X30411541Y-84684500D01*
X30411537Y-84684500D01*
X29959531Y-84684500D01*
X29959526Y-84684500D01*
X29761414Y-84723907D01*
X29761406Y-84723909D01*
X29574781Y-84801212D01*
X29574771Y-84801217D01*
X29406815Y-84913441D01*
X29263975Y-85056281D01*
X29151751Y-85224237D01*
X29151746Y-85224247D01*
X29074443Y-85410872D01*
X29074441Y-85410880D01*
X29035034Y-85608992D01*
X26236034Y-85608992D01*
X26236034Y-62002706D01*
X26236152Y-61997297D01*
X26240438Y-61899127D01*
X26243113Y-61837860D01*
X27435034Y-61837860D01*
X27435034Y-62162139D01*
X27466818Y-62484857D01*
X27466821Y-62484874D01*
X27530079Y-62802902D01*
X27530082Y-62802913D01*
X27624220Y-63113247D01*
X27748320Y-63412849D01*
X27748322Y-63412854D01*
X27901180Y-63698830D01*
X27901191Y-63698848D01*
X28081345Y-63968467D01*
X28081355Y-63968481D01*
X28287080Y-64219158D01*
X28516375Y-64448453D01*
X28516380Y-64448457D01*
X28516381Y-64448458D01*
X28767058Y-64654183D01*
X29036692Y-64834347D01*
X29036701Y-64834352D01*
X29036703Y-64834353D01*
X29322679Y-64987211D01*
X29322681Y-64987211D01*
X29322687Y-64987215D01*
X29622288Y-65111314D01*
X29932611Y-65205449D01*
X29932617Y-65205450D01*
X29932620Y-65205451D01*
X29932631Y-65205454D01*
X30132062Y-65245122D01*
X30250666Y-65268714D01*
X30573391Y-65300500D01*
X30573394Y-65300500D01*
X30897674Y-65300500D01*
X30897677Y-65300500D01*
X31220402Y-65268714D01*
X31377829Y-65237399D01*
X31538436Y-65205454D01*
X31538447Y-65205451D01*
X31538447Y-65205450D01*
X31538457Y-65205449D01*
X31848780Y-65111314D01*
X32148381Y-64987215D01*
X32434376Y-64834347D01*
X32704010Y-64654183D01*
X32954687Y-64448458D01*
X33183992Y-64219153D01*
X33389717Y-63968476D01*
X33569881Y-63698842D01*
X33722749Y-63412847D01*
X33846848Y-63113246D01*
X33940983Y-62802923D01*
X33940985Y-62802913D01*
X33940988Y-62802902D01*
X33984113Y-62586092D01*
X34004248Y-62484868D01*
X34036034Y-62162143D01*
X34036034Y-61837857D01*
X34004248Y-61515132D01*
X33965245Y-61319050D01*
X33940988Y-61197097D01*
X33940985Y-61197086D01*
X33940984Y-61197083D01*
X33940983Y-61197077D01*
X33846848Y-60886754D01*
X33722749Y-60587153D01*
X33720353Y-60582671D01*
X33569887Y-60301169D01*
X33569886Y-60301167D01*
X33569881Y-60301158D01*
X33389717Y-60031524D01*
X33183992Y-59780847D01*
X33183991Y-59780846D01*
X33183987Y-59780841D01*
X32954692Y-59551546D01*
X32704015Y-59345821D01*
X32704014Y-59345820D01*
X32704010Y-59345817D01*
X32434376Y-59165653D01*
X32434371Y-59165650D01*
X32434364Y-59165646D01*
X32148388Y-59012788D01*
X32148383Y-59012786D01*
X31848781Y-58888686D01*
X31538447Y-58794548D01*
X31538436Y-58794545D01*
X31220408Y-58731287D01*
X31220391Y-58731284D01*
X30976346Y-58707248D01*
X30897677Y-58699500D01*
X30573391Y-58699500D01*
X30500633Y-58706666D01*
X30250676Y-58731284D01*
X30250659Y-58731287D01*
X29932631Y-58794545D01*
X29932620Y-58794548D01*
X29622286Y-58888686D01*
X29322684Y-59012786D01*
X29322679Y-59012788D01*
X29036703Y-59165646D01*
X29036685Y-59165657D01*
X28767066Y-59345811D01*
X28767052Y-59345821D01*
X28516375Y-59551546D01*
X28287080Y-59780841D01*
X28081355Y-60031518D01*
X28081345Y-60031532D01*
X27901191Y-60301151D01*
X27901180Y-60301169D01*
X27748322Y-60587145D01*
X27748320Y-60587150D01*
X27624220Y-60886752D01*
X27530082Y-61197086D01*
X27530079Y-61197097D01*
X27466821Y-61515125D01*
X27466818Y-61515142D01*
X27448094Y-61705255D01*
X27437717Y-61810622D01*
X27435034Y-61837860D01*
X26243113Y-61837860D01*
X26252920Y-61613226D01*
X26253860Y-61602495D01*
X26303686Y-61224025D01*
X26305562Y-61213391D01*
X26388183Y-60840709D01*
X26390974Y-60830295D01*
X26505763Y-60466228D01*
X26509451Y-60456096D01*
X26655537Y-60103413D01*
X26660100Y-60093631D01*
X26836356Y-59755046D01*
X26841751Y-59745701D01*
X27046859Y-59423745D01*
X27053051Y-59414904D01*
X27285441Y-59112047D01*
X27292346Y-59103816D01*
X27550270Y-58822343D01*
X27557889Y-58814726D01*
X27839325Y-58556836D01*
X27847594Y-58549898D01*
X28150439Y-58317517D01*
X28159278Y-58311327D01*
X28481234Y-58106219D01*
X28490579Y-58100824D01*
X28829172Y-57924564D01*
X28838946Y-57920006D01*
X29191629Y-57773920D01*
X29201761Y-57770233D01*
X29565829Y-57655443D01*
X29576238Y-57652653D01*
X29948947Y-57570026D01*
X29959554Y-57568156D01*
X30338027Y-57518330D01*
X30348759Y-57517390D01*
X30732931Y-57500617D01*
X30738323Y-57500500D01*
X30801426Y-57500500D01*
X90419638Y-57500500D01*
X90482824Y-57500500D01*
X90488233Y-57500618D01*
G37*
%TD.AperFunction*%
%TD*%
M02*
