%TF.GenerationSoftware,KiCad,Pcbnew,9.0.0*%
%TF.CreationDate,2025-06-04T23:48:26+02:00*%
%TF.ProjectId,uv_controler,75765f63-6f6e-4747-926f-6c65722e6b69,rev?*%
%TF.SameCoordinates,Original*%
%TF.FileFunction,Copper,L1,Top*%
%TF.FilePolarity,Positive*%
%FSLAX46Y46*%
G04 Gerber Fmt 4.6, Leading zero omitted, Abs format (unit mm)*
G04 Created by KiCad (PCBNEW 9.0.0) date 2025-06-04 23:48:26*
%MOMM*%
%LPD*%
G01*
G04 APERTURE LIST*
G04 Aperture macros list*
%AMRoundRect*
0 Rectangle with rounded corners*
0 $1 Rounding radius*
0 $2 $3 $4 $5 $6 $7 $8 $9 X,Y pos of 4 corners*
0 Add a 4 corners polygon primitive as box body*
4,1,4,$2,$3,$4,$5,$6,$7,$8,$9,$2,$3,0*
0 Add four circle primitives for the rounded corners*
1,1,$1+$1,$2,$3*
1,1,$1+$1,$4,$5*
1,1,$1+$1,$6,$7*
1,1,$1+$1,$8,$9*
0 Add four rect primitives between the rounded corners*
20,1,$1+$1,$2,$3,$4,$5,0*
20,1,$1+$1,$4,$5,$6,$7,0*
20,1,$1+$1,$6,$7,$8,$9,0*
20,1,$1+$1,$8,$9,$2,$3,0*%
G04 Aperture macros list end*
%TA.AperFunction,ComponentPad*%
%ADD10O,1.050000X1.300000*%
%TD*%
%TA.AperFunction,ComponentPad*%
%ADD11R,1.050000X1.300000*%
%TD*%
%TA.AperFunction,SMDPad,CuDef*%
%ADD12RoundRect,0.237500X0.250000X0.237500X-0.250000X0.237500X-0.250000X-0.237500X0.250000X-0.237500X0*%
%TD*%
%TA.AperFunction,ComponentPad*%
%ADD13C,5.600000*%
%TD*%
%TA.AperFunction,ComponentPad*%
%ADD14O,1.700000X1.700000*%
%TD*%
%TA.AperFunction,ComponentPad*%
%ADD15R,1.700000X1.700000*%
%TD*%
%TA.AperFunction,SMDPad,CuDef*%
%ADD16RoundRect,0.237500X-0.250000X-0.237500X0.250000X-0.237500X0.250000X0.237500X-0.250000X0.237500X0*%
%TD*%
%TA.AperFunction,Conductor*%
%ADD17C,0.500000*%
%TD*%
%TA.AperFunction,Conductor*%
%ADD18C,0.200000*%
%TD*%
G04 APERTURE END LIST*
D10*
%TO.P,U8,3,OUTPUT*%
%TO.N,/SPEED_TOGGLE_D*%
X170175534Y-68397500D03*
%TO.P,U8,2,GND*%
%TO.N,GND1*%
X168905534Y-68397500D03*
D11*
%TO.P,U8,1,SUPPLY*%
%TO.N,+5VA*%
X167635534Y-68397500D03*
%TD*%
D12*
%TO.P,R6,2*%
%TO.N,/LIGHTS_TOGGLE_D*%
X167723034Y-102897500D03*
%TO.P,R6,1*%
%TO.N,+5VA*%
X169548034Y-102897500D03*
%TD*%
D13*
%TO.P,REF\u002A\u002A,1*%
%TO.N,N/C*%
X215335534Y-112000000D03*
%TD*%
D14*
%TO.P,J3,10,Pin_10*%
%TO.N,unconnected-(J3-Pin_10-Pad10)*%
X135800000Y-98640000D03*
%TO.P,J3,9,Pin_9*%
%TO.N,/UTIL_D*%
X135800000Y-96100000D03*
%TO.P,J3,8,Pin_8*%
%TO.N,/LIGHTS_TOGGLE_D*%
X135800000Y-93560000D03*
%TO.P,J3,7,Pin_7*%
%TO.N,/SPEED_TOGGLE_D*%
X135800000Y-91020000D03*
%TO.P,J3,6,Pin_6*%
%TO.N,/CAM_DOWN_D*%
X135800000Y-88480000D03*
%TO.P,J3,5,Pin_5*%
%TO.N,/CAM_UP_D*%
X135800000Y-85940000D03*
%TO.P,J3,4,Pin_4*%
%TO.N,/DOWN_D*%
X135800000Y-83400000D03*
%TO.P,J3,3,Pin_3*%
%TO.N,/UP_D*%
X135800000Y-80860000D03*
%TO.P,J3,2,Pin_2*%
%TO.N,GND1*%
X135800000Y-78320000D03*
D15*
%TO.P,J3,1,Pin_1*%
%TO.N,+5VA*%
X135800000Y-75780000D03*
%TD*%
D10*
%TO.P,U3,3,OUTPUT*%
%TO.N,/CAM_UP_D*%
X190175534Y-68397500D03*
%TO.P,U3,2,GND*%
%TO.N,GND1*%
X188905534Y-68397500D03*
D11*
%TO.P,U3,1,SUPPLY*%
%TO.N,+5VA*%
X187635534Y-68397500D03*
%TD*%
D10*
%TO.P,U5,3,OUTPUT*%
%TO.N,/UP_D*%
X210175534Y-68397500D03*
%TO.P,U5,2,GND*%
%TO.N,GND1*%
X208905534Y-68397500D03*
D11*
%TO.P,U5,1,SUPPLY*%
%TO.N,+5VA*%
X207635534Y-68397500D03*
%TD*%
D10*
%TO.P,U4,3,OUTPUT*%
%TO.N,/CAM_DOWN_D*%
X187645534Y-107097500D03*
%TO.P,U4,2,GND*%
%TO.N,GND1*%
X188915534Y-107097500D03*
D11*
%TO.P,U4,1,SUPPLY*%
%TO.N,+5VA*%
X190185534Y-107097500D03*
%TD*%
D12*
%TO.P,R5,2*%
%TO.N,/UTIL_D*%
X147723034Y-102897500D03*
%TO.P,R5,1*%
%TO.N,+5VA*%
X149548034Y-102897500D03*
%TD*%
D16*
%TO.P,R4,2*%
%TO.N,/UP_D*%
X210048034Y-72897500D03*
%TO.P,R4,1*%
%TO.N,+5VA*%
X208223034Y-72897500D03*
%TD*%
D13*
%TO.P,REF\u002A\u002A,1*%
%TO.N,N/C*%
X137485534Y-112000000D03*
%TD*%
D10*
%TO.P,U6,3,OUTPUT*%
%TO.N,/UTIL_D*%
X147645534Y-107097500D03*
%TO.P,U6,2,GND*%
%TO.N,GND1*%
X148915534Y-107097500D03*
D11*
%TO.P,U6,1,SUPPLY*%
%TO.N,+5VA*%
X150185534Y-107097500D03*
%TD*%
D16*
%TO.P,R2,2*%
%TO.N,/CAM_UP_D*%
X190048034Y-72897500D03*
%TO.P,R2,1*%
%TO.N,+5VA*%
X188223034Y-72897500D03*
%TD*%
D10*
%TO.P,U7,3,OUTPUT*%
%TO.N,/LIGHTS_TOGGLE_D*%
X167645534Y-107097500D03*
%TO.P,U7,2,GND*%
%TO.N,GND1*%
X168915534Y-107097500D03*
D11*
%TO.P,U7,1,SUPPLY*%
%TO.N,+5VA*%
X170185534Y-107097500D03*
%TD*%
D12*
%TO.P,R1,2*%
%TO.N,/DOWN_D*%
X207723034Y-102897500D03*
%TO.P,R1,1*%
%TO.N,+5VA*%
X209548034Y-102897500D03*
%TD*%
%TO.P,R3,2*%
%TO.N,/CAM_DOWN_D*%
X187635534Y-102897500D03*
%TO.P,R3,1*%
%TO.N,+5VA*%
X189460534Y-102897500D03*
%TD*%
D13*
%TO.P,REF\u002A\u002A,1*%
%TO.N,N/C*%
X137485534Y-62000000D03*
%TD*%
D16*
%TO.P,R7,2*%
%TO.N,/SPEED_TOGGLE_D*%
X169960534Y-72897500D03*
%TO.P,R7,1*%
%TO.N,+5VA*%
X168135534Y-72897500D03*
%TD*%
D10*
%TO.P,U2,3,OUTPUT*%
%TO.N,/DOWN_D*%
X207645534Y-107097500D03*
%TO.P,U2,2,GND*%
%TO.N,GND1*%
X208915534Y-107097500D03*
D11*
%TO.P,U2,1,SUPPLY*%
%TO.N,+5VA*%
X210185534Y-107097500D03*
%TD*%
D13*
%TO.P,REF\u002A\u002A,1*%
%TO.N,N/C*%
X215335534Y-62000000D03*
%TD*%
D17*
%TO.N,+5VA*%
X170185534Y-107097500D02*
X170185534Y-103535000D01*
X210185534Y-103535000D02*
X209548034Y-102897500D01*
D18*
%TO.N,/UTIL_D*%
X147723034Y-102897500D02*
X140925534Y-96100000D01*
D17*
%TO.N,+5VA*%
X187635534Y-72310000D02*
X188223034Y-72897500D01*
X167635534Y-68397500D02*
X167635534Y-72397500D01*
D18*
%TO.N,/DOWN_D*%
X207645534Y-107097500D02*
X207645534Y-102975000D01*
%TO.N,/UTIL_D*%
X147645534Y-102975000D02*
X147723034Y-102897500D01*
D17*
%TO.N,+5VA*%
X190185534Y-103622500D02*
X189460534Y-102897500D01*
X187635534Y-68397500D02*
X187635534Y-72310000D01*
X210185534Y-107097500D02*
X210185534Y-103535000D01*
X167635534Y-72397500D02*
X168135534Y-72897500D01*
X170185534Y-103535000D02*
X169548034Y-102897500D01*
X207635534Y-68397500D02*
X207635534Y-72310000D01*
D18*
%TO.N,/DOWN_D*%
X207645534Y-102975000D02*
X207723034Y-102897500D01*
D17*
%TO.N,+5VA*%
X150185534Y-107097500D02*
X150185534Y-103535000D01*
X190185534Y-107097500D02*
X190185534Y-103622500D01*
D18*
%TO.N,/UTIL_D*%
X140925534Y-96100000D02*
X135800000Y-96100000D01*
X147645534Y-107097500D02*
X147645534Y-102975000D01*
D17*
%TO.N,+5VA*%
X150185534Y-103535000D02*
X149548034Y-102897500D01*
D18*
%TO.N,/CAM_UP_D*%
X187434534Y-72897500D02*
X183602500Y-72897500D01*
%TO.N,/LIGHTS_TOGGLE_D*%
X167723034Y-97123034D02*
X164100000Y-93500000D01*
%TO.N,/CAM_UP_D*%
X189011534Y-73364634D02*
X188702668Y-73673500D01*
X164329000Y-92171000D02*
X135323240Y-92171000D01*
X183602500Y-72897500D02*
X164329000Y-92171000D01*
X188702668Y-73673500D02*
X187743400Y-73673500D01*
X135323240Y-92171000D02*
X134649000Y-91496760D01*
%TO.N,/CAM_DOWN_D*%
X187635534Y-102897500D02*
X187635534Y-107087500D01*
X187635534Y-107087500D02*
X187645534Y-107097500D01*
%TO.N,/SPEED_TOGGLE_D*%
X169960534Y-72897500D02*
X169960534Y-84539466D01*
%TO.N,/LIGHTS_TOGGLE_D*%
X164100000Y-93500000D02*
X135860000Y-93500000D01*
%TO.N,/CAM_UP_D*%
X190048034Y-72897500D02*
X189011534Y-72897500D01*
X134649000Y-87091000D02*
X135800000Y-85940000D01*
%TO.N,/UP_D*%
X210048034Y-72897500D02*
X210048034Y-68525000D01*
%TO.N,/CAM_UP_D*%
X187743400Y-73673500D02*
X187434534Y-73364634D01*
%TO.N,/SPEED_TOGGLE_D*%
X169960534Y-68612500D02*
X170175534Y-68397500D01*
%TO.N,/CAM_UP_D*%
X187434534Y-73364634D02*
X187434534Y-72897500D01*
D17*
%TO.N,+5VA*%
X207635534Y-72310000D02*
X208223034Y-72897500D01*
D18*
%TO.N,/LIGHTS_TOGGLE_D*%
X167723034Y-102897500D02*
X167723034Y-97123034D01*
%TO.N,/CAM_UP_D*%
X190048034Y-68525000D02*
X190175534Y-68397500D01*
X189011534Y-72897500D02*
X189011534Y-73364634D01*
X134649000Y-91496760D02*
X134649000Y-87091000D01*
%TO.N,/SPEED_TOGGLE_D*%
X169960534Y-72897500D02*
X169960534Y-68612500D01*
X169960534Y-84539466D02*
X163480000Y-91020000D01*
X163480000Y-91020000D02*
X135800000Y-91020000D01*
%TO.N,/CAM_UP_D*%
X190048034Y-72897500D02*
X190048034Y-68525000D01*
%TO.N,/LIGHTS_TOGGLE_D*%
X167645534Y-107097500D02*
X167645534Y-102975000D01*
X135860000Y-93500000D02*
X135800000Y-93560000D01*
%TO.N,/UP_D*%
X210048034Y-68525000D02*
X210175534Y-68397500D01*
%TO.N,/LIGHTS_TOGGLE_D*%
X167645534Y-102975000D02*
X167723034Y-102897500D01*
%TD*%
%TA.AperFunction,Conductor*%
%TO.N,GND1*%
G36*
X148678868Y-103575370D02*
G01*
X148723215Y-103603871D01*
X148837184Y-103717840D01*
X148984018Y-103808408D01*
X149147781Y-103862674D01*
X149248857Y-103873000D01*
X149311034Y-103872999D01*
X149378072Y-103892683D01*
X149423828Y-103945486D01*
X149435034Y-103996999D01*
X149435034Y-105892652D01*
X149415349Y-105959691D01*
X149362545Y-106005446D01*
X149293387Y-106015390D01*
X149263582Y-106007213D01*
X149214518Y-105986890D01*
X149214511Y-105986888D01*
X149165534Y-105977145D01*
X149165534Y-106341829D01*
X149164823Y-106355084D01*
X149160034Y-106399627D01*
X149160034Y-106811670D01*
X149145789Y-106797425D01*
X149060279Y-106748056D01*
X148964904Y-106722500D01*
X148866164Y-106722500D01*
X148770789Y-106748056D01*
X148685279Y-106797425D01*
X148665534Y-106817170D01*
X148665534Y-105977146D01*
X148665533Y-105977145D01*
X148616556Y-105986888D01*
X148616549Y-105986890D01*
X148430012Y-106064156D01*
X148428480Y-106064975D01*
X148427586Y-106065161D01*
X148424385Y-106066487D01*
X148424133Y-106065879D01*
X148360076Y-106079213D01*
X148294834Y-106054208D01*
X148253467Y-105997900D01*
X148246034Y-105955613D01*
X148246034Y-103902913D01*
X148265719Y-103835874D01*
X148304936Y-103797375D01*
X148433884Y-103717840D01*
X148547853Y-103603871D01*
X148609176Y-103570386D01*
X148678868Y-103575370D01*
G37*
%TD.AperFunction*%
%TA.AperFunction,Conductor*%
G36*
X168678868Y-103575370D02*
G01*
X168723215Y-103603871D01*
X168837184Y-103717840D01*
X168984018Y-103808408D01*
X169147781Y-103862674D01*
X169248857Y-103873000D01*
X169311034Y-103872999D01*
X169378072Y-103892683D01*
X169423828Y-103945486D01*
X169435034Y-103996999D01*
X169435034Y-105892652D01*
X169415349Y-105959691D01*
X169362545Y-106005446D01*
X169293387Y-106015390D01*
X169263582Y-106007213D01*
X169214518Y-105986890D01*
X169214511Y-105986888D01*
X169165534Y-105977145D01*
X169165534Y-106341829D01*
X169164823Y-106355084D01*
X169160034Y-106399627D01*
X169160034Y-106811670D01*
X169145789Y-106797425D01*
X169060279Y-106748056D01*
X168964904Y-106722500D01*
X168866164Y-106722500D01*
X168770789Y-106748056D01*
X168685279Y-106797425D01*
X168665534Y-106817170D01*
X168665534Y-105977146D01*
X168665533Y-105977145D01*
X168616556Y-105986888D01*
X168616549Y-105986890D01*
X168430012Y-106064156D01*
X168428480Y-106064975D01*
X168427586Y-106065161D01*
X168424385Y-106066487D01*
X168424133Y-106065879D01*
X168360076Y-106079213D01*
X168294834Y-106054208D01*
X168253467Y-105997900D01*
X168246034Y-105955613D01*
X168246034Y-103902913D01*
X168265719Y-103835874D01*
X168304936Y-103797375D01*
X168433884Y-103717840D01*
X168547853Y-103603871D01*
X168609176Y-103570386D01*
X168678868Y-103575370D01*
G37*
%TD.AperFunction*%
%TA.AperFunction,Conductor*%
G36*
X169155534Y-69517852D02*
G01*
X169210491Y-69506922D01*
X169210980Y-69509384D01*
X169269835Y-69508824D01*
X169328970Y-69546037D01*
X169358598Y-69609314D01*
X169360034Y-69628128D01*
X169360034Y-71939888D01*
X169340349Y-72006927D01*
X169317423Y-72033439D01*
X169309765Y-72040101D01*
X169249684Y-72077160D01*
X169132669Y-72194174D01*
X169129423Y-72196999D01*
X169101426Y-72209851D01*
X169074392Y-72224614D01*
X169069961Y-72224297D01*
X169065926Y-72226150D01*
X169035429Y-72221827D01*
X169004700Y-72219630D01*
X169000392Y-72216861D01*
X168996747Y-72216345D01*
X168988459Y-72209192D01*
X168960353Y-72191129D01*
X168846385Y-72077161D01*
X168846384Y-72077160D01*
X168699550Y-71986592D01*
X168535787Y-71932326D01*
X168535785Y-71932325D01*
X168497430Y-71928407D01*
X168432739Y-71902010D01*
X168392588Y-71844829D01*
X168386034Y-71805049D01*
X168386034Y-69602347D01*
X168405719Y-69535308D01*
X168458523Y-69489553D01*
X168527681Y-69479609D01*
X168557487Y-69487786D01*
X168606551Y-69508109D01*
X168606559Y-69508111D01*
X168655534Y-69517853D01*
X168655534Y-69153171D01*
X168656245Y-69139915D01*
X168661033Y-69095381D01*
X168661034Y-69095373D01*
X168661033Y-68683329D01*
X168675279Y-68697575D01*
X168760789Y-68746944D01*
X168856164Y-68772500D01*
X168954904Y-68772500D01*
X169050279Y-68746944D01*
X169135789Y-68697575D01*
X169155534Y-68677830D01*
X169155534Y-69517852D01*
G37*
%TD.AperFunction*%
%TA.AperFunction,Conductor*%
G36*
X189155534Y-69517852D02*
G01*
X189204508Y-69508112D01*
X189204513Y-69508110D01*
X189276081Y-69478466D01*
X189345550Y-69470997D01*
X189408030Y-69502272D01*
X189443682Y-69562361D01*
X189447534Y-69593027D01*
X189447534Y-71939888D01*
X189427849Y-72006927D01*
X189404923Y-72033439D01*
X189397265Y-72040101D01*
X189337184Y-72077160D01*
X189220169Y-72194174D01*
X189216923Y-72196999D01*
X189188926Y-72209851D01*
X189161892Y-72224614D01*
X189157461Y-72224297D01*
X189153426Y-72226150D01*
X189122929Y-72221827D01*
X189092200Y-72219630D01*
X189087892Y-72216861D01*
X189084247Y-72216345D01*
X189075959Y-72209192D01*
X189047853Y-72191129D01*
X188933885Y-72077161D01*
X188933884Y-72077160D01*
X188787050Y-71986592D01*
X188623287Y-71932326D01*
X188623285Y-71932325D01*
X188522218Y-71922000D01*
X188522211Y-71922000D01*
X188510034Y-71922000D01*
X188442995Y-71902315D01*
X188397240Y-71849511D01*
X188386034Y-71798000D01*
X188386034Y-69602347D01*
X188405719Y-69535308D01*
X188458523Y-69489553D01*
X188527681Y-69479609D01*
X188557487Y-69487786D01*
X188606551Y-69508109D01*
X188606559Y-69508111D01*
X188655534Y-69517853D01*
X188655534Y-69153171D01*
X188656245Y-69139915D01*
X188661033Y-69095381D01*
X188661034Y-69095373D01*
X188661033Y-68683329D01*
X188675279Y-68697575D01*
X188760789Y-68746944D01*
X188856164Y-68772500D01*
X188954904Y-68772500D01*
X189050279Y-68746944D01*
X189135789Y-68697575D01*
X189155534Y-68677830D01*
X189155534Y-69517852D01*
G37*
%TD.AperFunction*%
%TA.AperFunction,Conductor*%
G36*
X188560641Y-103573172D02*
G01*
X188591368Y-103575370D01*
X188595677Y-103578139D01*
X188599321Y-103578656D01*
X188607605Y-103585805D01*
X188635715Y-103603871D01*
X188749684Y-103717840D01*
X188896518Y-103808408D01*
X189060281Y-103862674D01*
X189161357Y-103873000D01*
X189311034Y-103872999D01*
X189378073Y-103892683D01*
X189423828Y-103945487D01*
X189435034Y-103996999D01*
X189435034Y-105892652D01*
X189415349Y-105959691D01*
X189362545Y-106005446D01*
X189293387Y-106015390D01*
X189263582Y-106007213D01*
X189214518Y-105986890D01*
X189214511Y-105986888D01*
X189165534Y-105977145D01*
X189165534Y-106341829D01*
X189164823Y-106355084D01*
X189160034Y-106399627D01*
X189160034Y-106811670D01*
X189145789Y-106797425D01*
X189060279Y-106748056D01*
X188964904Y-106722500D01*
X188866164Y-106722500D01*
X188770789Y-106748056D01*
X188685279Y-106797425D01*
X188665534Y-106817170D01*
X188665534Y-105977146D01*
X188665533Y-105977145D01*
X188616556Y-105986888D01*
X188616549Y-105986890D01*
X188430015Y-106064154D01*
X188430010Y-106064157D01*
X188428917Y-106064888D01*
X188428257Y-106065094D01*
X188424644Y-106067026D01*
X188424277Y-106066340D01*
X188362238Y-106085761D01*
X188294860Y-106067272D01*
X188248173Y-106015289D01*
X188236034Y-105961781D01*
X188236034Y-103855110D01*
X188255719Y-103788071D01*
X188278645Y-103761559D01*
X188286297Y-103754901D01*
X188346384Y-103717840D01*
X188463399Y-103600824D01*
X188466645Y-103598001D01*
X188494644Y-103585146D01*
X188521676Y-103570386D01*
X188526105Y-103570702D01*
X188530143Y-103568849D01*
X188560641Y-103573172D01*
G37*
%TD.AperFunction*%
%TA.AperFunction,Conductor*%
G36*
X208678868Y-103575370D02*
G01*
X208723215Y-103603871D01*
X208837184Y-103717840D01*
X208984018Y-103808408D01*
X209147781Y-103862674D01*
X209248857Y-103873000D01*
X209311034Y-103872999D01*
X209378072Y-103892683D01*
X209423828Y-103945486D01*
X209435034Y-103996999D01*
X209435034Y-105892652D01*
X209415349Y-105959691D01*
X209362545Y-106005446D01*
X209293387Y-106015390D01*
X209263582Y-106007213D01*
X209214518Y-105986890D01*
X209214511Y-105986888D01*
X209165534Y-105977145D01*
X209165534Y-106341829D01*
X209164823Y-106355084D01*
X209160034Y-106399627D01*
X209160034Y-106811670D01*
X209145789Y-106797425D01*
X209060279Y-106748056D01*
X208964904Y-106722500D01*
X208866164Y-106722500D01*
X208770789Y-106748056D01*
X208685279Y-106797425D01*
X208665534Y-106817170D01*
X208665534Y-105977146D01*
X208665533Y-105977145D01*
X208616556Y-105986888D01*
X208616549Y-105986890D01*
X208430012Y-106064156D01*
X208428480Y-106064975D01*
X208427586Y-106065161D01*
X208424385Y-106066487D01*
X208424133Y-106065879D01*
X208360076Y-106079213D01*
X208294834Y-106054208D01*
X208253467Y-105997900D01*
X208246034Y-105955613D01*
X208246034Y-103902913D01*
X208265719Y-103835874D01*
X208304936Y-103797375D01*
X208433884Y-103717840D01*
X208547853Y-103603871D01*
X208609176Y-103570386D01*
X208678868Y-103575370D01*
G37*
%TD.AperFunction*%
%TA.AperFunction,Conductor*%
G36*
X209155534Y-69517852D02*
G01*
X209204508Y-69508112D01*
X209204513Y-69508110D01*
X209276081Y-69478466D01*
X209345550Y-69470997D01*
X209408030Y-69502272D01*
X209443682Y-69562361D01*
X209447534Y-69593027D01*
X209447534Y-71939888D01*
X209427849Y-72006927D01*
X209404923Y-72033439D01*
X209397265Y-72040101D01*
X209337184Y-72077160D01*
X209220169Y-72194174D01*
X209216923Y-72196999D01*
X209188926Y-72209851D01*
X209161892Y-72224614D01*
X209157461Y-72224297D01*
X209153426Y-72226150D01*
X209122929Y-72221827D01*
X209092200Y-72219630D01*
X209087892Y-72216861D01*
X209084247Y-72216345D01*
X209075959Y-72209192D01*
X209047853Y-72191129D01*
X208933885Y-72077161D01*
X208933884Y-72077160D01*
X208787050Y-71986592D01*
X208623287Y-71932326D01*
X208623285Y-71932325D01*
X208522218Y-71922000D01*
X208522211Y-71922000D01*
X208510034Y-71922000D01*
X208442995Y-71902315D01*
X208397240Y-71849511D01*
X208386034Y-71798000D01*
X208386034Y-69602347D01*
X208405719Y-69535308D01*
X208458523Y-69489553D01*
X208527681Y-69479609D01*
X208557487Y-69487786D01*
X208606551Y-69508109D01*
X208606559Y-69508111D01*
X208655534Y-69517853D01*
X208655534Y-69153171D01*
X208656245Y-69139915D01*
X208661033Y-69095381D01*
X208661034Y-69095373D01*
X208661033Y-68683329D01*
X208675279Y-68697575D01*
X208760789Y-68746944D01*
X208856164Y-68772500D01*
X208954904Y-68772500D01*
X209050279Y-68746944D01*
X209135789Y-68697575D01*
X209155534Y-68677830D01*
X209155534Y-69517852D01*
G37*
%TD.AperFunction*%
%TA.AperFunction,Conductor*%
G36*
X215338233Y-57500618D02*
G01*
X215722295Y-57517388D01*
X215733037Y-57518328D01*
X216111497Y-57568156D01*
X216122124Y-57570029D01*
X216494802Y-57652652D01*
X216505240Y-57655449D01*
X216869288Y-57770235D01*
X216879438Y-57773930D01*
X217155332Y-57888211D01*
X217232091Y-57920006D01*
X217241895Y-57924578D01*
X217580474Y-58100833D01*
X217589821Y-58106229D01*
X217874808Y-58287788D01*
X217911751Y-58311324D01*
X217920612Y-58317528D01*
X218223405Y-58549871D01*
X218223442Y-58549899D01*
X218231729Y-58556853D01*
X218513146Y-58814726D01*
X218520795Y-58822375D01*
X218778671Y-59103800D01*
X218785624Y-59112087D01*
X219017982Y-59414904D01*
X219024187Y-59423765D01*
X219229280Y-59745698D01*
X219234688Y-59755066D01*
X219410933Y-60093631D01*
X219415505Y-60103435D01*
X219561576Y-60456082D01*
X219565275Y-60466245D01*
X219603397Y-60587153D01*
X219680057Y-60830285D01*
X219682853Y-60840719D01*
X219689401Y-60870253D01*
X219765472Y-61213391D01*
X219767350Y-61224044D01*
X219817171Y-61602474D01*
X219818114Y-61613250D01*
X219834916Y-61998067D01*
X219835034Y-62003476D01*
X219835034Y-111997293D01*
X219834916Y-112002702D01*
X219818148Y-112386753D01*
X219817205Y-112397529D01*
X219767384Y-112775958D01*
X219765506Y-112786612D01*
X219682887Y-113159279D01*
X219680087Y-113169727D01*
X219565309Y-113533760D01*
X219561609Y-113543926D01*
X219415536Y-113896579D01*
X219410964Y-113906383D01*
X219234718Y-114244950D01*
X219229310Y-114254318D01*
X219024215Y-114576254D01*
X219018010Y-114585115D01*
X218785650Y-114887934D01*
X218778697Y-114896221D01*
X218520819Y-115177648D01*
X218513170Y-115185297D01*
X218231745Y-115443178D01*
X218223464Y-115450126D01*
X218082859Y-115558018D01*
X217920640Y-115682494D01*
X217911779Y-115688698D01*
X217589849Y-115893793D01*
X217580480Y-115899202D01*
X217241913Y-116075449D01*
X217232110Y-116080021D01*
X216879454Y-116226099D01*
X216869288Y-116229799D01*
X216505254Y-116344580D01*
X216494805Y-116347380D01*
X216122143Y-116430000D01*
X216111490Y-116431878D01*
X215733058Y-116481702D01*
X215722282Y-116482645D01*
X215339012Y-116499382D01*
X215333602Y-116499500D01*
X137559031Y-116499500D01*
X137551426Y-116499499D01*
X137551423Y-116499499D01*
X137520961Y-116499499D01*
X137488233Y-116499499D01*
X137488232Y-116499498D01*
X137482827Y-116499381D01*
X137103017Y-116482802D01*
X137098777Y-116482616D01*
X137088002Y-116481674D01*
X136709750Y-116431878D01*
X136709568Y-116431854D01*
X136698915Y-116429976D01*
X136326250Y-116347361D01*
X136315801Y-116344561D01*
X135951763Y-116229781D01*
X135941598Y-116226081D01*
X135612278Y-116089675D01*
X135588954Y-116080014D01*
X135579152Y-116075444D01*
X135240571Y-115899192D01*
X135231202Y-115893783D01*
X135129833Y-115829204D01*
X134909263Y-115688687D01*
X134900415Y-115682490D01*
X134738197Y-115558018D01*
X134597589Y-115450126D01*
X134589302Y-115443173D01*
X134398909Y-115268712D01*
X134307863Y-115185284D01*
X134300220Y-115177640D01*
X134239443Y-115111314D01*
X134042349Y-114896224D01*
X134035397Y-114887939D01*
X133803026Y-114585110D01*
X133796821Y-114576248D01*
X133591726Y-114254314D01*
X133586332Y-114244973D01*
X133410073Y-113906383D01*
X133405501Y-113896579D01*
X133259427Y-113543929D01*
X133255727Y-113533764D01*
X133255726Y-113533760D01*
X133140943Y-113169715D01*
X133138147Y-113159279D01*
X133055526Y-112786604D01*
X133053650Y-112775958D01*
X133041143Y-112680956D01*
X133003826Y-112397508D01*
X133002886Y-112386771D01*
X132986152Y-112003479D01*
X132986034Y-111998071D01*
X132986034Y-111837857D01*
X134185034Y-111837857D01*
X134185034Y-112162143D01*
X134194588Y-112259152D01*
X134216818Y-112484857D01*
X134216821Y-112484874D01*
X134280079Y-112802902D01*
X134280082Y-112802913D01*
X134374220Y-113113247D01*
X134498320Y-113412849D01*
X134498322Y-113412854D01*
X134651180Y-113698830D01*
X134651191Y-113698848D01*
X134831345Y-113968467D01*
X134831355Y-113968481D01*
X135037080Y-114219158D01*
X135266375Y-114448453D01*
X135266380Y-114448457D01*
X135266381Y-114448458D01*
X135517058Y-114654183D01*
X135786692Y-114834347D01*
X135786701Y-114834352D01*
X135786703Y-114834353D01*
X136072679Y-114987211D01*
X136072681Y-114987211D01*
X136072687Y-114987215D01*
X136372288Y-115111314D01*
X136682611Y-115205449D01*
X136682617Y-115205450D01*
X136682620Y-115205451D01*
X136682631Y-115205454D01*
X136882062Y-115245122D01*
X137000666Y-115268714D01*
X137323391Y-115300500D01*
X137323394Y-115300500D01*
X137647674Y-115300500D01*
X137647677Y-115300500D01*
X137970402Y-115268714D01*
X138127829Y-115237399D01*
X138288436Y-115205454D01*
X138288447Y-115205451D01*
X138288447Y-115205450D01*
X138288457Y-115205449D01*
X138598780Y-115111314D01*
X138898381Y-114987215D01*
X139184376Y-114834347D01*
X139454010Y-114654183D01*
X139704687Y-114448458D01*
X139933992Y-114219153D01*
X140139717Y-113968476D01*
X140319881Y-113698842D01*
X140472749Y-113412847D01*
X140596848Y-113113246D01*
X140690983Y-112802923D01*
X140690985Y-112802913D01*
X140690988Y-112802902D01*
X140722933Y-112642295D01*
X140754248Y-112484868D01*
X140786034Y-112162143D01*
X140786034Y-111837857D01*
X212035034Y-111837857D01*
X212035034Y-112162143D01*
X212044588Y-112259152D01*
X212066818Y-112484857D01*
X212066821Y-112484874D01*
X212130079Y-112802902D01*
X212130082Y-112802913D01*
X212224220Y-113113247D01*
X212348320Y-113412849D01*
X212348322Y-113412854D01*
X212501180Y-113698830D01*
X212501191Y-113698848D01*
X212681345Y-113968467D01*
X212681355Y-113968481D01*
X212887080Y-114219158D01*
X213116375Y-114448453D01*
X213116380Y-114448457D01*
X213116381Y-114448458D01*
X213367058Y-114654183D01*
X213636692Y-114834347D01*
X213636701Y-114834352D01*
X213636703Y-114834353D01*
X213922679Y-114987211D01*
X213922681Y-114987211D01*
X213922687Y-114987215D01*
X214222288Y-115111314D01*
X214532611Y-115205449D01*
X214532617Y-115205450D01*
X214532620Y-115205451D01*
X214532631Y-115205454D01*
X214732062Y-115245122D01*
X214850666Y-115268714D01*
X215173391Y-115300500D01*
X215173394Y-115300500D01*
X215497674Y-115300500D01*
X215497677Y-115300500D01*
X215820402Y-115268714D01*
X215977829Y-115237399D01*
X216138436Y-115205454D01*
X216138447Y-115205451D01*
X216138447Y-115205450D01*
X216138457Y-115205449D01*
X216448780Y-115111314D01*
X216748381Y-114987215D01*
X217034376Y-114834347D01*
X217304010Y-114654183D01*
X217554687Y-114448458D01*
X217783992Y-114219153D01*
X217989717Y-113968476D01*
X218169881Y-113698842D01*
X218322749Y-113412847D01*
X218446848Y-113113246D01*
X218540983Y-112802923D01*
X218540985Y-112802913D01*
X218540988Y-112802902D01*
X218572933Y-112642295D01*
X218604248Y-112484868D01*
X218636034Y-112162143D01*
X218636034Y-111837857D01*
X218604248Y-111515132D01*
X218580656Y-111396528D01*
X218540988Y-111197097D01*
X218540985Y-111197086D01*
X218540984Y-111197083D01*
X218540983Y-111197077D01*
X218446848Y-110886754D01*
X218322749Y-110587153D01*
X218169881Y-110301158D01*
X217989717Y-110031524D01*
X217783992Y-109780847D01*
X217783991Y-109780846D01*
X217783987Y-109780841D01*
X217554692Y-109551546D01*
X217304015Y-109345821D01*
X217304014Y-109345820D01*
X217304010Y-109345817D01*
X217034376Y-109165653D01*
X217034371Y-109165650D01*
X217034364Y-109165646D01*
X216748388Y-109012788D01*
X216748383Y-109012786D01*
X216448781Y-108888686D01*
X216138447Y-108794548D01*
X216138436Y-108794545D01*
X215820408Y-108731287D01*
X215820391Y-108731284D01*
X215576346Y-108707248D01*
X215497677Y-108699500D01*
X215173391Y-108699500D01*
X215100633Y-108706666D01*
X214850676Y-108731284D01*
X214850659Y-108731287D01*
X214532631Y-108794545D01*
X214532620Y-108794548D01*
X214222286Y-108888686D01*
X213922684Y-109012786D01*
X213922679Y-109012788D01*
X213636703Y-109165646D01*
X213636685Y-109165657D01*
X213367066Y-109345811D01*
X213367052Y-109345821D01*
X213116375Y-109551546D01*
X212887080Y-109780841D01*
X212681355Y-110031518D01*
X212681345Y-110031532D01*
X212501191Y-110301151D01*
X212501180Y-110301169D01*
X212348322Y-110587145D01*
X212348320Y-110587150D01*
X212224220Y-110886752D01*
X212130082Y-111197086D01*
X212130079Y-111197097D01*
X212066821Y-111515125D01*
X212066818Y-111515142D01*
X212042200Y-111765099D01*
X212035034Y-111837857D01*
X140786034Y-111837857D01*
X140754248Y-111515132D01*
X140730656Y-111396528D01*
X140690988Y-111197097D01*
X140690985Y-111197086D01*
X140690984Y-111197083D01*
X140690983Y-111197077D01*
X140596848Y-110886754D01*
X140472749Y-110587153D01*
X140319881Y-110301158D01*
X140139717Y-110031524D01*
X139933992Y-109780847D01*
X139933991Y-109780846D01*
X139933987Y-109780841D01*
X139704692Y-109551546D01*
X139454015Y-109345821D01*
X139454014Y-109345820D01*
X139454010Y-109345817D01*
X139184376Y-109165653D01*
X139184371Y-109165650D01*
X139184364Y-109165646D01*
X138898388Y-109012788D01*
X138898383Y-109012786D01*
X138598781Y-108888686D01*
X138288447Y-108794548D01*
X138288436Y-108794545D01*
X137970408Y-108731287D01*
X137970391Y-108731284D01*
X137726346Y-108707248D01*
X137647677Y-108699500D01*
X137323391Y-108699500D01*
X137250633Y-108706666D01*
X137000676Y-108731284D01*
X137000659Y-108731287D01*
X136682631Y-108794545D01*
X136682620Y-108794548D01*
X136372286Y-108888686D01*
X136072684Y-109012786D01*
X136072679Y-109012788D01*
X135786703Y-109165646D01*
X135786685Y-109165657D01*
X135517066Y-109345811D01*
X135517052Y-109345821D01*
X135266375Y-109551546D01*
X135037080Y-109780841D01*
X134831355Y-110031518D01*
X134831345Y-110031532D01*
X134651191Y-110301151D01*
X134651180Y-110301169D01*
X134498322Y-110587145D01*
X134498320Y-110587150D01*
X134374220Y-110886752D01*
X134280082Y-111197086D01*
X134280079Y-111197097D01*
X134216821Y-111515125D01*
X134216818Y-111515142D01*
X134192200Y-111765099D01*
X134185034Y-111837857D01*
X132986034Y-111837857D01*
X132986034Y-91575814D01*
X134048498Y-91575814D01*
X134089423Y-91728545D01*
X134118358Y-91778660D01*
X134118359Y-91778664D01*
X134118360Y-91778664D01*
X134168479Y-91865474D01*
X134168481Y-91865477D01*
X134287349Y-91984345D01*
X134287355Y-91984350D01*
X134788873Y-92485868D01*
X134822358Y-92547191D01*
X134817374Y-92616883D01*
X134788875Y-92661228D01*
X134769890Y-92680213D01*
X134644951Y-92852179D01*
X134548444Y-93041585D01*
X134482753Y-93243760D01*
X134449500Y-93453713D01*
X134449500Y-93666286D01*
X134482753Y-93876239D01*
X134548444Y-94078414D01*
X134644951Y-94267820D01*
X134769890Y-94439786D01*
X134920213Y-94590109D01*
X135092182Y-94715050D01*
X135100946Y-94719516D01*
X135151742Y-94767491D01*
X135168536Y-94835312D01*
X135145998Y-94901447D01*
X135100946Y-94940484D01*
X135092182Y-94944949D01*
X134920213Y-95069890D01*
X134769890Y-95220213D01*
X134644951Y-95392179D01*
X134548444Y-95581585D01*
X134482753Y-95783760D01*
X134449500Y-95993713D01*
X134449500Y-96206286D01*
X134482753Y-96416239D01*
X134548444Y-96618414D01*
X134644951Y-96807820D01*
X134769890Y-96979786D01*
X134920213Y-97130109D01*
X135092182Y-97255050D01*
X135100946Y-97259516D01*
X135151742Y-97307491D01*
X135168536Y-97375312D01*
X135145998Y-97441447D01*
X135100946Y-97480484D01*
X135092182Y-97484949D01*
X134920213Y-97609890D01*
X134769890Y-97760213D01*
X134644951Y-97932179D01*
X134548444Y-98121585D01*
X134482753Y-98323760D01*
X134449500Y-98533713D01*
X134449500Y-98746286D01*
X134482753Y-98956239D01*
X134548444Y-99158414D01*
X134644951Y-99347820D01*
X134769890Y-99519786D01*
X134920213Y-99670109D01*
X135092179Y-99795048D01*
X135092181Y-99795049D01*
X135092184Y-99795051D01*
X135281588Y-99891557D01*
X135483757Y-99957246D01*
X135693713Y-99990500D01*
X135693714Y-99990500D01*
X135906286Y-99990500D01*
X135906287Y-99990500D01*
X136116243Y-99957246D01*
X136318412Y-99891557D01*
X136507816Y-99795051D01*
X136529789Y-99779086D01*
X136679786Y-99670109D01*
X136679788Y-99670106D01*
X136679792Y-99670104D01*
X136830104Y-99519792D01*
X136830106Y-99519788D01*
X136830109Y-99519786D01*
X136955048Y-99347820D01*
X136955047Y-99347820D01*
X136955051Y-99347816D01*
X137051557Y-99158412D01*
X137117246Y-98956243D01*
X137150500Y-98746287D01*
X137150500Y-98533713D01*
X137117246Y-98323757D01*
X137051557Y-98121588D01*
X136955051Y-97932184D01*
X136955049Y-97932181D01*
X136955048Y-97932179D01*
X136830109Y-97760213D01*
X136679786Y-97609890D01*
X136507820Y-97484951D01*
X136507115Y-97484591D01*
X136499054Y-97480485D01*
X136448259Y-97432512D01*
X136431463Y-97364692D01*
X136453999Y-97298556D01*
X136499054Y-97259515D01*
X136507816Y-97255051D01*
X136580710Y-97202091D01*
X136679786Y-97130109D01*
X136679788Y-97130106D01*
X136679792Y-97130104D01*
X136830104Y-96979792D01*
X136830106Y-96979788D01*
X136830109Y-96979786D01*
X136894434Y-96891249D01*
X136955051Y-96807816D01*
X136955349Y-96807230D01*
X136975235Y-96768205D01*
X137023209Y-96717409D01*
X137085719Y-96700500D01*
X140625437Y-96700500D01*
X140692476Y-96720185D01*
X140713118Y-96736819D01*
X146698715Y-102722417D01*
X146732200Y-102783740D01*
X146735034Y-102810098D01*
X146735034Y-103184169D01*
X146735035Y-103184187D01*
X146745359Y-103285252D01*
X146799626Y-103449015D01*
X146799627Y-103449018D01*
X146833929Y-103504629D01*
X146883998Y-103585805D01*
X146890195Y-103595851D01*
X147008715Y-103714371D01*
X147042200Y-103775694D01*
X147045034Y-103802052D01*
X147045034Y-106074103D01*
X147025349Y-106141142D01*
X146995813Y-106171211D01*
X146996524Y-106172078D01*
X146991812Y-106175944D01*
X146848975Y-106318781D01*
X146736751Y-106486737D01*
X146736746Y-106486747D01*
X146659443Y-106673372D01*
X146659441Y-106673380D01*
X146620034Y-106871492D01*
X146620034Y-107323507D01*
X146659441Y-107521619D01*
X146659443Y-107521627D01*
X146736746Y-107708252D01*
X146736751Y-107708262D01*
X146848975Y-107876218D01*
X146991815Y-108019058D01*
X147159771Y-108131282D01*
X147159775Y-108131284D01*
X147159778Y-108131286D01*
X147346407Y-108208591D01*
X147512311Y-108241591D01*
X147544526Y-108247999D01*
X147544530Y-108248000D01*
X147544531Y-108248000D01*
X147746538Y-108248000D01*
X147746539Y-108247999D01*
X147944661Y-108208591D01*
X148131290Y-108131286D01*
X148212096Y-108077292D01*
X148278768Y-108056417D01*
X148346148Y-108074901D01*
X148349874Y-108077295D01*
X148430013Y-108130843D01*
X148430020Y-108130847D01*
X148616550Y-108208109D01*
X148616559Y-108208112D01*
X148665534Y-108217853D01*
X148665534Y-107377830D01*
X148685279Y-107397575D01*
X148770789Y-107446944D01*
X148866164Y-107472500D01*
X148964904Y-107472500D01*
X149060279Y-107446944D01*
X149145789Y-107397575D01*
X149160035Y-107383329D01*
X149160035Y-107795374D01*
X149164824Y-107839921D01*
X149165534Y-107853175D01*
X149165534Y-108217852D01*
X149214508Y-108208111D01*
X149214512Y-108208110D01*
X149294867Y-108174826D01*
X149364336Y-108167357D01*
X149410259Y-108187345D01*
X149410422Y-108187047D01*
X149413754Y-108188866D01*
X149416629Y-108190118D01*
X149418202Y-108191295D01*
X149418204Y-108191297D01*
X149553051Y-108241591D01*
X149553050Y-108241591D01*
X149559978Y-108242335D01*
X149612661Y-108248000D01*
X150758406Y-108247999D01*
X150818017Y-108241591D01*
X150952865Y-108191296D01*
X151068080Y-108105046D01*
X151154330Y-107989831D01*
X151204625Y-107854983D01*
X151211034Y-107795373D01*
X151211033Y-106399628D01*
X151204625Y-106340017D01*
X151196704Y-106318781D01*
X151154331Y-106205171D01*
X151154327Y-106205164D01*
X151068081Y-106089955D01*
X150985722Y-106028300D01*
X150943852Y-105972366D01*
X150936034Y-105929034D01*
X150936034Y-103461079D01*
X150907193Y-103316092D01*
X150907192Y-103316091D01*
X150907192Y-103316087D01*
X150886863Y-103267009D01*
X150850621Y-103179511D01*
X150850614Y-103179498D01*
X150768486Y-103056585D01*
X150768485Y-103056584D01*
X150663950Y-102952049D01*
X150572351Y-102860450D01*
X150538867Y-102799128D01*
X150538867Y-102799127D01*
X150536033Y-102772770D01*
X150536033Y-102610830D01*
X150536032Y-102610813D01*
X150525708Y-102509747D01*
X150471442Y-102345984D01*
X150380874Y-102199150D01*
X150258884Y-102077160D01*
X150112050Y-101986592D01*
X149948287Y-101932326D01*
X149948285Y-101932325D01*
X149847212Y-101922000D01*
X149248864Y-101922000D01*
X149248846Y-101922001D01*
X149147781Y-101932325D01*
X148984018Y-101986592D01*
X148984015Y-101986593D01*
X148837182Y-102077161D01*
X148723215Y-102191129D01*
X148661892Y-102224614D01*
X148592200Y-102219630D01*
X148547853Y-102191129D01*
X148433885Y-102077161D01*
X148433884Y-102077160D01*
X148287050Y-101986592D01*
X148123287Y-101932326D01*
X148123285Y-101932325D01*
X148022218Y-101922000D01*
X148022211Y-101922000D01*
X147648132Y-101922000D01*
X147581093Y-101902315D01*
X147560451Y-101885681D01*
X141413124Y-95738355D01*
X141413122Y-95738352D01*
X141294251Y-95619481D01*
X141294250Y-95619480D01*
X141207438Y-95569360D01*
X141207438Y-95569359D01*
X141207434Y-95569358D01*
X141157319Y-95540423D01*
X141004591Y-95499499D01*
X140846477Y-95499499D01*
X140838881Y-95499499D01*
X140838865Y-95499500D01*
X137085719Y-95499500D01*
X137018680Y-95479815D01*
X136975235Y-95431795D01*
X136955052Y-95392185D01*
X136955051Y-95392184D01*
X136830109Y-95220213D01*
X136679786Y-95069890D01*
X136507820Y-94944951D01*
X136507115Y-94944591D01*
X136499054Y-94940485D01*
X136448259Y-94892512D01*
X136431463Y-94824692D01*
X136453999Y-94758556D01*
X136499054Y-94719515D01*
X136507816Y-94715051D01*
X136529789Y-94699086D01*
X136679786Y-94590109D01*
X136679788Y-94590106D01*
X136679792Y-94590104D01*
X136830104Y-94439792D01*
X136830106Y-94439788D01*
X136830109Y-94439786D01*
X136955048Y-94267820D01*
X136955047Y-94267820D01*
X136955051Y-94267816D01*
X137005806Y-94168203D01*
X137053779Y-94117409D01*
X137116290Y-94100500D01*
X163799903Y-94100500D01*
X163866942Y-94120185D01*
X163887584Y-94136819D01*
X167086215Y-97335450D01*
X167119700Y-97396773D01*
X167122534Y-97423131D01*
X167122534Y-101939888D01*
X167102849Y-102006927D01*
X167063632Y-102045426D01*
X167012184Y-102077159D01*
X166890195Y-102199148D01*
X166799627Y-102345981D01*
X166799626Y-102345984D01*
X166745360Y-102509747D01*
X166745360Y-102509748D01*
X166745359Y-102509748D01*
X166735034Y-102610815D01*
X166735034Y-103184169D01*
X166735035Y-103184187D01*
X166745359Y-103285252D01*
X166799626Y-103449015D01*
X166799627Y-103449018D01*
X166833929Y-103504629D01*
X166883998Y-103585805D01*
X166890195Y-103595851D01*
X167008715Y-103714371D01*
X167042200Y-103775694D01*
X167045034Y-103802052D01*
X167045034Y-106074103D01*
X167025349Y-106141142D01*
X166995813Y-106171211D01*
X166996524Y-106172078D01*
X166991812Y-106175944D01*
X166848975Y-106318781D01*
X166736751Y-106486737D01*
X166736746Y-106486747D01*
X166659443Y-106673372D01*
X166659441Y-106673380D01*
X166620034Y-106871492D01*
X166620034Y-107323507D01*
X166659441Y-107521619D01*
X166659443Y-107521627D01*
X166736746Y-107708252D01*
X166736751Y-107708262D01*
X166848975Y-107876218D01*
X166991815Y-108019058D01*
X167159771Y-108131282D01*
X167159775Y-108131284D01*
X167159778Y-108131286D01*
X167346407Y-108208591D01*
X167512311Y-108241591D01*
X167544526Y-108247999D01*
X167544530Y-108248000D01*
X167544531Y-108248000D01*
X167746538Y-108248000D01*
X167746539Y-108247999D01*
X167944661Y-108208591D01*
X168131290Y-108131286D01*
X168212096Y-108077292D01*
X168278768Y-108056417D01*
X168346148Y-108074901D01*
X168349874Y-108077295D01*
X168430013Y-108130843D01*
X168430020Y-108130847D01*
X168616550Y-108208109D01*
X168616559Y-108208112D01*
X168665534Y-108217853D01*
X168665534Y-107377830D01*
X168685279Y-107397575D01*
X168770789Y-107446944D01*
X168866164Y-107472500D01*
X168964904Y-107472500D01*
X169060279Y-107446944D01*
X169145789Y-107397575D01*
X169160035Y-107383329D01*
X169160035Y-107795374D01*
X169164824Y-107839921D01*
X169165534Y-107853175D01*
X169165534Y-108217852D01*
X169214508Y-108208111D01*
X169214512Y-108208110D01*
X169294867Y-108174826D01*
X169364336Y-108167357D01*
X169410259Y-108187345D01*
X169410422Y-108187047D01*
X169413754Y-108188866D01*
X169416629Y-108190118D01*
X169418202Y-108191295D01*
X169418204Y-108191297D01*
X169553051Y-108241591D01*
X169553050Y-108241591D01*
X169559978Y-108242335D01*
X169612661Y-108248000D01*
X170758406Y-108247999D01*
X170818017Y-108241591D01*
X170952865Y-108191296D01*
X171068080Y-108105046D01*
X171154330Y-107989831D01*
X171204625Y-107854983D01*
X171211034Y-107795373D01*
X171211033Y-106871492D01*
X186620034Y-106871492D01*
X186620034Y-107323507D01*
X186659441Y-107521619D01*
X186659443Y-107521627D01*
X186736746Y-107708252D01*
X186736751Y-107708262D01*
X186848975Y-107876218D01*
X186991815Y-108019058D01*
X187159771Y-108131282D01*
X187159775Y-108131284D01*
X187159778Y-108131286D01*
X187346407Y-108208591D01*
X187512311Y-108241591D01*
X187544526Y-108247999D01*
X187544530Y-108248000D01*
X187544531Y-108248000D01*
X187746538Y-108248000D01*
X187746539Y-108247999D01*
X187944661Y-108208591D01*
X188131290Y-108131286D01*
X188212096Y-108077292D01*
X188278768Y-108056417D01*
X188346148Y-108074901D01*
X188349874Y-108077295D01*
X188430013Y-108130843D01*
X188430020Y-108130847D01*
X188616550Y-108208109D01*
X188616559Y-108208112D01*
X188665534Y-108217853D01*
X188665534Y-107377830D01*
X188685279Y-107397575D01*
X188770789Y-107446944D01*
X188866164Y-107472500D01*
X188964904Y-107472500D01*
X189060279Y-107446944D01*
X189145789Y-107397575D01*
X189160035Y-107383329D01*
X189160035Y-107795374D01*
X189164824Y-107839921D01*
X189165534Y-107853175D01*
X189165534Y-108217852D01*
X189214508Y-108208111D01*
X189214512Y-108208110D01*
X189294867Y-108174826D01*
X189364336Y-108167357D01*
X189410259Y-108187345D01*
X189410422Y-108187047D01*
X189413754Y-108188866D01*
X189416629Y-108190118D01*
X189418202Y-108191295D01*
X189418204Y-108191297D01*
X189553051Y-108241591D01*
X189553050Y-108241591D01*
X189559978Y-108242335D01*
X189612661Y-108248000D01*
X190758406Y-108247999D01*
X190818017Y-108241591D01*
X190952865Y-108191296D01*
X191068080Y-108105046D01*
X191154330Y-107989831D01*
X191204625Y-107854983D01*
X191211034Y-107795373D01*
X191211033Y-106871492D01*
X206620034Y-106871492D01*
X206620034Y-107323507D01*
X206659441Y-107521619D01*
X206659443Y-107521627D01*
X206736746Y-107708252D01*
X206736751Y-107708262D01*
X206848975Y-107876218D01*
X206991815Y-108019058D01*
X207159771Y-108131282D01*
X207159775Y-108131284D01*
X207159778Y-108131286D01*
X207346407Y-108208591D01*
X207512311Y-108241591D01*
X207544526Y-108247999D01*
X207544530Y-108248000D01*
X207544531Y-108248000D01*
X207746538Y-108248000D01*
X207746539Y-108247999D01*
X207944661Y-108208591D01*
X208131290Y-108131286D01*
X208212096Y-108077292D01*
X208278768Y-108056417D01*
X208346148Y-108074901D01*
X208349874Y-108077295D01*
X208430013Y-108130843D01*
X208430020Y-108130847D01*
X208616550Y-108208109D01*
X208616559Y-108208112D01*
X208665534Y-108217853D01*
X208665534Y-107377830D01*
X208685279Y-107397575D01*
X208770789Y-107446944D01*
X208866164Y-107472500D01*
X208964904Y-107472500D01*
X209060279Y-107446944D01*
X209145789Y-107397575D01*
X209160035Y-107383329D01*
X209160035Y-107795374D01*
X209164824Y-107839921D01*
X209165534Y-107853175D01*
X209165534Y-108217852D01*
X209214508Y-108208111D01*
X209214512Y-108208110D01*
X209294867Y-108174826D01*
X209364336Y-108167357D01*
X209410259Y-108187345D01*
X209410422Y-108187047D01*
X209413754Y-108188866D01*
X209416629Y-108190118D01*
X209418202Y-108191295D01*
X209418204Y-108191297D01*
X209553051Y-108241591D01*
X209553050Y-108241591D01*
X209559978Y-108242335D01*
X209612661Y-108248000D01*
X210758406Y-108247999D01*
X210818017Y-108241591D01*
X210952865Y-108191296D01*
X211068080Y-108105046D01*
X211154330Y-107989831D01*
X211204625Y-107854983D01*
X211211034Y-107795373D01*
X211211033Y-106399628D01*
X211204625Y-106340017D01*
X211196704Y-106318781D01*
X211154331Y-106205171D01*
X211154327Y-106205164D01*
X211068081Y-106089955D01*
X210985722Y-106028300D01*
X210943852Y-105972366D01*
X210936034Y-105929034D01*
X210936034Y-103461079D01*
X210907193Y-103316092D01*
X210907192Y-103316091D01*
X210907192Y-103316087D01*
X210886863Y-103267009D01*
X210850621Y-103179511D01*
X210850614Y-103179498D01*
X210768486Y-103056585D01*
X210768485Y-103056584D01*
X210663950Y-102952049D01*
X210572351Y-102860450D01*
X210538867Y-102799128D01*
X210538867Y-102799127D01*
X210536033Y-102772770D01*
X210536033Y-102610830D01*
X210536032Y-102610813D01*
X210525708Y-102509747D01*
X210471442Y-102345984D01*
X210380874Y-102199150D01*
X210258884Y-102077160D01*
X210112050Y-101986592D01*
X209948287Y-101932326D01*
X209948285Y-101932325D01*
X209847212Y-101922000D01*
X209248864Y-101922000D01*
X209248846Y-101922001D01*
X209147781Y-101932325D01*
X208984018Y-101986592D01*
X208984015Y-101986593D01*
X208837182Y-102077161D01*
X208723215Y-102191129D01*
X208661892Y-102224614D01*
X208592200Y-102219630D01*
X208547853Y-102191129D01*
X208433885Y-102077161D01*
X208433884Y-102077160D01*
X208287050Y-101986592D01*
X208123287Y-101932326D01*
X208123285Y-101932325D01*
X208022212Y-101922000D01*
X207423864Y-101922000D01*
X207423846Y-101922001D01*
X207322781Y-101932325D01*
X207159018Y-101986592D01*
X207159015Y-101986593D01*
X207012182Y-102077161D01*
X206890195Y-102199148D01*
X206799627Y-102345981D01*
X206799626Y-102345984D01*
X206745360Y-102509747D01*
X206745360Y-102509748D01*
X206745359Y-102509748D01*
X206735034Y-102610815D01*
X206735034Y-103184169D01*
X206735035Y-103184187D01*
X206745359Y-103285252D01*
X206799626Y-103449015D01*
X206799627Y-103449018D01*
X206833929Y-103504629D01*
X206883998Y-103585805D01*
X206890195Y-103595851D01*
X207008715Y-103714371D01*
X207042200Y-103775694D01*
X207045034Y-103802052D01*
X207045034Y-106074103D01*
X207025349Y-106141142D01*
X206995813Y-106171211D01*
X206996524Y-106172078D01*
X206991812Y-106175944D01*
X206848975Y-106318781D01*
X206736751Y-106486737D01*
X206736746Y-106486747D01*
X206659443Y-106673372D01*
X206659441Y-106673380D01*
X206620034Y-106871492D01*
X191211033Y-106871492D01*
X191211033Y-106399628D01*
X191204625Y-106340017D01*
X191196704Y-106318781D01*
X191154331Y-106205171D01*
X191154327Y-106205164D01*
X191068081Y-106089955D01*
X190985722Y-106028300D01*
X190943852Y-105972366D01*
X190936034Y-105929034D01*
X190936034Y-103548579D01*
X190907193Y-103403592D01*
X190907192Y-103403591D01*
X190907192Y-103403587D01*
X190907190Y-103403582D01*
X190850620Y-103267009D01*
X190850619Y-103267007D01*
X190817720Y-103217770D01*
X190817719Y-103217768D01*
X190768490Y-103144089D01*
X190768486Y-103144084D01*
X190484852Y-102860450D01*
X190451367Y-102799127D01*
X190448533Y-102772769D01*
X190448533Y-102610830D01*
X190448532Y-102610813D01*
X190438208Y-102509747D01*
X190383942Y-102345984D01*
X190293374Y-102199150D01*
X190171384Y-102077160D01*
X190024550Y-101986592D01*
X189860787Y-101932326D01*
X189860785Y-101932325D01*
X189759712Y-101922000D01*
X189161364Y-101922000D01*
X189161346Y-101922001D01*
X189060281Y-101932325D01*
X188896518Y-101986592D01*
X188896515Y-101986593D01*
X188749682Y-102077161D01*
X188635715Y-102191129D01*
X188574392Y-102224614D01*
X188504700Y-102219630D01*
X188460353Y-102191129D01*
X188346385Y-102077161D01*
X188346384Y-102077160D01*
X188199550Y-101986592D01*
X188035787Y-101932326D01*
X188035785Y-101932325D01*
X187934712Y-101922000D01*
X187336364Y-101922000D01*
X187336346Y-101922001D01*
X187235281Y-101932325D01*
X187071518Y-101986592D01*
X187071515Y-101986593D01*
X186924682Y-102077161D01*
X186802695Y-102199148D01*
X186712127Y-102345981D01*
X186712126Y-102345984D01*
X186657860Y-102509747D01*
X186657860Y-102509748D01*
X186657859Y-102509748D01*
X186647534Y-102610815D01*
X186647534Y-103184169D01*
X186647535Y-103184187D01*
X186657859Y-103285252D01*
X186712126Y-103449015D01*
X186712127Y-103449018D01*
X186746429Y-103504629D01*
X186802694Y-103595850D01*
X186924684Y-103717840D01*
X186976131Y-103749572D01*
X187022855Y-103801517D01*
X187035034Y-103855110D01*
X187035034Y-106081825D01*
X187015349Y-106148864D01*
X186995572Y-106171083D01*
X186996123Y-106171634D01*
X186848978Y-106318778D01*
X186848975Y-106318781D01*
X186736751Y-106486737D01*
X186736746Y-106486747D01*
X186659443Y-106673372D01*
X186659441Y-106673380D01*
X186620034Y-106871492D01*
X171211033Y-106871492D01*
X171211033Y-106399628D01*
X171204625Y-106340017D01*
X171196704Y-106318781D01*
X171154331Y-106205171D01*
X171154327Y-106205164D01*
X171068081Y-106089955D01*
X170985722Y-106028300D01*
X170943852Y-105972366D01*
X170936034Y-105929034D01*
X170936034Y-103461079D01*
X170907193Y-103316092D01*
X170907192Y-103316091D01*
X170907192Y-103316087D01*
X170886863Y-103267009D01*
X170850621Y-103179511D01*
X170850614Y-103179498D01*
X170768486Y-103056585D01*
X170768485Y-103056584D01*
X170663950Y-102952049D01*
X170572351Y-102860450D01*
X170538867Y-102799128D01*
X170538867Y-102799127D01*
X170536033Y-102772770D01*
X170536033Y-102610830D01*
X170536032Y-102610813D01*
X170525708Y-102509747D01*
X170471442Y-102345984D01*
X170380874Y-102199150D01*
X170258884Y-102077160D01*
X170112050Y-101986592D01*
X169948287Y-101932326D01*
X169948285Y-101932325D01*
X169847212Y-101922000D01*
X169248864Y-101922000D01*
X169248846Y-101922001D01*
X169147781Y-101932325D01*
X168984018Y-101986592D01*
X168984015Y-101986593D01*
X168837182Y-102077161D01*
X168723215Y-102191129D01*
X168719096Y-102193377D01*
X168716550Y-102197323D01*
X168688713Y-102209968D01*
X168661892Y-102224614D01*
X168657210Y-102224279D01*
X168652936Y-102226221D01*
X168622691Y-102221810D01*
X168592200Y-102219630D01*
X168587152Y-102216628D01*
X168583798Y-102216139D01*
X168568904Y-102205776D01*
X168554145Y-102196999D01*
X168550898Y-102194174D01*
X168433884Y-102077160D01*
X168373802Y-102040101D01*
X168366145Y-102033439D01*
X168352563Y-102012213D01*
X168335712Y-101993478D01*
X168333033Y-101981691D01*
X168328487Y-101974586D01*
X168328512Y-101961796D01*
X168323534Y-101939888D01*
X168323534Y-97212093D01*
X168323535Y-97212080D01*
X168323535Y-97043979D01*
X168323535Y-97043977D01*
X168282611Y-96891249D01*
X168253673Y-96841129D01*
X168203554Y-96754318D01*
X168091750Y-96642514D01*
X168091749Y-96642513D01*
X168087419Y-96638183D01*
X168087408Y-96638173D01*
X164587590Y-93138355D01*
X164587588Y-93138352D01*
X164468717Y-93019481D01*
X164468712Y-93019477D01*
X164415380Y-92988686D01*
X164367164Y-92938119D01*
X164353941Y-92869512D01*
X164379909Y-92804647D01*
X164436824Y-92764119D01*
X164445258Y-92761532D01*
X164560785Y-92730577D01*
X164648026Y-92680208D01*
X164697716Y-92651520D01*
X164809520Y-92539716D01*
X164809520Y-92539714D01*
X164819724Y-92529511D01*
X164819727Y-92529506D01*
X183814916Y-73534319D01*
X183876239Y-73500834D01*
X183902597Y-73498000D01*
X186753437Y-73498000D01*
X186820476Y-73517685D01*
X186866054Y-73570101D01*
X186870476Y-73579696D01*
X186874957Y-73596419D01*
X186888086Y-73619158D01*
X186934799Y-73700068D01*
X186954013Y-73733349D01*
X187072883Y-73852219D01*
X187072889Y-73852224D01*
X187258539Y-74037874D01*
X187258549Y-74037885D01*
X187262879Y-74042215D01*
X187262880Y-74042216D01*
X187374684Y-74154020D01*
X187374686Y-74154021D01*
X187374690Y-74154024D01*
X187511609Y-74233073D01*
X187511616Y-74233077D01*
X187623419Y-74263034D01*
X187664342Y-74274000D01*
X187664343Y-74274000D01*
X188615999Y-74274000D01*
X188616015Y-74274001D01*
X188623611Y-74274001D01*
X188781722Y-74274001D01*
X188781725Y-74274001D01*
X188934453Y-74233077D01*
X188984572Y-74204139D01*
X189071384Y-74154020D01*
X189183188Y-74042216D01*
X189183188Y-74042214D01*
X189193396Y-74032007D01*
X189193398Y-74032004D01*
X189370039Y-73855363D01*
X189370044Y-73855359D01*
X189379590Y-73845813D01*
X189394856Y-73837476D01*
X189402261Y-73832139D01*
X189402269Y-73832135D01*
X189402776Y-73833150D01*
X189440912Y-73812325D01*
X189506276Y-73815783D01*
X189647781Y-73862674D01*
X189748857Y-73873000D01*
X190347210Y-73872999D01*
X190347218Y-73872998D01*
X190347221Y-73872998D01*
X190402564Y-73867344D01*
X190448287Y-73862674D01*
X190612050Y-73808408D01*
X190758884Y-73717840D01*
X190880874Y-73595850D01*
X190971442Y-73449016D01*
X191025708Y-73285253D01*
X191036034Y-73184177D01*
X191036033Y-72610824D01*
X191025708Y-72509747D01*
X190971442Y-72345984D01*
X190880874Y-72199150D01*
X190758884Y-72077160D01*
X190758883Y-72077159D01*
X190707436Y-72045426D01*
X190660712Y-71993478D01*
X190648534Y-71939888D01*
X190648534Y-69506089D01*
X190668219Y-69439050D01*
X190703644Y-69402987D01*
X190794223Y-69342463D01*
X190829252Y-69319058D01*
X190972092Y-69176218D01*
X191084320Y-69008256D01*
X191161625Y-68821627D01*
X191201034Y-68623503D01*
X191201034Y-68171497D01*
X191161625Y-67973373D01*
X191084320Y-67786744D01*
X191084318Y-67786741D01*
X191084315Y-67786735D01*
X191069924Y-67765198D01*
X191069923Y-67765196D01*
X191026117Y-67699635D01*
X206610034Y-67699635D01*
X206610034Y-69095370D01*
X206610035Y-69095376D01*
X206616442Y-69154983D01*
X206666736Y-69289828D01*
X206666740Y-69289835D01*
X206752986Y-69405044D01*
X206752987Y-69405045D01*
X206752988Y-69405046D01*
X206835345Y-69466698D01*
X206877216Y-69522631D01*
X206885034Y-69565964D01*
X206885034Y-72383918D01*
X206885034Y-72383920D01*
X206885033Y-72383920D01*
X206913874Y-72528907D01*
X206913877Y-72528917D01*
X206970448Y-72665492D01*
X207003346Y-72714727D01*
X207003347Y-72714730D01*
X207052580Y-72788414D01*
X207052581Y-72788415D01*
X207052582Y-72788416D01*
X207198716Y-72934550D01*
X207232200Y-72995872D01*
X207235034Y-73022229D01*
X207235034Y-73184168D01*
X207235035Y-73184187D01*
X207245359Y-73285252D01*
X207299626Y-73449015D01*
X207299627Y-73449018D01*
X207329840Y-73498000D01*
X207390194Y-73595850D01*
X207512184Y-73717840D01*
X207659018Y-73808408D01*
X207822781Y-73862674D01*
X207923857Y-73873000D01*
X208522210Y-73872999D01*
X208522218Y-73872998D01*
X208522221Y-73872998D01*
X208577564Y-73867344D01*
X208623287Y-73862674D01*
X208787050Y-73808408D01*
X208933884Y-73717840D01*
X209047853Y-73603871D01*
X209109176Y-73570386D01*
X209178868Y-73575370D01*
X209223215Y-73603871D01*
X209337184Y-73717840D01*
X209484018Y-73808408D01*
X209647781Y-73862674D01*
X209748857Y-73873000D01*
X210347210Y-73872999D01*
X210347218Y-73872998D01*
X210347221Y-73872998D01*
X210402564Y-73867344D01*
X210448287Y-73862674D01*
X210612050Y-73808408D01*
X210758884Y-73717840D01*
X210880874Y-73595850D01*
X210971442Y-73449016D01*
X211025708Y-73285253D01*
X211036034Y-73184177D01*
X211036033Y-72610824D01*
X211025708Y-72509747D01*
X210971442Y-72345984D01*
X210880874Y-72199150D01*
X210758884Y-72077160D01*
X210758883Y-72077159D01*
X210707436Y-72045426D01*
X210660712Y-71993478D01*
X210648534Y-71939888D01*
X210648534Y-69506089D01*
X210668219Y-69439050D01*
X210703644Y-69402987D01*
X210794223Y-69342463D01*
X210829252Y-69319058D01*
X210972092Y-69176218D01*
X211084320Y-69008256D01*
X211161625Y-68821627D01*
X211201034Y-68623503D01*
X211201034Y-68171497D01*
X211161625Y-67973373D01*
X211084320Y-67786744D01*
X211084318Y-67786741D01*
X211084316Y-67786737D01*
X210972092Y-67618781D01*
X210829252Y-67475941D01*
X210661296Y-67363717D01*
X210661286Y-67363712D01*
X210474661Y-67286409D01*
X210474653Y-67286407D01*
X210276541Y-67247000D01*
X210276537Y-67247000D01*
X210074531Y-67247000D01*
X210074526Y-67247000D01*
X209876414Y-67286407D01*
X209876406Y-67286409D01*
X209689777Y-67363714D01*
X209608973Y-67417704D01*
X209542295Y-67438581D01*
X209474916Y-67420095D01*
X209471193Y-67417703D01*
X209391060Y-67364159D01*
X209391047Y-67364152D01*
X209204518Y-67286890D01*
X209204511Y-67286888D01*
X209155534Y-67277145D01*
X209155534Y-68117170D01*
X209135789Y-68097425D01*
X209050279Y-68048056D01*
X208954904Y-68022500D01*
X208856164Y-68022500D01*
X208760789Y-68048056D01*
X208675279Y-68097425D01*
X208661033Y-68111670D01*
X208661033Y-67699628D01*
X208656244Y-67655077D01*
X208655534Y-67641824D01*
X208655534Y-67277146D01*
X208655533Y-67277145D01*
X208606556Y-67286888D01*
X208606549Y-67286890D01*
X208526197Y-67320173D01*
X208456727Y-67327642D01*
X208410811Y-67307654D01*
X208410648Y-67307954D01*
X208407300Y-67306126D01*
X208404433Y-67304877D01*
X208402865Y-67303704D01*
X208402864Y-67303703D01*
X208402862Y-67303702D01*
X208268016Y-67253408D01*
X208268017Y-67253408D01*
X208208417Y-67247001D01*
X208208415Y-67247000D01*
X208208407Y-67247000D01*
X208208398Y-67247000D01*
X207062663Y-67247000D01*
X207062657Y-67247001D01*
X207003050Y-67253408D01*
X206868205Y-67303702D01*
X206868198Y-67303706D01*
X206752989Y-67389952D01*
X206752986Y-67389955D01*
X206666740Y-67505164D01*
X206666736Y-67505171D01*
X206616442Y-67640017D01*
X206610035Y-67699616D01*
X206610035Y-67699623D01*
X206610034Y-67699635D01*
X191026117Y-67699635D01*
X190972095Y-67618786D01*
X190972089Y-67618778D01*
X190829252Y-67475941D01*
X190661296Y-67363717D01*
X190661286Y-67363712D01*
X190474661Y-67286409D01*
X190474653Y-67286407D01*
X190276541Y-67247000D01*
X190276537Y-67247000D01*
X190074531Y-67247000D01*
X190074526Y-67247000D01*
X189876414Y-67286407D01*
X189876406Y-67286409D01*
X189689777Y-67363714D01*
X189608973Y-67417704D01*
X189542295Y-67438581D01*
X189474916Y-67420095D01*
X189471193Y-67417703D01*
X189391060Y-67364159D01*
X189391047Y-67364152D01*
X189204518Y-67286890D01*
X189204511Y-67286888D01*
X189155534Y-67277145D01*
X189155534Y-68117170D01*
X189135789Y-68097425D01*
X189050279Y-68048056D01*
X188954904Y-68022500D01*
X188856164Y-68022500D01*
X188760789Y-68048056D01*
X188675279Y-68097425D01*
X188661033Y-68111670D01*
X188661033Y-67699628D01*
X188656244Y-67655077D01*
X188655534Y-67641824D01*
X188655534Y-67277146D01*
X188655533Y-67277145D01*
X188606556Y-67286888D01*
X188606549Y-67286890D01*
X188526197Y-67320173D01*
X188456727Y-67327642D01*
X188410811Y-67307654D01*
X188410648Y-67307954D01*
X188407300Y-67306126D01*
X188404433Y-67304877D01*
X188402865Y-67303704D01*
X188402864Y-67303703D01*
X188402862Y-67303702D01*
X188268016Y-67253408D01*
X188268017Y-67253408D01*
X188208417Y-67247001D01*
X188208415Y-67247000D01*
X188208407Y-67247000D01*
X188208398Y-67247000D01*
X187062663Y-67247000D01*
X187062657Y-67247001D01*
X187003050Y-67253408D01*
X186868205Y-67303702D01*
X186868198Y-67303706D01*
X186752989Y-67389952D01*
X186752986Y-67389955D01*
X186666740Y-67505164D01*
X186666736Y-67505171D01*
X186616442Y-67640017D01*
X186610035Y-67699616D01*
X186610035Y-67699623D01*
X186610034Y-67699635D01*
X186610034Y-69095370D01*
X186610035Y-69095376D01*
X186616442Y-69154983D01*
X186666736Y-69289828D01*
X186666740Y-69289835D01*
X186752986Y-69405044D01*
X186752987Y-69405045D01*
X186752988Y-69405046D01*
X186835345Y-69466698D01*
X186877216Y-69522631D01*
X186885034Y-69565964D01*
X186885034Y-72173000D01*
X186865349Y-72240039D01*
X186812545Y-72285794D01*
X186761034Y-72297000D01*
X183681557Y-72297000D01*
X183523443Y-72297000D01*
X183370715Y-72337923D01*
X183370714Y-72337923D01*
X183370712Y-72337924D01*
X183370709Y-72337925D01*
X183320596Y-72366859D01*
X183320595Y-72366860D01*
X183291046Y-72383920D01*
X183233785Y-72416979D01*
X183233782Y-72416981D01*
X170695161Y-84955603D01*
X170633838Y-84989088D01*
X170564146Y-84984104D01*
X170508213Y-84942232D01*
X170483796Y-84876768D01*
X170498648Y-84808495D01*
X170500049Y-84805997D01*
X170512202Y-84784949D01*
X170520111Y-84771251D01*
X170561034Y-84618523D01*
X170561034Y-84460409D01*
X170561034Y-73855110D01*
X170580719Y-73788071D01*
X170619935Y-73749573D01*
X170671384Y-73717840D01*
X170793374Y-73595850D01*
X170883942Y-73449016D01*
X170938208Y-73285253D01*
X170948534Y-73184177D01*
X170948533Y-72610824D01*
X170938208Y-72509747D01*
X170883942Y-72345984D01*
X170793374Y-72199150D01*
X170671384Y-72077160D01*
X170671383Y-72077159D01*
X170619936Y-72045426D01*
X170573212Y-71993478D01*
X170561034Y-71939888D01*
X170561034Y-69555667D01*
X170580719Y-69488628D01*
X170633523Y-69442873D01*
X170637531Y-69441127D01*
X170661290Y-69431286D01*
X170829252Y-69319058D01*
X170972092Y-69176218D01*
X171084320Y-69008256D01*
X171161625Y-68821627D01*
X171201034Y-68623503D01*
X171201034Y-68171497D01*
X171161625Y-67973373D01*
X171084320Y-67786744D01*
X171084318Y-67786741D01*
X171084316Y-67786737D01*
X170972092Y-67618781D01*
X170829252Y-67475941D01*
X170661296Y-67363717D01*
X170661286Y-67363712D01*
X170474661Y-67286409D01*
X170474653Y-67286407D01*
X170276541Y-67247000D01*
X170276537Y-67247000D01*
X170074531Y-67247000D01*
X170074526Y-67247000D01*
X169876414Y-67286407D01*
X169876406Y-67286409D01*
X169689777Y-67363714D01*
X169608973Y-67417704D01*
X169542295Y-67438581D01*
X169474916Y-67420095D01*
X169471193Y-67417703D01*
X169391060Y-67364159D01*
X169391047Y-67364152D01*
X169204518Y-67286890D01*
X169204511Y-67286888D01*
X169155534Y-67277145D01*
X169155534Y-68117170D01*
X169135789Y-68097425D01*
X169050279Y-68048056D01*
X168954904Y-68022500D01*
X168856164Y-68022500D01*
X168760789Y-68048056D01*
X168675279Y-68097425D01*
X168661033Y-68111670D01*
X168661033Y-67699628D01*
X168656244Y-67655077D01*
X168655534Y-67641824D01*
X168655534Y-67277146D01*
X168655533Y-67277145D01*
X168606556Y-67286888D01*
X168606549Y-67286890D01*
X168526197Y-67320173D01*
X168456727Y-67327642D01*
X168410811Y-67307654D01*
X168410648Y-67307954D01*
X168407300Y-67306126D01*
X168404433Y-67304877D01*
X168402865Y-67303704D01*
X168402864Y-67303703D01*
X168402862Y-67303702D01*
X168268016Y-67253408D01*
X168268017Y-67253408D01*
X168208417Y-67247001D01*
X168208415Y-67247000D01*
X168208407Y-67247000D01*
X168208398Y-67247000D01*
X167062663Y-67247000D01*
X167062657Y-67247001D01*
X167003050Y-67253408D01*
X166868205Y-67303702D01*
X166868198Y-67303706D01*
X166752989Y-67389952D01*
X166752986Y-67389955D01*
X166666740Y-67505164D01*
X166666736Y-67505171D01*
X166616442Y-67640017D01*
X166610035Y-67699616D01*
X166610035Y-67699623D01*
X166610034Y-67699635D01*
X166610034Y-69095370D01*
X166610035Y-69095376D01*
X166616442Y-69154983D01*
X166666736Y-69289828D01*
X166666740Y-69289835D01*
X166752986Y-69405044D01*
X166752987Y-69405045D01*
X166752988Y-69405046D01*
X166835345Y-69466698D01*
X166877216Y-69522631D01*
X166885034Y-69565964D01*
X166885034Y-72471418D01*
X166885034Y-72471420D01*
X166885033Y-72471420D01*
X166913874Y-72616407D01*
X166913877Y-72616417D01*
X166970447Y-72752990D01*
X166970448Y-72752991D01*
X166970450Y-72752995D01*
X166974183Y-72758582D01*
X166977893Y-72764135D01*
X166994117Y-72788416D01*
X167052582Y-72875916D01*
X167111216Y-72934550D01*
X167144700Y-72995871D01*
X167147534Y-73022229D01*
X167147534Y-73184168D01*
X167147535Y-73184187D01*
X167157859Y-73285252D01*
X167212126Y-73449015D01*
X167212127Y-73449018D01*
X167242340Y-73498000D01*
X167302694Y-73595850D01*
X167424684Y-73717840D01*
X167571518Y-73808408D01*
X167735281Y-73862674D01*
X167836357Y-73873000D01*
X168434710Y-73872999D01*
X168434718Y-73872998D01*
X168434721Y-73872998D01*
X168490064Y-73867344D01*
X168535787Y-73862674D01*
X168699550Y-73808408D01*
X168846384Y-73717840D01*
X168960353Y-73603871D01*
X168964472Y-73601621D01*
X168967018Y-73597678D01*
X168994850Y-73585033D01*
X169021676Y-73570386D01*
X169026356Y-73570720D01*
X169030631Y-73568779D01*
X169060880Y-73573189D01*
X169091368Y-73575370D01*
X169096413Y-73578370D01*
X169099769Y-73578860D01*
X169114664Y-73589224D01*
X169129423Y-73598001D01*
X169132668Y-73600824D01*
X169249684Y-73717840D01*
X169309770Y-73754901D01*
X169317423Y-73761559D01*
X169331001Y-73782780D01*
X169347855Y-73801517D01*
X169350534Y-73813307D01*
X169355080Y-73820412D01*
X169355054Y-73833198D01*
X169360034Y-73855110D01*
X169360034Y-84239369D01*
X169340349Y-84306408D01*
X169323715Y-84327050D01*
X163267584Y-90383181D01*
X163206261Y-90416666D01*
X163179903Y-90419500D01*
X137085719Y-90419500D01*
X137018680Y-90399815D01*
X136975235Y-90351795D01*
X136955052Y-90312185D01*
X136955051Y-90312184D01*
X136830109Y-90140213D01*
X136679786Y-89989890D01*
X136507820Y-89864951D01*
X136507115Y-89864591D01*
X136499054Y-89860485D01*
X136448259Y-89812512D01*
X136431463Y-89744692D01*
X136453999Y-89678556D01*
X136499054Y-89639515D01*
X136507816Y-89635051D01*
X136529789Y-89619086D01*
X136679786Y-89510109D01*
X136679788Y-89510106D01*
X136679792Y-89510104D01*
X136830104Y-89359792D01*
X136830106Y-89359788D01*
X136830109Y-89359786D01*
X136955048Y-89187820D01*
X136955047Y-89187820D01*
X136955051Y-89187816D01*
X137051557Y-88998412D01*
X137117246Y-88796243D01*
X137150500Y-88586287D01*
X137150500Y-88373713D01*
X137117246Y-88163757D01*
X137051557Y-87961588D01*
X136955051Y-87772184D01*
X136955049Y-87772181D01*
X136955048Y-87772179D01*
X136830109Y-87600213D01*
X136679786Y-87449890D01*
X136507820Y-87324951D01*
X136507115Y-87324591D01*
X136499054Y-87320485D01*
X136448259Y-87272512D01*
X136431463Y-87204692D01*
X136453999Y-87138556D01*
X136499054Y-87099515D01*
X136507816Y-87095051D01*
X136529789Y-87079086D01*
X136679786Y-86970109D01*
X136679788Y-86970106D01*
X136679792Y-86970104D01*
X136830104Y-86819792D01*
X136830106Y-86819788D01*
X136830109Y-86819786D01*
X136955048Y-86647820D01*
X136955047Y-86647820D01*
X136955051Y-86647816D01*
X137051557Y-86458412D01*
X137117246Y-86256243D01*
X137150500Y-86046287D01*
X137150500Y-85833713D01*
X137117246Y-85623757D01*
X137051557Y-85421588D01*
X136955051Y-85232184D01*
X136955049Y-85232181D01*
X136955048Y-85232179D01*
X136830109Y-85060213D01*
X136679786Y-84909890D01*
X136507818Y-84784950D01*
X136507450Y-84784762D01*
X136499054Y-84780485D01*
X136448259Y-84732512D01*
X136431463Y-84664692D01*
X136453999Y-84598556D01*
X136499054Y-84559515D01*
X136507816Y-84555051D01*
X136529789Y-84539086D01*
X136679786Y-84430109D01*
X136679788Y-84430106D01*
X136679792Y-84430104D01*
X136830104Y-84279792D01*
X136830106Y-84279788D01*
X136830109Y-84279786D01*
X136955048Y-84107820D01*
X136955047Y-84107820D01*
X136955051Y-84107816D01*
X137051557Y-83918412D01*
X137117246Y-83716243D01*
X137150500Y-83506287D01*
X137150500Y-83293713D01*
X137117246Y-83083757D01*
X137051557Y-82881588D01*
X136955051Y-82692184D01*
X136955049Y-82692181D01*
X136955048Y-82692179D01*
X136830109Y-82520213D01*
X136679786Y-82369890D01*
X136507820Y-82244951D01*
X136507115Y-82244591D01*
X136499054Y-82240485D01*
X136448259Y-82192512D01*
X136431463Y-82124692D01*
X136453999Y-82058556D01*
X136499054Y-82019515D01*
X136507816Y-82015051D01*
X136529789Y-81999086D01*
X136679786Y-81890109D01*
X136679788Y-81890106D01*
X136679792Y-81890104D01*
X136830104Y-81739792D01*
X136830106Y-81739788D01*
X136830109Y-81739786D01*
X136955048Y-81567820D01*
X136955047Y-81567820D01*
X136955051Y-81567816D01*
X137051557Y-81378412D01*
X137117246Y-81176243D01*
X137150500Y-80966287D01*
X137150500Y-80753713D01*
X137117246Y-80543757D01*
X137051557Y-80341588D01*
X136955051Y-80152184D01*
X136955049Y-80152181D01*
X136955048Y-80152179D01*
X136830109Y-79980213D01*
X136679786Y-79829890D01*
X136507817Y-79704949D01*
X136498504Y-79700204D01*
X136447707Y-79652230D01*
X136430912Y-79584409D01*
X136453449Y-79518274D01*
X136498507Y-79479232D01*
X136507558Y-79474620D01*
X136679459Y-79349727D01*
X136679464Y-79349723D01*
X136829723Y-79199464D01*
X136829727Y-79199459D01*
X136954620Y-79027557D01*
X137051095Y-78838217D01*
X137116757Y-78636129D01*
X137116757Y-78636126D01*
X137127231Y-78570000D01*
X136233012Y-78570000D01*
X136265925Y-78512993D01*
X136300000Y-78385826D01*
X136300000Y-78254174D01*
X136265925Y-78127007D01*
X136233012Y-78070000D01*
X137127231Y-78070000D01*
X137116757Y-78003873D01*
X137116757Y-78003870D01*
X137051095Y-77801782D01*
X136954620Y-77612442D01*
X136829727Y-77440540D01*
X136829723Y-77440535D01*
X136716053Y-77326865D01*
X136682568Y-77265542D01*
X136687552Y-77195850D01*
X136729424Y-77139917D01*
X136760400Y-77123002D01*
X136892331Y-77073796D01*
X137007546Y-76987546D01*
X137093796Y-76872331D01*
X137144091Y-76737483D01*
X137150500Y-76677873D01*
X137150499Y-74882128D01*
X137144091Y-74822517D01*
X137093796Y-74687669D01*
X137093795Y-74687668D01*
X137093793Y-74687664D01*
X137007547Y-74572455D01*
X137007544Y-74572452D01*
X136892335Y-74486206D01*
X136892328Y-74486202D01*
X136757482Y-74435908D01*
X136757483Y-74435908D01*
X136697883Y-74429501D01*
X136697881Y-74429500D01*
X136697873Y-74429500D01*
X136697864Y-74429500D01*
X134902129Y-74429500D01*
X134902123Y-74429501D01*
X134842516Y-74435908D01*
X134707671Y-74486202D01*
X134707664Y-74486206D01*
X134592455Y-74572452D01*
X134592452Y-74572455D01*
X134506206Y-74687664D01*
X134506202Y-74687671D01*
X134455908Y-74822517D01*
X134449501Y-74882116D01*
X134449501Y-74882123D01*
X134449500Y-74882135D01*
X134449500Y-76677870D01*
X134449501Y-76677876D01*
X134455908Y-76737483D01*
X134506202Y-76872328D01*
X134506206Y-76872335D01*
X134592452Y-76987544D01*
X134592455Y-76987547D01*
X134707664Y-77073793D01*
X134707671Y-77073797D01*
X134707674Y-77073798D01*
X134839598Y-77123002D01*
X134895531Y-77164873D01*
X134919949Y-77230337D01*
X134905098Y-77298610D01*
X134883947Y-77326865D01*
X134770271Y-77440541D01*
X134645379Y-77612442D01*
X134548904Y-77801782D01*
X134483242Y-78003870D01*
X134483242Y-78003873D01*
X134472769Y-78070000D01*
X135366988Y-78070000D01*
X135334075Y-78127007D01*
X135300000Y-78254174D01*
X135300000Y-78385826D01*
X135334075Y-78512993D01*
X135366988Y-78570000D01*
X134472769Y-78570000D01*
X134483242Y-78636126D01*
X134483242Y-78636129D01*
X134548904Y-78838217D01*
X134645379Y-79027557D01*
X134770272Y-79199459D01*
X134770276Y-79199464D01*
X134920535Y-79349723D01*
X134920540Y-79349727D01*
X135092444Y-79474622D01*
X135101495Y-79479234D01*
X135152292Y-79527208D01*
X135169087Y-79595029D01*
X135146550Y-79661164D01*
X135101499Y-79700202D01*
X135092182Y-79704949D01*
X134920213Y-79829890D01*
X134769890Y-79980213D01*
X134644951Y-80152179D01*
X134548444Y-80341585D01*
X134482753Y-80543760D01*
X134449500Y-80753713D01*
X134449500Y-80966286D01*
X134482753Y-81176239D01*
X134548444Y-81378414D01*
X134644951Y-81567820D01*
X134769890Y-81739786D01*
X134920213Y-81890109D01*
X135092182Y-82015050D01*
X135100946Y-82019516D01*
X135151742Y-82067491D01*
X135168536Y-82135312D01*
X135145998Y-82201447D01*
X135100946Y-82240484D01*
X135092182Y-82244949D01*
X134920213Y-82369890D01*
X134769890Y-82520213D01*
X134644951Y-82692179D01*
X134548444Y-82881585D01*
X134482753Y-83083760D01*
X134449500Y-83293713D01*
X134449500Y-83506286D01*
X134482753Y-83716239D01*
X134548444Y-83918414D01*
X134644951Y-84107820D01*
X134769890Y-84279786D01*
X134920213Y-84430109D01*
X135092182Y-84555050D01*
X135100946Y-84559516D01*
X135151742Y-84607491D01*
X135168536Y-84675312D01*
X135145998Y-84741447D01*
X135100946Y-84780484D01*
X135092182Y-84784949D01*
X134920213Y-84909890D01*
X134769890Y-85060213D01*
X134644951Y-85232179D01*
X134548444Y-85421585D01*
X134482753Y-85623760D01*
X134449500Y-85833713D01*
X134449500Y-86046286D01*
X134482754Y-86256244D01*
X134482754Y-86256247D01*
X134496491Y-86298523D01*
X134498486Y-86368364D01*
X134466241Y-86424522D01*
X134280286Y-86610478D01*
X134168481Y-86722282D01*
X134168479Y-86722285D01*
X134118361Y-86809094D01*
X134118359Y-86809096D01*
X134089425Y-86859209D01*
X134089424Y-86859210D01*
X134089423Y-86859215D01*
X134048499Y-87011943D01*
X134048499Y-87170057D01*
X134048499Y-87170059D01*
X134048500Y-87180058D01*
X134048500Y-91410090D01*
X134048499Y-91410108D01*
X134048499Y-91575814D01*
X134048498Y-91575814D01*
X132986034Y-91575814D01*
X132986034Y-62065890D01*
X132986035Y-62065887D01*
X132986034Y-62002695D01*
X132986152Y-61997291D01*
X132988910Y-61934108D01*
X132993111Y-61837860D01*
X134185034Y-61837860D01*
X134185034Y-62162139D01*
X134216818Y-62484857D01*
X134216821Y-62484874D01*
X134280079Y-62802902D01*
X134280082Y-62802913D01*
X134374220Y-63113247D01*
X134498320Y-63412849D01*
X134498322Y-63412854D01*
X134651180Y-63698830D01*
X134651191Y-63698848D01*
X134831345Y-63968467D01*
X134831355Y-63968481D01*
X135037080Y-64219158D01*
X135266375Y-64448453D01*
X135266380Y-64448457D01*
X135266381Y-64448458D01*
X135517058Y-64654183D01*
X135786692Y-64834347D01*
X135786701Y-64834352D01*
X135786703Y-64834353D01*
X136072679Y-64987211D01*
X136072681Y-64987211D01*
X136072687Y-64987215D01*
X136372288Y-65111314D01*
X136682611Y-65205449D01*
X136682617Y-65205450D01*
X136682620Y-65205451D01*
X136682631Y-65205454D01*
X136882062Y-65245122D01*
X137000666Y-65268714D01*
X137323391Y-65300500D01*
X137323394Y-65300500D01*
X137647674Y-65300500D01*
X137647677Y-65300500D01*
X137970402Y-65268714D01*
X138127829Y-65237399D01*
X138288436Y-65205454D01*
X138288447Y-65205451D01*
X138288447Y-65205450D01*
X138288457Y-65205449D01*
X138598780Y-65111314D01*
X138898381Y-64987215D01*
X139184376Y-64834347D01*
X139454010Y-64654183D01*
X139704687Y-64448458D01*
X139933992Y-64219153D01*
X140139717Y-63968476D01*
X140319881Y-63698842D01*
X140472749Y-63412847D01*
X140596848Y-63113246D01*
X140690983Y-62802923D01*
X140690985Y-62802913D01*
X140690988Y-62802902D01*
X140722933Y-62642295D01*
X140754248Y-62484868D01*
X140786034Y-62162143D01*
X140786034Y-61837860D01*
X212035034Y-61837860D01*
X212035034Y-62162139D01*
X212066818Y-62484857D01*
X212066821Y-62484874D01*
X212130079Y-62802902D01*
X212130082Y-62802913D01*
X212224220Y-63113247D01*
X212348320Y-63412849D01*
X212348322Y-63412854D01*
X212501180Y-63698830D01*
X212501191Y-63698848D01*
X212681345Y-63968467D01*
X212681355Y-63968481D01*
X212887080Y-64219158D01*
X213116375Y-64448453D01*
X213116380Y-64448457D01*
X213116381Y-64448458D01*
X213367058Y-64654183D01*
X213636692Y-64834347D01*
X213636701Y-64834352D01*
X213636703Y-64834353D01*
X213922679Y-64987211D01*
X213922681Y-64987211D01*
X213922687Y-64987215D01*
X214222288Y-65111314D01*
X214532611Y-65205449D01*
X214532617Y-65205450D01*
X214532620Y-65205451D01*
X214532631Y-65205454D01*
X214732062Y-65245122D01*
X214850666Y-65268714D01*
X215173391Y-65300500D01*
X215173394Y-65300500D01*
X215497674Y-65300500D01*
X215497677Y-65300500D01*
X215820402Y-65268714D01*
X215977829Y-65237399D01*
X216138436Y-65205454D01*
X216138447Y-65205451D01*
X216138447Y-65205450D01*
X216138457Y-65205449D01*
X216448780Y-65111314D01*
X216748381Y-64987215D01*
X217034376Y-64834347D01*
X217304010Y-64654183D01*
X217554687Y-64448458D01*
X217783992Y-64219153D01*
X217989717Y-63968476D01*
X218169881Y-63698842D01*
X218322749Y-63412847D01*
X218446848Y-63113246D01*
X218540983Y-62802923D01*
X218540985Y-62802913D01*
X218540988Y-62802902D01*
X218572933Y-62642295D01*
X218604248Y-62484868D01*
X218636034Y-62162143D01*
X218636034Y-61837857D01*
X218604248Y-61515132D01*
X218565245Y-61319049D01*
X218540988Y-61197097D01*
X218540985Y-61197086D01*
X218540984Y-61197083D01*
X218540983Y-61197077D01*
X218446848Y-60886754D01*
X218322749Y-60587153D01*
X218238301Y-60429163D01*
X218169887Y-60301169D01*
X218169886Y-60301167D01*
X218169881Y-60301158D01*
X217989717Y-60031524D01*
X217783992Y-59780847D01*
X217783991Y-59780846D01*
X217783987Y-59780841D01*
X217554692Y-59551546D01*
X217304015Y-59345821D01*
X217304014Y-59345820D01*
X217304010Y-59345817D01*
X217034376Y-59165653D01*
X217034371Y-59165650D01*
X217034364Y-59165646D01*
X216748388Y-59012788D01*
X216748383Y-59012786D01*
X216448781Y-58888686D01*
X216138447Y-58794548D01*
X216138436Y-58794545D01*
X215820408Y-58731287D01*
X215820391Y-58731284D01*
X215576346Y-58707248D01*
X215497677Y-58699500D01*
X215173391Y-58699500D01*
X215100633Y-58706666D01*
X214850676Y-58731284D01*
X214850659Y-58731287D01*
X214532631Y-58794545D01*
X214532620Y-58794548D01*
X214222286Y-58888686D01*
X213922684Y-59012786D01*
X213922679Y-59012788D01*
X213636703Y-59165646D01*
X213636685Y-59165657D01*
X213367066Y-59345811D01*
X213367052Y-59345821D01*
X213116375Y-59551546D01*
X212887080Y-59780841D01*
X212681355Y-60031518D01*
X212681345Y-60031532D01*
X212501191Y-60301151D01*
X212501180Y-60301169D01*
X212348322Y-60587145D01*
X212348320Y-60587150D01*
X212224220Y-60886752D01*
X212130082Y-61197086D01*
X212130079Y-61197097D01*
X212066821Y-61515125D01*
X212066818Y-61515142D01*
X212042200Y-61765099D01*
X212035867Y-61829406D01*
X212035034Y-61837860D01*
X140786034Y-61837860D01*
X140786034Y-61837857D01*
X140754248Y-61515132D01*
X140715245Y-61319049D01*
X140690988Y-61197097D01*
X140690985Y-61197086D01*
X140690984Y-61197083D01*
X140690983Y-61197077D01*
X140596848Y-60886754D01*
X140472749Y-60587153D01*
X140388301Y-60429163D01*
X140319887Y-60301169D01*
X140319886Y-60301167D01*
X140319881Y-60301158D01*
X140139717Y-60031524D01*
X139933992Y-59780847D01*
X139933991Y-59780846D01*
X139933987Y-59780841D01*
X139704692Y-59551546D01*
X139454015Y-59345821D01*
X139454014Y-59345820D01*
X139454010Y-59345817D01*
X139184376Y-59165653D01*
X139184371Y-59165650D01*
X139184364Y-59165646D01*
X138898388Y-59012788D01*
X138898383Y-59012786D01*
X138598781Y-58888686D01*
X138288447Y-58794548D01*
X138288436Y-58794545D01*
X137970408Y-58731287D01*
X137970391Y-58731284D01*
X137726346Y-58707248D01*
X137647677Y-58699500D01*
X137323391Y-58699500D01*
X137250633Y-58706666D01*
X137000676Y-58731284D01*
X137000659Y-58731287D01*
X136682631Y-58794545D01*
X136682620Y-58794548D01*
X136372286Y-58888686D01*
X136072684Y-59012786D01*
X136072679Y-59012788D01*
X135786703Y-59165646D01*
X135786685Y-59165657D01*
X135517066Y-59345811D01*
X135517052Y-59345821D01*
X135266375Y-59551546D01*
X135037080Y-59780841D01*
X134831355Y-60031518D01*
X134831345Y-60031532D01*
X134651191Y-60301151D01*
X134651180Y-60301169D01*
X134498322Y-60587145D01*
X134498320Y-60587150D01*
X134374220Y-60886752D01*
X134280082Y-61197086D01*
X134280079Y-61197097D01*
X134216821Y-61515125D01*
X134216818Y-61515142D01*
X134192200Y-61765099D01*
X134185867Y-61829406D01*
X134185034Y-61837860D01*
X132993111Y-61837860D01*
X133002916Y-61613240D01*
X133003859Y-61602466D01*
X133015357Y-61515125D01*
X133053680Y-61224013D01*
X133055550Y-61213405D01*
X133138172Y-60840705D01*
X133140969Y-60830270D01*
X133217625Y-60587145D01*
X133255748Y-60466228D01*
X133259448Y-60456065D01*
X133323607Y-60301169D01*
X133405523Y-60103403D01*
X133410080Y-60093631D01*
X133586344Y-59755026D01*
X133591737Y-59745685D01*
X133796844Y-59423728D01*
X133803034Y-59414889D01*
X134035406Y-59112056D01*
X134042356Y-59103773D01*
X134125731Y-59012785D01*
X134300256Y-58822323D01*
X134307871Y-58814709D01*
X134589311Y-58556816D01*
X134597579Y-58549878D01*
X134900425Y-58317498D01*
X134909265Y-58311308D01*
X135231222Y-58106199D01*
X135240567Y-58100804D01*
X135579163Y-57924543D01*
X135588941Y-57919984D01*
X135941602Y-57773909D01*
X135951765Y-57770210D01*
X136315826Y-57655424D01*
X136326229Y-57652637D01*
X136698932Y-57570013D01*
X136709555Y-57568140D01*
X137088001Y-57518319D01*
X137098774Y-57517377D01*
X137482690Y-57500617D01*
X137488095Y-57500500D01*
X137551422Y-57500501D01*
X137551426Y-57500500D01*
X215269638Y-57500500D01*
X215332824Y-57500500D01*
X215338233Y-57500618D01*
G37*
%TD.AperFunction*%
%TD*%
M02*
