%TF.GenerationSoftware,KiCad,Pcbnew,9.0.0*%
%TF.CreationDate,2025-06-04T23:48:26+02:00*%
%TF.ProjectId,uv_controler,75765f63-6f6e-4747-926f-6c65722e6b69,rev?*%
%TF.SameCoordinates,Original*%
%TF.FileFunction,Copper,L2,Bot*%
%TF.FilePolarity,Positive*%
%FSLAX46Y46*%
G04 Gerber Fmt 4.6, Leading zero omitted, Abs format (unit mm)*
G04 Created by KiCad (PCBNEW 9.0.0) date 2025-06-04 23:48:26*
%MOMM*%
%LPD*%
G01*
G04 APERTURE LIST*
%TA.AperFunction,ComponentPad*%
%ADD10O,1.050000X1.300000*%
%TD*%
%TA.AperFunction,ComponentPad*%
%ADD11R,1.050000X1.300000*%
%TD*%
%TA.AperFunction,ComponentPad*%
%ADD12C,5.600000*%
%TD*%
%TA.AperFunction,ComponentPad*%
%ADD13O,1.700000X1.700000*%
%TD*%
%TA.AperFunction,ComponentPad*%
%ADD14R,1.700000X1.700000*%
%TD*%
%TA.AperFunction,Conductor*%
%ADD15C,0.500000*%
%TD*%
%TA.AperFunction,Conductor*%
%ADD16C,0.200000*%
%TD*%
G04 APERTURE END LIST*
D10*
%TO.P,U8,3,OUTPUT*%
%TO.N,/SPEED_TOGGLE_D*%
X170175534Y-68397500D03*
%TO.P,U8,2,GND*%
%TO.N,GND1*%
X168905534Y-68397500D03*
D11*
%TO.P,U8,1,SUPPLY*%
%TO.N,+5VA*%
X167635534Y-68397500D03*
%TD*%
D12*
%TO.P,REF\u002A\u002A,1*%
%TO.N,N/C*%
X215335534Y-112000000D03*
%TD*%
D13*
%TO.P,J3,10,Pin_10*%
%TO.N,unconnected-(J3-Pin_10-Pad10)*%
X135800000Y-98640000D03*
%TO.P,J3,9,Pin_9*%
%TO.N,/UTIL_D*%
X135800000Y-96100000D03*
%TO.P,J3,8,Pin_8*%
%TO.N,/LIGHTS_TOGGLE_D*%
X135800000Y-93560000D03*
%TO.P,J3,7,Pin_7*%
%TO.N,/SPEED_TOGGLE_D*%
X135800000Y-91020000D03*
%TO.P,J3,6,Pin_6*%
%TO.N,/CAM_DOWN_D*%
X135800000Y-88480000D03*
%TO.P,J3,5,Pin_5*%
%TO.N,/CAM_UP_D*%
X135800000Y-85940000D03*
%TO.P,J3,4,Pin_4*%
%TO.N,/DOWN_D*%
X135800000Y-83400000D03*
%TO.P,J3,3,Pin_3*%
%TO.N,/UP_D*%
X135800000Y-80860000D03*
%TO.P,J3,2,Pin_2*%
%TO.N,GND1*%
X135800000Y-78320000D03*
D14*
%TO.P,J3,1,Pin_1*%
%TO.N,+5VA*%
X135800000Y-75780000D03*
%TD*%
D10*
%TO.P,U3,3,OUTPUT*%
%TO.N,/CAM_UP_D*%
X190175534Y-68397500D03*
%TO.P,U3,2,GND*%
%TO.N,GND1*%
X188905534Y-68397500D03*
D11*
%TO.P,U3,1,SUPPLY*%
%TO.N,+5VA*%
X187635534Y-68397500D03*
%TD*%
D10*
%TO.P,U5,3,OUTPUT*%
%TO.N,/UP_D*%
X210175534Y-68397500D03*
%TO.P,U5,2,GND*%
%TO.N,GND1*%
X208905534Y-68397500D03*
D11*
%TO.P,U5,1,SUPPLY*%
%TO.N,+5VA*%
X207635534Y-68397500D03*
%TD*%
D10*
%TO.P,U4,3,OUTPUT*%
%TO.N,/CAM_DOWN_D*%
X187645534Y-107097500D03*
%TO.P,U4,2,GND*%
%TO.N,GND1*%
X188915534Y-107097500D03*
D11*
%TO.P,U4,1,SUPPLY*%
%TO.N,+5VA*%
X190185534Y-107097500D03*
%TD*%
D12*
%TO.P,REF\u002A\u002A,1*%
%TO.N,N/C*%
X137485534Y-112000000D03*
%TD*%
D10*
%TO.P,U6,3,OUTPUT*%
%TO.N,/UTIL_D*%
X147645534Y-107097500D03*
%TO.P,U6,2,GND*%
%TO.N,GND1*%
X148915534Y-107097500D03*
D11*
%TO.P,U6,1,SUPPLY*%
%TO.N,+5VA*%
X150185534Y-107097500D03*
%TD*%
D10*
%TO.P,U7,3,OUTPUT*%
%TO.N,/LIGHTS_TOGGLE_D*%
X167645534Y-107097500D03*
%TO.P,U7,2,GND*%
%TO.N,GND1*%
X168915534Y-107097500D03*
D11*
%TO.P,U7,1,SUPPLY*%
%TO.N,+5VA*%
X170185534Y-107097500D03*
%TD*%
D12*
%TO.P,REF\u002A\u002A,1*%
%TO.N,N/C*%
X137485534Y-62000000D03*
%TD*%
D10*
%TO.P,U2,3,OUTPUT*%
%TO.N,/DOWN_D*%
X207645534Y-107097500D03*
%TO.P,U2,2,GND*%
%TO.N,GND1*%
X208915534Y-107097500D03*
D11*
%TO.P,U2,1,SUPPLY*%
%TO.N,+5VA*%
X210185534Y-107097500D03*
%TD*%
D12*
%TO.P,REF\u002A\u002A,1*%
%TO.N,N/C*%
X215335534Y-62000000D03*
%TD*%
D15*
%TO.N,+5VA*%
X169200000Y-108500000D02*
X169933034Y-108500000D01*
X135800000Y-75780000D02*
X133600000Y-77980000D01*
X189018306Y-108500000D02*
X169933034Y-108500000D01*
X135800000Y-75780000D02*
X160253034Y-75780000D01*
X133600000Y-77980000D02*
X133600000Y-98279892D01*
D16*
%TO.N,/DOWN_D*%
X186300000Y-104300000D02*
X169400000Y-87400000D01*
D15*
%TO.N,+5VA*%
X150185534Y-108014466D02*
X150185534Y-107097500D01*
X170185534Y-107514466D02*
X169200000Y-108500000D01*
X170185534Y-107097500D02*
X170185534Y-107514466D01*
X176120000Y-75780000D02*
X183502500Y-68397500D01*
D16*
%TO.N,/DOWN_D*%
X207645534Y-107097500D02*
X204848034Y-104300000D01*
D15*
%TO.N,+5VA*%
X200253034Y-75780000D02*
X207635534Y-68397500D01*
X190185534Y-107332772D02*
X189018306Y-108500000D01*
X183502500Y-68397500D02*
X187635534Y-68397500D01*
X150185534Y-106862228D02*
X150185534Y-107097500D01*
X160253034Y-75780000D02*
X167635534Y-68397500D01*
X209018306Y-108500000D02*
X210185534Y-107332772D01*
X176120000Y-75780000D02*
X200253034Y-75780000D01*
X143820108Y-108500000D02*
X149700000Y-108500000D01*
X149700000Y-108500000D02*
X169200000Y-108500000D01*
X170185534Y-106862228D02*
X170185534Y-107097500D01*
X160253034Y-75780000D02*
X176120000Y-75780000D01*
D16*
%TO.N,/CAM_DOWN_D*%
X169028034Y-88480000D02*
X135800000Y-88480000D01*
%TO.N,/UP_D*%
X210175534Y-68397500D02*
X210175534Y-69024466D01*
X210175534Y-69024466D02*
X193000000Y-86200000D01*
%TO.N,/DOWN_D*%
X204848034Y-104300000D02*
X186300000Y-104300000D01*
%TO.N,/UP_D*%
X193000000Y-86200000D02*
X141140000Y-86200000D01*
X141140000Y-86200000D02*
X135800000Y-80860000D01*
D15*
%TO.N,+5VA*%
X149700000Y-108500000D02*
X150185534Y-108014466D01*
X210185534Y-107332772D02*
X210185534Y-107097500D01*
X188400000Y-108500000D02*
X209018306Y-108500000D01*
D16*
%TO.N,/DOWN_D*%
X169400000Y-87400000D02*
X139800000Y-87400000D01*
%TO.N,/CAM_DOWN_D*%
X187645534Y-107097500D02*
X169028034Y-88480000D01*
D15*
%TO.N,+5VA*%
X133600000Y-98279892D02*
X143820108Y-108500000D01*
D16*
%TO.N,/DOWN_D*%
X139800000Y-87400000D02*
X135800000Y-83400000D01*
D15*
%TO.N,+5VA*%
X190185534Y-107097500D02*
X190185534Y-107332772D01*
%TD*%
%TA.AperFunction,Conductor*%
%TO.N,GND1*%
G36*
X215338233Y-57500618D02*
G01*
X215722295Y-57517388D01*
X215733037Y-57518328D01*
X216111497Y-57568156D01*
X216122124Y-57570029D01*
X216494802Y-57652652D01*
X216505240Y-57655449D01*
X216869288Y-57770235D01*
X216879438Y-57773930D01*
X217155332Y-57888211D01*
X217232091Y-57920006D01*
X217241895Y-57924578D01*
X217580474Y-58100833D01*
X217589821Y-58106229D01*
X217874808Y-58287788D01*
X217911751Y-58311324D01*
X217920612Y-58317528D01*
X218223405Y-58549871D01*
X218223442Y-58549899D01*
X218231729Y-58556853D01*
X218513146Y-58814726D01*
X218520795Y-58822375D01*
X218778671Y-59103800D01*
X218785624Y-59112087D01*
X219017982Y-59414904D01*
X219024187Y-59423765D01*
X219229280Y-59745698D01*
X219234688Y-59755066D01*
X219410933Y-60093631D01*
X219415505Y-60103435D01*
X219561576Y-60456082D01*
X219565275Y-60466245D01*
X219603397Y-60587153D01*
X219680057Y-60830285D01*
X219682853Y-60840719D01*
X219689401Y-60870253D01*
X219765472Y-61213391D01*
X219767350Y-61224044D01*
X219817171Y-61602474D01*
X219818114Y-61613250D01*
X219834916Y-61998067D01*
X219835034Y-62003476D01*
X219835034Y-111997293D01*
X219834916Y-112002702D01*
X219818148Y-112386753D01*
X219817205Y-112397529D01*
X219767384Y-112775958D01*
X219765506Y-112786612D01*
X219682887Y-113159279D01*
X219680087Y-113169727D01*
X219565309Y-113533760D01*
X219561609Y-113543926D01*
X219415536Y-113896579D01*
X219410964Y-113906383D01*
X219234718Y-114244950D01*
X219229310Y-114254318D01*
X219024215Y-114576254D01*
X219018010Y-114585115D01*
X218785650Y-114887934D01*
X218778697Y-114896221D01*
X218520819Y-115177648D01*
X218513170Y-115185297D01*
X218231745Y-115443178D01*
X218223464Y-115450126D01*
X218082859Y-115558018D01*
X217920640Y-115682494D01*
X217911779Y-115688698D01*
X217589849Y-115893793D01*
X217580480Y-115899202D01*
X217241913Y-116075449D01*
X217232110Y-116080021D01*
X216879454Y-116226099D01*
X216869288Y-116229799D01*
X216505254Y-116344580D01*
X216494805Y-116347380D01*
X216122143Y-116430000D01*
X216111490Y-116431878D01*
X215733058Y-116481702D01*
X215722282Y-116482645D01*
X215339012Y-116499382D01*
X215333602Y-116499500D01*
X137559031Y-116499500D01*
X137551426Y-116499499D01*
X137551423Y-116499499D01*
X137520961Y-116499499D01*
X137488233Y-116499499D01*
X137488232Y-116499498D01*
X137482827Y-116499381D01*
X137103017Y-116482802D01*
X137098777Y-116482616D01*
X137088002Y-116481674D01*
X136709750Y-116431878D01*
X136709568Y-116431854D01*
X136698915Y-116429976D01*
X136326250Y-116347361D01*
X136315801Y-116344561D01*
X135951763Y-116229781D01*
X135941598Y-116226081D01*
X135612278Y-116089675D01*
X135588954Y-116080014D01*
X135579152Y-116075444D01*
X135240571Y-115899192D01*
X135231202Y-115893783D01*
X135129833Y-115829204D01*
X134909263Y-115688687D01*
X134900415Y-115682490D01*
X134738197Y-115558018D01*
X134597589Y-115450126D01*
X134589302Y-115443173D01*
X134398909Y-115268712D01*
X134307863Y-115185284D01*
X134300220Y-115177640D01*
X134239443Y-115111314D01*
X134042349Y-114896224D01*
X134035397Y-114887939D01*
X133803026Y-114585110D01*
X133796821Y-114576248D01*
X133591726Y-114254314D01*
X133586332Y-114244973D01*
X133410073Y-113906383D01*
X133405501Y-113896579D01*
X133259427Y-113543929D01*
X133255727Y-113533764D01*
X133255726Y-113533760D01*
X133140943Y-113169715D01*
X133138147Y-113159279D01*
X133055526Y-112786604D01*
X133053650Y-112775958D01*
X133041143Y-112680956D01*
X133003826Y-112397508D01*
X133002886Y-112386771D01*
X132986152Y-112003479D01*
X132986034Y-111998071D01*
X132986034Y-111837857D01*
X134185034Y-111837857D01*
X134185034Y-112162143D01*
X134194588Y-112259152D01*
X134216818Y-112484857D01*
X134216821Y-112484874D01*
X134280079Y-112802902D01*
X134280082Y-112802913D01*
X134374220Y-113113247D01*
X134498320Y-113412849D01*
X134498322Y-113412854D01*
X134651180Y-113698830D01*
X134651191Y-113698848D01*
X134831345Y-113968467D01*
X134831355Y-113968481D01*
X135037080Y-114219158D01*
X135266375Y-114448453D01*
X135266380Y-114448457D01*
X135266381Y-114448458D01*
X135517058Y-114654183D01*
X135786692Y-114834347D01*
X135786701Y-114834352D01*
X135786703Y-114834353D01*
X136072679Y-114987211D01*
X136072681Y-114987211D01*
X136072687Y-114987215D01*
X136372288Y-115111314D01*
X136682611Y-115205449D01*
X136682617Y-115205450D01*
X136682620Y-115205451D01*
X136682631Y-115205454D01*
X136882062Y-115245122D01*
X137000666Y-115268714D01*
X137323391Y-115300500D01*
X137323394Y-115300500D01*
X137647674Y-115300500D01*
X137647677Y-115300500D01*
X137970402Y-115268714D01*
X138127829Y-115237399D01*
X138288436Y-115205454D01*
X138288447Y-115205451D01*
X138288447Y-115205450D01*
X138288457Y-115205449D01*
X138598780Y-115111314D01*
X138898381Y-114987215D01*
X139184376Y-114834347D01*
X139454010Y-114654183D01*
X139704687Y-114448458D01*
X139933992Y-114219153D01*
X140139717Y-113968476D01*
X140319881Y-113698842D01*
X140472749Y-113412847D01*
X140596848Y-113113246D01*
X140690983Y-112802923D01*
X140690985Y-112802913D01*
X140690988Y-112802902D01*
X140722933Y-112642295D01*
X140754248Y-112484868D01*
X140786034Y-112162143D01*
X140786034Y-111837857D01*
X212035034Y-111837857D01*
X212035034Y-112162143D01*
X212044588Y-112259152D01*
X212066818Y-112484857D01*
X212066821Y-112484874D01*
X212130079Y-112802902D01*
X212130082Y-112802913D01*
X212224220Y-113113247D01*
X212348320Y-113412849D01*
X212348322Y-113412854D01*
X212501180Y-113698830D01*
X212501191Y-113698848D01*
X212681345Y-113968467D01*
X212681355Y-113968481D01*
X212887080Y-114219158D01*
X213116375Y-114448453D01*
X213116380Y-114448457D01*
X213116381Y-114448458D01*
X213367058Y-114654183D01*
X213636692Y-114834347D01*
X213636701Y-114834352D01*
X213636703Y-114834353D01*
X213922679Y-114987211D01*
X213922681Y-114987211D01*
X213922687Y-114987215D01*
X214222288Y-115111314D01*
X214532611Y-115205449D01*
X214532617Y-115205450D01*
X214532620Y-115205451D01*
X214532631Y-115205454D01*
X214732062Y-115245122D01*
X214850666Y-115268714D01*
X215173391Y-115300500D01*
X215173394Y-115300500D01*
X215497674Y-115300500D01*
X215497677Y-115300500D01*
X215820402Y-115268714D01*
X215977829Y-115237399D01*
X216138436Y-115205454D01*
X216138447Y-115205451D01*
X216138447Y-115205450D01*
X216138457Y-115205449D01*
X216448780Y-115111314D01*
X216748381Y-114987215D01*
X217034376Y-114834347D01*
X217304010Y-114654183D01*
X217554687Y-114448458D01*
X217783992Y-114219153D01*
X217989717Y-113968476D01*
X218169881Y-113698842D01*
X218322749Y-113412847D01*
X218446848Y-113113246D01*
X218540983Y-112802923D01*
X218540985Y-112802913D01*
X218540988Y-112802902D01*
X218572933Y-112642295D01*
X218604248Y-112484868D01*
X218636034Y-112162143D01*
X218636034Y-111837857D01*
X218604248Y-111515132D01*
X218580656Y-111396528D01*
X218540988Y-111197097D01*
X218540985Y-111197086D01*
X218540984Y-111197083D01*
X218540983Y-111197077D01*
X218446848Y-110886754D01*
X218322749Y-110587153D01*
X218169881Y-110301158D01*
X217989717Y-110031524D01*
X217783992Y-109780847D01*
X217783991Y-109780846D01*
X217783987Y-109780841D01*
X217554692Y-109551546D01*
X217304015Y-109345821D01*
X217304014Y-109345820D01*
X217304010Y-109345817D01*
X217034376Y-109165653D01*
X217034371Y-109165650D01*
X217034364Y-109165646D01*
X216748388Y-109012788D01*
X216748383Y-109012786D01*
X216448781Y-108888686D01*
X216138447Y-108794548D01*
X216138436Y-108794545D01*
X215820408Y-108731287D01*
X215820391Y-108731284D01*
X215576346Y-108707248D01*
X215497677Y-108699500D01*
X215173391Y-108699500D01*
X215100633Y-108706666D01*
X214850676Y-108731284D01*
X214850659Y-108731287D01*
X214532631Y-108794545D01*
X214532620Y-108794548D01*
X214222286Y-108888686D01*
X213922684Y-109012786D01*
X213922679Y-109012788D01*
X213636703Y-109165646D01*
X213636685Y-109165657D01*
X213367066Y-109345811D01*
X213367052Y-109345821D01*
X213116375Y-109551546D01*
X212887080Y-109780841D01*
X212681355Y-110031518D01*
X212681345Y-110031532D01*
X212501191Y-110301151D01*
X212501180Y-110301169D01*
X212348322Y-110587145D01*
X212348320Y-110587150D01*
X212224220Y-110886752D01*
X212130082Y-111197086D01*
X212130079Y-111197097D01*
X212066821Y-111515125D01*
X212066818Y-111515142D01*
X212042200Y-111765099D01*
X212035034Y-111837857D01*
X140786034Y-111837857D01*
X140754248Y-111515132D01*
X140730656Y-111396528D01*
X140690988Y-111197097D01*
X140690985Y-111197086D01*
X140690984Y-111197083D01*
X140690983Y-111197077D01*
X140596848Y-110886754D01*
X140472749Y-110587153D01*
X140319881Y-110301158D01*
X140139717Y-110031524D01*
X139933992Y-109780847D01*
X139933991Y-109780846D01*
X139933987Y-109780841D01*
X139704692Y-109551546D01*
X139454015Y-109345821D01*
X139454014Y-109345820D01*
X139454010Y-109345817D01*
X139184376Y-109165653D01*
X139184371Y-109165650D01*
X139184364Y-109165646D01*
X138898388Y-109012788D01*
X138898383Y-109012786D01*
X138598781Y-108888686D01*
X138288447Y-108794548D01*
X138288436Y-108794545D01*
X137970408Y-108731287D01*
X137970391Y-108731284D01*
X137726346Y-108707248D01*
X137647677Y-108699500D01*
X137323391Y-108699500D01*
X137250633Y-108706666D01*
X137000676Y-108731284D01*
X137000659Y-108731287D01*
X136682631Y-108794545D01*
X136682620Y-108794548D01*
X136372286Y-108888686D01*
X136072684Y-109012786D01*
X136072679Y-109012788D01*
X135786703Y-109165646D01*
X135786685Y-109165657D01*
X135517066Y-109345811D01*
X135517052Y-109345821D01*
X135266375Y-109551546D01*
X135037080Y-109780841D01*
X134831355Y-110031518D01*
X134831345Y-110031532D01*
X134651191Y-110301151D01*
X134651180Y-110301169D01*
X134498322Y-110587145D01*
X134498320Y-110587150D01*
X134374220Y-110886752D01*
X134280082Y-111197086D01*
X134280079Y-111197097D01*
X134216821Y-111515125D01*
X134216818Y-111515142D01*
X134192200Y-111765099D01*
X134185034Y-111837857D01*
X132986034Y-111837857D01*
X132986034Y-99026656D01*
X133005719Y-98959617D01*
X133058523Y-98913862D01*
X133127681Y-98903918D01*
X133191237Y-98932943D01*
X133197715Y-98938975D01*
X143341688Y-109082948D01*
X143341692Y-109082951D01*
X143464606Y-109165080D01*
X143464619Y-109165087D01*
X143601190Y-109221656D01*
X143601195Y-109221658D01*
X143601199Y-109221658D01*
X143601200Y-109221659D01*
X143746187Y-109250500D01*
X143746190Y-109250500D01*
X209092226Y-109250500D01*
X209189768Y-109231096D01*
X209237219Y-109221658D01*
X209373801Y-109165084D01*
X209423035Y-109132186D01*
X209496722Y-109082952D01*
X210295354Y-108284317D01*
X210356677Y-108250833D01*
X210383035Y-108247999D01*
X210758405Y-108247999D01*
X210758406Y-108247999D01*
X210818017Y-108241591D01*
X210952865Y-108191296D01*
X211068080Y-108105046D01*
X211154330Y-107989831D01*
X211204625Y-107854983D01*
X211211034Y-107795373D01*
X211211033Y-106399628D01*
X211204625Y-106340017D01*
X211196704Y-106318781D01*
X211154331Y-106205171D01*
X211154327Y-106205164D01*
X211068081Y-106089955D01*
X211068078Y-106089952D01*
X210952869Y-106003706D01*
X210952862Y-106003702D01*
X210818016Y-105953408D01*
X210818017Y-105953408D01*
X210758417Y-105947001D01*
X210758415Y-105947000D01*
X210758407Y-105947000D01*
X210758398Y-105947000D01*
X209612663Y-105947000D01*
X209612657Y-105947001D01*
X209553050Y-105953408D01*
X209418205Y-106003702D01*
X209418200Y-106003705D01*
X209416630Y-106004881D01*
X209414792Y-106005566D01*
X209410420Y-106007954D01*
X209410076Y-106007325D01*
X209351165Y-106029296D01*
X209294870Y-106020173D01*
X209214518Y-105986890D01*
X209214511Y-105986888D01*
X209165534Y-105977145D01*
X209165534Y-106341829D01*
X209164823Y-106355084D01*
X209160035Y-106399623D01*
X209160034Y-106399637D01*
X209160034Y-106811670D01*
X209145789Y-106797425D01*
X209060279Y-106748056D01*
X208964904Y-106722500D01*
X208866164Y-106722500D01*
X208770789Y-106748056D01*
X208685279Y-106797425D01*
X208665534Y-106817170D01*
X208665534Y-105977146D01*
X208665533Y-105977145D01*
X208616556Y-105986888D01*
X208616549Y-105986890D01*
X208430015Y-106064154D01*
X208430013Y-106064155D01*
X208349871Y-106117704D01*
X208283194Y-106138581D01*
X208215814Y-106120096D01*
X208212092Y-106117704D01*
X208131288Y-106063712D01*
X207944661Y-105986409D01*
X207944653Y-105986407D01*
X207746541Y-105947000D01*
X207746537Y-105947000D01*
X207544531Y-105947000D01*
X207512315Y-105953408D01*
X207442498Y-105967295D01*
X207372907Y-105961066D01*
X207330627Y-105933358D01*
X205335624Y-103938355D01*
X205335622Y-103938352D01*
X205216751Y-103819481D01*
X205216750Y-103819480D01*
X205129938Y-103769360D01*
X205129938Y-103769359D01*
X205129934Y-103769358D01*
X205079819Y-103740423D01*
X204927091Y-103699499D01*
X204768977Y-103699499D01*
X204761381Y-103699499D01*
X204761365Y-103699500D01*
X186600097Y-103699500D01*
X186533058Y-103679815D01*
X186512416Y-103663181D01*
X169887590Y-87038355D01*
X169880521Y-87031286D01*
X169880520Y-87031284D01*
X169861413Y-87012177D01*
X169827931Y-86950856D01*
X169831811Y-86896619D01*
X169832916Y-86881166D01*
X169846520Y-86862994D01*
X169874789Y-86825231D01*
X169919674Y-86808491D01*
X169940252Y-86800816D01*
X169949098Y-86800500D01*
X192913331Y-86800500D01*
X192913347Y-86800501D01*
X192920943Y-86800501D01*
X193079054Y-86800501D01*
X193079057Y-86800501D01*
X193231785Y-86759577D01*
X193305289Y-86717139D01*
X193368716Y-86680520D01*
X193480520Y-86568716D01*
X193480520Y-86568714D01*
X193490724Y-86558511D01*
X193490728Y-86558506D01*
X210544247Y-69504987D01*
X210544250Y-69504986D01*
X210569866Y-69479368D01*
X210569868Y-69479368D01*
X210610088Y-69452494D01*
X210661290Y-69431286D01*
X210829252Y-69319058D01*
X210972092Y-69176218D01*
X211084320Y-69008256D01*
X211161625Y-68821627D01*
X211201034Y-68623503D01*
X211201034Y-68171497D01*
X211161625Y-67973373D01*
X211084320Y-67786744D01*
X211084316Y-67786737D01*
X210972092Y-67618781D01*
X210829252Y-67475941D01*
X210661296Y-67363717D01*
X210661286Y-67363712D01*
X210474661Y-67286409D01*
X210474653Y-67286407D01*
X210276541Y-67247000D01*
X210276537Y-67247000D01*
X210074531Y-67247000D01*
X210074526Y-67247000D01*
X209876414Y-67286407D01*
X209876406Y-67286409D01*
X209689777Y-67363714D01*
X209608973Y-67417704D01*
X209542295Y-67438581D01*
X209474916Y-67420095D01*
X209471193Y-67417703D01*
X209391060Y-67364159D01*
X209391047Y-67364152D01*
X209204518Y-67286890D01*
X209204511Y-67286888D01*
X209155534Y-67277145D01*
X209155534Y-68117170D01*
X209135789Y-68097425D01*
X209050279Y-68048056D01*
X208954904Y-68022500D01*
X208856164Y-68022500D01*
X208760789Y-68048056D01*
X208675279Y-68097425D01*
X208661033Y-68111671D01*
X208661033Y-67699628D01*
X208661032Y-67699623D01*
X208661031Y-67699616D01*
X208656244Y-67655077D01*
X208655534Y-67641824D01*
X208655534Y-67277146D01*
X208655533Y-67277145D01*
X208606556Y-67286888D01*
X208606549Y-67286890D01*
X208526197Y-67320173D01*
X208456727Y-67327642D01*
X208410811Y-67307654D01*
X208410648Y-67307954D01*
X208407300Y-67306126D01*
X208404433Y-67304877D01*
X208402865Y-67303704D01*
X208402864Y-67303703D01*
X208402862Y-67303702D01*
X208268016Y-67253408D01*
X208268017Y-67253408D01*
X208208417Y-67247001D01*
X208208415Y-67247000D01*
X208208407Y-67247000D01*
X208208398Y-67247000D01*
X207062663Y-67247000D01*
X207062657Y-67247001D01*
X207003050Y-67253408D01*
X206868205Y-67303702D01*
X206868198Y-67303706D01*
X206752989Y-67389952D01*
X206752986Y-67389955D01*
X206666740Y-67505164D01*
X206666736Y-67505171D01*
X206616442Y-67640017D01*
X206610035Y-67699616D01*
X206610034Y-67699628D01*
X206610034Y-68310270D01*
X206590349Y-68377309D01*
X206573715Y-68397951D01*
X199978485Y-74993181D01*
X199917162Y-75026666D01*
X199890804Y-75029500D01*
X178231230Y-75029500D01*
X178164191Y-75009815D01*
X178118436Y-74957011D01*
X178108492Y-74887853D01*
X178137517Y-74824297D01*
X178143549Y-74817819D01*
X183777048Y-69184319D01*
X183838371Y-69150834D01*
X183864729Y-69148000D01*
X186527743Y-69148000D01*
X186594782Y-69167685D01*
X186640537Y-69220489D01*
X186643925Y-69228667D01*
X186666736Y-69289828D01*
X186666740Y-69289835D01*
X186752986Y-69405044D01*
X186752989Y-69405047D01*
X186868198Y-69491293D01*
X186868205Y-69491297D01*
X187003051Y-69541591D01*
X187003050Y-69541591D01*
X187009978Y-69542335D01*
X187062661Y-69548000D01*
X188208406Y-69547999D01*
X188268017Y-69541591D01*
X188402865Y-69491296D01*
X188404427Y-69490126D01*
X188406256Y-69489444D01*
X188410652Y-69487044D01*
X188410996Y-69487675D01*
X188469888Y-69465704D01*
X188526198Y-69474826D01*
X188606551Y-69508109D01*
X188606559Y-69508111D01*
X188655534Y-69517853D01*
X188655534Y-69153171D01*
X188656245Y-69139915D01*
X188661033Y-69095381D01*
X188661034Y-69095373D01*
X188661033Y-68683329D01*
X188675279Y-68697575D01*
X188760789Y-68746944D01*
X188856164Y-68772500D01*
X188954904Y-68772500D01*
X189050279Y-68746944D01*
X189135789Y-68697575D01*
X189155534Y-68677830D01*
X189155534Y-69517852D01*
X189204508Y-69508112D01*
X189204517Y-69508109D01*
X189391049Y-69430846D01*
X189391052Y-69430844D01*
X189471192Y-69377296D01*
X189537869Y-69356417D01*
X189605250Y-69374901D01*
X189608956Y-69377283D01*
X189689778Y-69431286D01*
X189876407Y-69508591D01*
X190042311Y-69541591D01*
X190074526Y-69547999D01*
X190074530Y-69548000D01*
X190074531Y-69548000D01*
X190276538Y-69548000D01*
X190276539Y-69547999D01*
X190474661Y-69508591D01*
X190661290Y-69431286D01*
X190829252Y-69319058D01*
X190972092Y-69176218D01*
X191084320Y-69008256D01*
X191161625Y-68821627D01*
X191201034Y-68623503D01*
X191201034Y-68171497D01*
X191161625Y-67973373D01*
X191084320Y-67786744D01*
X191084316Y-67786737D01*
X190972092Y-67618781D01*
X190829252Y-67475941D01*
X190661296Y-67363717D01*
X190661286Y-67363712D01*
X190474661Y-67286409D01*
X190474653Y-67286407D01*
X190276541Y-67247000D01*
X190276537Y-67247000D01*
X190074531Y-67247000D01*
X190074526Y-67247000D01*
X189876414Y-67286407D01*
X189876406Y-67286409D01*
X189689777Y-67363714D01*
X189608973Y-67417704D01*
X189542295Y-67438581D01*
X189474916Y-67420095D01*
X189471193Y-67417703D01*
X189391060Y-67364159D01*
X189391047Y-67364152D01*
X189204518Y-67286890D01*
X189204511Y-67286888D01*
X189155534Y-67277145D01*
X189155534Y-68117170D01*
X189135789Y-68097425D01*
X189050279Y-68048056D01*
X188954904Y-68022500D01*
X188856164Y-68022500D01*
X188760789Y-68048056D01*
X188675279Y-68097425D01*
X188661033Y-68111670D01*
X188661033Y-67699628D01*
X188656244Y-67655077D01*
X188655534Y-67641824D01*
X188655534Y-67277146D01*
X188655533Y-67277145D01*
X188606556Y-67286888D01*
X188606549Y-67286890D01*
X188526197Y-67320173D01*
X188456727Y-67327642D01*
X188410811Y-67307654D01*
X188410648Y-67307954D01*
X188407300Y-67306126D01*
X188404433Y-67304877D01*
X188402865Y-67303704D01*
X188402864Y-67303703D01*
X188402862Y-67303702D01*
X188268016Y-67253408D01*
X188268017Y-67253408D01*
X188208417Y-67247001D01*
X188208415Y-67247000D01*
X188208407Y-67247000D01*
X188208398Y-67247000D01*
X187062663Y-67247000D01*
X187062657Y-67247001D01*
X187003050Y-67253408D01*
X186868205Y-67303702D01*
X186868198Y-67303706D01*
X186752989Y-67389952D01*
X186752986Y-67389955D01*
X186666740Y-67505164D01*
X186666736Y-67505171D01*
X186643925Y-67566333D01*
X186602054Y-67622267D01*
X186536590Y-67646684D01*
X186527743Y-67647000D01*
X183428576Y-67647000D01*
X183399742Y-67652734D01*
X183399743Y-67652735D01*
X183283593Y-67675839D01*
X183283589Y-67675840D01*
X183226162Y-67699628D01*
X183147006Y-67732415D01*
X183065697Y-67786744D01*
X183024082Y-67814549D01*
X183024079Y-67814552D01*
X175845451Y-74993181D01*
X175784128Y-75026666D01*
X175757770Y-75029500D01*
X162364264Y-75029500D01*
X162297225Y-75009815D01*
X162251470Y-74957011D01*
X162241526Y-74887853D01*
X162270551Y-74824297D01*
X162276583Y-74817819D01*
X167510082Y-69584318D01*
X167571405Y-69550833D01*
X167597763Y-69547999D01*
X168208405Y-69547999D01*
X168208406Y-69547999D01*
X168268017Y-69541591D01*
X168402865Y-69491296D01*
X168404427Y-69490126D01*
X168406256Y-69489444D01*
X168410652Y-69487044D01*
X168410996Y-69487675D01*
X168469888Y-69465704D01*
X168526198Y-69474826D01*
X168606551Y-69508109D01*
X168606559Y-69508111D01*
X168655534Y-69517853D01*
X168655534Y-69153171D01*
X168656245Y-69139915D01*
X168661033Y-69095381D01*
X168661034Y-69095373D01*
X168661033Y-68683329D01*
X168675279Y-68697575D01*
X168760789Y-68746944D01*
X168856164Y-68772500D01*
X168954904Y-68772500D01*
X169050279Y-68746944D01*
X169135789Y-68697575D01*
X169155534Y-68677830D01*
X169155534Y-69517852D01*
X169204508Y-69508112D01*
X169204517Y-69508109D01*
X169391049Y-69430846D01*
X169391052Y-69430844D01*
X169471192Y-69377296D01*
X169537869Y-69356417D01*
X169605250Y-69374901D01*
X169608956Y-69377283D01*
X169689778Y-69431286D01*
X169876407Y-69508591D01*
X170042311Y-69541591D01*
X170074526Y-69547999D01*
X170074530Y-69548000D01*
X170074531Y-69548000D01*
X170276538Y-69548000D01*
X170276539Y-69547999D01*
X170474661Y-69508591D01*
X170661290Y-69431286D01*
X170829252Y-69319058D01*
X170972092Y-69176218D01*
X171084320Y-69008256D01*
X171161625Y-68821627D01*
X171201034Y-68623503D01*
X171201034Y-68171497D01*
X171161625Y-67973373D01*
X171084320Y-67786744D01*
X171084316Y-67786737D01*
X170972092Y-67618781D01*
X170829252Y-67475941D01*
X170661296Y-67363717D01*
X170661286Y-67363712D01*
X170474661Y-67286409D01*
X170474653Y-67286407D01*
X170276541Y-67247000D01*
X170276537Y-67247000D01*
X170074531Y-67247000D01*
X170074526Y-67247000D01*
X169876414Y-67286407D01*
X169876406Y-67286409D01*
X169689777Y-67363714D01*
X169608973Y-67417704D01*
X169542295Y-67438581D01*
X169474916Y-67420095D01*
X169471193Y-67417703D01*
X169391060Y-67364159D01*
X169391047Y-67364152D01*
X169204518Y-67286890D01*
X169204511Y-67286888D01*
X169155534Y-67277145D01*
X169155534Y-68117170D01*
X169135789Y-68097425D01*
X169050279Y-68048056D01*
X168954904Y-68022500D01*
X168856164Y-68022500D01*
X168760789Y-68048056D01*
X168675279Y-68097425D01*
X168661033Y-68111670D01*
X168661033Y-67699628D01*
X168656244Y-67655077D01*
X168655534Y-67641824D01*
X168655534Y-67277146D01*
X168655533Y-67277145D01*
X168606556Y-67286888D01*
X168606549Y-67286890D01*
X168526197Y-67320173D01*
X168456727Y-67327642D01*
X168410811Y-67307654D01*
X168410648Y-67307954D01*
X168407300Y-67306126D01*
X168404433Y-67304877D01*
X168402865Y-67303704D01*
X168402864Y-67303703D01*
X168402862Y-67303702D01*
X168268016Y-67253408D01*
X168268017Y-67253408D01*
X168208417Y-67247001D01*
X168208415Y-67247000D01*
X168208407Y-67247000D01*
X168208398Y-67247000D01*
X167062663Y-67247000D01*
X167062657Y-67247001D01*
X167003050Y-67253408D01*
X166868205Y-67303702D01*
X166868198Y-67303706D01*
X166752989Y-67389952D01*
X166752986Y-67389955D01*
X166666740Y-67505164D01*
X166666736Y-67505171D01*
X166616442Y-67640017D01*
X166610035Y-67699616D01*
X166610034Y-67699628D01*
X166610034Y-68310270D01*
X166590349Y-68377309D01*
X166573715Y-68397951D01*
X159978485Y-74993181D01*
X159917162Y-75026666D01*
X159890804Y-75029500D01*
X137274499Y-75029500D01*
X137207460Y-75009815D01*
X137161705Y-74957011D01*
X137150499Y-74905500D01*
X137150499Y-74882129D01*
X137150498Y-74882123D01*
X137150497Y-74882116D01*
X137144091Y-74822517D01*
X137093796Y-74687669D01*
X137093795Y-74687668D01*
X137093793Y-74687664D01*
X137007547Y-74572455D01*
X137007544Y-74572452D01*
X136892335Y-74486206D01*
X136892328Y-74486202D01*
X136757482Y-74435908D01*
X136757483Y-74435908D01*
X136697883Y-74429501D01*
X136697881Y-74429500D01*
X136697873Y-74429500D01*
X136697864Y-74429500D01*
X134902129Y-74429500D01*
X134902123Y-74429501D01*
X134842516Y-74435908D01*
X134707671Y-74486202D01*
X134707664Y-74486206D01*
X134592455Y-74572452D01*
X134592452Y-74572455D01*
X134506206Y-74687664D01*
X134506202Y-74687671D01*
X134455908Y-74822517D01*
X134449501Y-74882116D01*
X134449501Y-74882123D01*
X134449500Y-74882135D01*
X134449500Y-76017769D01*
X134429815Y-76084808D01*
X134413181Y-76105450D01*
X133197715Y-77320916D01*
X133136392Y-77354401D01*
X133066700Y-77349417D01*
X133010767Y-77307545D01*
X132986350Y-77242081D01*
X132986034Y-77233235D01*
X132986034Y-62065890D01*
X132986035Y-62065887D01*
X132986034Y-62002695D01*
X132986152Y-61997291D01*
X132988910Y-61934108D01*
X132993111Y-61837860D01*
X134185034Y-61837860D01*
X134185034Y-62162139D01*
X134216818Y-62484857D01*
X134216821Y-62484874D01*
X134280079Y-62802902D01*
X134280082Y-62802913D01*
X134374220Y-63113247D01*
X134498320Y-63412849D01*
X134498322Y-63412854D01*
X134651180Y-63698830D01*
X134651191Y-63698848D01*
X134831345Y-63968467D01*
X134831355Y-63968481D01*
X135037080Y-64219158D01*
X135266375Y-64448453D01*
X135266380Y-64448457D01*
X135266381Y-64448458D01*
X135517058Y-64654183D01*
X135786692Y-64834347D01*
X135786701Y-64834352D01*
X135786703Y-64834353D01*
X136072679Y-64987211D01*
X136072681Y-64987211D01*
X136072687Y-64987215D01*
X136372288Y-65111314D01*
X136682611Y-65205449D01*
X136682617Y-65205450D01*
X136682620Y-65205451D01*
X136682631Y-65205454D01*
X136882062Y-65245122D01*
X137000666Y-65268714D01*
X137323391Y-65300500D01*
X137323394Y-65300500D01*
X137647674Y-65300500D01*
X137647677Y-65300500D01*
X137970402Y-65268714D01*
X138127829Y-65237399D01*
X138288436Y-65205454D01*
X138288447Y-65205451D01*
X138288447Y-65205450D01*
X138288457Y-65205449D01*
X138598780Y-65111314D01*
X138898381Y-64987215D01*
X139184376Y-64834347D01*
X139454010Y-64654183D01*
X139704687Y-64448458D01*
X139933992Y-64219153D01*
X140139717Y-63968476D01*
X140319881Y-63698842D01*
X140472749Y-63412847D01*
X140596848Y-63113246D01*
X140690983Y-62802923D01*
X140690985Y-62802913D01*
X140690988Y-62802902D01*
X140722933Y-62642295D01*
X140754248Y-62484868D01*
X140786034Y-62162143D01*
X140786034Y-61837860D01*
X212035034Y-61837860D01*
X212035034Y-62162139D01*
X212066818Y-62484857D01*
X212066821Y-62484874D01*
X212130079Y-62802902D01*
X212130082Y-62802913D01*
X212224220Y-63113247D01*
X212348320Y-63412849D01*
X212348322Y-63412854D01*
X212501180Y-63698830D01*
X212501191Y-63698848D01*
X212681345Y-63968467D01*
X212681355Y-63968481D01*
X212887080Y-64219158D01*
X213116375Y-64448453D01*
X213116380Y-64448457D01*
X213116381Y-64448458D01*
X213367058Y-64654183D01*
X213636692Y-64834347D01*
X213636701Y-64834352D01*
X213636703Y-64834353D01*
X213922679Y-64987211D01*
X213922681Y-64987211D01*
X213922687Y-64987215D01*
X214222288Y-65111314D01*
X214532611Y-65205449D01*
X214532617Y-65205450D01*
X214532620Y-65205451D01*
X214532631Y-65205454D01*
X214732062Y-65245122D01*
X214850666Y-65268714D01*
X215173391Y-65300500D01*
X215173394Y-65300500D01*
X215497674Y-65300500D01*
X215497677Y-65300500D01*
X215820402Y-65268714D01*
X215977829Y-65237399D01*
X216138436Y-65205454D01*
X216138447Y-65205451D01*
X216138447Y-65205450D01*
X216138457Y-65205449D01*
X216448780Y-65111314D01*
X216748381Y-64987215D01*
X217034376Y-64834347D01*
X217304010Y-64654183D01*
X217554687Y-64448458D01*
X217783992Y-64219153D01*
X217989717Y-63968476D01*
X218169881Y-63698842D01*
X218322749Y-63412847D01*
X218446848Y-63113246D01*
X218540983Y-62802923D01*
X218540985Y-62802913D01*
X218540988Y-62802902D01*
X218572933Y-62642295D01*
X218604248Y-62484868D01*
X218636034Y-62162143D01*
X218636034Y-61837857D01*
X218604248Y-61515132D01*
X218565245Y-61319049D01*
X218540988Y-61197097D01*
X218540985Y-61197086D01*
X218540984Y-61197083D01*
X218540983Y-61197077D01*
X218446848Y-60886754D01*
X218322749Y-60587153D01*
X218238301Y-60429163D01*
X218169887Y-60301169D01*
X218169886Y-60301167D01*
X218169881Y-60301158D01*
X217989717Y-60031524D01*
X217783992Y-59780847D01*
X217783991Y-59780846D01*
X217783987Y-59780841D01*
X217554692Y-59551546D01*
X217304015Y-59345821D01*
X217304014Y-59345820D01*
X217304010Y-59345817D01*
X217034376Y-59165653D01*
X217034371Y-59165650D01*
X217034364Y-59165646D01*
X216748388Y-59012788D01*
X216748383Y-59012786D01*
X216448781Y-58888686D01*
X216138447Y-58794548D01*
X216138436Y-58794545D01*
X215820408Y-58731287D01*
X215820391Y-58731284D01*
X215576346Y-58707248D01*
X215497677Y-58699500D01*
X215173391Y-58699500D01*
X215100633Y-58706666D01*
X214850676Y-58731284D01*
X214850659Y-58731287D01*
X214532631Y-58794545D01*
X214532620Y-58794548D01*
X214222286Y-58888686D01*
X213922684Y-59012786D01*
X213922679Y-59012788D01*
X213636703Y-59165646D01*
X213636685Y-59165657D01*
X213367066Y-59345811D01*
X213367052Y-59345821D01*
X213116375Y-59551546D01*
X212887080Y-59780841D01*
X212681355Y-60031518D01*
X212681345Y-60031532D01*
X212501191Y-60301151D01*
X212501180Y-60301169D01*
X212348322Y-60587145D01*
X212348320Y-60587150D01*
X212224220Y-60886752D01*
X212130082Y-61197086D01*
X212130079Y-61197097D01*
X212066821Y-61515125D01*
X212066818Y-61515142D01*
X212042200Y-61765099D01*
X212035867Y-61829406D01*
X212035034Y-61837860D01*
X140786034Y-61837860D01*
X140786034Y-61837857D01*
X140754248Y-61515132D01*
X140715245Y-61319049D01*
X140690988Y-61197097D01*
X140690985Y-61197086D01*
X140690984Y-61197083D01*
X140690983Y-61197077D01*
X140596848Y-60886754D01*
X140472749Y-60587153D01*
X140388301Y-60429163D01*
X140319887Y-60301169D01*
X140319886Y-60301167D01*
X140319881Y-60301158D01*
X140139717Y-60031524D01*
X139933992Y-59780847D01*
X139933991Y-59780846D01*
X139933987Y-59780841D01*
X139704692Y-59551546D01*
X139454015Y-59345821D01*
X139454014Y-59345820D01*
X139454010Y-59345817D01*
X139184376Y-59165653D01*
X139184371Y-59165650D01*
X139184364Y-59165646D01*
X138898388Y-59012788D01*
X138898383Y-59012786D01*
X138598781Y-58888686D01*
X138288447Y-58794548D01*
X138288436Y-58794545D01*
X137970408Y-58731287D01*
X137970391Y-58731284D01*
X137726346Y-58707248D01*
X137647677Y-58699500D01*
X137323391Y-58699500D01*
X137250633Y-58706666D01*
X137000676Y-58731284D01*
X137000659Y-58731287D01*
X136682631Y-58794545D01*
X136682620Y-58794548D01*
X136372286Y-58888686D01*
X136072684Y-59012786D01*
X136072679Y-59012788D01*
X135786703Y-59165646D01*
X135786685Y-59165657D01*
X135517066Y-59345811D01*
X135517052Y-59345821D01*
X135266375Y-59551546D01*
X135037080Y-59780841D01*
X134831355Y-60031518D01*
X134831345Y-60031532D01*
X134651191Y-60301151D01*
X134651180Y-60301169D01*
X134498322Y-60587145D01*
X134498320Y-60587150D01*
X134374220Y-60886752D01*
X134280082Y-61197086D01*
X134280079Y-61197097D01*
X134216821Y-61515125D01*
X134216818Y-61515142D01*
X134192200Y-61765099D01*
X134185867Y-61829406D01*
X134185034Y-61837860D01*
X132993111Y-61837860D01*
X133002916Y-61613240D01*
X133003859Y-61602466D01*
X133015357Y-61515125D01*
X133053680Y-61224013D01*
X133055550Y-61213405D01*
X133138172Y-60840705D01*
X133140969Y-60830270D01*
X133217625Y-60587145D01*
X133255748Y-60466228D01*
X133259448Y-60456065D01*
X133323607Y-60301169D01*
X133405523Y-60103403D01*
X133410080Y-60093631D01*
X133586344Y-59755026D01*
X133591737Y-59745685D01*
X133796844Y-59423728D01*
X133803034Y-59414889D01*
X134035406Y-59112056D01*
X134042356Y-59103773D01*
X134125731Y-59012785D01*
X134300256Y-58822323D01*
X134307871Y-58814709D01*
X134589311Y-58556816D01*
X134597579Y-58549878D01*
X134900425Y-58317498D01*
X134909265Y-58311308D01*
X135231222Y-58106199D01*
X135240567Y-58100804D01*
X135579163Y-57924543D01*
X135588941Y-57919984D01*
X135941602Y-57773909D01*
X135951765Y-57770210D01*
X136315826Y-57655424D01*
X136326229Y-57652637D01*
X136698932Y-57570013D01*
X136709555Y-57568140D01*
X137088001Y-57518319D01*
X137098774Y-57517377D01*
X137482690Y-57500617D01*
X137488095Y-57500500D01*
X137551422Y-57500501D01*
X137551426Y-57500500D01*
X215269638Y-57500500D01*
X215332824Y-57500500D01*
X215338233Y-57500618D01*
G37*
%TD.AperFunction*%
%TA.AperFunction,Conductor*%
G36*
X168794976Y-89100185D02*
G01*
X168815618Y-89116819D01*
X186583715Y-106884916D01*
X186617200Y-106946239D01*
X186620034Y-106972597D01*
X186620034Y-107323507D01*
X186659441Y-107521619D01*
X186659443Y-107521627D01*
X186682813Y-107578047D01*
X186690282Y-107647517D01*
X186659007Y-107709996D01*
X186598918Y-107745648D01*
X186568252Y-107749500D01*
X171335034Y-107749500D01*
X171267995Y-107729815D01*
X171222240Y-107677011D01*
X171211034Y-107625500D01*
X171211033Y-106399629D01*
X171211032Y-106399623D01*
X171211031Y-106399617D01*
X171204625Y-106340017D01*
X171196704Y-106318781D01*
X171154331Y-106205171D01*
X171154327Y-106205164D01*
X171068081Y-106089955D01*
X171068078Y-106089952D01*
X170952869Y-106003706D01*
X170952862Y-106003702D01*
X170818016Y-105953408D01*
X170818017Y-105953408D01*
X170758417Y-105947001D01*
X170758415Y-105947000D01*
X170758407Y-105947000D01*
X170758398Y-105947000D01*
X169612663Y-105947000D01*
X169612657Y-105947001D01*
X169553050Y-105953408D01*
X169418205Y-106003702D01*
X169418200Y-106003705D01*
X169416630Y-106004881D01*
X169414792Y-106005566D01*
X169410420Y-106007954D01*
X169410076Y-106007325D01*
X169351165Y-106029296D01*
X169294870Y-106020173D01*
X169214518Y-105986890D01*
X169214511Y-105986888D01*
X169165534Y-105977145D01*
X169165534Y-106341829D01*
X169164823Y-106355084D01*
X169160035Y-106399623D01*
X169160034Y-106399637D01*
X169160034Y-106811670D01*
X169145789Y-106797425D01*
X169060279Y-106748056D01*
X168964904Y-106722500D01*
X168866164Y-106722500D01*
X168770789Y-106748056D01*
X168685279Y-106797425D01*
X168665534Y-106817170D01*
X168665534Y-105977146D01*
X168665533Y-105977145D01*
X168616556Y-105986888D01*
X168616549Y-105986890D01*
X168430015Y-106064154D01*
X168430013Y-106064155D01*
X168349871Y-106117704D01*
X168283194Y-106138581D01*
X168215814Y-106120096D01*
X168212092Y-106117704D01*
X168131288Y-106063712D01*
X167944661Y-105986409D01*
X167944653Y-105986407D01*
X167746541Y-105947000D01*
X167746537Y-105947000D01*
X167544531Y-105947000D01*
X167544526Y-105947000D01*
X167346414Y-105986407D01*
X167346406Y-105986409D01*
X167159781Y-106063712D01*
X167159771Y-106063717D01*
X166991815Y-106175941D01*
X166848975Y-106318781D01*
X166736751Y-106486737D01*
X166736746Y-106486747D01*
X166659443Y-106673372D01*
X166659441Y-106673380D01*
X166620034Y-106871492D01*
X166620034Y-107323507D01*
X166659441Y-107521619D01*
X166659443Y-107521627D01*
X166682813Y-107578047D01*
X166690282Y-107647517D01*
X166659007Y-107709996D01*
X166598918Y-107745648D01*
X166568252Y-107749500D01*
X151335034Y-107749500D01*
X151267995Y-107729815D01*
X151222240Y-107677011D01*
X151211034Y-107625500D01*
X151211033Y-106399629D01*
X151211032Y-106399623D01*
X151211031Y-106399617D01*
X151204625Y-106340017D01*
X151196704Y-106318781D01*
X151154331Y-106205171D01*
X151154327Y-106205164D01*
X151068081Y-106089955D01*
X151068078Y-106089952D01*
X150952869Y-106003706D01*
X150952862Y-106003702D01*
X150818016Y-105953408D01*
X150818017Y-105953408D01*
X150758417Y-105947001D01*
X150758415Y-105947000D01*
X150758407Y-105947000D01*
X150758398Y-105947000D01*
X149612663Y-105947000D01*
X149612657Y-105947001D01*
X149553050Y-105953408D01*
X149418205Y-106003702D01*
X149418200Y-106003705D01*
X149416630Y-106004881D01*
X149414792Y-106005566D01*
X149410420Y-106007954D01*
X149410076Y-106007325D01*
X149351165Y-106029296D01*
X149294870Y-106020173D01*
X149214518Y-105986890D01*
X149214511Y-105986888D01*
X149165534Y-105977145D01*
X149165534Y-106341829D01*
X149164823Y-106355084D01*
X149160034Y-106399627D01*
X149160034Y-106811670D01*
X149145789Y-106797425D01*
X149060279Y-106748056D01*
X148964904Y-106722500D01*
X148866164Y-106722500D01*
X148770789Y-106748056D01*
X148685279Y-106797425D01*
X148665534Y-106817170D01*
X148665534Y-105977146D01*
X148665533Y-105977145D01*
X148616556Y-105986888D01*
X148616549Y-105986890D01*
X148430015Y-106064154D01*
X148430013Y-106064155D01*
X148349871Y-106117704D01*
X148283194Y-106138581D01*
X148215814Y-106120096D01*
X148212092Y-106117704D01*
X148131288Y-106063712D01*
X147944661Y-105986409D01*
X147944653Y-105986407D01*
X147746541Y-105947000D01*
X147746537Y-105947000D01*
X147544531Y-105947000D01*
X147544526Y-105947000D01*
X147346414Y-105986407D01*
X147346406Y-105986409D01*
X147159781Y-106063712D01*
X147159771Y-106063717D01*
X146991815Y-106175941D01*
X146848975Y-106318781D01*
X146736751Y-106486737D01*
X146736746Y-106486747D01*
X146659443Y-106673372D01*
X146659441Y-106673380D01*
X146620034Y-106871492D01*
X146620034Y-107323507D01*
X146659441Y-107521619D01*
X146659443Y-107521627D01*
X146682813Y-107578047D01*
X146690282Y-107647517D01*
X146659007Y-107709996D01*
X146598918Y-107745648D01*
X146568252Y-107749500D01*
X144182337Y-107749500D01*
X144115298Y-107729815D01*
X144094656Y-107713181D01*
X136409033Y-100027557D01*
X136375548Y-99966234D01*
X136380532Y-99896542D01*
X136422404Y-99840609D01*
X136440420Y-99829391D01*
X136449780Y-99824621D01*
X136507816Y-99795051D01*
X136559255Y-99757678D01*
X136679786Y-99670109D01*
X136679788Y-99670106D01*
X136679792Y-99670104D01*
X136830104Y-99519792D01*
X136830106Y-99519788D01*
X136830109Y-99519786D01*
X136955048Y-99347820D01*
X136955047Y-99347820D01*
X136955051Y-99347816D01*
X137051557Y-99158412D01*
X137117246Y-98956243D01*
X137150500Y-98746287D01*
X137150500Y-98533713D01*
X137117246Y-98323757D01*
X137051557Y-98121588D01*
X136955051Y-97932184D01*
X136955049Y-97932181D01*
X136955048Y-97932179D01*
X136830109Y-97760213D01*
X136679786Y-97609890D01*
X136507820Y-97484951D01*
X136507115Y-97484591D01*
X136499054Y-97480485D01*
X136448259Y-97432512D01*
X136431463Y-97364692D01*
X136453999Y-97298556D01*
X136499054Y-97259515D01*
X136507816Y-97255051D01*
X136529789Y-97239086D01*
X136679786Y-97130109D01*
X136679788Y-97130106D01*
X136679792Y-97130104D01*
X136830104Y-96979792D01*
X136830106Y-96979788D01*
X136830109Y-96979786D01*
X136955048Y-96807820D01*
X136955047Y-96807820D01*
X136955051Y-96807816D01*
X137051557Y-96618412D01*
X137117246Y-96416243D01*
X137150500Y-96206287D01*
X137150500Y-95993713D01*
X137117246Y-95783757D01*
X137051557Y-95581588D01*
X136955051Y-95392184D01*
X136955049Y-95392181D01*
X136955048Y-95392179D01*
X136830109Y-95220213D01*
X136679786Y-95069890D01*
X136507820Y-94944951D01*
X136507115Y-94944591D01*
X136499054Y-94940485D01*
X136448259Y-94892512D01*
X136431463Y-94824692D01*
X136453999Y-94758556D01*
X136499054Y-94719515D01*
X136507816Y-94715051D01*
X136529789Y-94699086D01*
X136679786Y-94590109D01*
X136679788Y-94590106D01*
X136679792Y-94590104D01*
X136830104Y-94439792D01*
X136830106Y-94439788D01*
X136830109Y-94439786D01*
X136955048Y-94267820D01*
X136955047Y-94267820D01*
X136955051Y-94267816D01*
X137051557Y-94078412D01*
X137117246Y-93876243D01*
X137150500Y-93666287D01*
X137150500Y-93453713D01*
X137117246Y-93243757D01*
X137051557Y-93041588D01*
X136955051Y-92852184D01*
X136955049Y-92852181D01*
X136955048Y-92852179D01*
X136830109Y-92680213D01*
X136679786Y-92529890D01*
X136507820Y-92404951D01*
X136507115Y-92404591D01*
X136499054Y-92400485D01*
X136448259Y-92352512D01*
X136431463Y-92284692D01*
X136453999Y-92218556D01*
X136499054Y-92179515D01*
X136507816Y-92175051D01*
X136529789Y-92159086D01*
X136679786Y-92050109D01*
X136679788Y-92050106D01*
X136679792Y-92050104D01*
X136830104Y-91899792D01*
X136830106Y-91899788D01*
X136830109Y-91899786D01*
X136955048Y-91727820D01*
X136955047Y-91727820D01*
X136955051Y-91727816D01*
X137051557Y-91538412D01*
X137117246Y-91336243D01*
X137150500Y-91126287D01*
X137150500Y-90913713D01*
X137117246Y-90703757D01*
X137051557Y-90501588D01*
X136955051Y-90312184D01*
X136955049Y-90312181D01*
X136955048Y-90312179D01*
X136830109Y-90140213D01*
X136679786Y-89989890D01*
X136507820Y-89864951D01*
X136507115Y-89864591D01*
X136499054Y-89860485D01*
X136448259Y-89812512D01*
X136431463Y-89744692D01*
X136453999Y-89678556D01*
X136499054Y-89639515D01*
X136507816Y-89635051D01*
X136529789Y-89619086D01*
X136679786Y-89510109D01*
X136679788Y-89510106D01*
X136679792Y-89510104D01*
X136830104Y-89359792D01*
X136830106Y-89359788D01*
X136830109Y-89359786D01*
X136888661Y-89279193D01*
X136955051Y-89187816D01*
X136955349Y-89187230D01*
X136975235Y-89148205D01*
X137023209Y-89097409D01*
X137085719Y-89080500D01*
X168727937Y-89080500D01*
X168794976Y-89100185D01*
G37*
%TD.AperFunction*%
%TA.AperFunction,Conductor*%
G36*
X204614976Y-104920185D02*
G01*
X204635618Y-104936819D01*
X206583715Y-106884916D01*
X206617200Y-106946239D01*
X206620034Y-106972597D01*
X206620034Y-107323507D01*
X206659441Y-107521619D01*
X206659443Y-107521627D01*
X206682813Y-107578047D01*
X206690282Y-107647517D01*
X206659007Y-107709996D01*
X206598918Y-107745648D01*
X206568252Y-107749500D01*
X191335034Y-107749500D01*
X191267995Y-107729815D01*
X191222240Y-107677011D01*
X191211034Y-107625500D01*
X191211033Y-106399629D01*
X191211032Y-106399623D01*
X191211031Y-106399617D01*
X191204625Y-106340017D01*
X191196704Y-106318781D01*
X191154331Y-106205171D01*
X191154327Y-106205164D01*
X191068081Y-106089955D01*
X191068078Y-106089952D01*
X190952869Y-106003706D01*
X190952862Y-106003702D01*
X190818016Y-105953408D01*
X190818017Y-105953408D01*
X190758417Y-105947001D01*
X190758415Y-105947000D01*
X190758407Y-105947000D01*
X190758398Y-105947000D01*
X189612663Y-105947000D01*
X189612657Y-105947001D01*
X189553050Y-105953408D01*
X189418205Y-106003702D01*
X189418200Y-106003705D01*
X189416630Y-106004881D01*
X189414792Y-106005566D01*
X189410420Y-106007954D01*
X189410076Y-106007325D01*
X189351165Y-106029296D01*
X189294870Y-106020173D01*
X189214518Y-105986890D01*
X189214511Y-105986888D01*
X189165534Y-105977145D01*
X189165534Y-106341829D01*
X189164823Y-106355084D01*
X189160035Y-106399623D01*
X189160034Y-106399637D01*
X189160034Y-106811670D01*
X189145789Y-106797425D01*
X189060279Y-106748056D01*
X188964904Y-106722500D01*
X188866164Y-106722500D01*
X188770789Y-106748056D01*
X188685279Y-106797425D01*
X188665534Y-106817170D01*
X188665534Y-105977146D01*
X188665533Y-105977145D01*
X188616556Y-105986888D01*
X188616549Y-105986890D01*
X188430015Y-106064154D01*
X188430013Y-106064155D01*
X188349871Y-106117704D01*
X188283194Y-106138581D01*
X188215814Y-106120096D01*
X188212092Y-106117704D01*
X188131288Y-106063712D01*
X187944661Y-105986409D01*
X187944653Y-105986407D01*
X187746541Y-105947000D01*
X187746537Y-105947000D01*
X187544531Y-105947000D01*
X187512315Y-105953408D01*
X187442498Y-105967295D01*
X187372907Y-105961066D01*
X187330627Y-105933358D01*
X186509450Y-105112181D01*
X186475965Y-105050858D01*
X186480949Y-104981166D01*
X186522821Y-104925233D01*
X186588285Y-104900816D01*
X186597131Y-104900500D01*
X204547937Y-104900500D01*
X204614976Y-104920185D01*
G37*
%TD.AperFunction*%
%TA.AperFunction,Conductor*%
G36*
X208526198Y-69474826D02*
G01*
X208602048Y-69506244D01*
X208656451Y-69550085D01*
X208678516Y-69616379D01*
X208661237Y-69684078D01*
X208642276Y-69708486D01*
X192787584Y-85563181D01*
X192726261Y-85596666D01*
X192699903Y-85599500D01*
X141440097Y-85599500D01*
X141373058Y-85579815D01*
X141352416Y-85563181D01*
X137133757Y-81344522D01*
X137100272Y-81283199D01*
X137103507Y-81218523D01*
X137117246Y-81176243D01*
X137150500Y-80966287D01*
X137150500Y-80753713D01*
X137117246Y-80543757D01*
X137051557Y-80341588D01*
X136955051Y-80152184D01*
X136955049Y-80152181D01*
X136955048Y-80152179D01*
X136830109Y-79980213D01*
X136679786Y-79829890D01*
X136507817Y-79704949D01*
X136498504Y-79700204D01*
X136447707Y-79652230D01*
X136430912Y-79584409D01*
X136453449Y-79518274D01*
X136498507Y-79479232D01*
X136507558Y-79474620D01*
X136679459Y-79349727D01*
X136679464Y-79349723D01*
X136829723Y-79199464D01*
X136829727Y-79199459D01*
X136954620Y-79027557D01*
X137051095Y-78838217D01*
X137116757Y-78636129D01*
X137116757Y-78636126D01*
X137127231Y-78570000D01*
X136233012Y-78570000D01*
X136265925Y-78512993D01*
X136300000Y-78385826D01*
X136300000Y-78254174D01*
X136265925Y-78127007D01*
X136233012Y-78070000D01*
X137127231Y-78070000D01*
X137116757Y-78003873D01*
X137116757Y-78003870D01*
X137051095Y-77801782D01*
X136954620Y-77612442D01*
X136829727Y-77440540D01*
X136829723Y-77440535D01*
X136716053Y-77326865D01*
X136682568Y-77265542D01*
X136687552Y-77195850D01*
X136729424Y-77139917D01*
X136760400Y-77123002D01*
X136892331Y-77073796D01*
X137007546Y-76987546D01*
X137093796Y-76872331D01*
X137144091Y-76737483D01*
X137150500Y-76677873D01*
X137150500Y-76654500D01*
X137170185Y-76587461D01*
X137222989Y-76541706D01*
X137274500Y-76530500D01*
X200326954Y-76530500D01*
X200424496Y-76511096D01*
X200471947Y-76501658D01*
X200608529Y-76445084D01*
X200657763Y-76412186D01*
X200731450Y-76362952D01*
X207510082Y-69584317D01*
X207571405Y-69550833D01*
X207597763Y-69547999D01*
X208208405Y-69547999D01*
X208208406Y-69547999D01*
X208268017Y-69541591D01*
X208402865Y-69491296D01*
X208404427Y-69490126D01*
X208406256Y-69489444D01*
X208410652Y-69487044D01*
X208410996Y-69487675D01*
X208469888Y-69465704D01*
X208526198Y-69474826D01*
G37*
%TD.AperFunction*%
%TD*%
M02*
