%TF.GenerationSoftware,KiCad,Pcbnew,9.0.0*%
%TF.CreationDate,2025-06-04T23:48:26+02:00*%
%TF.ProjectId,uv_controler,75765f63-6f6e-4747-926f-6c65722e6b69,rev?*%
%TF.SameCoordinates,Original*%
%TF.FileFunction,Soldermask,Top*%
%TF.FilePolarity,Negative*%
%FSLAX46Y46*%
G04 Gerber Fmt 4.6, Leading zero omitted, Abs format (unit mm)*
G04 Created by KiCad (PCBNEW 9.0.0) date 2025-06-04 23:48:26*
%MOMM*%
%LPD*%
G01*
G04 APERTURE LIST*
G04 Aperture macros list*
%AMRoundRect*
0 Rectangle with rounded corners*
0 $1 Rounding radius*
0 $2 $3 $4 $5 $6 $7 $8 $9 X,Y pos of 4 corners*
0 Add a 4 corners polygon primitive as box body*
4,1,4,$2,$3,$4,$5,$6,$7,$8,$9,$2,$3,0*
0 Add four circle primitives for the rounded corners*
1,1,$1+$1,$2,$3*
1,1,$1+$1,$4,$5*
1,1,$1+$1,$6,$7*
1,1,$1+$1,$8,$9*
0 Add four rect primitives between the rounded corners*
20,1,$1+$1,$2,$3,$4,$5,0*
20,1,$1+$1,$4,$5,$6,$7,0*
20,1,$1+$1,$6,$7,$8,$9,0*
20,1,$1+$1,$8,$9,$2,$3,0*%
G04 Aperture macros list end*
%ADD10O,1.050000X1.300000*%
%ADD11R,1.050000X1.300000*%
%ADD12RoundRect,0.237500X0.250000X0.237500X-0.250000X0.237500X-0.250000X-0.237500X0.250000X-0.237500X0*%
%ADD13C,5.600000*%
%ADD14O,1.700000X1.700000*%
%ADD15R,1.700000X1.700000*%
%ADD16RoundRect,0.237500X-0.250000X-0.237500X0.250000X-0.237500X0.250000X0.237500X-0.250000X0.237500X0*%
G04 APERTURE END LIST*
D10*
%TO.C,U8*%
X170175534Y-68397500D03*
X168905534Y-68397500D03*
D11*
X167635534Y-68397500D03*
%TD*%
D12*
%TO.C,R6*%
X167723034Y-102897500D03*
X169548034Y-102897500D03*
%TD*%
D13*
%TO.C,REF\u002A\u002A*%
X215335534Y-112000000D03*
%TD*%
D14*
%TO.C,J3*%
X135800000Y-98640000D03*
X135800000Y-96100000D03*
X135800000Y-93560000D03*
X135800000Y-91020000D03*
X135800000Y-88480000D03*
X135800000Y-85940000D03*
X135800000Y-83400000D03*
X135800000Y-80860000D03*
X135800000Y-78320000D03*
D15*
X135800000Y-75780000D03*
%TD*%
D10*
%TO.C,U3*%
X190175534Y-68397500D03*
X188905534Y-68397500D03*
D11*
X187635534Y-68397500D03*
%TD*%
D10*
%TO.C,U5*%
X210175534Y-68397500D03*
X208905534Y-68397500D03*
D11*
X207635534Y-68397500D03*
%TD*%
D10*
%TO.C,U4*%
X187645534Y-107097500D03*
X188915534Y-107097500D03*
D11*
X190185534Y-107097500D03*
%TD*%
D12*
%TO.C,R5*%
X147723034Y-102897500D03*
X149548034Y-102897500D03*
%TD*%
D16*
%TO.C,R4*%
X210048034Y-72897500D03*
X208223034Y-72897500D03*
%TD*%
D13*
%TO.C,REF\u002A\u002A*%
X137485534Y-112000000D03*
%TD*%
D10*
%TO.C,U6*%
X147645534Y-107097500D03*
X148915534Y-107097500D03*
D11*
X150185534Y-107097500D03*
%TD*%
D16*
%TO.C,R2*%
X190048034Y-72897500D03*
X188223034Y-72897500D03*
%TD*%
D10*
%TO.C,U7*%
X167645534Y-107097500D03*
X168915534Y-107097500D03*
D11*
X170185534Y-107097500D03*
%TD*%
D12*
%TO.C,R1*%
X207723034Y-102897500D03*
X209548034Y-102897500D03*
%TD*%
%TO.C,R3*%
X187635534Y-102897500D03*
X189460534Y-102897500D03*
%TD*%
D13*
%TO.C,REF\u002A\u002A*%
X137485534Y-62000000D03*
%TD*%
D16*
%TO.C,R7*%
X169960534Y-72897500D03*
X168135534Y-72897500D03*
%TD*%
D10*
%TO.C,U2*%
X207645534Y-107097500D03*
X208915534Y-107097500D03*
D11*
X210185534Y-107097500D03*
%TD*%
D13*
%TO.C,REF\u002A\u002A*%
X215335534Y-62000000D03*
%TD*%
M02*
